<?xml version="1.0" encoding="utf-8" standalone="no"?>
<!DOCTYPE svg PUBLIC "-//W3C//DTD SVG 1.1//EN"
  "http://www.w3.org/Graphics/SVG/1.1/DTD/svg11.dtd">
<!-- Created with matplotlib (https://matplotlib.org/) -->
<svg height="1800pt" version="1.1" viewBox="0 0 2520 1800" width="2520pt" xmlns="http://www.w3.org/2000/svg" xmlns:xlink="http://www.w3.org/1999/xlink">
 <defs>
  <style type="text/css">
*{stroke-linecap:butt;stroke-linejoin:round;}
  </style>
 </defs>
 <g id="figure_1">
  <g id="patch_1">
   <path d="M 0 1800 
L 2520 1800 
L 2520 0 
L 0 0 
z
" style="fill:#ffffff;"/>
  </g>
  <g id="axes_1">
   <g id="patch_2">
    <path d="M 157.55 1523.075 
L 2509.2 1523.075 
L 2509.2 27.1125 
L 157.55 27.1125 
z
" style="fill:#ffffff;"/>
   </g>
   <g id="patch_3">
    <path clip-path="url(#pd02c32cd01)" d="M 169.927105 1335.054122 
L 268.943947 1335.054122 
L 268.943947 1024.800246 
L 169.927105 1024.800246 
L 169.927105 1335.054122 
z
" style="fill:#ea96a3;stroke:#464646;stroke-linejoin:miter;stroke-width:1.5;"/>
   </g>
   <g id="patch_4">
    <path clip-path="url(#pd02c32cd01)" d="M 293.698158 1245.037185 
L 392.715 1245.037185 
L 392.715 825.816041 
L 293.698158 825.816041 
L 293.698158 1245.037185 
z
" style="fill:#e79680;stroke:#464646;stroke-linejoin:miter;stroke-width:1.5;"/>
   </g>
   <g id="patch_5">
    <path clip-path="url(#pd02c32cd01)" d="M 417.469211 1144.822829 
L 516.486053 1144.822829 
L 516.486053 757.296771 
L 417.469211 757.296771 
L 417.469211 1144.822829 
z
" style="fill:#d4954d;stroke:#464646;stroke-linejoin:miter;stroke-width:1.5;"/>
   </g>
   <g id="patch_6">
    <path clip-path="url(#pd02c32cd01)" d="M 541.240263 1060.931266 
L 640.257105 1060.931266 
L 640.257105 633.928793 
L 541.240263 633.928793 
L 541.240263 1060.931266 
z
" style="fill:#bc9b4a;stroke:#464646;stroke-linejoin:miter;stroke-width:1.5;"/>
   </g>
   <g id="patch_7">
    <path clip-path="url(#pd02c32cd01)" d="M 665.011316 947.918508 
L 764.028158 947.918508 
L 764.028158 527.768253 
L 665.011316 527.768253 
L 665.011316 947.918508 
z
" style="fill:#a79e46;stroke:#464646;stroke-linejoin:miter;stroke-width:1.5;"/>
   </g>
   <g id="patch_8">
    <path clip-path="url(#pd02c32cd01)" d="M 788.782368 872.009278 
L 887.799211 872.009278 
L 887.799211 536.336342 
L 788.782368 536.336342 
L 788.782368 872.009278 
z
" style="fill:#92a446;stroke:#464646;stroke-linejoin:miter;stroke-width:1.5;"/>
   </g>
   <g id="patch_9">
    <path clip-path="url(#pd02c32cd01)" d="M 912.553421 854.963791 
L 1011.570263 854.963791 
L 1011.570263 460.641331 
L 912.553421 460.641331 
L 912.553421 854.963791 
z
" style="fill:#73ab47;stroke:#464646;stroke-linejoin:miter;stroke-width:1.5;"/>
   </g>
   <g id="patch_10">
    <path clip-path="url(#pd02c32cd01)" d="M 1036.324474 847.20535 
L 1135.341316 847.20535 
L 1135.341316 532.555708 
L 1036.324474 532.555708 
L 1036.324474 847.20535 
z
" style="fill:#48af6c;stroke:#464646;stroke-linejoin:miter;stroke-width:1.5;"/>
   </g>
   <g id="patch_11">
    <path clip-path="url(#pd02c32cd01)" d="M 1160.095526 859.184229 
L 1259.112368 859.184229 
L 1259.112368 496.604437 
L 1160.095526 496.604437 
L 1160.095526 859.184229 
z
" style="fill:#4aad8c;stroke:#464646;stroke-linejoin:miter;stroke-width:1.5;"/>
   </g>
   <g id="patch_12">
    <path clip-path="url(#pd02c32cd01)" d="M 1283.866579 667.545686 
L 1382.883421 667.545686 
L 1382.883421 307.173701 
L 1283.866579 307.173701 
L 1283.866579 667.545686 
z
" style="fill:#4bac9d;stroke:#464646;stroke-linejoin:miter;stroke-width:1.5;"/>
   </g>
   <g id="patch_13">
    <path clip-path="url(#pd02c32cd01)" d="M 1407.637632 747.054163 
L 1506.654474 747.054163 
L 1506.654474 455.806971 
L 1407.637632 455.806971 
L 1407.637632 747.054163 
z
" style="fill:#4baaab;stroke:#464646;stroke-linejoin:miter;stroke-width:1.5;"/>
   </g>
   <g id="patch_14">
    <path clip-path="url(#pd02c32cd01)" d="M 1531.408684 740.836994 
L 1630.425526 740.836994 
L 1630.425526 411.091805 
L 1531.408684 411.091805 
L 1531.408684 740.836994 
z
" style="fill:#4fabbb;stroke:#464646;stroke-linejoin:miter;stroke-width:1.5;"/>
   </g>
   <g id="patch_15">
    <path clip-path="url(#pd02c32cd01)" d="M 1655.179737 550.042381 
L 1754.196579 550.042381 
L 1754.196579 318.362141 
L 1655.179737 318.362141 
L 1655.179737 550.042381 
z
" style="fill:#54acd1;stroke:#464646;stroke-linejoin:miter;stroke-width:1.5;"/>
   </g>
   <g id="patch_16">
    <path clip-path="url(#pd02c32cd01)" d="M 1778.950789 651.781904 
L 1877.967632 651.781904 
L 1877.967632 339.375001 
L 1778.950789 339.375001 
L 1778.950789 651.781904 
z
" style="fill:#84aee6;stroke:#464646;stroke-linejoin:miter;stroke-width:1.5;"/>
   </g>
   <g id="patch_17">
    <path clip-path="url(#pd02c32cd01)" d="M 1902.721842 540.953085 
L 2001.738684 540.953085 
L 2001.738684 378.017553 
L 1902.721842 378.017553 
L 1902.721842 540.953085 
z
" style="fill:#afaaeb;stroke:#464646;stroke-linejoin:miter;stroke-width:1.5;"/>
   </g>
   <g id="patch_18">
    <path clip-path="url(#pd02c32cd01)" d="M 2026.492895 729.612911 
L 2125.509737 729.612911 
L 2125.509737 729.612911 
L 2026.492895 729.612911 
L 2026.492895 729.612911 
z
" style="fill:#c99ee9;stroke:#464646;stroke-linejoin:miter;stroke-width:1.5;"/>
   </g>
   <g id="patch_19">
    <path clip-path="url(#pd02c32cd01)" d="M 2150.263947 216.865949 
L 2249.280789 216.865949 
L 2249.280789 204.936912 
L 2150.263947 204.936912 
L 2150.263947 216.865949 
z
" style="fill:#e38be7;stroke:#464646;stroke-linejoin:miter;stroke-width:1.5;"/>
   </g>
   <g id="patch_20">
    <path clip-path="url(#pd02c32cd01)" d="M 2274.035 586.304672 
L 2373.051842 586.304672 
L 2373.051842 586.304672 
L 2274.035 586.304672 
L 2274.035 586.304672 
z
" style="fill:#e88ecf;stroke:#464646;stroke-linejoin:miter;stroke-width:1.5;"/>
   </g>
   <g id="patch_21">
    <path clip-path="url(#pd02c32cd01)" d="M 2397.806053 95.110795 
L 2496.822895 95.110795 
L 2496.822895 95.110795 
L 2397.806053 95.110795 
L 2397.806053 95.110795 
z
" style="fill:#e992ba;stroke:#464646;stroke-linejoin:miter;stroke-width:1.5;"/>
   </g>
   <g id="matplotlib.axis_1">
    <g id="xtick_1">
     <g id="line2d_1">
      <defs>
       <path d="M 0 0 
L 0 3.5 
" id="mcf03b84012" style="stroke:#000000;stroke-width:0.8;"/>
      </defs>
      <g>
       <use style="stroke:#000000;stroke-width:0.8;" x="219.435526" xlink:href="#mcf03b84012" y="1523.075"/>
      </g>
     </g>
     <g id="text_1">
      <!-- 0.0 -->
      <defs>
       <path d="M 31.78125 66.40625 
Q 24.171875 66.40625 20.328125 58.90625 
Q 16.5 51.421875 16.5 36.375 
Q 16.5 21.390625 20.328125 13.890625 
Q 24.171875 6.390625 31.78125 6.390625 
Q 39.453125 6.390625 43.28125 13.890625 
Q 47.125 21.390625 47.125 36.375 
Q 47.125 51.421875 43.28125 58.90625 
Q 39.453125 66.40625 31.78125 66.40625 
z
M 31.78125 74.21875 
Q 44.046875 74.21875 50.515625 64.515625 
Q 56.984375 54.828125 56.984375 36.375 
Q 56.984375 17.96875 50.515625 8.265625 
Q 44.046875 -1.421875 31.78125 -1.421875 
Q 19.53125 -1.421875 13.0625 8.265625 
Q 6.59375 17.96875 6.59375 36.375 
Q 6.59375 54.828125 13.0625 64.515625 
Q 19.53125 74.21875 31.78125 74.21875 
z
" id="DejaVuSans-48"/>
       <path d="M 10.6875 12.40625 
L 21 12.40625 
L 21 0 
L 10.6875 0 
z
" id="DejaVuSans-46"/>
      </defs>
      <g transform="translate(240.130839 1649.348437)rotate(-90)scale(0.75 -0.75)">
       <use xlink:href="#DejaVuSans-48"/>
       <use x="63.623047" xlink:href="#DejaVuSans-46"/>
       <use x="95.410156" xlink:href="#DejaVuSans-48"/>
      </g>
     </g>
    </g>
    <g id="xtick_2">
     <g id="line2d_2">
      <g>
       <use style="stroke:#000000;stroke-width:0.8;" x="343.206579" xlink:href="#mcf03b84012" y="1523.075"/>
      </g>
     </g>
     <g id="text_2">
      <!-- 0.5 -->
      <defs>
       <path d="M 10.796875 72.90625 
L 49.515625 72.90625 
L 49.515625 64.59375 
L 19.828125 64.59375 
L 19.828125 46.734375 
Q 21.96875 47.46875 24.109375 47.828125 
Q 26.265625 48.1875 28.421875 48.1875 
Q 40.625 48.1875 47.75 41.5 
Q 54.890625 34.8125 54.890625 23.390625 
Q 54.890625 11.625 47.5625 5.09375 
Q 40.234375 -1.421875 26.90625 -1.421875 
Q 22.3125 -1.421875 17.546875 -0.640625 
Q 12.796875 0.140625 7.71875 1.703125 
L 7.71875 11.625 
Q 12.109375 9.234375 16.796875 8.0625 
Q 21.484375 6.890625 26.703125 6.890625 
Q 35.15625 6.890625 40.078125 11.328125 
Q 45.015625 15.765625 45.015625 23.390625 
Q 45.015625 31 40.078125 35.4375 
Q 35.15625 39.890625 26.703125 39.890625 
Q 22.75 39.890625 18.8125 39.015625 
Q 14.890625 38.140625 10.796875 36.28125 
z
" id="DejaVuSans-53"/>
      </defs>
      <g transform="translate(363.901891 1649.348437)rotate(-90)scale(0.75 -0.75)">
       <use xlink:href="#DejaVuSans-48"/>
       <use x="63.623047" xlink:href="#DejaVuSans-46"/>
       <use x="95.410156" xlink:href="#DejaVuSans-53"/>
      </g>
     </g>
    </g>
    <g id="xtick_3">
     <g id="line2d_3">
      <g>
       <use style="stroke:#000000;stroke-width:0.8;" x="466.977632" xlink:href="#mcf03b84012" y="1523.075"/>
      </g>
     </g>
     <g id="text_3">
      <!-- 1.0 -->
      <defs>
       <path d="M 12.40625 8.296875 
L 28.515625 8.296875 
L 28.515625 63.921875 
L 10.984375 60.40625 
L 10.984375 69.390625 
L 28.421875 72.90625 
L 38.28125 72.90625 
L 38.28125 8.296875 
L 54.390625 8.296875 
L 54.390625 0 
L 12.40625 0 
z
" id="DejaVuSans-49"/>
      </defs>
      <g transform="translate(487.672944 1649.348437)rotate(-90)scale(0.75 -0.75)">
       <use xlink:href="#DejaVuSans-49"/>
       <use x="63.623047" xlink:href="#DejaVuSans-46"/>
       <use x="95.410156" xlink:href="#DejaVuSans-48"/>
      </g>
     </g>
    </g>
    <g id="xtick_4">
     <g id="line2d_4">
      <g>
       <use style="stroke:#000000;stroke-width:0.8;" x="590.748684" xlink:href="#mcf03b84012" y="1523.075"/>
      </g>
     </g>
     <g id="text_4">
      <!-- 2.0 -->
      <defs>
       <path d="M 19.1875 8.296875 
L 53.609375 8.296875 
L 53.609375 0 
L 7.328125 0 
L 7.328125 8.296875 
Q 12.9375 14.109375 22.625 23.890625 
Q 32.328125 33.6875 34.8125 36.53125 
Q 39.546875 41.84375 41.421875 45.53125 
Q 43.3125 49.21875 43.3125 52.78125 
Q 43.3125 58.59375 39.234375 62.25 
Q 35.15625 65.921875 28.609375 65.921875 
Q 23.96875 65.921875 18.8125 64.3125 
Q 13.671875 62.703125 7.8125 59.421875 
L 7.8125 69.390625 
Q 13.765625 71.78125 18.9375 73 
Q 24.125 74.21875 28.421875 74.21875 
Q 39.75 74.21875 46.484375 68.546875 
Q 53.21875 62.890625 53.21875 53.421875 
Q 53.21875 48.921875 51.53125 44.890625 
Q 49.859375 40.875 45.40625 35.40625 
Q 44.1875 33.984375 37.640625 27.21875 
Q 31.109375 20.453125 19.1875 8.296875 
z
" id="DejaVuSans-50"/>
      </defs>
      <g transform="translate(611.443997 1649.348437)rotate(-90)scale(0.75 -0.75)">
       <use xlink:href="#DejaVuSans-50"/>
       <use x="63.623047" xlink:href="#DejaVuSans-46"/>
       <use x="95.410156" xlink:href="#DejaVuSans-48"/>
      </g>
     </g>
    </g>
    <g id="xtick_5">
     <g id="line2d_5">
      <g>
       <use style="stroke:#000000;stroke-width:0.8;" x="714.519737" xlink:href="#mcf03b84012" y="1523.075"/>
      </g>
     </g>
     <g id="text_5">
      <!-- 3.0 -->
      <defs>
       <path d="M 40.578125 39.3125 
Q 47.65625 37.796875 51.625 33 
Q 55.609375 28.21875 55.609375 21.1875 
Q 55.609375 10.40625 48.1875 4.484375 
Q 40.765625 -1.421875 27.09375 -1.421875 
Q 22.515625 -1.421875 17.65625 -0.515625 
Q 12.796875 0.390625 7.625 2.203125 
L 7.625 11.71875 
Q 11.71875 9.328125 16.59375 8.109375 
Q 21.484375 6.890625 26.8125 6.890625 
Q 36.078125 6.890625 40.9375 10.546875 
Q 45.796875 14.203125 45.796875 21.1875 
Q 45.796875 27.640625 41.28125 31.265625 
Q 36.765625 34.90625 28.71875 34.90625 
L 20.21875 34.90625 
L 20.21875 43.015625 
L 29.109375 43.015625 
Q 36.375 43.015625 40.234375 45.921875 
Q 44.09375 48.828125 44.09375 54.296875 
Q 44.09375 59.90625 40.109375 62.90625 
Q 36.140625 65.921875 28.71875 65.921875 
Q 24.65625 65.921875 20.015625 65.03125 
Q 15.375 64.15625 9.8125 62.3125 
L 9.8125 71.09375 
Q 15.4375 72.65625 20.34375 73.4375 
Q 25.25 74.21875 29.59375 74.21875 
Q 40.828125 74.21875 47.359375 69.109375 
Q 53.90625 64.015625 53.90625 55.328125 
Q 53.90625 49.265625 50.4375 45.09375 
Q 46.96875 40.921875 40.578125 39.3125 
z
" id="DejaVuSans-51"/>
      </defs>
      <g transform="translate(735.215049 1649.348437)rotate(-90)scale(0.75 -0.75)">
       <use xlink:href="#DejaVuSans-51"/>
       <use x="63.623047" xlink:href="#DejaVuSans-46"/>
       <use x="95.410156" xlink:href="#DejaVuSans-48"/>
      </g>
     </g>
    </g>
    <g id="xtick_6">
     <g id="line2d_6">
      <g>
       <use style="stroke:#000000;stroke-width:0.8;" x="838.290789" xlink:href="#mcf03b84012" y="1523.075"/>
      </g>
     </g>
     <g id="text_6">
      <!-- 4.0 -->
      <defs>
       <path d="M 37.796875 64.3125 
L 12.890625 25.390625 
L 37.796875 25.390625 
z
M 35.203125 72.90625 
L 47.609375 72.90625 
L 47.609375 25.390625 
L 58.015625 25.390625 
L 58.015625 17.1875 
L 47.609375 17.1875 
L 47.609375 0 
L 37.796875 0 
L 37.796875 17.1875 
L 4.890625 17.1875 
L 4.890625 26.703125 
z
" id="DejaVuSans-52"/>
      </defs>
      <g transform="translate(858.986102 1649.348437)rotate(-90)scale(0.75 -0.75)">
       <use xlink:href="#DejaVuSans-52"/>
       <use x="63.623047" xlink:href="#DejaVuSans-46"/>
       <use x="95.410156" xlink:href="#DejaVuSans-48"/>
      </g>
     </g>
    </g>
    <g id="xtick_7">
     <g id="line2d_7">
      <g>
       <use style="stroke:#000000;stroke-width:0.8;" x="962.061842" xlink:href="#mcf03b84012" y="1523.075"/>
      </g>
     </g>
     <g id="text_7">
      <!-- 5.0 -->
      <g transform="translate(982.757155 1649.348437)rotate(-90)scale(0.75 -0.75)">
       <use xlink:href="#DejaVuSans-53"/>
       <use x="63.623047" xlink:href="#DejaVuSans-46"/>
       <use x="95.410156" xlink:href="#DejaVuSans-48"/>
      </g>
     </g>
    </g>
    <g id="xtick_8">
     <g id="line2d_8">
      <g>
       <use style="stroke:#000000;stroke-width:0.8;" x="1085.832895" xlink:href="#mcf03b84012" y="1523.075"/>
      </g>
     </g>
     <g id="text_8">
      <!-- 6.0 -->
      <defs>
       <path d="M 33.015625 40.375 
Q 26.375 40.375 22.484375 35.828125 
Q 18.609375 31.296875 18.609375 23.390625 
Q 18.609375 15.53125 22.484375 10.953125 
Q 26.375 6.390625 33.015625 6.390625 
Q 39.65625 6.390625 43.53125 10.953125 
Q 47.40625 15.53125 47.40625 23.390625 
Q 47.40625 31.296875 43.53125 35.828125 
Q 39.65625 40.375 33.015625 40.375 
z
M 52.59375 71.296875 
L 52.59375 62.3125 
Q 48.875 64.0625 45.09375 64.984375 
Q 41.3125 65.921875 37.59375 65.921875 
Q 27.828125 65.921875 22.671875 59.328125 
Q 17.53125 52.734375 16.796875 39.40625 
Q 19.671875 43.65625 24.015625 45.921875 
Q 28.375 48.1875 33.59375 48.1875 
Q 44.578125 48.1875 50.953125 41.515625 
Q 57.328125 34.859375 57.328125 23.390625 
Q 57.328125 12.15625 50.6875 5.359375 
Q 44.046875 -1.421875 33.015625 -1.421875 
Q 20.359375 -1.421875 13.671875 8.265625 
Q 6.984375 17.96875 6.984375 36.375 
Q 6.984375 53.65625 15.1875 63.9375 
Q 23.390625 74.21875 37.203125 74.21875 
Q 40.921875 74.21875 44.703125 73.484375 
Q 48.484375 72.75 52.59375 71.296875 
z
" id="DejaVuSans-54"/>
      </defs>
      <g transform="translate(1106.528207 1649.348437)rotate(-90)scale(0.75 -0.75)">
       <use xlink:href="#DejaVuSans-54"/>
       <use x="63.623047" xlink:href="#DejaVuSans-46"/>
       <use x="95.410156" xlink:href="#DejaVuSans-48"/>
      </g>
     </g>
    </g>
    <g id="xtick_9">
     <g id="line2d_9">
      <g>
       <use style="stroke:#000000;stroke-width:0.8;" x="1209.603947" xlink:href="#mcf03b84012" y="1523.075"/>
      </g>
     </g>
     <g id="text_9">
      <!-- 7.0 -->
      <defs>
       <path d="M 8.203125 72.90625 
L 55.078125 72.90625 
L 55.078125 68.703125 
L 28.609375 0 
L 18.3125 0 
L 43.21875 64.59375 
L 8.203125 64.59375 
z
" id="DejaVuSans-55"/>
      </defs>
      <g transform="translate(1230.29926 1649.348437)rotate(-90)scale(0.75 -0.75)">
       <use xlink:href="#DejaVuSans-55"/>
       <use x="63.623047" xlink:href="#DejaVuSans-46"/>
       <use x="95.410156" xlink:href="#DejaVuSans-48"/>
      </g>
     </g>
    </g>
    <g id="xtick_10">
     <g id="line2d_10">
      <g>
       <use style="stroke:#000000;stroke-width:0.8;" x="1333.375" xlink:href="#mcf03b84012" y="1523.075"/>
      </g>
     </g>
     <g id="text_10">
      <!-- 8.0 -->
      <defs>
       <path d="M 31.78125 34.625 
Q 24.75 34.625 20.71875 30.859375 
Q 16.703125 27.09375 16.703125 20.515625 
Q 16.703125 13.921875 20.71875 10.15625 
Q 24.75 6.390625 31.78125 6.390625 
Q 38.8125 6.390625 42.859375 10.171875 
Q 46.921875 13.96875 46.921875 20.515625 
Q 46.921875 27.09375 42.890625 30.859375 
Q 38.875 34.625 31.78125 34.625 
z
M 21.921875 38.8125 
Q 15.578125 40.375 12.03125 44.71875 
Q 8.5 49.078125 8.5 55.328125 
Q 8.5 64.0625 14.71875 69.140625 
Q 20.953125 74.21875 31.78125 74.21875 
Q 42.671875 74.21875 48.875 69.140625 
Q 55.078125 64.0625 55.078125 55.328125 
Q 55.078125 49.078125 51.53125 44.71875 
Q 48 40.375 41.703125 38.8125 
Q 48.828125 37.15625 52.796875 32.3125 
Q 56.78125 27.484375 56.78125 20.515625 
Q 56.78125 9.90625 50.3125 4.234375 
Q 43.84375 -1.421875 31.78125 -1.421875 
Q 19.734375 -1.421875 13.25 4.234375 
Q 6.78125 9.90625 6.78125 20.515625 
Q 6.78125 27.484375 10.78125 32.3125 
Q 14.796875 37.15625 21.921875 38.8125 
z
M 18.3125 54.390625 
Q 18.3125 48.734375 21.84375 45.5625 
Q 25.390625 42.390625 31.78125 42.390625 
Q 38.140625 42.390625 41.71875 45.5625 
Q 45.3125 48.734375 45.3125 54.390625 
Q 45.3125 60.0625 41.71875 63.234375 
Q 38.140625 66.40625 31.78125 66.40625 
Q 25.390625 66.40625 21.84375 63.234375 
Q 18.3125 60.0625 18.3125 54.390625 
z
" id="DejaVuSans-56"/>
      </defs>
      <g transform="translate(1354.070312 1649.348437)rotate(-90)scale(0.75 -0.75)">
       <use xlink:href="#DejaVuSans-56"/>
       <use x="63.623047" xlink:href="#DejaVuSans-46"/>
       <use x="95.410156" xlink:href="#DejaVuSans-48"/>
      </g>
     </g>
    </g>
    <g id="xtick_11">
     <g id="line2d_11">
      <g>
       <use style="stroke:#000000;stroke-width:0.8;" x="1457.146053" xlink:href="#mcf03b84012" y="1523.075"/>
      </g>
     </g>
     <g id="text_11">
      <!-- 9.0 -->
      <defs>
       <path d="M 10.984375 1.515625 
L 10.984375 10.5 
Q 14.703125 8.734375 18.5 7.8125 
Q 22.3125 6.890625 25.984375 6.890625 
Q 35.75 6.890625 40.890625 13.453125 
Q 46.046875 20.015625 46.78125 33.40625 
Q 43.953125 29.203125 39.59375 26.953125 
Q 35.25 24.703125 29.984375 24.703125 
Q 19.046875 24.703125 12.671875 31.3125 
Q 6.296875 37.9375 6.296875 49.421875 
Q 6.296875 60.640625 12.9375 67.421875 
Q 19.578125 74.21875 30.609375 74.21875 
Q 43.265625 74.21875 49.921875 64.515625 
Q 56.59375 54.828125 56.59375 36.375 
Q 56.59375 19.140625 48.40625 8.859375 
Q 40.234375 -1.421875 26.421875 -1.421875 
Q 22.703125 -1.421875 18.890625 -0.6875 
Q 15.09375 0.046875 10.984375 1.515625 
z
M 30.609375 32.421875 
Q 37.25 32.421875 41.125 36.953125 
Q 45.015625 41.5 45.015625 49.421875 
Q 45.015625 57.28125 41.125 61.84375 
Q 37.25 66.40625 30.609375 66.40625 
Q 23.96875 66.40625 20.09375 61.84375 
Q 16.21875 57.28125 16.21875 49.421875 
Q 16.21875 41.5 20.09375 36.953125 
Q 23.96875 32.421875 30.609375 32.421875 
z
" id="DejaVuSans-57"/>
      </defs>
      <g transform="translate(1477.841365 1649.348437)rotate(-90)scale(0.75 -0.75)">
       <use xlink:href="#DejaVuSans-57"/>
       <use x="63.623047" xlink:href="#DejaVuSans-46"/>
       <use x="95.410156" xlink:href="#DejaVuSans-48"/>
      </g>
     </g>
    </g>
    <g id="xtick_12">
     <g id="line2d_12">
      <g>
       <use style="stroke:#000000;stroke-width:0.8;" x="1580.917105" xlink:href="#mcf03b84012" y="1523.075"/>
      </g>
     </g>
     <g id="text_12">
      <!-- 10.0 -->
      <g transform="translate(1601.612418 1697.067187)rotate(-90)scale(0.75 -0.75)">
       <use xlink:href="#DejaVuSans-49"/>
       <use x="63.623047" xlink:href="#DejaVuSans-48"/>
       <use x="127.246094" xlink:href="#DejaVuSans-46"/>
       <use x="159.033203" xlink:href="#DejaVuSans-48"/>
      </g>
     </g>
    </g>
    <g id="xtick_13">
     <g id="line2d_13">
      <g>
       <use style="stroke:#000000;stroke-width:0.8;" x="1704.688158" xlink:href="#mcf03b84012" y="1523.075"/>
      </g>
     </g>
     <g id="text_13">
      <!-- 11.0 -->
      <g transform="translate(1725.38347 1697.067187)rotate(-90)scale(0.75 -0.75)">
       <use xlink:href="#DejaVuSans-49"/>
       <use x="63.623047" xlink:href="#DejaVuSans-49"/>
       <use x="127.246094" xlink:href="#DejaVuSans-46"/>
       <use x="159.033203" xlink:href="#DejaVuSans-48"/>
      </g>
     </g>
    </g>
    <g id="xtick_14">
     <g id="line2d_14">
      <g>
       <use style="stroke:#000000;stroke-width:0.8;" x="1828.459211" xlink:href="#mcf03b84012" y="1523.075"/>
      </g>
     </g>
     <g id="text_14">
      <!-- 12.0 -->
      <g transform="translate(1849.154523 1697.067187)rotate(-90)scale(0.75 -0.75)">
       <use xlink:href="#DejaVuSans-49"/>
       <use x="63.623047" xlink:href="#DejaVuSans-50"/>
       <use x="127.246094" xlink:href="#DejaVuSans-46"/>
       <use x="159.033203" xlink:href="#DejaVuSans-48"/>
      </g>
     </g>
    </g>
    <g id="xtick_15">
     <g id="line2d_15">
      <g>
       <use style="stroke:#000000;stroke-width:0.8;" x="1952.230263" xlink:href="#mcf03b84012" y="1523.075"/>
      </g>
     </g>
     <g id="text_15">
      <!-- 13.0 -->
      <g transform="translate(1972.925576 1697.067187)rotate(-90)scale(0.75 -0.75)">
       <use xlink:href="#DejaVuSans-49"/>
       <use x="63.623047" xlink:href="#DejaVuSans-51"/>
       <use x="127.246094" xlink:href="#DejaVuSans-46"/>
       <use x="159.033203" xlink:href="#DejaVuSans-48"/>
      </g>
     </g>
    </g>
    <g id="xtick_16">
     <g id="line2d_16">
      <g>
       <use style="stroke:#000000;stroke-width:0.8;" x="2076.001316" xlink:href="#mcf03b84012" y="1523.075"/>
      </g>
     </g>
     <g id="text_16">
      <!-- 16.0 -->
      <g transform="translate(2096.696628 1697.067187)rotate(-90)scale(0.75 -0.75)">
       <use xlink:href="#DejaVuSans-49"/>
       <use x="63.623047" xlink:href="#DejaVuSans-54"/>
       <use x="127.246094" xlink:href="#DejaVuSans-46"/>
       <use x="159.033203" xlink:href="#DejaVuSans-48"/>
      </g>
     </g>
    </g>
    <g id="xtick_17">
     <g id="line2d_17">
      <g>
       <use style="stroke:#000000;stroke-width:0.8;" x="2199.772368" xlink:href="#mcf03b84012" y="1523.075"/>
      </g>
     </g>
     <g id="text_17">
      <!-- 17.0 -->
      <g transform="translate(2220.467681 1697.067187)rotate(-90)scale(0.75 -0.75)">
       <use xlink:href="#DejaVuSans-49"/>
       <use x="63.623047" xlink:href="#DejaVuSans-55"/>
       <use x="127.246094" xlink:href="#DejaVuSans-46"/>
       <use x="159.033203" xlink:href="#DejaVuSans-48"/>
      </g>
     </g>
    </g>
    <g id="xtick_18">
     <g id="line2d_18">
      <g>
       <use style="stroke:#000000;stroke-width:0.8;" x="2323.543421" xlink:href="#mcf03b84012" y="1523.075"/>
      </g>
     </g>
     <g id="text_18">
      <!-- 18.0 -->
      <g transform="translate(2344.238734 1697.067187)rotate(-90)scale(0.75 -0.75)">
       <use xlink:href="#DejaVuSans-49"/>
       <use x="63.623047" xlink:href="#DejaVuSans-56"/>
       <use x="127.246094" xlink:href="#DejaVuSans-46"/>
       <use x="159.033203" xlink:href="#DejaVuSans-48"/>
      </g>
     </g>
    </g>
    <g id="xtick_19">
     <g id="line2d_19">
      <g>
       <use style="stroke:#000000;stroke-width:0.8;" x="2447.314474" xlink:href="#mcf03b84012" y="1523.075"/>
      </g>
     </g>
     <g id="text_19">
      <!-- 19.0 -->
      <g transform="translate(2468.009786 1697.067187)rotate(-90)scale(0.75 -0.75)">
       <use xlink:href="#DejaVuSans-49"/>
       <use x="63.623047" xlink:href="#DejaVuSans-57"/>
       <use x="127.246094" xlink:href="#DejaVuSans-46"/>
       <use x="159.033203" xlink:href="#DejaVuSans-48"/>
      </g>
     </g>
    </g>
    <g id="text_20">
     <!-- Prague C length (cm) -->
     <defs>
      <path d="M 19.671875 64.796875 
L 19.671875 37.40625 
L 32.078125 37.40625 
Q 38.96875 37.40625 42.71875 40.96875 
Q 46.484375 44.53125 46.484375 51.125 
Q 46.484375 57.671875 42.71875 61.234375 
Q 38.96875 64.796875 32.078125 64.796875 
z
M 9.8125 72.90625 
L 32.078125 72.90625 
Q 44.34375 72.90625 50.609375 67.359375 
Q 56.890625 61.8125 56.890625 51.125 
Q 56.890625 40.328125 50.609375 34.8125 
Q 44.34375 29.296875 32.078125 29.296875 
L 19.671875 29.296875 
L 19.671875 0 
L 9.8125 0 
z
" id="DejaVuSans-80"/>
      <path d="M 41.109375 46.296875 
Q 39.59375 47.171875 37.8125 47.578125 
Q 36.03125 48 33.890625 48 
Q 26.265625 48 22.1875 43.046875 
Q 18.109375 38.09375 18.109375 28.8125 
L 18.109375 0 
L 9.078125 0 
L 9.078125 54.6875 
L 18.109375 54.6875 
L 18.109375 46.1875 
Q 20.953125 51.171875 25.484375 53.578125 
Q 30.03125 56 36.53125 56 
Q 37.453125 56 38.578125 55.875 
Q 39.703125 55.765625 41.0625 55.515625 
z
" id="DejaVuSans-114"/>
      <path d="M 34.28125 27.484375 
Q 23.390625 27.484375 19.1875 25 
Q 14.984375 22.515625 14.984375 16.5 
Q 14.984375 11.71875 18.140625 8.90625 
Q 21.296875 6.109375 26.703125 6.109375 
Q 34.1875 6.109375 38.703125 11.40625 
Q 43.21875 16.703125 43.21875 25.484375 
L 43.21875 27.484375 
z
M 52.203125 31.203125 
L 52.203125 0 
L 43.21875 0 
L 43.21875 8.296875 
Q 40.140625 3.328125 35.546875 0.953125 
Q 30.953125 -1.421875 24.3125 -1.421875 
Q 15.921875 -1.421875 10.953125 3.296875 
Q 6 8.015625 6 15.921875 
Q 6 25.140625 12.171875 29.828125 
Q 18.359375 34.515625 30.609375 34.515625 
L 43.21875 34.515625 
L 43.21875 35.40625 
Q 43.21875 41.609375 39.140625 45 
Q 35.0625 48.390625 27.6875 48.390625 
Q 23 48.390625 18.546875 47.265625 
Q 14.109375 46.140625 10.015625 43.890625 
L 10.015625 52.203125 
Q 14.9375 54.109375 19.578125 55.046875 
Q 24.21875 56 28.609375 56 
Q 40.484375 56 46.34375 49.84375 
Q 52.203125 43.703125 52.203125 31.203125 
z
" id="DejaVuSans-97"/>
      <path d="M 45.40625 27.984375 
Q 45.40625 37.75 41.375 43.109375 
Q 37.359375 48.484375 30.078125 48.484375 
Q 22.859375 48.484375 18.828125 43.109375 
Q 14.796875 37.75 14.796875 27.984375 
Q 14.796875 18.265625 18.828125 12.890625 
Q 22.859375 7.515625 30.078125 7.515625 
Q 37.359375 7.515625 41.375 12.890625 
Q 45.40625 18.265625 45.40625 27.984375 
z
M 54.390625 6.78125 
Q 54.390625 -7.171875 48.1875 -13.984375 
Q 42 -20.796875 29.203125 -20.796875 
Q 24.46875 -20.796875 20.265625 -20.09375 
Q 16.0625 -19.390625 12.109375 -17.921875 
L 12.109375 -9.1875 
Q 16.0625 -11.328125 19.921875 -12.34375 
Q 23.78125 -13.375 27.78125 -13.375 
Q 36.625 -13.375 41.015625 -8.765625 
Q 45.40625 -4.15625 45.40625 5.171875 
L 45.40625 9.625 
Q 42.625 4.78125 38.28125 2.390625 
Q 33.9375 0 27.875 0 
Q 17.828125 0 11.671875 7.65625 
Q 5.515625 15.328125 5.515625 27.984375 
Q 5.515625 40.671875 11.671875 48.328125 
Q 17.828125 56 27.875 56 
Q 33.9375 56 38.28125 53.609375 
Q 42.625 51.21875 45.40625 46.390625 
L 45.40625 54.6875 
L 54.390625 54.6875 
z
" id="DejaVuSans-103"/>
      <path d="M 8.5 21.578125 
L 8.5 54.6875 
L 17.484375 54.6875 
L 17.484375 21.921875 
Q 17.484375 14.15625 20.5 10.265625 
Q 23.53125 6.390625 29.59375 6.390625 
Q 36.859375 6.390625 41.078125 11.03125 
Q 45.3125 15.671875 45.3125 23.6875 
L 45.3125 54.6875 
L 54.296875 54.6875 
L 54.296875 0 
L 45.3125 0 
L 45.3125 8.40625 
Q 42.046875 3.421875 37.71875 1 
Q 33.40625 -1.421875 27.6875 -1.421875 
Q 18.265625 -1.421875 13.375 4.4375 
Q 8.5 10.296875 8.5 21.578125 
z
M 31.109375 56 
z
" id="DejaVuSans-117"/>
      <path d="M 56.203125 29.59375 
L 56.203125 25.203125 
L 14.890625 25.203125 
Q 15.484375 15.921875 20.484375 11.0625 
Q 25.484375 6.203125 34.421875 6.203125 
Q 39.59375 6.203125 44.453125 7.46875 
Q 49.3125 8.734375 54.109375 11.28125 
L 54.109375 2.78125 
Q 49.265625 0.734375 44.1875 -0.34375 
Q 39.109375 -1.421875 33.890625 -1.421875 
Q 20.796875 -1.421875 13.15625 6.1875 
Q 5.515625 13.8125 5.515625 26.8125 
Q 5.515625 40.234375 12.765625 48.109375 
Q 20.015625 56 32.328125 56 
Q 43.359375 56 49.78125 48.890625 
Q 56.203125 41.796875 56.203125 29.59375 
z
M 47.21875 32.234375 
Q 47.125 39.59375 43.09375 43.984375 
Q 39.0625 48.390625 32.421875 48.390625 
Q 24.90625 48.390625 20.390625 44.140625 
Q 15.875 39.890625 15.1875 32.171875 
z
" id="DejaVuSans-101"/>
      <path id="DejaVuSans-32"/>
      <path d="M 64.40625 67.28125 
L 64.40625 56.890625 
Q 59.421875 61.53125 53.78125 63.8125 
Q 48.140625 66.109375 41.796875 66.109375 
Q 29.296875 66.109375 22.65625 58.46875 
Q 16.015625 50.828125 16.015625 36.375 
Q 16.015625 21.96875 22.65625 14.328125 
Q 29.296875 6.6875 41.796875 6.6875 
Q 48.140625 6.6875 53.78125 8.984375 
Q 59.421875 11.28125 64.40625 15.921875 
L 64.40625 5.609375 
Q 59.234375 2.09375 53.4375 0.328125 
Q 47.65625 -1.421875 41.21875 -1.421875 
Q 24.65625 -1.421875 15.125 8.703125 
Q 5.609375 18.84375 5.609375 36.375 
Q 5.609375 53.953125 15.125 64.078125 
Q 24.65625 74.21875 41.21875 74.21875 
Q 47.75 74.21875 53.53125 72.484375 
Q 59.328125 70.75 64.40625 67.28125 
z
" id="DejaVuSans-67"/>
      <path d="M 9.421875 75.984375 
L 18.40625 75.984375 
L 18.40625 0 
L 9.421875 0 
z
" id="DejaVuSans-108"/>
      <path d="M 54.890625 33.015625 
L 54.890625 0 
L 45.90625 0 
L 45.90625 32.71875 
Q 45.90625 40.484375 42.875 44.328125 
Q 39.84375 48.1875 33.796875 48.1875 
Q 26.515625 48.1875 22.3125 43.546875 
Q 18.109375 38.921875 18.109375 30.90625 
L 18.109375 0 
L 9.078125 0 
L 9.078125 54.6875 
L 18.109375 54.6875 
L 18.109375 46.1875 
Q 21.34375 51.125 25.703125 53.5625 
Q 30.078125 56 35.796875 56 
Q 45.21875 56 50.046875 50.171875 
Q 54.890625 44.34375 54.890625 33.015625 
z
" id="DejaVuSans-110"/>
      <path d="M 18.3125 70.21875 
L 18.3125 54.6875 
L 36.8125 54.6875 
L 36.8125 47.703125 
L 18.3125 47.703125 
L 18.3125 18.015625 
Q 18.3125 11.328125 20.140625 9.421875 
Q 21.96875 7.515625 27.59375 7.515625 
L 36.8125 7.515625 
L 36.8125 0 
L 27.59375 0 
Q 17.1875 0 13.234375 3.875 
Q 9.28125 7.765625 9.28125 18.015625 
L 9.28125 47.703125 
L 2.6875 47.703125 
L 2.6875 54.6875 
L 9.28125 54.6875 
L 9.28125 70.21875 
z
" id="DejaVuSans-116"/>
      <path d="M 54.890625 33.015625 
L 54.890625 0 
L 45.90625 0 
L 45.90625 32.71875 
Q 45.90625 40.484375 42.875 44.328125 
Q 39.84375 48.1875 33.796875 48.1875 
Q 26.515625 48.1875 22.3125 43.546875 
Q 18.109375 38.921875 18.109375 30.90625 
L 18.109375 0 
L 9.078125 0 
L 9.078125 75.984375 
L 18.109375 75.984375 
L 18.109375 46.1875 
Q 21.34375 51.125 25.703125 53.5625 
Q 30.078125 56 35.796875 56 
Q 45.21875 56 50.046875 50.171875 
Q 54.890625 44.34375 54.890625 33.015625 
z
" id="DejaVuSans-104"/>
      <path d="M 31 75.875 
Q 24.46875 64.65625 21.28125 53.65625 
Q 18.109375 42.671875 18.109375 31.390625 
Q 18.109375 20.125 21.3125 9.0625 
Q 24.515625 -2 31 -13.1875 
L 23.1875 -13.1875 
Q 15.875 -1.703125 12.234375 9.375 
Q 8.59375 20.453125 8.59375 31.390625 
Q 8.59375 42.28125 12.203125 53.3125 
Q 15.828125 64.359375 23.1875 75.875 
z
" id="DejaVuSans-40"/>
      <path d="M 48.78125 52.59375 
L 48.78125 44.1875 
Q 44.96875 46.296875 41.140625 47.34375 
Q 37.3125 48.390625 33.40625 48.390625 
Q 24.65625 48.390625 19.8125 42.84375 
Q 14.984375 37.3125 14.984375 27.296875 
Q 14.984375 17.28125 19.8125 11.734375 
Q 24.65625 6.203125 33.40625 6.203125 
Q 37.3125 6.203125 41.140625 7.25 
Q 44.96875 8.296875 48.78125 10.40625 
L 48.78125 2.09375 
Q 45.015625 0.34375 40.984375 -0.53125 
Q 36.96875 -1.421875 32.421875 -1.421875 
Q 20.0625 -1.421875 12.78125 6.34375 
Q 5.515625 14.109375 5.515625 27.296875 
Q 5.515625 40.671875 12.859375 48.328125 
Q 20.21875 56 33.015625 56 
Q 37.15625 56 41.109375 55.140625 
Q 45.0625 54.296875 48.78125 52.59375 
z
" id="DejaVuSans-99"/>
      <path d="M 52 44.1875 
Q 55.375 50.25 60.0625 53.125 
Q 64.75 56 71.09375 56 
Q 79.640625 56 84.28125 50.015625 
Q 88.921875 44.046875 88.921875 33.015625 
L 88.921875 0 
L 79.890625 0 
L 79.890625 32.71875 
Q 79.890625 40.578125 77.09375 44.375 
Q 74.3125 48.1875 68.609375 48.1875 
Q 61.625 48.1875 57.5625 43.546875 
Q 53.515625 38.921875 53.515625 30.90625 
L 53.515625 0 
L 44.484375 0 
L 44.484375 32.71875 
Q 44.484375 40.625 41.703125 44.40625 
Q 38.921875 48.1875 33.109375 48.1875 
Q 26.21875 48.1875 22.15625 43.53125 
Q 18.109375 38.875 18.109375 30.90625 
L 18.109375 0 
L 9.078125 0 
L 9.078125 54.6875 
L 18.109375 54.6875 
L 18.109375 46.1875 
Q 21.1875 51.21875 25.484375 53.609375 
Q 29.78125 56 35.6875 56 
Q 41.65625 56 45.828125 52.96875 
Q 50 49.953125 52 44.1875 
z
" id="DejaVuSans-109"/>
      <path d="M 8.015625 75.875 
L 15.828125 75.875 
Q 23.140625 64.359375 26.78125 53.3125 
Q 30.421875 42.28125 30.421875 31.390625 
Q 30.421875 20.453125 26.78125 9.375 
Q 23.140625 -1.703125 15.828125 -13.1875 
L 8.015625 -13.1875 
Q 14.5 -2 17.703125 9.0625 
Q 20.90625 20.125 20.90625 31.390625 
Q 20.90625 42.671875 17.703125 53.65625 
Q 14.5 64.65625 8.015625 75.875 
z
" id="DejaVuSans-41"/>
     </defs>
     <g transform="translate(854.722656 1769.453125)scale(0.9 -0.9)">
      <use xlink:href="#DejaVuSans-80"/>
      <use x="58.552734" xlink:href="#DejaVuSans-114"/>
      <use x="99.666016" xlink:href="#DejaVuSans-97"/>
      <use x="160.945312" xlink:href="#DejaVuSans-103"/>
      <use x="224.421875" xlink:href="#DejaVuSans-117"/>
      <use x="287.800781" xlink:href="#DejaVuSans-101"/>
      <use x="349.324219" xlink:href="#DejaVuSans-32"/>
      <use x="381.111328" xlink:href="#DejaVuSans-67"/>
      <use x="450.935547" xlink:href="#DejaVuSans-32"/>
      <use x="482.722656" xlink:href="#DejaVuSans-108"/>
      <use x="510.505859" xlink:href="#DejaVuSans-101"/>
      <use x="572.029297" xlink:href="#DejaVuSans-110"/>
      <use x="635.408203" xlink:href="#DejaVuSans-103"/>
      <use x="698.884766" xlink:href="#DejaVuSans-116"/>
      <use x="738.09375" xlink:href="#DejaVuSans-104"/>
      <use x="801.472656" xlink:href="#DejaVuSans-32"/>
      <use x="833.259766" xlink:href="#DejaVuSans-40"/>
      <use x="872.273438" xlink:href="#DejaVuSans-99"/>
      <use x="927.253906" xlink:href="#DejaVuSans-109"/>
      <use x="1024.666016" xlink:href="#DejaVuSans-41"/>
     </g>
    </g>
   </g>
   <g id="matplotlib.axis_2">
    <g id="ytick_1">
     <g id="line2d_20">
      <defs>
       <path d="M 0 0 
L -3.5 0 
" id="m22c0065618" style="stroke:#000000;stroke-width:0.8;"/>
      </defs>
      <g>
       <use style="stroke:#000000;stroke-width:0.8;" x="157.55" xlink:href="#m22c0065618" y="1455.076705"/>
      </g>
     </g>
     <g id="text_21">
      <!-- 0 -->
      <g transform="translate(102.83125 1483.570845)scale(0.75 -0.75)">
       <use xlink:href="#DejaVuSans-48"/>
      </g>
     </g>
    </g>
    <g id="ytick_2">
     <g id="line2d_21">
      <g>
       <use style="stroke:#000000;stroke-width:0.8;" x="157.55" xlink:href="#m22c0065618" y="1281.92072"/>
      </g>
     </g>
     <g id="text_22">
      <!-- 1 -->
      <g transform="translate(102.83125 1310.41486)scale(0.75 -0.75)">
       <use xlink:href="#DejaVuSans-49"/>
      </g>
     </g>
    </g>
    <g id="ytick_3">
     <g id="line2d_22">
      <g>
       <use style="stroke:#000000;stroke-width:0.8;" x="157.55" xlink:href="#m22c0065618" y="1108.764735"/>
      </g>
     </g>
     <g id="text_23">
      <!-- 2 -->
      <g transform="translate(102.83125 1137.258875)scale(0.75 -0.75)">
       <use xlink:href="#DejaVuSans-50"/>
      </g>
     </g>
    </g>
    <g id="ytick_4">
     <g id="line2d_23">
      <g>
       <use style="stroke:#000000;stroke-width:0.8;" x="157.55" xlink:href="#m22c0065618" y="935.60875"/>
      </g>
     </g>
     <g id="text_24">
      <!-- 3 -->
      <g transform="translate(102.83125 964.10289)scale(0.75 -0.75)">
       <use xlink:href="#DejaVuSans-51"/>
      </g>
     </g>
    </g>
    <g id="ytick_5">
     <g id="line2d_24">
      <g>
       <use style="stroke:#000000;stroke-width:0.8;" x="157.55" xlink:href="#m22c0065618" y="762.452765"/>
      </g>
     </g>
     <g id="text_25">
      <!-- 4 -->
      <g transform="translate(102.83125 790.946905)scale(0.75 -0.75)">
       <use xlink:href="#DejaVuSans-52"/>
      </g>
     </g>
    </g>
    <g id="ytick_6">
     <g id="line2d_25">
      <g>
       <use style="stroke:#000000;stroke-width:0.8;" x="157.55" xlink:href="#m22c0065618" y="589.29678"/>
      </g>
     </g>
     <g id="text_26">
      <!-- 5 -->
      <g transform="translate(102.83125 617.79092)scale(0.75 -0.75)">
       <use xlink:href="#DejaVuSans-53"/>
      </g>
     </g>
    </g>
    <g id="ytick_7">
     <g id="line2d_26">
      <g>
       <use style="stroke:#000000;stroke-width:0.8;" x="157.55" xlink:href="#m22c0065618" y="416.140795"/>
      </g>
     </g>
     <g id="text_27">
      <!-- 6 -->
      <g transform="translate(102.83125 444.634935)scale(0.75 -0.75)">
       <use xlink:href="#DejaVuSans-54"/>
      </g>
     </g>
    </g>
    <g id="ytick_8">
     <g id="line2d_27">
      <g>
       <use style="stroke:#000000;stroke-width:0.8;" x="157.55" xlink:href="#m22c0065618" y="242.98481"/>
      </g>
     </g>
     <g id="text_28">
      <!-- 7 -->
      <g transform="translate(102.83125 271.47895)scale(0.75 -0.75)">
       <use xlink:href="#DejaVuSans-55"/>
      </g>
     </g>
    </g>
    <g id="ytick_9">
     <g id="line2d_28">
      <g>
       <use style="stroke:#000000;stroke-width:0.8;" x="157.55" xlink:href="#m22c0065618" y="69.828825"/>
      </g>
     </g>
     <g id="text_29">
      <!-- 8 -->
      <g transform="translate(102.83125 98.322965)scale(0.75 -0.75)">
       <use xlink:href="#DejaVuSans-56"/>
      </g>
     </g>
    </g>
    <g id="text_30">
     <!-- ln(TFF3 positive tile count + 1) -->
     <defs>
      <path d="M -0.296875 72.90625 
L 61.375 72.90625 
L 61.375 64.59375 
L 35.5 64.59375 
L 35.5 0 
L 25.59375 0 
L 25.59375 64.59375 
L -0.296875 64.59375 
z
" id="DejaVuSans-84"/>
      <path d="M 9.8125 72.90625 
L 51.703125 72.90625 
L 51.703125 64.59375 
L 19.671875 64.59375 
L 19.671875 43.109375 
L 48.578125 43.109375 
L 48.578125 34.8125 
L 19.671875 34.8125 
L 19.671875 0 
L 9.8125 0 
z
" id="DejaVuSans-70"/>
      <path d="M 18.109375 8.203125 
L 18.109375 -20.796875 
L 9.078125 -20.796875 
L 9.078125 54.6875 
L 18.109375 54.6875 
L 18.109375 46.390625 
Q 20.953125 51.265625 25.265625 53.625 
Q 29.59375 56 35.59375 56 
Q 45.5625 56 51.78125 48.09375 
Q 58.015625 40.1875 58.015625 27.296875 
Q 58.015625 14.40625 51.78125 6.484375 
Q 45.5625 -1.421875 35.59375 -1.421875 
Q 29.59375 -1.421875 25.265625 0.953125 
Q 20.953125 3.328125 18.109375 8.203125 
z
M 48.6875 27.296875 
Q 48.6875 37.203125 44.609375 42.84375 
Q 40.53125 48.484375 33.40625 48.484375 
Q 26.265625 48.484375 22.1875 42.84375 
Q 18.109375 37.203125 18.109375 27.296875 
Q 18.109375 17.390625 22.1875 11.75 
Q 26.265625 6.109375 33.40625 6.109375 
Q 40.53125 6.109375 44.609375 11.75 
Q 48.6875 17.390625 48.6875 27.296875 
z
" id="DejaVuSans-112"/>
      <path d="M 30.609375 48.390625 
Q 23.390625 48.390625 19.1875 42.75 
Q 14.984375 37.109375 14.984375 27.296875 
Q 14.984375 17.484375 19.15625 11.84375 
Q 23.34375 6.203125 30.609375 6.203125 
Q 37.796875 6.203125 41.984375 11.859375 
Q 46.1875 17.53125 46.1875 27.296875 
Q 46.1875 37.015625 41.984375 42.703125 
Q 37.796875 48.390625 30.609375 48.390625 
z
M 30.609375 56 
Q 42.328125 56 49.015625 48.375 
Q 55.71875 40.765625 55.71875 27.296875 
Q 55.71875 13.875 49.015625 6.21875 
Q 42.328125 -1.421875 30.609375 -1.421875 
Q 18.84375 -1.421875 12.171875 6.21875 
Q 5.515625 13.875 5.515625 27.296875 
Q 5.515625 40.765625 12.171875 48.375 
Q 18.84375 56 30.609375 56 
z
" id="DejaVuSans-111"/>
      <path d="M 44.28125 53.078125 
L 44.28125 44.578125 
Q 40.484375 46.53125 36.375 47.5 
Q 32.28125 48.484375 27.875 48.484375 
Q 21.1875 48.484375 17.84375 46.4375 
Q 14.5 44.390625 14.5 40.28125 
Q 14.5 37.15625 16.890625 35.375 
Q 19.28125 33.59375 26.515625 31.984375 
L 29.59375 31.296875 
Q 39.15625 29.25 43.1875 25.515625 
Q 47.21875 21.78125 47.21875 15.09375 
Q 47.21875 7.46875 41.1875 3.015625 
Q 35.15625 -1.421875 24.609375 -1.421875 
Q 20.21875 -1.421875 15.453125 -0.5625 
Q 10.6875 0.296875 5.421875 2 
L 5.421875 11.28125 
Q 10.40625 8.6875 15.234375 7.390625 
Q 20.0625 6.109375 24.8125 6.109375 
Q 31.15625 6.109375 34.5625 8.28125 
Q 37.984375 10.453125 37.984375 14.40625 
Q 37.984375 18.0625 35.515625 20.015625 
Q 33.0625 21.96875 24.703125 23.78125 
L 21.578125 24.515625 
Q 13.234375 26.265625 9.515625 29.90625 
Q 5.8125 33.546875 5.8125 39.890625 
Q 5.8125 47.609375 11.28125 51.796875 
Q 16.75 56 26.8125 56 
Q 31.78125 56 36.171875 55.265625 
Q 40.578125 54.546875 44.28125 53.078125 
z
" id="DejaVuSans-115"/>
      <path d="M 9.421875 54.6875 
L 18.40625 54.6875 
L 18.40625 0 
L 9.421875 0 
z
M 9.421875 75.984375 
L 18.40625 75.984375 
L 18.40625 64.59375 
L 9.421875 64.59375 
z
" id="DejaVuSans-105"/>
      <path d="M 2.984375 54.6875 
L 12.5 54.6875 
L 29.59375 8.796875 
L 46.6875 54.6875 
L 56.203125 54.6875 
L 35.6875 0 
L 23.484375 0 
z
" id="DejaVuSans-118"/>
      <path d="M 46 62.703125 
L 46 35.5 
L 73.1875 35.5 
L 73.1875 27.203125 
L 46 27.203125 
L 46 0 
L 37.796875 0 
L 37.796875 27.203125 
L 10.59375 27.203125 
L 10.59375 35.5 
L 37.796875 35.5 
L 37.796875 62.703125 
z
" id="DejaVuSans-43"/>
     </defs>
     <g transform="translate(80.114063 1470.758594)rotate(-90)scale(0.9 -0.9)">
      <use xlink:href="#DejaVuSans-108"/>
      <use x="27.783203" xlink:href="#DejaVuSans-110"/>
      <use x="91.162109" xlink:href="#DejaVuSans-40"/>
      <use x="130.175781" xlink:href="#DejaVuSans-84"/>
      <use x="191.259766" xlink:href="#DejaVuSans-70"/>
      <use x="248.779297" xlink:href="#DejaVuSans-70"/>
      <use x="306.298828" xlink:href="#DejaVuSans-51"/>
      <use x="369.921875" xlink:href="#DejaVuSans-32"/>
      <use x="401.708984" xlink:href="#DejaVuSans-112"/>
      <use x="465.185547" xlink:href="#DejaVuSans-111"/>
      <use x="526.367188" xlink:href="#DejaVuSans-115"/>
      <use x="578.466797" xlink:href="#DejaVuSans-105"/>
      <use x="606.25" xlink:href="#DejaVuSans-116"/>
      <use x="645.458984" xlink:href="#DejaVuSans-105"/>
      <use x="673.242188" xlink:href="#DejaVuSans-118"/>
      <use x="732.421875" xlink:href="#DejaVuSans-101"/>
      <use x="793.945312" xlink:href="#DejaVuSans-32"/>
      <use x="825.732422" xlink:href="#DejaVuSans-116"/>
      <use x="864.941406" xlink:href="#DejaVuSans-105"/>
      <use x="892.724609" xlink:href="#DejaVuSans-108"/>
      <use x="920.507812" xlink:href="#DejaVuSans-101"/>
      <use x="982.03125" xlink:href="#DejaVuSans-32"/>
      <use x="1013.818359" xlink:href="#DejaVuSans-99"/>
      <use x="1068.798828" xlink:href="#DejaVuSans-111"/>
      <use x="1129.980469" xlink:href="#DejaVuSans-117"/>
      <use x="1193.359375" xlink:href="#DejaVuSans-110"/>
      <use x="1256.738281" xlink:href="#DejaVuSans-116"/>
      <use x="1295.947266" xlink:href="#DejaVuSans-32"/>
      <use x="1327.734375" xlink:href="#DejaVuSans-43"/>
      <use x="1411.523438" xlink:href="#DejaVuSans-32"/>
      <use x="1443.310547" xlink:href="#DejaVuSans-49"/>
      <use x="1506.933594" xlink:href="#DejaVuSans-41"/>
     </g>
    </g>
   </g>
   <g id="line2d_29">
    <path clip-path="url(#pd02c32cd01)" d="M 219.435526 1335.054122 
L 219.435526 1455.076705 
" style="fill:none;stroke:#464646;stroke-linecap:square;stroke-width:1.5;"/>
   </g>
   <g id="line2d_30">
    <path clip-path="url(#pd02c32cd01)" d="M 219.435526 1024.800246 
L 219.435526 589.779491 
" style="fill:none;stroke:#464646;stroke-linecap:square;stroke-width:1.5;"/>
   </g>
   <g id="line2d_31">
    <path clip-path="url(#pd02c32cd01)" d="M 194.681316 1455.076705 
L 244.189737 1455.076705 
" style="fill:none;stroke:#464646;stroke-linecap:square;stroke-width:1.5;"/>
   </g>
   <g id="line2d_32">
    <path clip-path="url(#pd02c32cd01)" d="M 194.681316 589.779491 
L 244.189737 589.779491 
" style="fill:none;stroke:#464646;stroke-linecap:square;stroke-width:1.5;"/>
   </g>
   <g id="line2d_33">
    <defs>
     <path d="M -0 3.535534 
L 2.12132 0 
L -0 -3.535534 
L -2.12132 -0 
z
" id="m0720ad2e6a" style="stroke:#464646;stroke-linejoin:miter;"/>
    </defs>
    <g clip-path="url(#pd02c32cd01)">
     <use style="fill:#464646;stroke:#464646;stroke-linejoin:miter;" x="219.435526" xlink:href="#m0720ad2e6a" y="523.515279"/>
     <use style="fill:#464646;stroke:#464646;stroke-linejoin:miter;" x="219.435526" xlink:href="#m0720ad2e6a" y="525.925842"/>
     <use style="fill:#464646;stroke:#464646;stroke-linejoin:miter;" x="219.435526" xlink:href="#m0720ad2e6a" y="518.79255"/>
     <use style="fill:#464646;stroke:#464646;stroke-linejoin:miter;" x="219.435526" xlink:href="#m0720ad2e6a" y="383.186543"/>
     <use style="fill:#464646;stroke:#464646;stroke-linejoin:miter;" x="219.435526" xlink:href="#m0720ad2e6a" y="376.914615"/>
     <use style="fill:#464646;stroke:#464646;stroke-linejoin:miter;" x="219.435526" xlink:href="#m0720ad2e6a" y="510.455203"/>
    </g>
   </g>
   <g id="line2d_34">
    <path clip-path="url(#pd02c32cd01)" d="M 343.206579 1245.037185 
L 343.206579 1335.054122 
" style="fill:none;stroke:#464646;stroke-linecap:square;stroke-width:1.5;"/>
   </g>
   <g id="line2d_35">
    <path clip-path="url(#pd02c32cd01)" d="M 343.206579 825.816041 
L 343.206579 494.220969 
" style="fill:none;stroke:#464646;stroke-linecap:square;stroke-width:1.5;"/>
   </g>
   <g id="line2d_36">
    <path clip-path="url(#pd02c32cd01)" d="M 318.452368 1335.054122 
L 367.960789 1335.054122 
" style="fill:none;stroke:#464646;stroke-linecap:square;stroke-width:1.5;"/>
   </g>
   <g id="line2d_37">
    <path clip-path="url(#pd02c32cd01)" d="M 318.452368 494.220969 
L 367.960789 494.220969 
" style="fill:none;stroke:#464646;stroke-linecap:square;stroke-width:1.5;"/>
   </g>
   <g id="line2d_38"/>
   <g id="line2d_39">
    <path clip-path="url(#pd02c32cd01)" d="M 466.977632 1144.822829 
L 466.977632 1455.076705 
" style="fill:none;stroke:#464646;stroke-linecap:square;stroke-width:1.5;"/>
   </g>
   <g id="line2d_40">
    <path clip-path="url(#pd02c32cd01)" d="M 466.977632 757.296771 
L 466.977632 378.634152 
" style="fill:none;stroke:#464646;stroke-linecap:square;stroke-width:1.5;"/>
   </g>
   <g id="line2d_41">
    <path clip-path="url(#pd02c32cd01)" d="M 442.223421 1455.076705 
L 491.731842 1455.076705 
" style="fill:none;stroke:#464646;stroke-linecap:square;stroke-width:1.5;"/>
   </g>
   <g id="line2d_42">
    <path clip-path="url(#pd02c32cd01)" d="M 442.223421 378.634152 
L 491.731842 378.634152 
" style="fill:none;stroke:#464646;stroke-linecap:square;stroke-width:1.5;"/>
   </g>
   <g id="line2d_43">
    <g clip-path="url(#pd02c32cd01)">
     <use style="fill:#464646;stroke:#464646;stroke-linejoin:miter;" x="466.977632" xlink:href="#m0720ad2e6a" y="97.139198"/>
    </g>
   </g>
   <g id="line2d_44">
    <path clip-path="url(#pd02c32cd01)" d="M 590.748684 1060.931266 
L 590.748684 1455.076705 
" style="fill:none;stroke:#464646;stroke-linecap:square;stroke-width:1.5;"/>
   </g>
   <g id="line2d_45">
    <path clip-path="url(#pd02c32cd01)" d="M 590.748684 633.928793 
L 590.748684 196.903019 
" style="fill:none;stroke:#464646;stroke-linecap:square;stroke-width:1.5;"/>
   </g>
   <g id="line2d_46">
    <path clip-path="url(#pd02c32cd01)" d="M 565.994474 1455.076705 
L 615.502895 1455.076705 
" style="fill:none;stroke:#464646;stroke-linecap:square;stroke-width:1.5;"/>
   </g>
   <g id="line2d_47">
    <path clip-path="url(#pd02c32cd01)" d="M 565.994474 196.903019 
L 615.502895 196.903019 
" style="fill:none;stroke:#464646;stroke-linecap:square;stroke-width:1.5;"/>
   </g>
   <g id="line2d_48"/>
   <g id="line2d_49">
    <path clip-path="url(#pd02c32cd01)" d="M 714.519737 947.918508 
L 714.519737 1455.076705 
" style="fill:none;stroke:#464646;stroke-linecap:square;stroke-width:1.5;"/>
   </g>
   <g id="line2d_50">
    <path clip-path="url(#pd02c32cd01)" d="M 714.519737 527.768253 
L 714.519737 279.916046 
" style="fill:none;stroke:#464646;stroke-linecap:square;stroke-width:1.5;"/>
   </g>
   <g id="line2d_51">
    <path clip-path="url(#pd02c32cd01)" d="M 689.765526 1455.076705 
L 739.273947 1455.076705 
" style="fill:none;stroke:#464646;stroke-linecap:square;stroke-width:1.5;"/>
   </g>
   <g id="line2d_52">
    <path clip-path="url(#pd02c32cd01)" d="M 689.765526 279.916046 
L 739.273947 279.916046 
" style="fill:none;stroke:#464646;stroke-linecap:square;stroke-width:1.5;"/>
   </g>
   <g id="line2d_53"/>
   <g id="line2d_54">
    <path clip-path="url(#pd02c32cd01)" d="M 838.290789 872.009278 
L 838.290789 1118.130716 
" style="fill:none;stroke:#464646;stroke-linecap:square;stroke-width:1.5;"/>
   </g>
   <g id="line2d_55">
    <path clip-path="url(#pd02c32cd01)" d="M 838.290789 536.336342 
L 838.290789 328.561258 
" style="fill:none;stroke:#464646;stroke-linecap:square;stroke-width:1.5;"/>
   </g>
   <g id="line2d_56">
    <path clip-path="url(#pd02c32cd01)" d="M 813.536579 1118.130716 
L 863.045 1118.130716 
" style="fill:none;stroke:#464646;stroke-linecap:square;stroke-width:1.5;"/>
   </g>
   <g id="line2d_57">
    <path clip-path="url(#pd02c32cd01)" d="M 813.536579 328.561258 
L 863.045 328.561258 
" style="fill:none;stroke:#464646;stroke-linecap:square;stroke-width:1.5;"/>
   </g>
   <g id="line2d_58"/>
   <g id="line2d_59">
    <path clip-path="url(#pd02c32cd01)" d="M 962.061842 854.963791 
L 962.061842 1264.845412 
" style="fill:none;stroke:#464646;stroke-linecap:square;stroke-width:1.5;"/>
   </g>
   <g id="line2d_60">
    <path clip-path="url(#pd02c32cd01)" d="M 962.061842 460.641331 
L 962.061842 314.880665 
" style="fill:none;stroke:#464646;stroke-linecap:square;stroke-width:1.5;"/>
   </g>
   <g id="line2d_61">
    <path clip-path="url(#pd02c32cd01)" d="M 937.307632 1264.845412 
L 986.816053 1264.845412 
" style="fill:none;stroke:#464646;stroke-linecap:square;stroke-width:1.5;"/>
   </g>
   <g id="line2d_62">
    <path clip-path="url(#pd02c32cd01)" d="M 937.307632 314.880665 
L 986.816053 314.880665 
" style="fill:none;stroke:#464646;stroke-linecap:square;stroke-width:1.5;"/>
   </g>
   <g id="line2d_63"/>
   <g id="line2d_64">
    <path clip-path="url(#pd02c32cd01)" d="M 1085.832895 847.20535 
L 1085.832895 1215.031539 
" style="fill:none;stroke:#464646;stroke-linecap:square;stroke-width:1.5;"/>
   </g>
   <g id="line2d_65">
    <path clip-path="url(#pd02c32cd01)" d="M 1085.832895 532.555708 
L 1085.832895 319.73129 
" style="fill:none;stroke:#464646;stroke-linecap:square;stroke-width:1.5;"/>
   </g>
   <g id="line2d_66">
    <path clip-path="url(#pd02c32cd01)" d="M 1061.078684 1215.031539 
L 1110.587105 1215.031539 
" style="fill:none;stroke:#464646;stroke-linecap:square;stroke-width:1.5;"/>
   </g>
   <g id="line2d_67">
    <path clip-path="url(#pd02c32cd01)" d="M 1061.078684 319.73129 
L 1110.587105 319.73129 
" style="fill:none;stroke:#464646;stroke-linecap:square;stroke-width:1.5;"/>
   </g>
   <g id="line2d_68"/>
   <g id="line2d_69">
    <path clip-path="url(#pd02c32cd01)" d="M 1209.603947 859.184229 
L 1209.603947 1215.031539 
" style="fill:none;stroke:#464646;stroke-linecap:square;stroke-width:1.5;"/>
   </g>
   <g id="line2d_70">
    <path clip-path="url(#pd02c32cd01)" d="M 1209.603947 496.604437 
L 1209.603947 193.666364 
" style="fill:none;stroke:#464646;stroke-linecap:square;stroke-width:1.5;"/>
   </g>
   <g id="line2d_71">
    <path clip-path="url(#pd02c32cd01)" d="M 1184.849737 1215.031539 
L 1234.358158 1215.031539 
" style="fill:none;stroke:#464646;stroke-linecap:square;stroke-width:1.5;"/>
   </g>
   <g id="line2d_72">
    <path clip-path="url(#pd02c32cd01)" d="M 1184.849737 193.666364 
L 1234.358158 193.666364 
" style="fill:none;stroke:#464646;stroke-linecap:square;stroke-width:1.5;"/>
   </g>
   <g id="line2d_73"/>
   <g id="line2d_74">
    <path clip-path="url(#pd02c32cd01)" d="M 1333.375 667.545686 
L 1333.375 1039.866787 
" style="fill:none;stroke:#464646;stroke-linecap:square;stroke-width:1.5;"/>
   </g>
   <g id="line2d_75">
    <path clip-path="url(#pd02c32cd01)" d="M 1333.375 307.173701 
L 1333.375 126.090346 
" style="fill:none;stroke:#464646;stroke-linecap:square;stroke-width:1.5;"/>
   </g>
   <g id="line2d_76">
    <path clip-path="url(#pd02c32cd01)" d="M 1308.620789 1039.866787 
L 1358.129211 1039.866787 
" style="fill:none;stroke:#464646;stroke-linecap:square;stroke-width:1.5;"/>
   </g>
   <g id="line2d_77">
    <path clip-path="url(#pd02c32cd01)" d="M 1308.620789 126.090346 
L 1358.129211 126.090346 
" style="fill:none;stroke:#464646;stroke-linecap:square;stroke-width:1.5;"/>
   </g>
   <g id="line2d_78"/>
   <g id="line2d_79">
    <path clip-path="url(#pd02c32cd01)" d="M 1457.146053 747.054163 
L 1457.146053 829.824657 
" style="fill:none;stroke:#464646;stroke-linecap:square;stroke-width:1.5;"/>
   </g>
   <g id="line2d_80">
    <path clip-path="url(#pd02c32cd01)" d="M 1457.146053 455.806971 
L 1457.146053 358.739265 
" style="fill:none;stroke:#464646;stroke-linecap:square;stroke-width:1.5;"/>
   </g>
   <g id="line2d_81">
    <path clip-path="url(#pd02c32cd01)" d="M 1432.391842 829.824657 
L 1481.900263 829.824657 
" style="fill:none;stroke:#464646;stroke-linecap:square;stroke-width:1.5;"/>
   </g>
   <g id="line2d_82">
    <path clip-path="url(#pd02c32cd01)" d="M 1432.391842 358.739265 
L 1481.900263 358.739265 
" style="fill:none;stroke:#464646;stroke-linecap:square;stroke-width:1.5;"/>
   </g>
   <g id="line2d_83"/>
   <g id="line2d_84">
    <path clip-path="url(#pd02c32cd01)" d="M 1580.917105 740.836994 
L 1580.917105 974.986373 
" style="fill:none;stroke:#464646;stroke-linecap:square;stroke-width:1.5;"/>
   </g>
   <g id="line2d_85">
    <path clip-path="url(#pd02c32cd01)" d="M 1580.917105 411.091805 
L 1580.917105 262.632535 
" style="fill:none;stroke:#464646;stroke-linecap:square;stroke-width:1.5;"/>
   </g>
   <g id="line2d_86">
    <path clip-path="url(#pd02c32cd01)" d="M 1556.162895 974.986373 
L 1605.671316 974.986373 
" style="fill:none;stroke:#464646;stroke-linecap:square;stroke-width:1.5;"/>
   </g>
   <g id="line2d_87">
    <path clip-path="url(#pd02c32cd01)" d="M 1556.162895 262.632535 
L 1605.671316 262.632535 
" style="fill:none;stroke:#464646;stroke-linecap:square;stroke-width:1.5;"/>
   </g>
   <g id="line2d_88">
    <g clip-path="url(#pd02c32cd01)">
     <use style="fill:#464646;stroke:#464646;stroke-linejoin:miter;" x="1580.917105" xlink:href="#m0720ad2e6a" y="1335.054122"/>
    </g>
   </g>
   <g id="line2d_89">
    <path clip-path="url(#pd02c32cd01)" d="M 1704.688158 550.042381 
L 1704.688158 754.99818 
" style="fill:none;stroke:#464646;stroke-linecap:square;stroke-width:1.5;"/>
   </g>
   <g id="line2d_90">
    <path clip-path="url(#pd02c32cd01)" d="M 1704.688158 318.362141 
L 1704.688158 259.130778 
" style="fill:none;stroke:#464646;stroke-linecap:square;stroke-width:1.5;"/>
   </g>
   <g id="line2d_91">
    <path clip-path="url(#pd02c32cd01)" d="M 1679.933947 754.99818 
L 1729.442368 754.99818 
" style="fill:none;stroke:#464646;stroke-linecap:square;stroke-width:1.5;"/>
   </g>
   <g id="line2d_92">
    <path clip-path="url(#pd02c32cd01)" d="M 1679.933947 259.130778 
L 1729.442368 259.130778 
" style="fill:none;stroke:#464646;stroke-linecap:square;stroke-width:1.5;"/>
   </g>
   <g id="line2d_93"/>
   <g id="line2d_94">
    <path clip-path="url(#pd02c32cd01)" d="M 1828.459211 651.781904 
L 1828.459211 844.466274 
" style="fill:none;stroke:#464646;stroke-linecap:square;stroke-width:1.5;"/>
   </g>
   <g id="line2d_95">
    <path clip-path="url(#pd02c32cd01)" d="M 1828.459211 339.375001 
L 1828.459211 246.43478 
" style="fill:none;stroke:#464646;stroke-linecap:square;stroke-width:1.5;"/>
   </g>
   <g id="line2d_96">
    <path clip-path="url(#pd02c32cd01)" d="M 1803.705 844.466274 
L 1853.213421 844.466274 
" style="fill:none;stroke:#464646;stroke-linecap:square;stroke-width:1.5;"/>
   </g>
   <g id="line2d_97">
    <path clip-path="url(#pd02c32cd01)" d="M 1803.705 246.43478 
L 1853.213421 246.43478 
" style="fill:none;stroke:#464646;stroke-linecap:square;stroke-width:1.5;"/>
   </g>
   <g id="line2d_98"/>
   <g id="line2d_99">
    <path clip-path="url(#pd02c32cd01)" d="M 1952.230263 540.953085 
L 1952.230263 702.920798 
" style="fill:none;stroke:#464646;stroke-linecap:square;stroke-width:1.5;"/>
   </g>
   <g id="line2d_100">
    <path clip-path="url(#pd02c32cd01)" d="M 1952.230263 378.017553 
L 1952.230263 282.079295 
" style="fill:none;stroke:#464646;stroke-linecap:square;stroke-width:1.5;"/>
   </g>
   <g id="line2d_101">
    <path clip-path="url(#pd02c32cd01)" d="M 1927.476053 702.920798 
L 1976.984474 702.920798 
" style="fill:none;stroke:#464646;stroke-linecap:square;stroke-width:1.5;"/>
   </g>
   <g id="line2d_102">
    <path clip-path="url(#pd02c32cd01)" d="M 1927.476053 282.079295 
L 1976.984474 282.079295 
" style="fill:none;stroke:#464646;stroke-linecap:square;stroke-width:1.5;"/>
   </g>
   <g id="line2d_103"/>
   <g id="line2d_104">
    <path clip-path="url(#pd02c32cd01)" d="M 2076.001316 729.612911 
L 2076.001316 729.612911 
" style="fill:none;stroke:#464646;stroke-linecap:square;stroke-width:1.5;"/>
   </g>
   <g id="line2d_105">
    <path clip-path="url(#pd02c32cd01)" d="M 2076.001316 729.612911 
L 2076.001316 729.612911 
" style="fill:none;stroke:#464646;stroke-linecap:square;stroke-width:1.5;"/>
   </g>
   <g id="line2d_106">
    <path clip-path="url(#pd02c32cd01)" d="M 2051.247105 729.612911 
L 2100.755526 729.612911 
" style="fill:none;stroke:#464646;stroke-linecap:square;stroke-width:1.5;"/>
   </g>
   <g id="line2d_107">
    <path clip-path="url(#pd02c32cd01)" d="M 2051.247105 729.612911 
L 2100.755526 729.612911 
" style="fill:none;stroke:#464646;stroke-linecap:square;stroke-width:1.5;"/>
   </g>
   <g id="line2d_108"/>
   <g id="line2d_109">
    <path clip-path="url(#pd02c32cd01)" d="M 2199.772368 216.865949 
L 2199.772368 222.830467 
" style="fill:none;stroke:#464646;stroke-linecap:square;stroke-width:1.5;"/>
   </g>
   <g id="line2d_110">
    <path clip-path="url(#pd02c32cd01)" d="M 2199.772368 204.936912 
L 2199.772368 198.972394 
" style="fill:none;stroke:#464646;stroke-linecap:square;stroke-width:1.5;"/>
   </g>
   <g id="line2d_111">
    <path clip-path="url(#pd02c32cd01)" d="M 2175.018158 222.830467 
L 2224.526579 222.830467 
" style="fill:none;stroke:#464646;stroke-linecap:square;stroke-width:1.5;"/>
   </g>
   <g id="line2d_112">
    <path clip-path="url(#pd02c32cd01)" d="M 2175.018158 198.972394 
L 2224.526579 198.972394 
" style="fill:none;stroke:#464646;stroke-linecap:square;stroke-width:1.5;"/>
   </g>
   <g id="line2d_113"/>
   <g id="line2d_114">
    <path clip-path="url(#pd02c32cd01)" d="M 2323.543421 586.304672 
L 2323.543421 586.304672 
" style="fill:none;stroke:#464646;stroke-linecap:square;stroke-width:1.5;"/>
   </g>
   <g id="line2d_115">
    <path clip-path="url(#pd02c32cd01)" d="M 2323.543421 586.304672 
L 2323.543421 586.304672 
" style="fill:none;stroke:#464646;stroke-linecap:square;stroke-width:1.5;"/>
   </g>
   <g id="line2d_116">
    <path clip-path="url(#pd02c32cd01)" d="M 2298.789211 586.304672 
L 2348.297632 586.304672 
" style="fill:none;stroke:#464646;stroke-linecap:square;stroke-width:1.5;"/>
   </g>
   <g id="line2d_117">
    <path clip-path="url(#pd02c32cd01)" d="M 2298.789211 586.304672 
L 2348.297632 586.304672 
" style="fill:none;stroke:#464646;stroke-linecap:square;stroke-width:1.5;"/>
   </g>
   <g id="line2d_118"/>
   <g id="line2d_119">
    <path clip-path="url(#pd02c32cd01)" d="M 2447.314474 95.110795 
L 2447.314474 95.110795 
" style="fill:none;stroke:#464646;stroke-linecap:square;stroke-width:1.5;"/>
   </g>
   <g id="line2d_120">
    <path clip-path="url(#pd02c32cd01)" d="M 2447.314474 95.110795 
L 2447.314474 95.110795 
" style="fill:none;stroke:#464646;stroke-linecap:square;stroke-width:1.5;"/>
   </g>
   <g id="line2d_121">
    <path clip-path="url(#pd02c32cd01)" d="M 2422.560263 95.110795 
L 2472.068684 95.110795 
" style="fill:none;stroke:#464646;stroke-linecap:square;stroke-width:1.5;"/>
   </g>
   <g id="line2d_122">
    <path clip-path="url(#pd02c32cd01)" d="M 2422.560263 95.110795 
L 2472.068684 95.110795 
" style="fill:none;stroke:#464646;stroke-linecap:square;stroke-width:1.5;"/>
   </g>
   <g id="line2d_123"/>
   <g id="line2d_124">
    <path clip-path="url(#pd02c32cd01)" d="M 169.927105 1215.031539 
L 268.943947 1215.031539 
" style="fill:none;stroke:#464646;stroke-linecap:square;stroke-width:1.5;"/>
   </g>
   <g id="line2d_125">
    <path clip-path="url(#pd02c32cd01)" d="M 293.698158 1075.689635 
L 392.715 1075.689635 
" style="fill:none;stroke:#464646;stroke-linecap:square;stroke-width:1.5;"/>
   </g>
   <g id="line2d_126">
    <path clip-path="url(#pd02c32cd01)" d="M 417.469211 912.147115 
L 516.486053 912.147115 
" style="fill:none;stroke:#464646;stroke-linecap:square;stroke-width:1.5;"/>
   </g>
   <g id="line2d_127">
    <path clip-path="url(#pd02c32cd01)" d="M 541.240263 855.048381 
L 640.257105 855.048381 
" style="fill:none;stroke:#464646;stroke-linecap:square;stroke-width:1.5;"/>
   </g>
   <g id="line2d_128">
    <path clip-path="url(#pd02c32cd01)" d="M 665.011316 783.043556 
L 764.028158 783.043556 
" style="fill:none;stroke:#464646;stroke-linecap:square;stroke-width:1.5;"/>
   </g>
   <g id="line2d_129">
    <path clip-path="url(#pd02c32cd01)" d="M 788.782368 653.390311 
L 887.799211 653.390311 
" style="fill:none;stroke:#464646;stroke-linecap:square;stroke-width:1.5;"/>
   </g>
   <g id="line2d_130">
    <path clip-path="url(#pd02c32cd01)" d="M 912.553421 581.777461 
L 1011.570263 581.777461 
" style="fill:none;stroke:#464646;stroke-linecap:square;stroke-width:1.5;"/>
   </g>
   <g id="line2d_131">
    <path clip-path="url(#pd02c32cd01)" d="M 1036.324474 626.093856 
L 1135.341316 626.093856 
" style="fill:none;stroke:#464646;stroke-linecap:square;stroke-width:1.5;"/>
   </g>
   <g id="line2d_132">
    <path clip-path="url(#pd02c32cd01)" d="M 1160.095526 714.69681 
L 1259.112368 714.69681 
" style="fill:none;stroke:#464646;stroke-linecap:square;stroke-width:1.5;"/>
   </g>
   <g id="line2d_133">
    <path clip-path="url(#pd02c32cd01)" d="M 1283.866579 458.459772 
L 1382.883421 458.459772 
" style="fill:none;stroke:#464646;stroke-linecap:square;stroke-width:1.5;"/>
   </g>
   <g id="line2d_134">
    <path clip-path="url(#pd02c32cd01)" d="M 1407.637632 623.225892 
L 1506.654474 623.225892 
" style="fill:none;stroke:#464646;stroke-linecap:square;stroke-width:1.5;"/>
   </g>
   <g id="line2d_135">
    <path clip-path="url(#pd02c32cd01)" d="M 1531.408684 591.908237 
L 1630.425526 591.908237 
" style="fill:none;stroke:#464646;stroke-linecap:square;stroke-width:1.5;"/>
   </g>
   <g id="line2d_136">
    <path clip-path="url(#pd02c32cd01)" d="M 1655.179737 462.875633 
L 1754.196579 462.875633 
" style="fill:none;stroke:#464646;stroke-linecap:square;stroke-width:1.5;"/>
   </g>
   <g id="line2d_137">
    <path clip-path="url(#pd02c32cd01)" d="M 1778.950789 450.405182 
L 1877.967632 450.405182 
" style="fill:none;stroke:#464646;stroke-linecap:square;stroke-width:1.5;"/>
   </g>
   <g id="line2d_138">
    <path clip-path="url(#pd02c32cd01)" d="M 1902.721842 448.48041 
L 2001.738684 448.48041 
" style="fill:none;stroke:#464646;stroke-linecap:square;stroke-width:1.5;"/>
   </g>
   <g id="line2d_139">
    <path clip-path="url(#pd02c32cd01)" d="M 2026.492895 729.612911 
L 2125.509737 729.612911 
" style="fill:none;stroke:#464646;stroke-linecap:square;stroke-width:1.5;"/>
   </g>
   <g id="line2d_140">
    <path clip-path="url(#pd02c32cd01)" d="M 2150.263947 210.901431 
L 2249.280789 210.901431 
" style="fill:none;stroke:#464646;stroke-linecap:square;stroke-width:1.5;"/>
   </g>
   <g id="line2d_141">
    <path clip-path="url(#pd02c32cd01)" d="M 2274.035 586.304672 
L 2373.051842 586.304672 
" style="fill:none;stroke:#464646;stroke-linecap:square;stroke-width:1.5;"/>
   </g>
   <g id="line2d_142">
    <path clip-path="url(#pd02c32cd01)" d="M 2397.806053 95.110795 
L 2496.822895 95.110795 
" style="fill:none;stroke:#464646;stroke-linecap:square;stroke-width:1.5;"/>
   </g>
   <g id="patch_22">
    <path d="M 157.55 1523.075 
L 157.55 27.1125 
" style="fill:none;stroke:#000000;stroke-linecap:square;stroke-linejoin:miter;stroke-width:0.8;"/>
   </g>
   <g id="patch_23">
    <path d="M 2509.2 1523.075 
L 2509.2 27.1125 
" style="fill:none;stroke:#000000;stroke-linecap:square;stroke-linejoin:miter;stroke-width:0.8;"/>
   </g>
   <g id="patch_24">
    <path d="M 157.55 1523.075 
L 2509.2 1523.075 
" style="fill:none;stroke:#000000;stroke-linecap:square;stroke-linejoin:miter;stroke-width:0.8;"/>
   </g>
   <g id="patch_25">
    <path d="M 157.55 27.1125 
L 2509.2 27.1125 
" style="fill:none;stroke:#000000;stroke-linecap:square;stroke-linejoin:miter;stroke-width:0.8;"/>
   </g>
  </g>
 </g>
 <defs>
  <clipPath id="pd02c32cd01">
   <rect height="1495.9625" width="2351.65" x="157.55" y="27.1125"/>
  </clipPath>
 </defs>
</svg>
