<?xml version="1.0" encoding="utf-8" standalone="no"?>
<!DOCTYPE svg PUBLIC "-//W3C//DTD SVG 1.1//EN"
  "http://www.w3.org/Graphics/SVG/1.1/DTD/svg11.dtd">
<svg height="1800pt" version="1.1" viewBox="0 0 2520 1800" width="2520pt" xmlns="http://www.w3.org/2000/svg" xmlns:xlink="http://www.w3.org/1999/xlink">
 <metadata>
  <rdf:RDF xmlns:cc="http://creativecommons.org/ns#" xmlns:dc="http://purl.org/dc/elements/1.1/" xmlns:rdf="http://www.w3.org/1999/02/22-rdf-syntax-ns#">
   <cc:Work>
    <dc:type rdf:resource="http://purl.org/dc/dcmitype/StillImage"/>
    <dc:date>2021-08-13T03:53:01.793841</dc:date>
    <dc:format>image/svg+xml</dc:format>
    <dc:creator>
     <cc:Agent>
      <dc:title>Matplotlib v3.4.2, https://matplotlib.org/</dc:title>
     </cc:Agent>
    </dc:creator>
   </cc:Work>
  </rdf:RDF>
 </metadata>
 <defs>
  <style type="text/css">*{stroke-linecap:butt;stroke-linejoin:round;}</style>
 </defs>
 <g id="figure_1">
  <g id="patch_1">
   <path d="M 0 1800 
L 2520 1800 
L 2520 0 
L 0 0 
z
" style="fill:#ffffff;"/>
  </g>
  <g id="axes_1">
   <g id="patch_2">
    <path d="M 234.71 1621.54 
L 2507.04 1621.54 
L 2507.04 12.96 
L 234.71 12.96 
z
" style="fill:#eaeaf2;"/>
   </g>
   <g id="matplotlib.axis_1">
    <g id="xtick_1">
     <g id="line2d_1">
      <path clip-path="url(#pf1bf9f53ad)" d="M 337.997727 1621.54 
L 337.997727 12.96 
" style="fill:none;stroke:#ffffff;stroke-linecap:round;"/>
     </g>
     <g id="text_1">
      <!-- 0 -->
      <g style="fill:#262626;" transform="translate(317.144212 1684.723594)scale(0.75 -0.75)">
       <defs>
        <path d="M 266 2259 
Q 266 3072 433 3567 
Q 600 4063 929 4331 
Q 1259 4600 1759 4600 
Q 2128 4600 2406 4451 
Q 2684 4303 2865 4023 
Q 3047 3744 3150 3342 
Q 3253 2941 3253 2259 
Q 3253 1453 3087 958 
Q 2922 463 2592 192 
Q 2263 -78 1759 -78 
Q 1097 -78 719 397 
Q 266 969 266 2259 
z
M 844 2259 
Q 844 1131 1108 757 
Q 1372 384 1759 384 
Q 2147 384 2411 759 
Q 2675 1134 2675 2259 
Q 2675 3391 2411 3762 
Q 2147 4134 1753 4134 
Q 1366 4134 1134 3806 
Q 844 3388 844 2259 
z
" id="ArialMT-30" transform="scale(0.015625)"/>
       </defs>
       <use xlink:href="#ArialMT-30"/>
      </g>
     </g>
    </g>
    <g id="xtick_2">
     <g id="line2d_2">
      <path clip-path="url(#pf1bf9f53ad)" d="M 735.258217 1621.54 
L 735.258217 12.96 
" style="fill:none;stroke:#ffffff;stroke-linecap:round;"/>
     </g>
     <g id="text_2">
      <!-- 500 -->
      <g style="fill:#262626;" transform="translate(672.69767 1684.723594)scale(0.75 -0.75)">
       <defs>
        <path d="M 266 1200 
L 856 1250 
Q 922 819 1161 601 
Q 1400 384 1738 384 
Q 2144 384 2425 690 
Q 2706 997 2706 1503 
Q 2706 1984 2436 2262 
Q 2166 2541 1728 2541 
Q 1456 2541 1237 2417 
Q 1019 2294 894 2097 
L 366 2166 
L 809 4519 
L 3088 4519 
L 3088 3981 
L 1259 3981 
L 1013 2750 
Q 1425 3038 1878 3038 
Q 2478 3038 2890 2622 
Q 3303 2206 3303 1553 
Q 3303 931 2941 478 
Q 2500 -78 1738 -78 
Q 1113 -78 717 272 
Q 322 622 266 1200 
z
" id="ArialMT-35" transform="scale(0.015625)"/>
       </defs>
       <use xlink:href="#ArialMT-35"/>
       <use x="55.615234" xlink:href="#ArialMT-30"/>
       <use x="111.230469" xlink:href="#ArialMT-30"/>
      </g>
     </g>
    </g>
    <g id="xtick_3">
     <g id="line2d_3">
      <path clip-path="url(#pf1bf9f53ad)" d="M 1132.518706 1621.54 
L 1132.518706 12.96 
" style="fill:none;stroke:#ffffff;stroke-linecap:round;"/>
     </g>
     <g id="text_3">
      <!-- 1000 -->
      <g style="fill:#262626;" transform="translate(1049.104644 1684.723594)scale(0.75 -0.75)">
       <defs>
        <path d="M 2384 0 
L 1822 0 
L 1822 3584 
Q 1619 3391 1289 3197 
Q 959 3003 697 2906 
L 697 3450 
Q 1169 3672 1522 3987 
Q 1875 4303 2022 4600 
L 2384 4600 
L 2384 0 
z
" id="ArialMT-31" transform="scale(0.015625)"/>
       </defs>
       <use xlink:href="#ArialMT-31"/>
       <use x="55.615234" xlink:href="#ArialMT-30"/>
       <use x="111.230469" xlink:href="#ArialMT-30"/>
       <use x="166.845703" xlink:href="#ArialMT-30"/>
      </g>
     </g>
    </g>
    <g id="xtick_4">
     <g id="line2d_4">
      <path clip-path="url(#pf1bf9f53ad)" d="M 1529.779196 1621.54 
L 1529.779196 12.96 
" style="fill:none;stroke:#ffffff;stroke-linecap:round;"/>
     </g>
     <g id="text_4">
      <!-- 1500 -->
      <g style="fill:#262626;" transform="translate(1446.365133 1684.723594)scale(0.75 -0.75)">
       <use xlink:href="#ArialMT-31"/>
       <use x="55.615234" xlink:href="#ArialMT-35"/>
       <use x="111.230469" xlink:href="#ArialMT-30"/>
       <use x="166.845703" xlink:href="#ArialMT-30"/>
      </g>
     </g>
    </g>
    <g id="xtick_5">
     <g id="line2d_5">
      <path clip-path="url(#pf1bf9f53ad)" d="M 1927.039685 1621.54 
L 1927.039685 12.96 
" style="fill:none;stroke:#ffffff;stroke-linecap:round;"/>
     </g>
     <g id="text_5">
      <!-- 2000 -->
      <g style="fill:#262626;" transform="translate(1843.625623 1684.723594)scale(0.75 -0.75)">
       <defs>
        <path d="M 3222 541 
L 3222 0 
L 194 0 
Q 188 203 259 391 
Q 375 700 629 1000 
Q 884 1300 1366 1694 
Q 2113 2306 2375 2664 
Q 2638 3022 2638 3341 
Q 2638 3675 2398 3904 
Q 2159 4134 1775 4134 
Q 1369 4134 1125 3890 
Q 881 3647 878 3216 
L 300 3275 
Q 359 3922 746 4261 
Q 1134 4600 1788 4600 
Q 2447 4600 2831 4234 
Q 3216 3869 3216 3328 
Q 3216 3053 3103 2787 
Q 2991 2522 2730 2228 
Q 2469 1934 1863 1422 
Q 1356 997 1212 845 
Q 1069 694 975 541 
L 3222 541 
z
" id="ArialMT-32" transform="scale(0.015625)"/>
       </defs>
       <use xlink:href="#ArialMT-32"/>
       <use x="55.615234" xlink:href="#ArialMT-30"/>
       <use x="111.230469" xlink:href="#ArialMT-30"/>
       <use x="166.845703" xlink:href="#ArialMT-30"/>
      </g>
     </g>
    </g>
    <g id="xtick_6">
     <g id="line2d_6">
      <path clip-path="url(#pf1bf9f53ad)" d="M 2324.300175 1621.54 
L 2324.300175 12.96 
" style="fill:none;stroke:#ffffff;stroke-linecap:round;"/>
     </g>
     <g id="text_6">
      <!-- 2500 -->
      <g style="fill:#262626;" transform="translate(2240.886112 1684.723594)scale(0.75 -0.75)">
       <use xlink:href="#ArialMT-32"/>
       <use x="55.615234" xlink:href="#ArialMT-35"/>
       <use x="111.230469" xlink:href="#ArialMT-30"/>
       <use x="166.845703" xlink:href="#ArialMT-30"/>
      </g>
     </g>
    </g>
    <g id="text_7">
     <!-- TFF3 positive tile count -->
     <g style="fill:#262626;" transform="translate(905.722656 1768.317344)scale(0.9 -0.9)">
      <defs>
       <path d="M 1659 0 
L 1659 4041 
L 150 4041 
L 150 4581 
L 3781 4581 
L 3781 4041 
L 2266 4041 
L 2266 0 
L 1659 0 
z
" id="ArialMT-54" transform="scale(0.015625)"/>
       <path d="M 525 0 
L 525 4581 
L 3616 4581 
L 3616 4041 
L 1131 4041 
L 1131 2622 
L 3281 2622 
L 3281 2081 
L 1131 2081 
L 1131 0 
L 525 0 
z
" id="ArialMT-46" transform="scale(0.015625)"/>
       <path d="M 269 1209 
L 831 1284 
Q 928 806 1161 595 
Q 1394 384 1728 384 
Q 2125 384 2398 659 
Q 2672 934 2672 1341 
Q 2672 1728 2419 1979 
Q 2166 2231 1775 2231 
Q 1616 2231 1378 2169 
L 1441 2663 
Q 1497 2656 1531 2656 
Q 1891 2656 2178 2843 
Q 2466 3031 2466 3422 
Q 2466 3731 2256 3934 
Q 2047 4138 1716 4138 
Q 1388 4138 1169 3931 
Q 950 3725 888 3313 
L 325 3413 
Q 428 3978 793 4289 
Q 1159 4600 1703 4600 
Q 2078 4600 2393 4439 
Q 2709 4278 2876 4000 
Q 3044 3722 3044 3409 
Q 3044 3113 2884 2869 
Q 2725 2625 2413 2481 
Q 2819 2388 3044 2092 
Q 3269 1797 3269 1353 
Q 3269 753 2831 336 
Q 2394 -81 1725 -81 
Q 1122 -81 723 278 
Q 325 638 269 1209 
z
" id="ArialMT-33" transform="scale(0.015625)"/>
       <path id="ArialMT-20" transform="scale(0.015625)"/>
       <path d="M 422 -1272 
L 422 3319 
L 934 3319 
L 934 2888 
Q 1116 3141 1344 3267 
Q 1572 3394 1897 3394 
Q 2322 3394 2647 3175 
Q 2972 2956 3137 2557 
Q 3303 2159 3303 1684 
Q 3303 1175 3120 767 
Q 2938 359 2589 142 
Q 2241 -75 1856 -75 
Q 1575 -75 1351 44 
Q 1128 163 984 344 
L 984 -1272 
L 422 -1272 
z
M 931 1641 
Q 931 1000 1190 694 
Q 1450 388 1819 388 
Q 2194 388 2461 705 
Q 2728 1022 2728 1688 
Q 2728 2322 2467 2637 
Q 2206 2953 1844 2953 
Q 1484 2953 1207 2617 
Q 931 2281 931 1641 
z
" id="ArialMT-70" transform="scale(0.015625)"/>
       <path d="M 213 1659 
Q 213 2581 725 3025 
Q 1153 3394 1769 3394 
Q 2453 3394 2887 2945 
Q 3322 2497 3322 1706 
Q 3322 1066 3130 698 
Q 2938 331 2570 128 
Q 2203 -75 1769 -75 
Q 1072 -75 642 372 
Q 213 819 213 1659 
z
M 791 1659 
Q 791 1022 1069 705 
Q 1347 388 1769 388 
Q 2188 388 2466 706 
Q 2744 1025 2744 1678 
Q 2744 2294 2464 2611 
Q 2184 2928 1769 2928 
Q 1347 2928 1069 2612 
Q 791 2297 791 1659 
z
" id="ArialMT-6f" transform="scale(0.015625)"/>
       <path d="M 197 991 
L 753 1078 
Q 800 744 1014 566 
Q 1228 388 1613 388 
Q 2000 388 2187 545 
Q 2375 703 2375 916 
Q 2375 1106 2209 1216 
Q 2094 1291 1634 1406 
Q 1016 1563 777 1677 
Q 538 1791 414 1992 
Q 291 2194 291 2438 
Q 291 2659 392 2848 
Q 494 3038 669 3163 
Q 800 3259 1026 3326 
Q 1253 3394 1513 3394 
Q 1903 3394 2198 3281 
Q 2494 3169 2634 2976 
Q 2775 2784 2828 2463 
L 2278 2388 
Q 2241 2644 2061 2787 
Q 1881 2931 1553 2931 
Q 1166 2931 1000 2803 
Q 834 2675 834 2503 
Q 834 2394 903 2306 
Q 972 2216 1119 2156 
Q 1203 2125 1616 2013 
Q 2213 1853 2448 1751 
Q 2684 1650 2818 1456 
Q 2953 1263 2953 975 
Q 2953 694 2789 445 
Q 2625 197 2315 61 
Q 2006 -75 1616 -75 
Q 969 -75 630 194 
Q 291 463 197 991 
z
" id="ArialMT-73" transform="scale(0.015625)"/>
       <path d="M 425 3934 
L 425 4581 
L 988 4581 
L 988 3934 
L 425 3934 
z
M 425 0 
L 425 3319 
L 988 3319 
L 988 0 
L 425 0 
z
" id="ArialMT-69" transform="scale(0.015625)"/>
       <path d="M 1650 503 
L 1731 6 
Q 1494 -44 1306 -44 
Q 1000 -44 831 53 
Q 663 150 594 308 
Q 525 466 525 972 
L 525 2881 
L 113 2881 
L 113 3319 
L 525 3319 
L 525 4141 
L 1084 4478 
L 1084 3319 
L 1650 3319 
L 1650 2881 
L 1084 2881 
L 1084 941 
Q 1084 700 1114 631 
Q 1144 563 1211 522 
Q 1278 481 1403 481 
Q 1497 481 1650 503 
z
" id="ArialMT-74" transform="scale(0.015625)"/>
       <path d="M 1344 0 
L 81 3319 
L 675 3319 
L 1388 1331 
Q 1503 1009 1600 663 
Q 1675 925 1809 1294 
L 2547 3319 
L 3125 3319 
L 1869 0 
L 1344 0 
z
" id="ArialMT-76" transform="scale(0.015625)"/>
       <path d="M 2694 1069 
L 3275 997 
Q 3138 488 2766 206 
Q 2394 -75 1816 -75 
Q 1088 -75 661 373 
Q 234 822 234 1631 
Q 234 2469 665 2931 
Q 1097 3394 1784 3394 
Q 2450 3394 2872 2941 
Q 3294 2488 3294 1666 
Q 3294 1616 3291 1516 
L 816 1516 
Q 847 969 1125 678 
Q 1403 388 1819 388 
Q 2128 388 2347 550 
Q 2566 713 2694 1069 
z
M 847 1978 
L 2700 1978 
Q 2663 2397 2488 2606 
Q 2219 2931 1791 2931 
Q 1403 2931 1139 2672 
Q 875 2413 847 1978 
z
" id="ArialMT-65" transform="scale(0.015625)"/>
       <path d="M 409 0 
L 409 4581 
L 972 4581 
L 972 0 
L 409 0 
z
" id="ArialMT-6c" transform="scale(0.015625)"/>
       <path d="M 2588 1216 
L 3141 1144 
Q 3050 572 2676 248 
Q 2303 -75 1759 -75 
Q 1078 -75 664 370 
Q 250 816 250 1647 
Q 250 2184 428 2587 
Q 606 2991 970 3192 
Q 1334 3394 1763 3394 
Q 2303 3394 2647 3120 
Q 2991 2847 3088 2344 
L 2541 2259 
Q 2463 2594 2264 2762 
Q 2066 2931 1784 2931 
Q 1359 2931 1093 2626 
Q 828 2322 828 1663 
Q 828 994 1084 691 
Q 1341 388 1753 388 
Q 2084 388 2306 591 
Q 2528 794 2588 1216 
z
" id="ArialMT-63" transform="scale(0.015625)"/>
       <path d="M 2597 0 
L 2597 488 
Q 2209 -75 1544 -75 
Q 1250 -75 995 37 
Q 741 150 617 320 
Q 494 491 444 738 
Q 409 903 409 1263 
L 409 3319 
L 972 3319 
L 972 1478 
Q 972 1038 1006 884 
Q 1059 663 1231 536 
Q 1403 409 1656 409 
Q 1909 409 2131 539 
Q 2353 669 2445 892 
Q 2538 1116 2538 1541 
L 2538 3319 
L 3100 3319 
L 3100 0 
L 2597 0 
z
" id="ArialMT-75" transform="scale(0.015625)"/>
       <path d="M 422 0 
L 422 3319 
L 928 3319 
L 928 2847 
Q 1294 3394 1984 3394 
Q 2284 3394 2536 3286 
Q 2788 3178 2913 3003 
Q 3038 2828 3088 2588 
Q 3119 2431 3119 2041 
L 3119 0 
L 2556 0 
L 2556 2019 
Q 2556 2363 2490 2533 
Q 2425 2703 2258 2804 
Q 2091 2906 1866 2906 
Q 1506 2906 1245 2678 
Q 984 2450 984 1813 
L 984 0 
L 422 0 
z
" id="ArialMT-6e" transform="scale(0.015625)"/>
      </defs>
      <use xlink:href="#ArialMT-54"/>
      <use x="61.083984" xlink:href="#ArialMT-46"/>
      <use x="122.167969" xlink:href="#ArialMT-46"/>
      <use x="183.251953" xlink:href="#ArialMT-33"/>
      <use x="238.867188" xlink:href="#ArialMT-20"/>
      <use x="266.650391" xlink:href="#ArialMT-70"/>
      <use x="322.265625" xlink:href="#ArialMT-6f"/>
      <use x="377.880859" xlink:href="#ArialMT-73"/>
      <use x="427.880859" xlink:href="#ArialMT-69"/>
      <use x="450.097656" xlink:href="#ArialMT-74"/>
      <use x="477.880859" xlink:href="#ArialMT-69"/>
      <use x="500.097656" xlink:href="#ArialMT-76"/>
      <use x="550.097656" xlink:href="#ArialMT-65"/>
      <use x="605.712891" xlink:href="#ArialMT-20"/>
      <use x="633.496094" xlink:href="#ArialMT-74"/>
      <use x="661.279297" xlink:href="#ArialMT-69"/>
      <use x="683.496094" xlink:href="#ArialMT-6c"/>
      <use x="705.712891" xlink:href="#ArialMT-65"/>
      <use x="761.328125" xlink:href="#ArialMT-20"/>
      <use x="789.111328" xlink:href="#ArialMT-63"/>
      <use x="839.111328" xlink:href="#ArialMT-6f"/>
      <use x="894.726562" xlink:href="#ArialMT-75"/>
      <use x="950.341797" xlink:href="#ArialMT-6e"/>
      <use x="1005.957031" xlink:href="#ArialMT-74"/>
     </g>
    </g>
   </g>
   <g id="matplotlib.axis_2">
    <g id="ytick_1">
     <g id="line2d_7">
      <path clip-path="url(#pf1bf9f53ad)" d="M 234.71 1621.54 
L 2507.04 1621.54 
" style="fill:none;stroke:#ffffff;stroke-linecap:round;"/>
     </g>
     <g id="text_8">
      <!-- 0 -->
      <g style="fill:#262626;" transform="translate(183.502969 1648.381797)scale(0.75 -0.75)">
       <use xlink:href="#ArialMT-30"/>
      </g>
     </g>
    </g>
    <g id="ytick_2">
     <g id="line2d_8">
      <path clip-path="url(#pf1bf9f53ad)" d="M 234.71 1326.928278 
L 2507.04 1326.928278 
" style="fill:none;stroke:#ffffff;stroke-linecap:round;"/>
     </g>
     <g id="text_9">
      <!-- 50 -->
      <g style="fill:#262626;" transform="translate(141.795938 1353.770075)scale(0.75 -0.75)">
       <use xlink:href="#ArialMT-35"/>
       <use x="55.615234" xlink:href="#ArialMT-30"/>
      </g>
     </g>
    </g>
    <g id="ytick_3">
     <g id="line2d_9">
      <path clip-path="url(#pf1bf9f53ad)" d="M 234.71 1032.316557 
L 2507.04 1032.316557 
" style="fill:none;stroke:#ffffff;stroke-linecap:round;"/>
     </g>
     <g id="text_10">
      <!-- 100 -->
      <g style="fill:#262626;" transform="translate(100.088906 1059.158354)scale(0.75 -0.75)">
       <use xlink:href="#ArialMT-31"/>
       <use x="55.615234" xlink:href="#ArialMT-30"/>
       <use x="111.230469" xlink:href="#ArialMT-30"/>
      </g>
     </g>
    </g>
    <g id="ytick_4">
     <g id="line2d_10">
      <path clip-path="url(#pf1bf9f53ad)" d="M 234.71 737.704835 
L 2507.04 737.704835 
" style="fill:none;stroke:#ffffff;stroke-linecap:round;"/>
     </g>
     <g id="text_11">
      <!-- 150 -->
      <g style="fill:#262626;" transform="translate(100.088906 764.546632)scale(0.75 -0.75)">
       <use xlink:href="#ArialMT-31"/>
       <use x="55.615234" xlink:href="#ArialMT-35"/>
       <use x="111.230469" xlink:href="#ArialMT-30"/>
      </g>
     </g>
    </g>
    <g id="ytick_5">
     <g id="line2d_11">
      <path clip-path="url(#pf1bf9f53ad)" d="M 234.71 443.093114 
L 2507.04 443.093114 
" style="fill:none;stroke:#ffffff;stroke-linecap:round;"/>
     </g>
     <g id="text_12">
      <!-- 200 -->
      <g style="fill:#262626;" transform="translate(100.088906 469.93491)scale(0.75 -0.75)">
       <use xlink:href="#ArialMT-32"/>
       <use x="55.615234" xlink:href="#ArialMT-30"/>
       <use x="111.230469" xlink:href="#ArialMT-30"/>
      </g>
     </g>
    </g>
    <g id="ytick_6">
     <g id="line2d_12">
      <path clip-path="url(#pf1bf9f53ad)" d="M 234.71 148.481392 
L 2507.04 148.481392 
" style="fill:none;stroke:#ffffff;stroke-linecap:round;"/>
     </g>
     <g id="text_13">
      <!-- 250 -->
      <g style="fill:#262626;" transform="translate(100.088906 175.323189)scale(0.75 -0.75)">
       <use xlink:href="#ArialMT-32"/>
       <use x="55.615234" xlink:href="#ArialMT-35"/>
       <use x="111.230469" xlink:href="#ArialMT-30"/>
      </g>
     </g>
    </g>
    <g id="text_14">
     <!-- Count -->
     <g style="fill:#262626;" transform="translate(78.201406 937.322656)rotate(-90)scale(0.9 -0.9)">
      <defs>
       <path d="M 3763 1606 
L 4369 1453 
Q 4178 706 3683 314 
Q 3188 -78 2472 -78 
Q 1731 -78 1267 223 
Q 803 525 561 1097 
Q 319 1669 319 2325 
Q 319 3041 592 3573 
Q 866 4106 1370 4382 
Q 1875 4659 2481 4659 
Q 3169 4659 3637 4309 
Q 4106 3959 4291 3325 
L 3694 3184 
Q 3534 3684 3231 3912 
Q 2928 4141 2469 4141 
Q 1941 4141 1586 3887 
Q 1231 3634 1087 3207 
Q 944 2781 944 2328 
Q 944 1744 1114 1308 
Q 1284 872 1643 656 
Q 2003 441 2422 441 
Q 2931 441 3284 734 
Q 3638 1028 3763 1606 
z
" id="ArialMT-43" transform="scale(0.015625)"/>
      </defs>
      <use xlink:href="#ArialMT-43"/>
      <use x="72.216797" xlink:href="#ArialMT-6f"/>
      <use x="127.832031" xlink:href="#ArialMT-75"/>
      <use x="183.447266" xlink:href="#ArialMT-6e"/>
      <use x="239.0625" xlink:href="#ArialMT-74"/>
     </g>
    </g>
   </g>
   <g id="patch_3">
    <path clip-path="url(#pf1bf9f53ad)" d="M 337.997727 1621.54 
L 377.723776 1621.54 
L 377.723776 802.519414 
L 337.997727 802.519414 
z
" style="fill:#dd8452;fill-opacity:0.75;stroke:#ffffff;stroke-linejoin:miter;"/>
   </g>
   <g id="patch_4">
    <path clip-path="url(#pf1bf9f53ad)" d="M 377.723776 1621.54 
L 417.449825 1621.54 
L 417.449825 1385.850623 
L 377.723776 1385.850623 
z
" style="fill:#dd8452;fill-opacity:0.75;stroke:#ffffff;stroke-linejoin:miter;"/>
   </g>
   <g id="patch_5">
    <path clip-path="url(#pf1bf9f53ad)" d="M 417.449825 1621.54 
L 457.175874 1621.54 
L 457.175874 1468.341905 
L 417.449825 1468.341905 
z
" style="fill:#dd8452;fill-opacity:0.75;stroke:#ffffff;stroke-linejoin:miter;"/>
   </g>
   <g id="patch_6">
    <path clip-path="url(#pf1bf9f53ad)" d="M 457.175874 1621.54 
L 496.901923 1621.54 
L 496.901923 1515.47978 
L 457.175874 1515.47978 
z
" style="fill:#dd8452;fill-opacity:0.75;stroke:#ffffff;stroke-linejoin:miter;"/>
   </g>
   <g id="patch_7">
    <path clip-path="url(#pf1bf9f53ad)" d="M 496.901923 1621.54 
L 536.627972 1621.54 
L 536.627972 1527.264249 
L 496.901923 1527.264249 
z
" style="fill:#dd8452;fill-opacity:0.75;stroke:#ffffff;stroke-linejoin:miter;"/>
   </g>
   <g id="patch_8">
    <path clip-path="url(#pf1bf9f53ad)" d="M 536.627972 1621.54 
L 576.354021 1621.54 
L 576.354021 1562.617656 
L 536.627972 1562.617656 
z
" style="fill:#dd8452;fill-opacity:0.75;stroke:#ffffff;stroke-linejoin:miter;"/>
   </g>
   <g id="patch_9">
    <path clip-path="url(#pf1bf9f53ad)" d="M 576.354021 1621.54 
L 616.08007 1621.54 
L 616.08007 1568.50989 
L 576.354021 1568.50989 
z
" style="fill:#dd8452;fill-opacity:0.75;stroke:#ffffff;stroke-linejoin:miter;"/>
   </g>
   <g id="patch_10">
    <path clip-path="url(#pf1bf9f53ad)" d="M 616.08007 1621.54 
L 655.806119 1621.54 
L 655.806119 1592.078828 
L 616.08007 1592.078828 
z
" style="fill:#dd8452;fill-opacity:0.75;stroke:#ffffff;stroke-linejoin:miter;"/>
   </g>
   <g id="patch_11">
    <path clip-path="url(#pf1bf9f53ad)" d="M 655.806119 1621.54 
L 695.532168 1621.54 
L 695.532168 1603.863297 
L 655.806119 1603.863297 
z
" style="fill:#dd8452;fill-opacity:0.75;stroke:#ffffff;stroke-linejoin:miter;"/>
   </g>
   <g id="patch_12">
    <path clip-path="url(#pf1bf9f53ad)" d="M 695.532168 1621.54 
L 735.258217 1621.54 
L 735.258217 1592.078828 
L 695.532168 1592.078828 
z
" style="fill:#dd8452;fill-opacity:0.75;stroke:#ffffff;stroke-linejoin:miter;"/>
   </g>
   <g id="patch_13">
    <path clip-path="url(#pf1bf9f53ad)" d="M 735.258217 1621.54 
L 774.984266 1621.54 
L 774.984266 1603.863297 
L 735.258217 1603.863297 
z
" style="fill:#dd8452;fill-opacity:0.75;stroke:#ffffff;stroke-linejoin:miter;"/>
   </g>
   <g id="patch_14">
    <path clip-path="url(#pf1bf9f53ad)" d="M 774.984266 1621.54 
L 814.710315 1621.54 
L 814.710315 1603.863297 
L 774.984266 1603.863297 
z
" style="fill:#dd8452;fill-opacity:0.75;stroke:#ffffff;stroke-linejoin:miter;"/>
   </g>
   <g id="patch_15">
    <path clip-path="url(#pf1bf9f53ad)" d="M 814.710315 1621.54 
L 854.436364 1621.54 
L 854.436364 1603.863297 
L 814.710315 1603.863297 
z
" style="fill:#dd8452;fill-opacity:0.75;stroke:#ffffff;stroke-linejoin:miter;"/>
   </g>
   <g id="patch_16">
    <path clip-path="url(#pf1bf9f53ad)" d="M 854.436364 1621.54 
L 894.162413 1621.54 
L 894.162413 1603.863297 
L 854.436364 1603.863297 
z
" style="fill:#dd8452;fill-opacity:0.75;stroke:#ffffff;stroke-linejoin:miter;"/>
   </g>
   <g id="patch_17">
    <path clip-path="url(#pf1bf9f53ad)" d="M 894.162413 1621.54 
L 933.888462 1621.54 
L 933.888462 1603.863297 
L 894.162413 1603.863297 
z
" style="fill:#dd8452;fill-opacity:0.75;stroke:#ffffff;stroke-linejoin:miter;"/>
   </g>
   <g id="patch_18">
    <path clip-path="url(#pf1bf9f53ad)" d="M 933.888462 1621.54 
L 973.61451 1621.54 
L 973.61451 1615.647766 
L 933.888462 1615.647766 
z
" style="fill:#dd8452;fill-opacity:0.75;stroke:#ffffff;stroke-linejoin:miter;"/>
   </g>
   <g id="patch_19">
    <path clip-path="url(#pf1bf9f53ad)" d="M 973.61451 1621.54 
L 1013.340559 1621.54 
L 1013.340559 1603.863297 
L 973.61451 1603.863297 
z
" style="fill:#dd8452;fill-opacity:0.75;stroke:#ffffff;stroke-linejoin:miter;"/>
   </g>
   <g id="patch_20">
    <path clip-path="url(#pf1bf9f53ad)" d="M 1013.340559 1621.54 
L 1053.066608 1621.54 
L 1053.066608 1609.755531 
L 1013.340559 1609.755531 
z
" style="fill:#dd8452;fill-opacity:0.75;stroke:#ffffff;stroke-linejoin:miter;"/>
   </g>
   <g id="patch_21">
    <path clip-path="url(#pf1bf9f53ad)" d="M 1053.066608 1621.54 
L 1092.792657 1621.54 
L 1092.792657 1615.647766 
L 1053.066608 1615.647766 
z
" style="fill:#dd8452;fill-opacity:0.75;stroke:#ffffff;stroke-linejoin:miter;"/>
   </g>
   <g id="patch_22">
    <path clip-path="url(#pf1bf9f53ad)" d="M 1092.792657 1621.54 
L 1132.518706 1621.54 
L 1132.518706 1603.863297 
L 1092.792657 1603.863297 
z
" style="fill:#dd8452;fill-opacity:0.75;stroke:#ffffff;stroke-linejoin:miter;"/>
   </g>
   <g id="patch_23">
    <path clip-path="url(#pf1bf9f53ad)" d="M 1132.518706 1621.54 
L 1172.244755 1621.54 
L 1172.244755 1621.54 
L 1132.518706 1621.54 
z
" style="fill:#dd8452;fill-opacity:0.75;stroke:#ffffff;stroke-linejoin:miter;"/>
   </g>
   <g id="patch_24">
    <path clip-path="url(#pf1bf9f53ad)" d="M 1172.244755 1621.54 
L 1211.970804 1621.54 
L 1211.970804 1615.647766 
L 1172.244755 1615.647766 
z
" style="fill:#dd8452;fill-opacity:0.75;stroke:#ffffff;stroke-linejoin:miter;"/>
   </g>
   <g id="patch_25">
    <path clip-path="url(#pf1bf9f53ad)" d="M 1211.970804 1621.54 
L 1251.696853 1621.54 
L 1251.696853 1621.54 
L 1211.970804 1621.54 
z
" style="fill:#dd8452;fill-opacity:0.75;stroke:#ffffff;stroke-linejoin:miter;"/>
   </g>
   <g id="patch_26">
    <path clip-path="url(#pf1bf9f53ad)" d="M 1251.696853 1621.54 
L 1291.422902 1621.54 
L 1291.422902 1621.54 
L 1251.696853 1621.54 
z
" style="fill:#dd8452;fill-opacity:0.75;stroke:#ffffff;stroke-linejoin:miter;"/>
   </g>
   <g id="patch_27">
    <path clip-path="url(#pf1bf9f53ad)" d="M 1291.422902 1621.54 
L 1331.148951 1621.54 
L 1331.148951 1615.647766 
L 1291.422902 1615.647766 
z
" style="fill:#dd8452;fill-opacity:0.75;stroke:#ffffff;stroke-linejoin:miter;"/>
   </g>
   <g id="patch_28">
    <path clip-path="url(#pf1bf9f53ad)" d="M 1331.148951 1621.54 
L 1370.875 1621.54 
L 1370.875 1621.54 
L 1331.148951 1621.54 
z
" style="fill:#dd8452;fill-opacity:0.75;stroke:#ffffff;stroke-linejoin:miter;"/>
   </g>
   <g id="patch_29">
    <path clip-path="url(#pf1bf9f53ad)" d="M 1370.875 1621.54 
L 1410.601049 1621.54 
L 1410.601049 1621.54 
L 1370.875 1621.54 
z
" style="fill:#dd8452;fill-opacity:0.75;stroke:#ffffff;stroke-linejoin:miter;"/>
   </g>
   <g id="patch_30">
    <path clip-path="url(#pf1bf9f53ad)" d="M 1410.601049 1621.54 
L 1450.327098 1621.54 
L 1450.327098 1615.647766 
L 1410.601049 1615.647766 
z
" style="fill:#dd8452;fill-opacity:0.75;stroke:#ffffff;stroke-linejoin:miter;"/>
   </g>
   <g id="patch_31">
    <path clip-path="url(#pf1bf9f53ad)" d="M 1450.327098 1621.54 
L 1490.053147 1621.54 
L 1490.053147 1609.755531 
L 1450.327098 1609.755531 
z
" style="fill:#dd8452;fill-opacity:0.75;stroke:#ffffff;stroke-linejoin:miter;"/>
   </g>
   <g id="patch_32">
    <path clip-path="url(#pf1bf9f53ad)" d="M 1490.053147 1621.54 
L 1529.779196 1621.54 
L 1529.779196 1615.647766 
L 1490.053147 1615.647766 
z
" style="fill:#dd8452;fill-opacity:0.75;stroke:#ffffff;stroke-linejoin:miter;"/>
   </g>
   <g id="patch_33">
    <path clip-path="url(#pf1bf9f53ad)" d="M 1529.779196 1621.54 
L 1569.505245 1621.54 
L 1569.505245 1621.54 
L 1529.779196 1621.54 
z
" style="fill:#dd8452;fill-opacity:0.75;stroke:#ffffff;stroke-linejoin:miter;"/>
   </g>
   <g id="patch_34">
    <path clip-path="url(#pf1bf9f53ad)" d="M 1569.505245 1621.54 
L 1609.231294 1621.54 
L 1609.231294 1621.54 
L 1569.505245 1621.54 
z
" style="fill:#dd8452;fill-opacity:0.75;stroke:#ffffff;stroke-linejoin:miter;"/>
   </g>
   <g id="patch_35">
    <path clip-path="url(#pf1bf9f53ad)" d="M 1609.231294 1621.54 
L 1648.957343 1621.54 
L 1648.957343 1615.647766 
L 1609.231294 1615.647766 
z
" style="fill:#dd8452;fill-opacity:0.75;stroke:#ffffff;stroke-linejoin:miter;"/>
   </g>
   <g id="patch_36">
    <path clip-path="url(#pf1bf9f53ad)" d="M 1648.957343 1621.54 
L 1688.683392 1621.54 
L 1688.683392 1621.54 
L 1648.957343 1621.54 
z
" style="fill:#dd8452;fill-opacity:0.75;stroke:#ffffff;stroke-linejoin:miter;"/>
   </g>
   <g id="patch_37">
    <path clip-path="url(#pf1bf9f53ad)" d="M 1688.683392 1621.54 
L 1728.409441 1621.54 
L 1728.409441 1621.54 
L 1688.683392 1621.54 
z
" style="fill:#dd8452;fill-opacity:0.75;stroke:#ffffff;stroke-linejoin:miter;"/>
   </g>
   <g id="patch_38">
    <path clip-path="url(#pf1bf9f53ad)" d="M 1728.409441 1621.54 
L 1768.13549 1621.54 
L 1768.13549 1621.54 
L 1728.409441 1621.54 
z
" style="fill:#dd8452;fill-opacity:0.75;stroke:#ffffff;stroke-linejoin:miter;"/>
   </g>
   <g id="patch_39">
    <path clip-path="url(#pf1bf9f53ad)" d="M 1768.13549 1621.54 
L 1807.861538 1621.54 
L 1807.861538 1621.54 
L 1768.13549 1621.54 
z
" style="fill:#dd8452;fill-opacity:0.75;stroke:#ffffff;stroke-linejoin:miter;"/>
   </g>
   <g id="patch_40">
    <path clip-path="url(#pf1bf9f53ad)" d="M 1807.861538 1621.54 
L 1847.587587 1621.54 
L 1847.587587 1621.54 
L 1807.861538 1621.54 
z
" style="fill:#dd8452;fill-opacity:0.75;stroke:#ffffff;stroke-linejoin:miter;"/>
   </g>
   <g id="patch_41">
    <path clip-path="url(#pf1bf9f53ad)" d="M 1847.587587 1621.54 
L 1887.313636 1621.54 
L 1887.313636 1621.54 
L 1847.587587 1621.54 
z
" style="fill:#dd8452;fill-opacity:0.75;stroke:#ffffff;stroke-linejoin:miter;"/>
   </g>
   <g id="patch_42">
    <path clip-path="url(#pf1bf9f53ad)" d="M 1887.313636 1621.54 
L 1927.039685 1621.54 
L 1927.039685 1621.54 
L 1887.313636 1621.54 
z
" style="fill:#dd8452;fill-opacity:0.75;stroke:#ffffff;stroke-linejoin:miter;"/>
   </g>
   <g id="patch_43">
    <path clip-path="url(#pf1bf9f53ad)" d="M 1927.039685 1621.54 
L 1966.765734 1621.54 
L 1966.765734 1621.54 
L 1927.039685 1621.54 
z
" style="fill:#dd8452;fill-opacity:0.75;stroke:#ffffff;stroke-linejoin:miter;"/>
   </g>
   <g id="patch_44">
    <path clip-path="url(#pf1bf9f53ad)" d="M 1966.765734 1621.54 
L 2006.491783 1621.54 
L 2006.491783 1621.54 
L 1966.765734 1621.54 
z
" style="fill:#dd8452;fill-opacity:0.75;stroke:#ffffff;stroke-linejoin:miter;"/>
   </g>
   <g id="patch_45">
    <path clip-path="url(#pf1bf9f53ad)" d="M 2006.491783 1621.54 
L 2046.217832 1621.54 
L 2046.217832 1621.54 
L 2006.491783 1621.54 
z
" style="fill:#dd8452;fill-opacity:0.75;stroke:#ffffff;stroke-linejoin:miter;"/>
   </g>
   <g id="patch_46">
    <path clip-path="url(#pf1bf9f53ad)" d="M 2046.217832 1621.54 
L 2085.943881 1621.54 
L 2085.943881 1615.647766 
L 2046.217832 1615.647766 
z
" style="fill:#dd8452;fill-opacity:0.75;stroke:#ffffff;stroke-linejoin:miter;"/>
   </g>
   <g id="patch_47">
    <path clip-path="url(#pf1bf9f53ad)" d="M 2085.943881 1621.54 
L 2125.66993 1621.54 
L 2125.66993 1621.54 
L 2085.943881 1621.54 
z
" style="fill:#dd8452;fill-opacity:0.75;stroke:#ffffff;stroke-linejoin:miter;"/>
   </g>
   <g id="patch_48">
    <path clip-path="url(#pf1bf9f53ad)" d="M 2125.66993 1621.54 
L 2165.395979 1621.54 
L 2165.395979 1621.54 
L 2125.66993 1621.54 
z
" style="fill:#dd8452;fill-opacity:0.75;stroke:#ffffff;stroke-linejoin:miter;"/>
   </g>
   <g id="patch_49">
    <path clip-path="url(#pf1bf9f53ad)" d="M 2165.395979 1621.54 
L 2205.122028 1621.54 
L 2205.122028 1621.54 
L 2165.395979 1621.54 
z
" style="fill:#dd8452;fill-opacity:0.75;stroke:#ffffff;stroke-linejoin:miter;"/>
   </g>
   <g id="patch_50">
    <path clip-path="url(#pf1bf9f53ad)" d="M 2205.122028 1621.54 
L 2244.848077 1621.54 
L 2244.848077 1621.54 
L 2205.122028 1621.54 
z
" style="fill:#dd8452;fill-opacity:0.75;stroke:#ffffff;stroke-linejoin:miter;"/>
   </g>
   <g id="patch_51">
    <path clip-path="url(#pf1bf9f53ad)" d="M 2244.848077 1621.54 
L 2284.574126 1621.54 
L 2284.574126 1621.54 
L 2244.848077 1621.54 
z
" style="fill:#dd8452;fill-opacity:0.75;stroke:#ffffff;stroke-linejoin:miter;"/>
   </g>
   <g id="patch_52">
    <path clip-path="url(#pf1bf9f53ad)" d="M 2284.574126 1621.54 
L 2324.300175 1621.54 
L 2324.300175 1621.54 
L 2284.574126 1621.54 
z
" style="fill:#dd8452;fill-opacity:0.75;stroke:#ffffff;stroke-linejoin:miter;"/>
   </g>
   <g id="patch_53">
    <path clip-path="url(#pf1bf9f53ad)" d="M 2324.300175 1621.54 
L 2364.026224 1621.54 
L 2364.026224 1615.647766 
L 2324.300175 1615.647766 
z
" style="fill:#dd8452;fill-opacity:0.75;stroke:#ffffff;stroke-linejoin:miter;"/>
   </g>
   <g id="patch_54">
    <path clip-path="url(#pf1bf9f53ad)" d="M 2364.026224 1621.54 
L 2403.752273 1621.54 
L 2403.752273 1615.647766 
L 2364.026224 1615.647766 
z
" style="fill:#dd8452;fill-opacity:0.75;stroke:#ffffff;stroke-linejoin:miter;"/>
   </g>
   <g id="patch_55">
    <path clip-path="url(#pf1bf9f53ad)" d="M 337.997727 802.519414 
L 377.723776 802.519414 
L 377.723776 89.559048 
L 337.997727 89.559048 
z
" style="fill:#4c72b0;fill-opacity:0.75;stroke:#ffffff;stroke-linejoin:miter;"/>
   </g>
   <g id="patch_56">
    <path clip-path="url(#pf1bf9f53ad)" d="M 377.723776 1385.850623 
L 417.449825 1385.850623 
L 417.449825 1362.281685 
L 377.723776 1362.281685 
z
" style="fill:#4c72b0;fill-opacity:0.75;stroke:#ffffff;stroke-linejoin:miter;"/>
   </g>
   <g id="patch_57">
    <path clip-path="url(#pf1bf9f53ad)" d="M 417.449825 1468.341905 
L 457.175874 1468.341905 
L 457.175874 1456.557436 
L 417.449825 1456.557436 
z
" style="fill:#4c72b0;fill-opacity:0.75;stroke:#ffffff;stroke-linejoin:miter;"/>
   </g>
   <g id="patch_58">
    <path clip-path="url(#pf1bf9f53ad)" d="M 457.175874 1515.47978 
L 496.901923 1515.47978 
L 496.901923 1515.47978 
L 457.175874 1515.47978 
z
" style="fill:#4c72b0;fill-opacity:0.75;stroke:#ffffff;stroke-linejoin:miter;"/>
   </g>
   <g id="patch_59">
    <path clip-path="url(#pf1bf9f53ad)" d="M 496.901923 1527.264249 
L 536.627972 1527.264249 
L 536.627972 1527.264249 
L 496.901923 1527.264249 
z
" style="fill:#4c72b0;fill-opacity:0.75;stroke:#ffffff;stroke-linejoin:miter;"/>
   </g>
   <g id="patch_60">
    <path clip-path="url(#pf1bf9f53ad)" d="M 536.627972 1562.617656 
L 576.354021 1562.617656 
L 576.354021 1562.617656 
L 536.627972 1562.617656 
z
" style="fill:#4c72b0;fill-opacity:0.75;stroke:#ffffff;stroke-linejoin:miter;"/>
   </g>
   <g id="patch_61">
    <path clip-path="url(#pf1bf9f53ad)" d="M 576.354021 1568.50989 
L 616.08007 1568.50989 
L 616.08007 1568.50989 
L 576.354021 1568.50989 
z
" style="fill:#4c72b0;fill-opacity:0.75;stroke:#ffffff;stroke-linejoin:miter;"/>
   </g>
   <g id="patch_62">
    <path clip-path="url(#pf1bf9f53ad)" d="M 616.08007 1592.078828 
L 655.806119 1592.078828 
L 655.806119 1592.078828 
L 616.08007 1592.078828 
z
" style="fill:#4c72b0;fill-opacity:0.75;stroke:#ffffff;stroke-linejoin:miter;"/>
   </g>
   <g id="patch_63">
    <path clip-path="url(#pf1bf9f53ad)" d="M 655.806119 1603.863297 
L 695.532168 1603.863297 
L 695.532168 1603.863297 
L 655.806119 1603.863297 
z
" style="fill:#4c72b0;fill-opacity:0.75;stroke:#ffffff;stroke-linejoin:miter;"/>
   </g>
   <g id="patch_64">
    <path clip-path="url(#pf1bf9f53ad)" d="M 695.532168 1592.078828 
L 735.258217 1592.078828 
L 735.258217 1586.186593 
L 695.532168 1586.186593 
z
" style="fill:#4c72b0;fill-opacity:0.75;stroke:#ffffff;stroke-linejoin:miter;"/>
   </g>
   <g id="patch_65">
    <path clip-path="url(#pf1bf9f53ad)" d="M 735.258217 1603.863297 
L 774.984266 1603.863297 
L 774.984266 1603.863297 
L 735.258217 1603.863297 
z
" style="fill:#4c72b0;fill-opacity:0.75;stroke:#ffffff;stroke-linejoin:miter;"/>
   </g>
   <g id="patch_66">
    <path clip-path="url(#pf1bf9f53ad)" d="M 774.984266 1603.863297 
L 814.710315 1603.863297 
L 814.710315 1603.863297 
L 774.984266 1603.863297 
z
" style="fill:#4c72b0;fill-opacity:0.75;stroke:#ffffff;stroke-linejoin:miter;"/>
   </g>
   <g id="patch_67">
    <path clip-path="url(#pf1bf9f53ad)" d="M 814.710315 1603.863297 
L 854.436364 1603.863297 
L 854.436364 1603.863297 
L 814.710315 1603.863297 
z
" style="fill:#4c72b0;fill-opacity:0.75;stroke:#ffffff;stroke-linejoin:miter;"/>
   </g>
   <g id="patch_68">
    <path clip-path="url(#pf1bf9f53ad)" d="M 854.436364 1603.863297 
L 894.162413 1603.863297 
L 894.162413 1603.863297 
L 854.436364 1603.863297 
z
" style="fill:#4c72b0;fill-opacity:0.75;stroke:#ffffff;stroke-linejoin:miter;"/>
   </g>
   <g id="patch_69">
    <path clip-path="url(#pf1bf9f53ad)" d="M 894.162413 1603.863297 
L 933.888462 1603.863297 
L 933.888462 1603.863297 
L 894.162413 1603.863297 
z
" style="fill:#4c72b0;fill-opacity:0.75;stroke:#ffffff;stroke-linejoin:miter;"/>
   </g>
   <g id="patch_70">
    <path clip-path="url(#pf1bf9f53ad)" d="M 933.888462 1615.647766 
L 973.61451 1615.647766 
L 973.61451 1615.647766 
L 933.888462 1615.647766 
z
" style="fill:#4c72b0;fill-opacity:0.75;stroke:#ffffff;stroke-linejoin:miter;"/>
   </g>
   <g id="patch_71">
    <path clip-path="url(#pf1bf9f53ad)" d="M 973.61451 1603.863297 
L 1013.340559 1603.863297 
L 1013.340559 1603.863297 
L 973.61451 1603.863297 
z
" style="fill:#4c72b0;fill-opacity:0.75;stroke:#ffffff;stroke-linejoin:miter;"/>
   </g>
   <g id="patch_72">
    <path clip-path="url(#pf1bf9f53ad)" d="M 1013.340559 1609.755531 
L 1053.066608 1609.755531 
L 1053.066608 1609.755531 
L 1013.340559 1609.755531 
z
" style="fill:#4c72b0;fill-opacity:0.75;stroke:#ffffff;stroke-linejoin:miter;"/>
   </g>
   <g id="patch_73">
    <path clip-path="url(#pf1bf9f53ad)" d="M 1053.066608 1615.647766 
L 1092.792657 1615.647766 
L 1092.792657 1615.647766 
L 1053.066608 1615.647766 
z
" style="fill:#4c72b0;fill-opacity:0.75;stroke:#ffffff;stroke-linejoin:miter;"/>
   </g>
   <g id="patch_74">
    <path clip-path="url(#pf1bf9f53ad)" d="M 1092.792657 1603.863297 
L 1132.518706 1603.863297 
L 1132.518706 1603.863297 
L 1092.792657 1603.863297 
z
" style="fill:#4c72b0;fill-opacity:0.75;stroke:#ffffff;stroke-linejoin:miter;"/>
   </g>
   <g id="patch_75">
    <path clip-path="url(#pf1bf9f53ad)" d="M 1132.518706 1621.54 
L 1172.244755 1621.54 
L 1172.244755 1621.54 
L 1132.518706 1621.54 
z
" style="fill:#4c72b0;fill-opacity:0.75;stroke:#ffffff;stroke-linejoin:miter;"/>
   </g>
   <g id="patch_76">
    <path clip-path="url(#pf1bf9f53ad)" d="M 1172.244755 1615.647766 
L 1211.970804 1615.647766 
L 1211.970804 1615.647766 
L 1172.244755 1615.647766 
z
" style="fill:#4c72b0;fill-opacity:0.75;stroke:#ffffff;stroke-linejoin:miter;"/>
   </g>
   <g id="patch_77">
    <path clip-path="url(#pf1bf9f53ad)" d="M 1211.970804 1621.54 
L 1251.696853 1621.54 
L 1251.696853 1621.54 
L 1211.970804 1621.54 
z
" style="fill:#4c72b0;fill-opacity:0.75;stroke:#ffffff;stroke-linejoin:miter;"/>
   </g>
   <g id="patch_78">
    <path clip-path="url(#pf1bf9f53ad)" d="M 1251.696853 1621.54 
L 1291.422902 1621.54 
L 1291.422902 1621.54 
L 1251.696853 1621.54 
z
" style="fill:#4c72b0;fill-opacity:0.75;stroke:#ffffff;stroke-linejoin:miter;"/>
   </g>
   <g id="patch_79">
    <path clip-path="url(#pf1bf9f53ad)" d="M 1291.422902 1615.647766 
L 1331.148951 1615.647766 
L 1331.148951 1615.647766 
L 1291.422902 1615.647766 
z
" style="fill:#4c72b0;fill-opacity:0.75;stroke:#ffffff;stroke-linejoin:miter;"/>
   </g>
   <g id="patch_80">
    <path clip-path="url(#pf1bf9f53ad)" d="M 1331.148951 1621.54 
L 1370.875 1621.54 
L 1370.875 1621.54 
L 1331.148951 1621.54 
z
" style="fill:#4c72b0;fill-opacity:0.75;stroke:#ffffff;stroke-linejoin:miter;"/>
   </g>
   <g id="patch_81">
    <path clip-path="url(#pf1bf9f53ad)" d="M 1370.875 1621.54 
L 1410.601049 1621.54 
L 1410.601049 1621.54 
L 1370.875 1621.54 
z
" style="fill:#4c72b0;fill-opacity:0.75;stroke:#ffffff;stroke-linejoin:miter;"/>
   </g>
   <g id="patch_82">
    <path clip-path="url(#pf1bf9f53ad)" d="M 1410.601049 1615.647766 
L 1450.327098 1615.647766 
L 1450.327098 1615.647766 
L 1410.601049 1615.647766 
z
" style="fill:#4c72b0;fill-opacity:0.75;stroke:#ffffff;stroke-linejoin:miter;"/>
   </g>
   <g id="patch_83">
    <path clip-path="url(#pf1bf9f53ad)" d="M 1450.327098 1609.755531 
L 1490.053147 1609.755531 
L 1490.053147 1609.755531 
L 1450.327098 1609.755531 
z
" style="fill:#4c72b0;fill-opacity:0.75;stroke:#ffffff;stroke-linejoin:miter;"/>
   </g>
   <g id="patch_84">
    <path clip-path="url(#pf1bf9f53ad)" d="M 1490.053147 1615.647766 
L 1529.779196 1615.647766 
L 1529.779196 1615.647766 
L 1490.053147 1615.647766 
z
" style="fill:#4c72b0;fill-opacity:0.75;stroke:#ffffff;stroke-linejoin:miter;"/>
   </g>
   <g id="patch_85">
    <path clip-path="url(#pf1bf9f53ad)" d="M 1529.779196 1621.54 
L 1569.505245 1621.54 
L 1569.505245 1621.54 
L 1529.779196 1621.54 
z
" style="fill:#4c72b0;fill-opacity:0.75;stroke:#ffffff;stroke-linejoin:miter;"/>
   </g>
   <g id="patch_86">
    <path clip-path="url(#pf1bf9f53ad)" d="M 1569.505245 1621.54 
L 1609.231294 1621.54 
L 1609.231294 1621.54 
L 1569.505245 1621.54 
z
" style="fill:#4c72b0;fill-opacity:0.75;stroke:#ffffff;stroke-linejoin:miter;"/>
   </g>
   <g id="patch_87">
    <path clip-path="url(#pf1bf9f53ad)" d="M 1609.231294 1615.647766 
L 1648.957343 1615.647766 
L 1648.957343 1615.647766 
L 1609.231294 1615.647766 
z
" style="fill:#4c72b0;fill-opacity:0.75;stroke:#ffffff;stroke-linejoin:miter;"/>
   </g>
   <g id="patch_88">
    <path clip-path="url(#pf1bf9f53ad)" d="M 1648.957343 1621.54 
L 1688.683392 1621.54 
L 1688.683392 1621.54 
L 1648.957343 1621.54 
z
" style="fill:#4c72b0;fill-opacity:0.75;stroke:#ffffff;stroke-linejoin:miter;"/>
   </g>
   <g id="patch_89">
    <path clip-path="url(#pf1bf9f53ad)" d="M 1688.683392 1621.54 
L 1728.409441 1621.54 
L 1728.409441 1621.54 
L 1688.683392 1621.54 
z
" style="fill:#4c72b0;fill-opacity:0.75;stroke:#ffffff;stroke-linejoin:miter;"/>
   </g>
   <g id="patch_90">
    <path clip-path="url(#pf1bf9f53ad)" d="M 1728.409441 1621.54 
L 1768.13549 1621.54 
L 1768.13549 1621.54 
L 1728.409441 1621.54 
z
" style="fill:#4c72b0;fill-opacity:0.75;stroke:#ffffff;stroke-linejoin:miter;"/>
   </g>
   <g id="patch_91">
    <path clip-path="url(#pf1bf9f53ad)" d="M 1768.13549 1621.54 
L 1807.861538 1621.54 
L 1807.861538 1621.54 
L 1768.13549 1621.54 
z
" style="fill:#4c72b0;fill-opacity:0.75;stroke:#ffffff;stroke-linejoin:miter;"/>
   </g>
   <g id="patch_92">
    <path clip-path="url(#pf1bf9f53ad)" d="M 1807.861538 1621.54 
L 1847.587587 1621.54 
L 1847.587587 1621.54 
L 1807.861538 1621.54 
z
" style="fill:#4c72b0;fill-opacity:0.75;stroke:#ffffff;stroke-linejoin:miter;"/>
   </g>
   <g id="patch_93">
    <path clip-path="url(#pf1bf9f53ad)" d="M 1847.587587 1621.54 
L 1887.313636 1621.54 
L 1887.313636 1621.54 
L 1847.587587 1621.54 
z
" style="fill:#4c72b0;fill-opacity:0.75;stroke:#ffffff;stroke-linejoin:miter;"/>
   </g>
   <g id="patch_94">
    <path clip-path="url(#pf1bf9f53ad)" d="M 1887.313636 1621.54 
L 1927.039685 1621.54 
L 1927.039685 1621.54 
L 1887.313636 1621.54 
z
" style="fill:#4c72b0;fill-opacity:0.75;stroke:#ffffff;stroke-linejoin:miter;"/>
   </g>
   <g id="patch_95">
    <path clip-path="url(#pf1bf9f53ad)" d="M 1927.039685 1621.54 
L 1966.765734 1621.54 
L 1966.765734 1621.54 
L 1927.039685 1621.54 
z
" style="fill:#4c72b0;fill-opacity:0.75;stroke:#ffffff;stroke-linejoin:miter;"/>
   </g>
   <g id="patch_96">
    <path clip-path="url(#pf1bf9f53ad)" d="M 1966.765734 1621.54 
L 2006.491783 1621.54 
L 2006.491783 1621.54 
L 1966.765734 1621.54 
z
" style="fill:#4c72b0;fill-opacity:0.75;stroke:#ffffff;stroke-linejoin:miter;"/>
   </g>
   <g id="patch_97">
    <path clip-path="url(#pf1bf9f53ad)" d="M 2006.491783 1621.54 
L 2046.217832 1621.54 
L 2046.217832 1621.54 
L 2006.491783 1621.54 
z
" style="fill:#4c72b0;fill-opacity:0.75;stroke:#ffffff;stroke-linejoin:miter;"/>
   </g>
   <g id="patch_98">
    <path clip-path="url(#pf1bf9f53ad)" d="M 2046.217832 1615.647766 
L 2085.943881 1615.647766 
L 2085.943881 1615.647766 
L 2046.217832 1615.647766 
z
" style="fill:#4c72b0;fill-opacity:0.75;stroke:#ffffff;stroke-linejoin:miter;"/>
   </g>
   <g id="patch_99">
    <path clip-path="url(#pf1bf9f53ad)" d="M 2085.943881 1621.54 
L 2125.66993 1621.54 
L 2125.66993 1621.54 
L 2085.943881 1621.54 
z
" style="fill:#4c72b0;fill-opacity:0.75;stroke:#ffffff;stroke-linejoin:miter;"/>
   </g>
   <g id="patch_100">
    <path clip-path="url(#pf1bf9f53ad)" d="M 2125.66993 1621.54 
L 2165.395979 1621.54 
L 2165.395979 1621.54 
L 2125.66993 1621.54 
z
" style="fill:#4c72b0;fill-opacity:0.75;stroke:#ffffff;stroke-linejoin:miter;"/>
   </g>
   <g id="patch_101">
    <path clip-path="url(#pf1bf9f53ad)" d="M 2165.395979 1621.54 
L 2205.122028 1621.54 
L 2205.122028 1621.54 
L 2165.395979 1621.54 
z
" style="fill:#4c72b0;fill-opacity:0.75;stroke:#ffffff;stroke-linejoin:miter;"/>
   </g>
   <g id="patch_102">
    <path clip-path="url(#pf1bf9f53ad)" d="M 2205.122028 1621.54 
L 2244.848077 1621.54 
L 2244.848077 1621.54 
L 2205.122028 1621.54 
z
" style="fill:#4c72b0;fill-opacity:0.75;stroke:#ffffff;stroke-linejoin:miter;"/>
   </g>
   <g id="patch_103">
    <path clip-path="url(#pf1bf9f53ad)" d="M 2244.848077 1621.54 
L 2284.574126 1621.54 
L 2284.574126 1621.54 
L 2244.848077 1621.54 
z
" style="fill:#4c72b0;fill-opacity:0.75;stroke:#ffffff;stroke-linejoin:miter;"/>
   </g>
   <g id="patch_104">
    <path clip-path="url(#pf1bf9f53ad)" d="M 2284.574126 1621.54 
L 2324.300175 1621.54 
L 2324.300175 1621.54 
L 2284.574126 1621.54 
z
" style="fill:#4c72b0;fill-opacity:0.75;stroke:#ffffff;stroke-linejoin:miter;"/>
   </g>
   <g id="patch_105">
    <path clip-path="url(#pf1bf9f53ad)" d="M 2324.300175 1615.647766 
L 2364.026224 1615.647766 
L 2364.026224 1615.647766 
L 2324.300175 1615.647766 
z
" style="fill:#4c72b0;fill-opacity:0.75;stroke:#ffffff;stroke-linejoin:miter;"/>
   </g>
   <g id="patch_106">
    <path clip-path="url(#pf1bf9f53ad)" d="M 2364.026224 1615.647766 
L 2403.752273 1615.647766 
L 2403.752273 1615.647766 
L 2364.026224 1615.647766 
z
" style="fill:#4c72b0;fill-opacity:0.75;stroke:#ffffff;stroke-linejoin:miter;"/>
   </g>
   <g id="patch_107">
    <path d="M 234.71 1621.54 
L 234.71 12.96 
" style="fill:none;stroke:#ffffff;stroke-linecap:square;stroke-linejoin:miter;stroke-width:1.25;"/>
   </g>
   <g id="patch_108">
    <path d="M 2507.04 1621.54 
L 2507.04 12.96 
" style="fill:none;stroke:#ffffff;stroke-linecap:square;stroke-linejoin:miter;stroke-width:1.25;"/>
   </g>
   <g id="patch_109">
    <path d="M 234.71 1621.54 
L 2507.04 1621.54 
" style="fill:none;stroke:#ffffff;stroke-linecap:square;stroke-linejoin:miter;stroke-width:1.25;"/>
   </g>
   <g id="patch_110">
    <path d="M 234.71 12.96 
L 2507.04 12.96 
" style="fill:none;stroke:#ffffff;stroke-linecap:square;stroke-linejoin:miter;stroke-width:1.25;"/>
   </g>
   <g id="legend_1">
    <g id="patch_111">
     <path d="M 1435.125937 285.139688 
L 2454.54 285.139688 
Q 2469.54 285.139688 2469.54 270.139688 
L 2469.54 65.46 
Q 2469.54 50.46 2454.54 50.46 
L 1435.125937 50.46 
Q 1420.125937 50.46 1420.125937 65.46 
L 1420.125937 270.139688 
Q 1420.125937 285.139688 1435.125937 285.139688 
z
" style="fill:#eaeaf2;opacity:0.8;stroke:#cccccc;stroke-linejoin:miter;"/>
    </g>
    <g id="patch_112">
     <path d="M 1450.125937 134.143594 
L 1600.125937 134.143594 
L 1600.125937 81.643594 
L 1450.125937 81.643594 
z
" style="fill:#dd8452;fill-opacity:0.75;stroke:#ffffff;stroke-linejoin:miter;"/>
    </g>
    <g id="text_15">
     <!-- C ≥ 1 cm or M ≥ 3 cm -->
     <g style="fill:#262626;" transform="translate(1660.125937 134.143594)scale(0.75 -0.75)">
      <defs>
       <path d="M 3275 2381 
L 241 1084 
L 241 1644 
L 2644 2641 
L 241 3625 
L 241 4188 
L 3275 2906 
L 3275 2381 
z
M 3269 331 
L 244 331 
L 244 853 
L 3269 853 
L 3269 331 
z
" id="ArialMT-2265" transform="scale(0.015625)"/>
       <path d="M 422 0 
L 422 3319 
L 925 3319 
L 925 2853 
Q 1081 3097 1340 3245 
Q 1600 3394 1931 3394 
Q 2300 3394 2536 3241 
Q 2772 3088 2869 2813 
Q 3263 3394 3894 3394 
Q 4388 3394 4653 3120 
Q 4919 2847 4919 2278 
L 4919 0 
L 4359 0 
L 4359 2091 
Q 4359 2428 4304 2576 
Q 4250 2725 4106 2815 
Q 3963 2906 3769 2906 
Q 3419 2906 3187 2673 
Q 2956 2441 2956 1928 
L 2956 0 
L 2394 0 
L 2394 2156 
Q 2394 2531 2256 2718 
Q 2119 2906 1806 2906 
Q 1569 2906 1367 2781 
Q 1166 2656 1075 2415 
Q 984 2175 984 1722 
L 984 0 
L 422 0 
z
" id="ArialMT-6d" transform="scale(0.015625)"/>
       <path d="M 416 0 
L 416 3319 
L 922 3319 
L 922 2816 
Q 1116 3169 1280 3281 
Q 1444 3394 1641 3394 
Q 1925 3394 2219 3213 
L 2025 2691 
Q 1819 2813 1613 2813 
Q 1428 2813 1281 2702 
Q 1134 2591 1072 2394 
Q 978 2094 978 1738 
L 978 0 
L 416 0 
z
" id="ArialMT-72" transform="scale(0.015625)"/>
       <path d="M 475 0 
L 475 4581 
L 1388 4581 
L 2472 1338 
Q 2622 884 2691 659 
Q 2769 909 2934 1394 
L 4031 4581 
L 4847 4581 
L 4847 0 
L 4263 0 
L 4263 3834 
L 2931 0 
L 2384 0 
L 1059 3900 
L 1059 0 
L 475 0 
z
" id="ArialMT-4d" transform="scale(0.015625)"/>
      </defs>
      <use xlink:href="#ArialMT-43"/>
      <use x="72.216797" xlink:href="#ArialMT-20"/>
      <use x="100" xlink:href="#ArialMT-2265"/>
      <use x="154.882812" xlink:href="#ArialMT-20"/>
      <use x="182.666016" xlink:href="#ArialMT-31"/>
      <use x="238.28125" xlink:href="#ArialMT-20"/>
      <use x="266.064453" xlink:href="#ArialMT-63"/>
      <use x="316.064453" xlink:href="#ArialMT-6d"/>
      <use x="399.365234" xlink:href="#ArialMT-20"/>
      <use x="427.148438" xlink:href="#ArialMT-6f"/>
      <use x="482.763672" xlink:href="#ArialMT-72"/>
      <use x="516.064453" xlink:href="#ArialMT-20"/>
      <use x="543.847656" xlink:href="#ArialMT-4d"/>
      <use x="627.148438" xlink:href="#ArialMT-20"/>
      <use x="654.931641" xlink:href="#ArialMT-2265"/>
      <use x="709.814453" xlink:href="#ArialMT-20"/>
      <use x="737.597656" xlink:href="#ArialMT-33"/>
      <use x="793.212891" xlink:href="#ArialMT-20"/>
      <use x="820.996094" xlink:href="#ArialMT-63"/>
      <use x="870.996094" xlink:href="#ArialMT-6d"/>
     </g>
    </g>
    <g id="patch_113">
     <path d="M 1450.125937 240.233438 
L 1600.125937 240.233438 
L 1600.125937 187.733438 
L 1450.125937 187.733438 
z
" style="fill:#4c72b0;fill-opacity:0.75;stroke:#ffffff;stroke-linejoin:miter;"/>
    </g>
    <g id="text_16">
     <!-- C &lt; 1 cm and M &lt; 3 cm -->
     <g style="fill:#262626;" transform="translate(1660.125937 240.233438)scale(0.75 -0.75)">
      <defs>
       <path d="M 350 2003 
L 350 2528 
L 3384 3809 
L 3384 3250 
L 978 2263 
L 3384 1266 
L 3384 706 
L 350 2003 
z
" id="ArialMT-3c" transform="scale(0.015625)"/>
       <path d="M 2588 409 
Q 2275 144 1986 34 
Q 1697 -75 1366 -75 
Q 819 -75 525 192 
Q 231 459 231 875 
Q 231 1119 342 1320 
Q 453 1522 633 1644 
Q 813 1766 1038 1828 
Q 1203 1872 1538 1913 
Q 2219 1994 2541 2106 
Q 2544 2222 2544 2253 
Q 2544 2597 2384 2738 
Q 2169 2928 1744 2928 
Q 1347 2928 1158 2789 
Q 969 2650 878 2297 
L 328 2372 
Q 403 2725 575 2942 
Q 747 3159 1072 3276 
Q 1397 3394 1825 3394 
Q 2250 3394 2515 3294 
Q 2781 3194 2906 3042 
Q 3031 2891 3081 2659 
Q 3109 2516 3109 2141 
L 3109 1391 
Q 3109 606 3145 398 
Q 3181 191 3288 0 
L 2700 0 
Q 2613 175 2588 409 
z
M 2541 1666 
Q 2234 1541 1622 1453 
Q 1275 1403 1131 1340 
Q 988 1278 909 1158 
Q 831 1038 831 891 
Q 831 666 1001 516 
Q 1172 366 1500 366 
Q 1825 366 2078 508 
Q 2331 650 2450 897 
Q 2541 1088 2541 1459 
L 2541 1666 
z
" id="ArialMT-61" transform="scale(0.015625)"/>
       <path d="M 2575 0 
L 2575 419 
Q 2259 -75 1647 -75 
Q 1250 -75 917 144 
Q 584 363 401 755 
Q 219 1147 219 1656 
Q 219 2153 384 2558 
Q 550 2963 881 3178 
Q 1213 3394 1622 3394 
Q 1922 3394 2156 3267 
Q 2391 3141 2538 2938 
L 2538 4581 
L 3097 4581 
L 3097 0 
L 2575 0 
z
M 797 1656 
Q 797 1019 1065 703 
Q 1334 388 1700 388 
Q 2069 388 2326 689 
Q 2584 991 2584 1609 
Q 2584 2291 2321 2609 
Q 2059 2928 1675 2928 
Q 1300 2928 1048 2622 
Q 797 2316 797 1656 
z
" id="ArialMT-64" transform="scale(0.015625)"/>
      </defs>
      <use xlink:href="#ArialMT-43"/>
      <use x="72.216797" xlink:href="#ArialMT-20"/>
      <use x="100" xlink:href="#ArialMT-3c"/>
      <use x="158.398438" xlink:href="#ArialMT-20"/>
      <use x="186.181641" xlink:href="#ArialMT-31"/>
      <use x="241.796875" xlink:href="#ArialMT-20"/>
      <use x="269.580078" xlink:href="#ArialMT-63"/>
      <use x="319.580078" xlink:href="#ArialMT-6d"/>
      <use x="402.880859" xlink:href="#ArialMT-20"/>
      <use x="430.664062" xlink:href="#ArialMT-61"/>
      <use x="486.279297" xlink:href="#ArialMT-6e"/>
      <use x="541.894531" xlink:href="#ArialMT-64"/>
      <use x="597.509766" xlink:href="#ArialMT-20"/>
      <use x="625.292969" xlink:href="#ArialMT-4d"/>
      <use x="708.59375" xlink:href="#ArialMT-20"/>
      <use x="736.376953" xlink:href="#ArialMT-3c"/>
      <use x="794.775391" xlink:href="#ArialMT-20"/>
      <use x="822.558594" xlink:href="#ArialMT-33"/>
      <use x="878.173828" xlink:href="#ArialMT-20"/>
      <use x="905.957031" xlink:href="#ArialMT-63"/>
      <use x="955.957031" xlink:href="#ArialMT-6d"/>
     </g>
    </g>
   </g>
  </g>
 </g>
 <defs>
  <clipPath id="pf1bf9f53ad">
   <rect height="1608.58" width="2272.33" x="234.71" y="12.96"/>
  </clipPath>
 </defs>
</svg>
