<?xml version="1.0" encoding="utf-8" standalone="no"?>
<!DOCTYPE svg PUBLIC "-//W3C//DTD SVG 1.1//EN"
  "http://www.w3.org/Graphics/SVG/1.1/DTD/svg11.dtd">
<!-- Created with matplotlib (https://matplotlib.org/) -->
<svg height="1800pt" version="1.1" viewBox="0 0 2520 1800" width="2520pt" xmlns="http://www.w3.org/2000/svg" xmlns:xlink="http://www.w3.org/1999/xlink">
 <defs>
  <style type="text/css">
*{stroke-linecap:butt;stroke-linejoin:round;}
  </style>
 </defs>
 <g id="figure_1">
  <g id="patch_1">
   <path d="M 0 1800 
L 2520 1800 
L 2520 0 
L 0 0 
z
" style="fill:#ffffff;"/>
  </g>
  <g id="axes_1">
   <g id="patch_2">
    <path d="M 157.55 1523.075 
L 2509.2 1523.075 
L 2509.2 27.1125 
L 157.55 27.1125 
z
" style="fill:#ffffff;"/>
   </g>
   <g id="patch_3">
    <path clip-path="url(#p3dd6658bf2)" d="M 168.239318 1455.076705 
L 253.753864 1455.076705 
L 253.753864 1118.130716 
L 168.239318 1118.130716 
L 168.239318 1455.076705 
z
" style="fill:#ea96a3;stroke:#454545;stroke-linejoin:miter;stroke-width:1.5;"/>
   </g>
   <g id="patch_4">
    <path clip-path="url(#p3dd6658bf2)" d="M 275.1325 1455.076705 
L 360.647045 1455.076705 
L 360.647045 1215.031539 
L 275.1325 1215.031539 
L 275.1325 1455.076705 
z
" style="fill:#e89687;stroke:#454545;stroke-linejoin:miter;stroke-width:1.5;"/>
   </g>
   <g id="patch_5">
    <path clip-path="url(#p3dd6658bf2)" d="M 382.025682 1335.054122 
L 467.540227 1335.054122 
L 467.540227 950.044319 
L 382.025682 950.044319 
L 382.025682 1335.054122 
z
" style="fill:#dc924e;stroke:#454545;stroke-linejoin:miter;stroke-width:1.5;"/>
   </g>
   <g id="patch_6">
    <path clip-path="url(#p3dd6658bf2)" d="M 488.918864 1215.031539 
L 574.433409 1215.031539 
L 574.433409 831.314041 
L 488.918864 831.314041 
L 488.918864 1215.031539 
z
" style="fill:#c5994b;stroke:#454545;stroke-linejoin:miter;stroke-width:1.5;"/>
   </g>
   <g id="patch_7">
    <path clip-path="url(#p3dd6658bf2)" d="M 595.812045 1144.822829 
L 681.326591 1144.822829 
L 681.326591 769.261466 
L 595.812045 769.261466 
L 595.812045 1144.822829 
z
" style="fill:#b39d48;stroke:#454545;stroke-linejoin:miter;stroke-width:1.5;"/>
   </g>
   <g id="patch_8">
    <path clip-path="url(#p3dd6658bf2)" d="M 702.705227 992.963373 
L 788.219773 992.963373 
L 788.219773 642.749028 
L 702.705227 642.749028 
L 702.705227 992.963373 
z
" style="fill:#a09f45;stroke:#454545;stroke-linejoin:miter;stroke-width:1.5;"/>
   </g>
   <g id="patch_9">
    <path clip-path="url(#p3dd6658bf2)" d="M 809.598409 949.910504 
L 895.112955 949.910504 
L 895.112955 524.3225 
L 809.598409 524.3225 
L 809.598409 949.910504 
z
" style="fill:#8ea546;stroke:#454545;stroke-linejoin:miter;stroke-width:1.5;"/>
   </g>
   <g id="patch_10">
    <path clip-path="url(#p3dd6658bf2)" d="M 916.491591 901.532452 
L 1002.006136 901.532452 
L 1002.006136 502.151133 
L 916.491591 502.151133 
L 916.491591 901.532452 
z
" style="fill:#71ac47;stroke:#454545;stroke-linejoin:miter;stroke-width:1.5;"/>
   </g>
   <g id="patch_11">
    <path clip-path="url(#p3dd6658bf2)" d="M 1023.384773 897.709091 
L 1108.899318 897.709091 
L 1108.899318 477.779256 
L 1023.384773 477.779256 
L 1023.384773 897.709091 
z
" style="fill:#48b067;stroke:#454545;stroke-linejoin:miter;stroke-width:1.5;"/>
   </g>
   <g id="patch_12">
    <path clip-path="url(#p3dd6658bf2)" d="M 1130.277955 793.164303 
L 1215.7925 793.164303 
L 1215.7925 475.132845 
L 1130.277955 475.132845 
L 1130.277955 793.164303 
z
" style="fill:#49ae87;stroke:#454545;stroke-linejoin:miter;stroke-width:1.5;"/>
   </g>
   <g id="patch_13">
    <path clip-path="url(#p3dd6658bf2)" d="M 1237.171136 724.443692 
L 1322.685682 724.443692 
L 1322.685682 358.739265 
L 1237.171136 358.739265 
L 1237.171136 724.443692 
z
" style="fill:#4aac98;stroke:#454545;stroke-linejoin:miter;stroke-width:1.5;"/>
   </g>
   <g id="patch_14">
    <path clip-path="url(#p3dd6658bf2)" d="M 1344.064318 783.296108 
L 1429.578864 783.296108 
L 1429.578864 494.85322 
L 1344.064318 494.85322 
L 1344.064318 783.296108 
z
" style="fill:#4baba4;stroke:#454545;stroke-linejoin:miter;stroke-width:1.5;"/>
   </g>
   <g id="patch_15">
    <path clip-path="url(#p3dd6658bf2)" d="M 1450.9575 673.408024 
L 1536.472045 673.408024 
L 1536.472045 441.867039 
L 1450.9575 441.867039 
L 1450.9575 673.408024 
z
" style="fill:#4dabb0;stroke:#454545;stroke-linejoin:miter;stroke-width:1.5;"/>
   </g>
   <g id="patch_16">
    <path clip-path="url(#p3dd6658bf2)" d="M 1557.850682 810.219155 
L 1643.365227 810.219155 
L 1643.365227 339.168371 
L 1557.850682 339.168371 
L 1557.850682 810.219155 
z
" style="fill:#50acbf;stroke:#454545;stroke-linejoin:miter;stroke-width:1.5;"/>
   </g>
   <g id="patch_17">
    <path clip-path="url(#p3dd6658bf2)" d="M 1664.743864 513.534086 
L 1750.258409 513.534086 
L 1750.258409 273.168166 
L 1664.743864 273.168166 
L 1664.743864 513.534086 
z
" style="fill:#54acd3;stroke:#454545;stroke-linejoin:miter;stroke-width:1.5;"/>
   </g>
   <g id="patch_18">
    <path clip-path="url(#p3dd6658bf2)" d="M 1771.637045 600.64301 
L 1857.151591 600.64301 
L 1857.151591 409.996972 
L 1771.637045 409.996972 
L 1771.637045 600.64301 
z
" style="fill:#82aee5;stroke:#454545;stroke-linejoin:miter;stroke-width:1.5;"/>
   </g>
   <g id="patch_19">
    <path clip-path="url(#p3dd6658bf2)" d="M 1878.530227 751.986696 
L 1964.044773 751.986696 
L 1964.044773 751.986696 
L 1878.530227 751.986696 
L 1878.530227 751.986696 
z
" style="fill:#a9aceb;stroke:#454545;stroke-linejoin:miter;stroke-width:1.5;"/>
   </g>
   <g id="patch_20">
    <path clip-path="url(#p3dd6658bf2)" d="M 1985.423409 729.612911 
L 2070.937955 729.612911 
L 2070.937955 729.612911 
L 1985.423409 729.612911 
L 1985.423409 729.612911 
z
" style="fill:#c1a2ea;stroke:#454545;stroke-linejoin:miter;stroke-width:1.5;"/>
   </g>
   <g id="patch_21">
    <path clip-path="url(#p3dd6658bf2)" d="M 2092.316591 216.865949 
L 2177.831136 216.865949 
L 2177.831136 204.936912 
L 2092.316591 204.936912 
L 2092.316591 216.865949 
z
" style="fill:#d795e8;stroke:#454545;stroke-linejoin:miter;stroke-width:1.5;"/>
   </g>
   <g id="patch_22">
    <path clip-path="url(#p3dd6658bf2)" d="M 2199.209773 532.523059 
L 2284.724318 532.523059 
L 2284.724318 532.523059 
L 2199.209773 532.523059 
L 2199.209773 532.523059 
z
" style="fill:#e78bdd;stroke:#454545;stroke-linejoin:miter;stroke-width:1.5;"/>
   </g>
   <g id="patch_23">
    <path clip-path="url(#p3dd6658bf2)" d="M 2306.102955 586.304672 
L 2391.6175 586.304672 
L 2391.6175 586.304672 
L 2306.102955 586.304672 
L 2306.102955 586.304672 
z
" style="fill:#e88fc9;stroke:#454545;stroke-linejoin:miter;stroke-width:1.5;"/>
   </g>
   <g id="patch_24">
    <path clip-path="url(#p3dd6658bf2)" d="M 2412.996136 95.110795 
L 2498.510682 95.110795 
L 2498.510682 95.110795 
L 2412.996136 95.110795 
L 2412.996136 95.110795 
z
" style="fill:#e993b7;stroke:#454545;stroke-linejoin:miter;stroke-width:1.5;"/>
   </g>
   <g id="matplotlib.axis_1">
    <g id="xtick_1">
     <g id="line2d_1">
      <defs>
       <path d="M 0 0 
L 0 3.5 
" id="m1eb68f2a58" style="stroke:#000000;stroke-width:0.8;"/>
      </defs>
      <g>
       <use style="stroke:#000000;stroke-width:0.8;" x="210.996591" xlink:href="#m1eb68f2a58" y="1523.075"/>
      </g>
     </g>
     <g id="text_1">
      <!-- 0.0 -->
      <defs>
       <path d="M 31.78125 66.40625 
Q 24.171875 66.40625 20.328125 58.90625 
Q 16.5 51.421875 16.5 36.375 
Q 16.5 21.390625 20.328125 13.890625 
Q 24.171875 6.390625 31.78125 6.390625 
Q 39.453125 6.390625 43.28125 13.890625 
Q 47.125 21.390625 47.125 36.375 
Q 47.125 51.421875 43.28125 58.90625 
Q 39.453125 66.40625 31.78125 66.40625 
z
M 31.78125 74.21875 
Q 44.046875 74.21875 50.515625 64.515625 
Q 56.984375 54.828125 56.984375 36.375 
Q 56.984375 17.96875 50.515625 8.265625 
Q 44.046875 -1.421875 31.78125 -1.421875 
Q 19.53125 -1.421875 13.0625 8.265625 
Q 6.59375 17.96875 6.59375 36.375 
Q 6.59375 54.828125 13.0625 64.515625 
Q 19.53125 74.21875 31.78125 74.21875 
z
" id="DejaVuSans-48"/>
       <path d="M 10.6875 12.40625 
L 21 12.40625 
L 21 0 
L 10.6875 0 
z
" id="DejaVuSans-46"/>
      </defs>
      <g transform="translate(231.691903 1649.348437)rotate(-90)scale(0.75 -0.75)">
       <use xlink:href="#DejaVuSans-48"/>
       <use x="63.623047" xlink:href="#DejaVuSans-46"/>
       <use x="95.410156" xlink:href="#DejaVuSans-48"/>
      </g>
     </g>
    </g>
    <g id="xtick_2">
     <g id="line2d_2">
      <g>
       <use style="stroke:#000000;stroke-width:0.8;" x="317.889773" xlink:href="#m1eb68f2a58" y="1523.075"/>
      </g>
     </g>
     <g id="text_2">
      <!-- 0.5 -->
      <defs>
       <path d="M 10.796875 72.90625 
L 49.515625 72.90625 
L 49.515625 64.59375 
L 19.828125 64.59375 
L 19.828125 46.734375 
Q 21.96875 47.46875 24.109375 47.828125 
Q 26.265625 48.1875 28.421875 48.1875 
Q 40.625 48.1875 47.75 41.5 
Q 54.890625 34.8125 54.890625 23.390625 
Q 54.890625 11.625 47.5625 5.09375 
Q 40.234375 -1.421875 26.90625 -1.421875 
Q 22.3125 -1.421875 17.546875 -0.640625 
Q 12.796875 0.140625 7.71875 1.703125 
L 7.71875 11.625 
Q 12.109375 9.234375 16.796875 8.0625 
Q 21.484375 6.890625 26.703125 6.890625 
Q 35.15625 6.890625 40.078125 11.328125 
Q 45.015625 15.765625 45.015625 23.390625 
Q 45.015625 31 40.078125 35.4375 
Q 35.15625 39.890625 26.703125 39.890625 
Q 22.75 39.890625 18.8125 39.015625 
Q 14.890625 38.140625 10.796875 36.28125 
z
" id="DejaVuSans-53"/>
      </defs>
      <g transform="translate(338.585085 1649.348437)rotate(-90)scale(0.75 -0.75)">
       <use xlink:href="#DejaVuSans-48"/>
       <use x="63.623047" xlink:href="#DejaVuSans-46"/>
       <use x="95.410156" xlink:href="#DejaVuSans-53"/>
      </g>
     </g>
    </g>
    <g id="xtick_3">
     <g id="line2d_3">
      <g>
       <use style="stroke:#000000;stroke-width:0.8;" x="424.782955" xlink:href="#m1eb68f2a58" y="1523.075"/>
      </g>
     </g>
     <g id="text_3">
      <!-- 1.0 -->
      <defs>
       <path d="M 12.40625 8.296875 
L 28.515625 8.296875 
L 28.515625 63.921875 
L 10.984375 60.40625 
L 10.984375 69.390625 
L 28.421875 72.90625 
L 38.28125 72.90625 
L 38.28125 8.296875 
L 54.390625 8.296875 
L 54.390625 0 
L 12.40625 0 
z
" id="DejaVuSans-49"/>
      </defs>
      <g transform="translate(445.478267 1649.348437)rotate(-90)scale(0.75 -0.75)">
       <use xlink:href="#DejaVuSans-49"/>
       <use x="63.623047" xlink:href="#DejaVuSans-46"/>
       <use x="95.410156" xlink:href="#DejaVuSans-48"/>
      </g>
     </g>
    </g>
    <g id="xtick_4">
     <g id="line2d_4">
      <g>
       <use style="stroke:#000000;stroke-width:0.8;" x="531.676136" xlink:href="#m1eb68f2a58" y="1523.075"/>
      </g>
     </g>
     <g id="text_4">
      <!-- 2.0 -->
      <defs>
       <path d="M 19.1875 8.296875 
L 53.609375 8.296875 
L 53.609375 0 
L 7.328125 0 
L 7.328125 8.296875 
Q 12.9375 14.109375 22.625 23.890625 
Q 32.328125 33.6875 34.8125 36.53125 
Q 39.546875 41.84375 41.421875 45.53125 
Q 43.3125 49.21875 43.3125 52.78125 
Q 43.3125 58.59375 39.234375 62.25 
Q 35.15625 65.921875 28.609375 65.921875 
Q 23.96875 65.921875 18.8125 64.3125 
Q 13.671875 62.703125 7.8125 59.421875 
L 7.8125 69.390625 
Q 13.765625 71.78125 18.9375 73 
Q 24.125 74.21875 28.421875 74.21875 
Q 39.75 74.21875 46.484375 68.546875 
Q 53.21875 62.890625 53.21875 53.421875 
Q 53.21875 48.921875 51.53125 44.890625 
Q 49.859375 40.875 45.40625 35.40625 
Q 44.1875 33.984375 37.640625 27.21875 
Q 31.109375 20.453125 19.1875 8.296875 
z
" id="DejaVuSans-50"/>
      </defs>
      <g transform="translate(552.371449 1649.348437)rotate(-90)scale(0.75 -0.75)">
       <use xlink:href="#DejaVuSans-50"/>
       <use x="63.623047" xlink:href="#DejaVuSans-46"/>
       <use x="95.410156" xlink:href="#DejaVuSans-48"/>
      </g>
     </g>
    </g>
    <g id="xtick_5">
     <g id="line2d_5">
      <g>
       <use style="stroke:#000000;stroke-width:0.8;" x="638.569318" xlink:href="#m1eb68f2a58" y="1523.075"/>
      </g>
     </g>
     <g id="text_5">
      <!-- 3.0 -->
      <defs>
       <path d="M 40.578125 39.3125 
Q 47.65625 37.796875 51.625 33 
Q 55.609375 28.21875 55.609375 21.1875 
Q 55.609375 10.40625 48.1875 4.484375 
Q 40.765625 -1.421875 27.09375 -1.421875 
Q 22.515625 -1.421875 17.65625 -0.515625 
Q 12.796875 0.390625 7.625 2.203125 
L 7.625 11.71875 
Q 11.71875 9.328125 16.59375 8.109375 
Q 21.484375 6.890625 26.8125 6.890625 
Q 36.078125 6.890625 40.9375 10.546875 
Q 45.796875 14.203125 45.796875 21.1875 
Q 45.796875 27.640625 41.28125 31.265625 
Q 36.765625 34.90625 28.71875 34.90625 
L 20.21875 34.90625 
L 20.21875 43.015625 
L 29.109375 43.015625 
Q 36.375 43.015625 40.234375 45.921875 
Q 44.09375 48.828125 44.09375 54.296875 
Q 44.09375 59.90625 40.109375 62.90625 
Q 36.140625 65.921875 28.71875 65.921875 
Q 24.65625 65.921875 20.015625 65.03125 
Q 15.375 64.15625 9.8125 62.3125 
L 9.8125 71.09375 
Q 15.4375 72.65625 20.34375 73.4375 
Q 25.25 74.21875 29.59375 74.21875 
Q 40.828125 74.21875 47.359375 69.109375 
Q 53.90625 64.015625 53.90625 55.328125 
Q 53.90625 49.265625 50.4375 45.09375 
Q 46.96875 40.921875 40.578125 39.3125 
z
" id="DejaVuSans-51"/>
      </defs>
      <g transform="translate(659.264631 1649.348437)rotate(-90)scale(0.75 -0.75)">
       <use xlink:href="#DejaVuSans-51"/>
       <use x="63.623047" xlink:href="#DejaVuSans-46"/>
       <use x="95.410156" xlink:href="#DejaVuSans-48"/>
      </g>
     </g>
    </g>
    <g id="xtick_6">
     <g id="line2d_6">
      <g>
       <use style="stroke:#000000;stroke-width:0.8;" x="745.4625" xlink:href="#m1eb68f2a58" y="1523.075"/>
      </g>
     </g>
     <g id="text_6">
      <!-- 4.0 -->
      <defs>
       <path d="M 37.796875 64.3125 
L 12.890625 25.390625 
L 37.796875 25.390625 
z
M 35.203125 72.90625 
L 47.609375 72.90625 
L 47.609375 25.390625 
L 58.015625 25.390625 
L 58.015625 17.1875 
L 47.609375 17.1875 
L 47.609375 0 
L 37.796875 0 
L 37.796875 17.1875 
L 4.890625 17.1875 
L 4.890625 26.703125 
z
" id="DejaVuSans-52"/>
      </defs>
      <g transform="translate(766.157812 1649.348437)rotate(-90)scale(0.75 -0.75)">
       <use xlink:href="#DejaVuSans-52"/>
       <use x="63.623047" xlink:href="#DejaVuSans-46"/>
       <use x="95.410156" xlink:href="#DejaVuSans-48"/>
      </g>
     </g>
    </g>
    <g id="xtick_7">
     <g id="line2d_7">
      <g>
       <use style="stroke:#000000;stroke-width:0.8;" x="852.355682" xlink:href="#m1eb68f2a58" y="1523.075"/>
      </g>
     </g>
     <g id="text_7">
      <!-- 5.0 -->
      <g transform="translate(873.050994 1649.348437)rotate(-90)scale(0.75 -0.75)">
       <use xlink:href="#DejaVuSans-53"/>
       <use x="63.623047" xlink:href="#DejaVuSans-46"/>
       <use x="95.410156" xlink:href="#DejaVuSans-48"/>
      </g>
     </g>
    </g>
    <g id="xtick_8">
     <g id="line2d_8">
      <g>
       <use style="stroke:#000000;stroke-width:0.8;" x="959.248864" xlink:href="#m1eb68f2a58" y="1523.075"/>
      </g>
     </g>
     <g id="text_8">
      <!-- 6.0 -->
      <defs>
       <path d="M 33.015625 40.375 
Q 26.375 40.375 22.484375 35.828125 
Q 18.609375 31.296875 18.609375 23.390625 
Q 18.609375 15.53125 22.484375 10.953125 
Q 26.375 6.390625 33.015625 6.390625 
Q 39.65625 6.390625 43.53125 10.953125 
Q 47.40625 15.53125 47.40625 23.390625 
Q 47.40625 31.296875 43.53125 35.828125 
Q 39.65625 40.375 33.015625 40.375 
z
M 52.59375 71.296875 
L 52.59375 62.3125 
Q 48.875 64.0625 45.09375 64.984375 
Q 41.3125 65.921875 37.59375 65.921875 
Q 27.828125 65.921875 22.671875 59.328125 
Q 17.53125 52.734375 16.796875 39.40625 
Q 19.671875 43.65625 24.015625 45.921875 
Q 28.375 48.1875 33.59375 48.1875 
Q 44.578125 48.1875 50.953125 41.515625 
Q 57.328125 34.859375 57.328125 23.390625 
Q 57.328125 12.15625 50.6875 5.359375 
Q 44.046875 -1.421875 33.015625 -1.421875 
Q 20.359375 -1.421875 13.671875 8.265625 
Q 6.984375 17.96875 6.984375 36.375 
Q 6.984375 53.65625 15.1875 63.9375 
Q 23.390625 74.21875 37.203125 74.21875 
Q 40.921875 74.21875 44.703125 73.484375 
Q 48.484375 72.75 52.59375 71.296875 
z
" id="DejaVuSans-54"/>
      </defs>
      <g transform="translate(979.944176 1649.348437)rotate(-90)scale(0.75 -0.75)">
       <use xlink:href="#DejaVuSans-54"/>
       <use x="63.623047" xlink:href="#DejaVuSans-46"/>
       <use x="95.410156" xlink:href="#DejaVuSans-48"/>
      </g>
     </g>
    </g>
    <g id="xtick_9">
     <g id="line2d_9">
      <g>
       <use style="stroke:#000000;stroke-width:0.8;" x="1066.142045" xlink:href="#m1eb68f2a58" y="1523.075"/>
      </g>
     </g>
     <g id="text_9">
      <!-- 7.0 -->
      <defs>
       <path d="M 8.203125 72.90625 
L 55.078125 72.90625 
L 55.078125 68.703125 
L 28.609375 0 
L 18.3125 0 
L 43.21875 64.59375 
L 8.203125 64.59375 
z
" id="DejaVuSans-55"/>
      </defs>
      <g transform="translate(1086.837358 1649.348437)rotate(-90)scale(0.75 -0.75)">
       <use xlink:href="#DejaVuSans-55"/>
       <use x="63.623047" xlink:href="#DejaVuSans-46"/>
       <use x="95.410156" xlink:href="#DejaVuSans-48"/>
      </g>
     </g>
    </g>
    <g id="xtick_10">
     <g id="line2d_10">
      <g>
       <use style="stroke:#000000;stroke-width:0.8;" x="1173.035227" xlink:href="#m1eb68f2a58" y="1523.075"/>
      </g>
     </g>
     <g id="text_10">
      <!-- 8.0 -->
      <defs>
       <path d="M 31.78125 34.625 
Q 24.75 34.625 20.71875 30.859375 
Q 16.703125 27.09375 16.703125 20.515625 
Q 16.703125 13.921875 20.71875 10.15625 
Q 24.75 6.390625 31.78125 6.390625 
Q 38.8125 6.390625 42.859375 10.171875 
Q 46.921875 13.96875 46.921875 20.515625 
Q 46.921875 27.09375 42.890625 30.859375 
Q 38.875 34.625 31.78125 34.625 
z
M 21.921875 38.8125 
Q 15.578125 40.375 12.03125 44.71875 
Q 8.5 49.078125 8.5 55.328125 
Q 8.5 64.0625 14.71875 69.140625 
Q 20.953125 74.21875 31.78125 74.21875 
Q 42.671875 74.21875 48.875 69.140625 
Q 55.078125 64.0625 55.078125 55.328125 
Q 55.078125 49.078125 51.53125 44.71875 
Q 48 40.375 41.703125 38.8125 
Q 48.828125 37.15625 52.796875 32.3125 
Q 56.78125 27.484375 56.78125 20.515625 
Q 56.78125 9.90625 50.3125 4.234375 
Q 43.84375 -1.421875 31.78125 -1.421875 
Q 19.734375 -1.421875 13.25 4.234375 
Q 6.78125 9.90625 6.78125 20.515625 
Q 6.78125 27.484375 10.78125 32.3125 
Q 14.796875 37.15625 21.921875 38.8125 
z
M 18.3125 54.390625 
Q 18.3125 48.734375 21.84375 45.5625 
Q 25.390625 42.390625 31.78125 42.390625 
Q 38.140625 42.390625 41.71875 45.5625 
Q 45.3125 48.734375 45.3125 54.390625 
Q 45.3125 60.0625 41.71875 63.234375 
Q 38.140625 66.40625 31.78125 66.40625 
Q 25.390625 66.40625 21.84375 63.234375 
Q 18.3125 60.0625 18.3125 54.390625 
z
" id="DejaVuSans-56"/>
      </defs>
      <g transform="translate(1193.73054 1649.348437)rotate(-90)scale(0.75 -0.75)">
       <use xlink:href="#DejaVuSans-56"/>
       <use x="63.623047" xlink:href="#DejaVuSans-46"/>
       <use x="95.410156" xlink:href="#DejaVuSans-48"/>
      </g>
     </g>
    </g>
    <g id="xtick_11">
     <g id="line2d_11">
      <g>
       <use style="stroke:#000000;stroke-width:0.8;" x="1279.928409" xlink:href="#m1eb68f2a58" y="1523.075"/>
      </g>
     </g>
     <g id="text_11">
      <!-- 9.0 -->
      <defs>
       <path d="M 10.984375 1.515625 
L 10.984375 10.5 
Q 14.703125 8.734375 18.5 7.8125 
Q 22.3125 6.890625 25.984375 6.890625 
Q 35.75 6.890625 40.890625 13.453125 
Q 46.046875 20.015625 46.78125 33.40625 
Q 43.953125 29.203125 39.59375 26.953125 
Q 35.25 24.703125 29.984375 24.703125 
Q 19.046875 24.703125 12.671875 31.3125 
Q 6.296875 37.9375 6.296875 49.421875 
Q 6.296875 60.640625 12.9375 67.421875 
Q 19.578125 74.21875 30.609375 74.21875 
Q 43.265625 74.21875 49.921875 64.515625 
Q 56.59375 54.828125 56.59375 36.375 
Q 56.59375 19.140625 48.40625 8.859375 
Q 40.234375 -1.421875 26.421875 -1.421875 
Q 22.703125 -1.421875 18.890625 -0.6875 
Q 15.09375 0.046875 10.984375 1.515625 
z
M 30.609375 32.421875 
Q 37.25 32.421875 41.125 36.953125 
Q 45.015625 41.5 45.015625 49.421875 
Q 45.015625 57.28125 41.125 61.84375 
Q 37.25 66.40625 30.609375 66.40625 
Q 23.96875 66.40625 20.09375 61.84375 
Q 16.21875 57.28125 16.21875 49.421875 
Q 16.21875 41.5 20.09375 36.953125 
Q 23.96875 32.421875 30.609375 32.421875 
z
" id="DejaVuSans-57"/>
      </defs>
      <g transform="translate(1300.623722 1649.348437)rotate(-90)scale(0.75 -0.75)">
       <use xlink:href="#DejaVuSans-57"/>
       <use x="63.623047" xlink:href="#DejaVuSans-46"/>
       <use x="95.410156" xlink:href="#DejaVuSans-48"/>
      </g>
     </g>
    </g>
    <g id="xtick_12">
     <g id="line2d_12">
      <g>
       <use style="stroke:#000000;stroke-width:0.8;" x="1386.821591" xlink:href="#m1eb68f2a58" y="1523.075"/>
      </g>
     </g>
     <g id="text_12">
      <!-- 10.0 -->
      <g transform="translate(1407.516903 1697.067187)rotate(-90)scale(0.75 -0.75)">
       <use xlink:href="#DejaVuSans-49"/>
       <use x="63.623047" xlink:href="#DejaVuSans-48"/>
       <use x="127.246094" xlink:href="#DejaVuSans-46"/>
       <use x="159.033203" xlink:href="#DejaVuSans-48"/>
      </g>
     </g>
    </g>
    <g id="xtick_13">
     <g id="line2d_13">
      <g>
       <use style="stroke:#000000;stroke-width:0.8;" x="1493.714773" xlink:href="#m1eb68f2a58" y="1523.075"/>
      </g>
     </g>
     <g id="text_13">
      <!-- 11.0 -->
      <g transform="translate(1514.410085 1697.067187)rotate(-90)scale(0.75 -0.75)">
       <use xlink:href="#DejaVuSans-49"/>
       <use x="63.623047" xlink:href="#DejaVuSans-49"/>
       <use x="127.246094" xlink:href="#DejaVuSans-46"/>
       <use x="159.033203" xlink:href="#DejaVuSans-48"/>
      </g>
     </g>
    </g>
    <g id="xtick_14">
     <g id="line2d_14">
      <g>
       <use style="stroke:#000000;stroke-width:0.8;" x="1600.607955" xlink:href="#m1eb68f2a58" y="1523.075"/>
      </g>
     </g>
     <g id="text_14">
      <!-- 12.0 -->
      <g transform="translate(1621.303267 1697.067187)rotate(-90)scale(0.75 -0.75)">
       <use xlink:href="#DejaVuSans-49"/>
       <use x="63.623047" xlink:href="#DejaVuSans-50"/>
       <use x="127.246094" xlink:href="#DejaVuSans-46"/>
       <use x="159.033203" xlink:href="#DejaVuSans-48"/>
      </g>
     </g>
    </g>
    <g id="xtick_15">
     <g id="line2d_15">
      <g>
       <use style="stroke:#000000;stroke-width:0.8;" x="1707.501136" xlink:href="#m1eb68f2a58" y="1523.075"/>
      </g>
     </g>
     <g id="text_15">
      <!-- 13.0 -->
      <g transform="translate(1728.196449 1697.067187)rotate(-90)scale(0.75 -0.75)">
       <use xlink:href="#DejaVuSans-49"/>
       <use x="63.623047" xlink:href="#DejaVuSans-51"/>
       <use x="127.246094" xlink:href="#DejaVuSans-46"/>
       <use x="159.033203" xlink:href="#DejaVuSans-48"/>
      </g>
     </g>
    </g>
    <g id="xtick_16">
     <g id="line2d_16">
      <g>
       <use style="stroke:#000000;stroke-width:0.8;" x="1814.394318" xlink:href="#m1eb68f2a58" y="1523.075"/>
      </g>
     </g>
     <g id="text_16">
      <!-- 14.0 -->
      <g transform="translate(1835.089631 1697.067187)rotate(-90)scale(0.75 -0.75)">
       <use xlink:href="#DejaVuSans-49"/>
       <use x="63.623047" xlink:href="#DejaVuSans-52"/>
       <use x="127.246094" xlink:href="#DejaVuSans-46"/>
       <use x="159.033203" xlink:href="#DejaVuSans-48"/>
      </g>
     </g>
    </g>
    <g id="xtick_17">
     <g id="line2d_17">
      <g>
       <use style="stroke:#000000;stroke-width:0.8;" x="1921.2875" xlink:href="#m1eb68f2a58" y="1523.075"/>
      </g>
     </g>
     <g id="text_17">
      <!-- 15.0 -->
      <g transform="translate(1941.982812 1697.067187)rotate(-90)scale(0.75 -0.75)">
       <use xlink:href="#DejaVuSans-49"/>
       <use x="63.623047" xlink:href="#DejaVuSans-53"/>
       <use x="127.246094" xlink:href="#DejaVuSans-46"/>
       <use x="159.033203" xlink:href="#DejaVuSans-48"/>
      </g>
     </g>
    </g>
    <g id="xtick_18">
     <g id="line2d_18">
      <g>
       <use style="stroke:#000000;stroke-width:0.8;" x="2028.180682" xlink:href="#m1eb68f2a58" y="1523.075"/>
      </g>
     </g>
     <g id="text_18">
      <!-- 16.0 -->
      <g transform="translate(2048.875994 1697.067187)rotate(-90)scale(0.75 -0.75)">
       <use xlink:href="#DejaVuSans-49"/>
       <use x="63.623047" xlink:href="#DejaVuSans-54"/>
       <use x="127.246094" xlink:href="#DejaVuSans-46"/>
       <use x="159.033203" xlink:href="#DejaVuSans-48"/>
      </g>
     </g>
    </g>
    <g id="xtick_19">
     <g id="line2d_19">
      <g>
       <use style="stroke:#000000;stroke-width:0.8;" x="2135.073864" xlink:href="#m1eb68f2a58" y="1523.075"/>
      </g>
     </g>
     <g id="text_19">
      <!-- 17.0 -->
      <g transform="translate(2155.769176 1697.067187)rotate(-90)scale(0.75 -0.75)">
       <use xlink:href="#DejaVuSans-49"/>
       <use x="63.623047" xlink:href="#DejaVuSans-55"/>
       <use x="127.246094" xlink:href="#DejaVuSans-46"/>
       <use x="159.033203" xlink:href="#DejaVuSans-48"/>
      </g>
     </g>
    </g>
    <g id="xtick_20">
     <g id="line2d_20">
      <g>
       <use style="stroke:#000000;stroke-width:0.8;" x="2241.967045" xlink:href="#m1eb68f2a58" y="1523.075"/>
      </g>
     </g>
     <g id="text_20">
      <!-- 18.0 -->
      <g transform="translate(2262.662358 1697.067187)rotate(-90)scale(0.75 -0.75)">
       <use xlink:href="#DejaVuSans-49"/>
       <use x="63.623047" xlink:href="#DejaVuSans-56"/>
       <use x="127.246094" xlink:href="#DejaVuSans-46"/>
       <use x="159.033203" xlink:href="#DejaVuSans-48"/>
      </g>
     </g>
    </g>
    <g id="xtick_21">
     <g id="line2d_21">
      <g>
       <use style="stroke:#000000;stroke-width:0.8;" x="2348.860227" xlink:href="#m1eb68f2a58" y="1523.075"/>
      </g>
     </g>
     <g id="text_21">
      <!-- 19.0 -->
      <g transform="translate(2369.55554 1697.067187)rotate(-90)scale(0.75 -0.75)">
       <use xlink:href="#DejaVuSans-49"/>
       <use x="63.623047" xlink:href="#DejaVuSans-57"/>
       <use x="127.246094" xlink:href="#DejaVuSans-46"/>
       <use x="159.033203" xlink:href="#DejaVuSans-48"/>
      </g>
     </g>
    </g>
    <g id="xtick_22">
     <g id="line2d_22">
      <g>
       <use style="stroke:#000000;stroke-width:0.8;" x="2455.753409" xlink:href="#m1eb68f2a58" y="1523.075"/>
      </g>
     </g>
     <g id="text_22">
      <!-- 20.0 -->
      <g transform="translate(2476.448722 1697.067187)rotate(-90)scale(0.75 -0.75)">
       <use xlink:href="#DejaVuSans-50"/>
       <use x="63.623047" xlink:href="#DejaVuSans-48"/>
       <use x="127.246094" xlink:href="#DejaVuSans-46"/>
       <use x="159.033203" xlink:href="#DejaVuSans-48"/>
      </g>
     </g>
    </g>
    <g id="text_23">
     <!-- Prague M length (cm) -->
     <defs>
      <path d="M 19.671875 64.796875 
L 19.671875 37.40625 
L 32.078125 37.40625 
Q 38.96875 37.40625 42.71875 40.96875 
Q 46.484375 44.53125 46.484375 51.125 
Q 46.484375 57.671875 42.71875 61.234375 
Q 38.96875 64.796875 32.078125 64.796875 
z
M 9.8125 72.90625 
L 32.078125 72.90625 
Q 44.34375 72.90625 50.609375 67.359375 
Q 56.890625 61.8125 56.890625 51.125 
Q 56.890625 40.328125 50.609375 34.8125 
Q 44.34375 29.296875 32.078125 29.296875 
L 19.671875 29.296875 
L 19.671875 0 
L 9.8125 0 
z
" id="DejaVuSans-80"/>
      <path d="M 41.109375 46.296875 
Q 39.59375 47.171875 37.8125 47.578125 
Q 36.03125 48 33.890625 48 
Q 26.265625 48 22.1875 43.046875 
Q 18.109375 38.09375 18.109375 28.8125 
L 18.109375 0 
L 9.078125 0 
L 9.078125 54.6875 
L 18.109375 54.6875 
L 18.109375 46.1875 
Q 20.953125 51.171875 25.484375 53.578125 
Q 30.03125 56 36.53125 56 
Q 37.453125 56 38.578125 55.875 
Q 39.703125 55.765625 41.0625 55.515625 
z
" id="DejaVuSans-114"/>
      <path d="M 34.28125 27.484375 
Q 23.390625 27.484375 19.1875 25 
Q 14.984375 22.515625 14.984375 16.5 
Q 14.984375 11.71875 18.140625 8.90625 
Q 21.296875 6.109375 26.703125 6.109375 
Q 34.1875 6.109375 38.703125 11.40625 
Q 43.21875 16.703125 43.21875 25.484375 
L 43.21875 27.484375 
z
M 52.203125 31.203125 
L 52.203125 0 
L 43.21875 0 
L 43.21875 8.296875 
Q 40.140625 3.328125 35.546875 0.953125 
Q 30.953125 -1.421875 24.3125 -1.421875 
Q 15.921875 -1.421875 10.953125 3.296875 
Q 6 8.015625 6 15.921875 
Q 6 25.140625 12.171875 29.828125 
Q 18.359375 34.515625 30.609375 34.515625 
L 43.21875 34.515625 
L 43.21875 35.40625 
Q 43.21875 41.609375 39.140625 45 
Q 35.0625 48.390625 27.6875 48.390625 
Q 23 48.390625 18.546875 47.265625 
Q 14.109375 46.140625 10.015625 43.890625 
L 10.015625 52.203125 
Q 14.9375 54.109375 19.578125 55.046875 
Q 24.21875 56 28.609375 56 
Q 40.484375 56 46.34375 49.84375 
Q 52.203125 43.703125 52.203125 31.203125 
z
" id="DejaVuSans-97"/>
      <path d="M 45.40625 27.984375 
Q 45.40625 37.75 41.375 43.109375 
Q 37.359375 48.484375 30.078125 48.484375 
Q 22.859375 48.484375 18.828125 43.109375 
Q 14.796875 37.75 14.796875 27.984375 
Q 14.796875 18.265625 18.828125 12.890625 
Q 22.859375 7.515625 30.078125 7.515625 
Q 37.359375 7.515625 41.375 12.890625 
Q 45.40625 18.265625 45.40625 27.984375 
z
M 54.390625 6.78125 
Q 54.390625 -7.171875 48.1875 -13.984375 
Q 42 -20.796875 29.203125 -20.796875 
Q 24.46875 -20.796875 20.265625 -20.09375 
Q 16.0625 -19.390625 12.109375 -17.921875 
L 12.109375 -9.1875 
Q 16.0625 -11.328125 19.921875 -12.34375 
Q 23.78125 -13.375 27.78125 -13.375 
Q 36.625 -13.375 41.015625 -8.765625 
Q 45.40625 -4.15625 45.40625 5.171875 
L 45.40625 9.625 
Q 42.625 4.78125 38.28125 2.390625 
Q 33.9375 0 27.875 0 
Q 17.828125 0 11.671875 7.65625 
Q 5.515625 15.328125 5.515625 27.984375 
Q 5.515625 40.671875 11.671875 48.328125 
Q 17.828125 56 27.875 56 
Q 33.9375 56 38.28125 53.609375 
Q 42.625 51.21875 45.40625 46.390625 
L 45.40625 54.6875 
L 54.390625 54.6875 
z
" id="DejaVuSans-103"/>
      <path d="M 8.5 21.578125 
L 8.5 54.6875 
L 17.484375 54.6875 
L 17.484375 21.921875 
Q 17.484375 14.15625 20.5 10.265625 
Q 23.53125 6.390625 29.59375 6.390625 
Q 36.859375 6.390625 41.078125 11.03125 
Q 45.3125 15.671875 45.3125 23.6875 
L 45.3125 54.6875 
L 54.296875 54.6875 
L 54.296875 0 
L 45.3125 0 
L 45.3125 8.40625 
Q 42.046875 3.421875 37.71875 1 
Q 33.40625 -1.421875 27.6875 -1.421875 
Q 18.265625 -1.421875 13.375 4.4375 
Q 8.5 10.296875 8.5 21.578125 
z
M 31.109375 56 
z
" id="DejaVuSans-117"/>
      <path d="M 56.203125 29.59375 
L 56.203125 25.203125 
L 14.890625 25.203125 
Q 15.484375 15.921875 20.484375 11.0625 
Q 25.484375 6.203125 34.421875 6.203125 
Q 39.59375 6.203125 44.453125 7.46875 
Q 49.3125 8.734375 54.109375 11.28125 
L 54.109375 2.78125 
Q 49.265625 0.734375 44.1875 -0.34375 
Q 39.109375 -1.421875 33.890625 -1.421875 
Q 20.796875 -1.421875 13.15625 6.1875 
Q 5.515625 13.8125 5.515625 26.8125 
Q 5.515625 40.234375 12.765625 48.109375 
Q 20.015625 56 32.328125 56 
Q 43.359375 56 49.78125 48.890625 
Q 56.203125 41.796875 56.203125 29.59375 
z
M 47.21875 32.234375 
Q 47.125 39.59375 43.09375 43.984375 
Q 39.0625 48.390625 32.421875 48.390625 
Q 24.90625 48.390625 20.390625 44.140625 
Q 15.875 39.890625 15.1875 32.171875 
z
" id="DejaVuSans-101"/>
      <path id="DejaVuSans-32"/>
      <path d="M 9.8125 72.90625 
L 24.515625 72.90625 
L 43.109375 23.296875 
L 61.8125 72.90625 
L 76.515625 72.90625 
L 76.515625 0 
L 66.890625 0 
L 66.890625 64.015625 
L 48.09375 14.015625 
L 38.1875 14.015625 
L 19.390625 64.015625 
L 19.390625 0 
L 9.8125 0 
z
" id="DejaVuSans-77"/>
      <path d="M 9.421875 75.984375 
L 18.40625 75.984375 
L 18.40625 0 
L 9.421875 0 
z
" id="DejaVuSans-108"/>
      <path d="M 54.890625 33.015625 
L 54.890625 0 
L 45.90625 0 
L 45.90625 32.71875 
Q 45.90625 40.484375 42.875 44.328125 
Q 39.84375 48.1875 33.796875 48.1875 
Q 26.515625 48.1875 22.3125 43.546875 
Q 18.109375 38.921875 18.109375 30.90625 
L 18.109375 0 
L 9.078125 0 
L 9.078125 54.6875 
L 18.109375 54.6875 
L 18.109375 46.1875 
Q 21.34375 51.125 25.703125 53.5625 
Q 30.078125 56 35.796875 56 
Q 45.21875 56 50.046875 50.171875 
Q 54.890625 44.34375 54.890625 33.015625 
z
" id="DejaVuSans-110"/>
      <path d="M 18.3125 70.21875 
L 18.3125 54.6875 
L 36.8125 54.6875 
L 36.8125 47.703125 
L 18.3125 47.703125 
L 18.3125 18.015625 
Q 18.3125 11.328125 20.140625 9.421875 
Q 21.96875 7.515625 27.59375 7.515625 
L 36.8125 7.515625 
L 36.8125 0 
L 27.59375 0 
Q 17.1875 0 13.234375 3.875 
Q 9.28125 7.765625 9.28125 18.015625 
L 9.28125 47.703125 
L 2.6875 47.703125 
L 2.6875 54.6875 
L 9.28125 54.6875 
L 9.28125 70.21875 
z
" id="DejaVuSans-116"/>
      <path d="M 54.890625 33.015625 
L 54.890625 0 
L 45.90625 0 
L 45.90625 32.71875 
Q 45.90625 40.484375 42.875 44.328125 
Q 39.84375 48.1875 33.796875 48.1875 
Q 26.515625 48.1875 22.3125 43.546875 
Q 18.109375 38.921875 18.109375 30.90625 
L 18.109375 0 
L 9.078125 0 
L 9.078125 75.984375 
L 18.109375 75.984375 
L 18.109375 46.1875 
Q 21.34375 51.125 25.703125 53.5625 
Q 30.078125 56 35.796875 56 
Q 45.21875 56 50.046875 50.171875 
Q 54.890625 44.34375 54.890625 33.015625 
z
" id="DejaVuSans-104"/>
      <path d="M 31 75.875 
Q 24.46875 64.65625 21.28125 53.65625 
Q 18.109375 42.671875 18.109375 31.390625 
Q 18.109375 20.125 21.3125 9.0625 
Q 24.515625 -2 31 -13.1875 
L 23.1875 -13.1875 
Q 15.875 -1.703125 12.234375 9.375 
Q 8.59375 20.453125 8.59375 31.390625 
Q 8.59375 42.28125 12.203125 53.3125 
Q 15.828125 64.359375 23.1875 75.875 
z
" id="DejaVuSans-40"/>
      <path d="M 48.78125 52.59375 
L 48.78125 44.1875 
Q 44.96875 46.296875 41.140625 47.34375 
Q 37.3125 48.390625 33.40625 48.390625 
Q 24.65625 48.390625 19.8125 42.84375 
Q 14.984375 37.3125 14.984375 27.296875 
Q 14.984375 17.28125 19.8125 11.734375 
Q 24.65625 6.203125 33.40625 6.203125 
Q 37.3125 6.203125 41.140625 7.25 
Q 44.96875 8.296875 48.78125 10.40625 
L 48.78125 2.09375 
Q 45.015625 0.34375 40.984375 -0.53125 
Q 36.96875 -1.421875 32.421875 -1.421875 
Q 20.0625 -1.421875 12.78125 6.34375 
Q 5.515625 14.109375 5.515625 27.296875 
Q 5.515625 40.671875 12.859375 48.328125 
Q 20.21875 56 33.015625 56 
Q 37.15625 56 41.109375 55.140625 
Q 45.0625 54.296875 48.78125 52.59375 
z
" id="DejaVuSans-99"/>
      <path d="M 52 44.1875 
Q 55.375 50.25 60.0625 53.125 
Q 64.75 56 71.09375 56 
Q 79.640625 56 84.28125 50.015625 
Q 88.921875 44.046875 88.921875 33.015625 
L 88.921875 0 
L 79.890625 0 
L 79.890625 32.71875 
Q 79.890625 40.578125 77.09375 44.375 
Q 74.3125 48.1875 68.609375 48.1875 
Q 61.625 48.1875 57.5625 43.546875 
Q 53.515625 38.921875 53.515625 30.90625 
L 53.515625 0 
L 44.484375 0 
L 44.484375 32.71875 
Q 44.484375 40.625 41.703125 44.40625 
Q 38.921875 48.1875 33.109375 48.1875 
Q 26.21875 48.1875 22.15625 43.53125 
Q 18.109375 38.875 18.109375 30.90625 
L 18.109375 0 
L 9.078125 0 
L 9.078125 54.6875 
L 18.109375 54.6875 
L 18.109375 46.1875 
Q 21.1875 51.21875 25.484375 53.609375 
Q 29.78125 56 35.6875 56 
Q 41.65625 56 45.828125 52.96875 
Q 50 49.953125 52 44.1875 
z
" id="DejaVuSans-109"/>
      <path d="M 8.015625 75.875 
L 15.828125 75.875 
Q 23.140625 64.359375 26.78125 53.3125 
Q 30.421875 42.28125 30.421875 31.390625 
Q 30.421875 20.453125 26.78125 9.375 
Q 23.140625 -1.703125 15.828125 -13.1875 
L 8.015625 -13.1875 
Q 14.5 -2 17.703125 9.0625 
Q 20.90625 20.125 20.90625 31.390625 
Q 20.90625 42.671875 17.703125 53.65625 
Q 14.5 64.65625 8.015625 75.875 
z
" id="DejaVuSans-41"/>
     </defs>
     <g transform="translate(847.31875 1769.453125)scale(0.9 -0.9)">
      <use xlink:href="#DejaVuSans-80"/>
      <use x="58.552734" xlink:href="#DejaVuSans-114"/>
      <use x="99.666016" xlink:href="#DejaVuSans-97"/>
      <use x="160.945312" xlink:href="#DejaVuSans-103"/>
      <use x="224.421875" xlink:href="#DejaVuSans-117"/>
      <use x="287.800781" xlink:href="#DejaVuSans-101"/>
      <use x="349.324219" xlink:href="#DejaVuSans-32"/>
      <use x="381.111328" xlink:href="#DejaVuSans-77"/>
      <use x="467.390625" xlink:href="#DejaVuSans-32"/>
      <use x="499.177734" xlink:href="#DejaVuSans-108"/>
      <use x="526.960938" xlink:href="#DejaVuSans-101"/>
      <use x="588.484375" xlink:href="#DejaVuSans-110"/>
      <use x="651.863281" xlink:href="#DejaVuSans-103"/>
      <use x="715.339844" xlink:href="#DejaVuSans-116"/>
      <use x="754.548828" xlink:href="#DejaVuSans-104"/>
      <use x="817.927734" xlink:href="#DejaVuSans-32"/>
      <use x="849.714844" xlink:href="#DejaVuSans-40"/>
      <use x="888.728516" xlink:href="#DejaVuSans-99"/>
      <use x="943.708984" xlink:href="#DejaVuSans-109"/>
      <use x="1041.121094" xlink:href="#DejaVuSans-41"/>
     </g>
    </g>
   </g>
   <g id="matplotlib.axis_2">
    <g id="ytick_1">
     <g id="line2d_23">
      <defs>
       <path d="M 0 0 
L -3.5 0 
" id="mb21e31284e" style="stroke:#000000;stroke-width:0.8;"/>
      </defs>
      <g>
       <use style="stroke:#000000;stroke-width:0.8;" x="157.55" xlink:href="#mb21e31284e" y="1455.076705"/>
      </g>
     </g>
     <g id="text_24">
      <!-- 0 -->
      <g transform="translate(102.83125 1483.570845)scale(0.75 -0.75)">
       <use xlink:href="#DejaVuSans-48"/>
      </g>
     </g>
    </g>
    <g id="ytick_2">
     <g id="line2d_24">
      <g>
       <use style="stroke:#000000;stroke-width:0.8;" x="157.55" xlink:href="#mb21e31284e" y="1281.92072"/>
      </g>
     </g>
     <g id="text_25">
      <!-- 1 -->
      <g transform="translate(102.83125 1310.41486)scale(0.75 -0.75)">
       <use xlink:href="#DejaVuSans-49"/>
      </g>
     </g>
    </g>
    <g id="ytick_3">
     <g id="line2d_25">
      <g>
       <use style="stroke:#000000;stroke-width:0.8;" x="157.55" xlink:href="#mb21e31284e" y="1108.764735"/>
      </g>
     </g>
     <g id="text_26">
      <!-- 2 -->
      <g transform="translate(102.83125 1137.258875)scale(0.75 -0.75)">
       <use xlink:href="#DejaVuSans-50"/>
      </g>
     </g>
    </g>
    <g id="ytick_4">
     <g id="line2d_26">
      <g>
       <use style="stroke:#000000;stroke-width:0.8;" x="157.55" xlink:href="#mb21e31284e" y="935.60875"/>
      </g>
     </g>
     <g id="text_27">
      <!-- 3 -->
      <g transform="translate(102.83125 964.10289)scale(0.75 -0.75)">
       <use xlink:href="#DejaVuSans-51"/>
      </g>
     </g>
    </g>
    <g id="ytick_5">
     <g id="line2d_27">
      <g>
       <use style="stroke:#000000;stroke-width:0.8;" x="157.55" xlink:href="#mb21e31284e" y="762.452765"/>
      </g>
     </g>
     <g id="text_28">
      <!-- 4 -->
      <g transform="translate(102.83125 790.946905)scale(0.75 -0.75)">
       <use xlink:href="#DejaVuSans-52"/>
      </g>
     </g>
    </g>
    <g id="ytick_6">
     <g id="line2d_28">
      <g>
       <use style="stroke:#000000;stroke-width:0.8;" x="157.55" xlink:href="#mb21e31284e" y="589.29678"/>
      </g>
     </g>
     <g id="text_29">
      <!-- 5 -->
      <g transform="translate(102.83125 617.79092)scale(0.75 -0.75)">
       <use xlink:href="#DejaVuSans-53"/>
      </g>
     </g>
    </g>
    <g id="ytick_7">
     <g id="line2d_29">
      <g>
       <use style="stroke:#000000;stroke-width:0.8;" x="157.55" xlink:href="#mb21e31284e" y="416.140795"/>
      </g>
     </g>
     <g id="text_30">
      <!-- 6 -->
      <g transform="translate(102.83125 444.634935)scale(0.75 -0.75)">
       <use xlink:href="#DejaVuSans-54"/>
      </g>
     </g>
    </g>
    <g id="ytick_8">
     <g id="line2d_30">
      <g>
       <use style="stroke:#000000;stroke-width:0.8;" x="157.55" xlink:href="#mb21e31284e" y="242.98481"/>
      </g>
     </g>
     <g id="text_31">
      <!-- 7 -->
      <g transform="translate(102.83125 271.47895)scale(0.75 -0.75)">
       <use xlink:href="#DejaVuSans-55"/>
      </g>
     </g>
    </g>
    <g id="ytick_9">
     <g id="line2d_31">
      <g>
       <use style="stroke:#000000;stroke-width:0.8;" x="157.55" xlink:href="#mb21e31284e" y="69.828825"/>
      </g>
     </g>
     <g id="text_32">
      <!-- 8 -->
      <g transform="translate(102.83125 98.322965)scale(0.75 -0.75)">
       <use xlink:href="#DejaVuSans-56"/>
      </g>
     </g>
    </g>
    <g id="text_33">
     <!-- ln(TFF3 positive tile count + 1) -->
     <defs>
      <path d="M -0.296875 72.90625 
L 61.375 72.90625 
L 61.375 64.59375 
L 35.5 64.59375 
L 35.5 0 
L 25.59375 0 
L 25.59375 64.59375 
L -0.296875 64.59375 
z
" id="DejaVuSans-84"/>
      <path d="M 9.8125 72.90625 
L 51.703125 72.90625 
L 51.703125 64.59375 
L 19.671875 64.59375 
L 19.671875 43.109375 
L 48.578125 43.109375 
L 48.578125 34.8125 
L 19.671875 34.8125 
L 19.671875 0 
L 9.8125 0 
z
" id="DejaVuSans-70"/>
      <path d="M 18.109375 8.203125 
L 18.109375 -20.796875 
L 9.078125 -20.796875 
L 9.078125 54.6875 
L 18.109375 54.6875 
L 18.109375 46.390625 
Q 20.953125 51.265625 25.265625 53.625 
Q 29.59375 56 35.59375 56 
Q 45.5625 56 51.78125 48.09375 
Q 58.015625 40.1875 58.015625 27.296875 
Q 58.015625 14.40625 51.78125 6.484375 
Q 45.5625 -1.421875 35.59375 -1.421875 
Q 29.59375 -1.421875 25.265625 0.953125 
Q 20.953125 3.328125 18.109375 8.203125 
z
M 48.6875 27.296875 
Q 48.6875 37.203125 44.609375 42.84375 
Q 40.53125 48.484375 33.40625 48.484375 
Q 26.265625 48.484375 22.1875 42.84375 
Q 18.109375 37.203125 18.109375 27.296875 
Q 18.109375 17.390625 22.1875 11.75 
Q 26.265625 6.109375 33.40625 6.109375 
Q 40.53125 6.109375 44.609375 11.75 
Q 48.6875 17.390625 48.6875 27.296875 
z
" id="DejaVuSans-112"/>
      <path d="M 30.609375 48.390625 
Q 23.390625 48.390625 19.1875 42.75 
Q 14.984375 37.109375 14.984375 27.296875 
Q 14.984375 17.484375 19.15625 11.84375 
Q 23.34375 6.203125 30.609375 6.203125 
Q 37.796875 6.203125 41.984375 11.859375 
Q 46.1875 17.53125 46.1875 27.296875 
Q 46.1875 37.015625 41.984375 42.703125 
Q 37.796875 48.390625 30.609375 48.390625 
z
M 30.609375 56 
Q 42.328125 56 49.015625 48.375 
Q 55.71875 40.765625 55.71875 27.296875 
Q 55.71875 13.875 49.015625 6.21875 
Q 42.328125 -1.421875 30.609375 -1.421875 
Q 18.84375 -1.421875 12.171875 6.21875 
Q 5.515625 13.875 5.515625 27.296875 
Q 5.515625 40.765625 12.171875 48.375 
Q 18.84375 56 30.609375 56 
z
" id="DejaVuSans-111"/>
      <path d="M 44.28125 53.078125 
L 44.28125 44.578125 
Q 40.484375 46.53125 36.375 47.5 
Q 32.28125 48.484375 27.875 48.484375 
Q 21.1875 48.484375 17.84375 46.4375 
Q 14.5 44.390625 14.5 40.28125 
Q 14.5 37.15625 16.890625 35.375 
Q 19.28125 33.59375 26.515625 31.984375 
L 29.59375 31.296875 
Q 39.15625 29.25 43.1875 25.515625 
Q 47.21875 21.78125 47.21875 15.09375 
Q 47.21875 7.46875 41.1875 3.015625 
Q 35.15625 -1.421875 24.609375 -1.421875 
Q 20.21875 -1.421875 15.453125 -0.5625 
Q 10.6875 0.296875 5.421875 2 
L 5.421875 11.28125 
Q 10.40625 8.6875 15.234375 7.390625 
Q 20.0625 6.109375 24.8125 6.109375 
Q 31.15625 6.109375 34.5625 8.28125 
Q 37.984375 10.453125 37.984375 14.40625 
Q 37.984375 18.0625 35.515625 20.015625 
Q 33.0625 21.96875 24.703125 23.78125 
L 21.578125 24.515625 
Q 13.234375 26.265625 9.515625 29.90625 
Q 5.8125 33.546875 5.8125 39.890625 
Q 5.8125 47.609375 11.28125 51.796875 
Q 16.75 56 26.8125 56 
Q 31.78125 56 36.171875 55.265625 
Q 40.578125 54.546875 44.28125 53.078125 
z
" id="DejaVuSans-115"/>
      <path d="M 9.421875 54.6875 
L 18.40625 54.6875 
L 18.40625 0 
L 9.421875 0 
z
M 9.421875 75.984375 
L 18.40625 75.984375 
L 18.40625 64.59375 
L 9.421875 64.59375 
z
" id="DejaVuSans-105"/>
      <path d="M 2.984375 54.6875 
L 12.5 54.6875 
L 29.59375 8.796875 
L 46.6875 54.6875 
L 56.203125 54.6875 
L 35.6875 0 
L 23.484375 0 
z
" id="DejaVuSans-118"/>
      <path d="M 46 62.703125 
L 46 35.5 
L 73.1875 35.5 
L 73.1875 27.203125 
L 46 27.203125 
L 46 0 
L 37.796875 0 
L 37.796875 27.203125 
L 10.59375 27.203125 
L 10.59375 35.5 
L 37.796875 35.5 
L 37.796875 62.703125 
z
" id="DejaVuSans-43"/>
     </defs>
     <g transform="translate(80.114063 1470.758594)rotate(-90)scale(0.9 -0.9)">
      <use xlink:href="#DejaVuSans-108"/>
      <use x="27.783203" xlink:href="#DejaVuSans-110"/>
      <use x="91.162109" xlink:href="#DejaVuSans-40"/>
      <use x="130.175781" xlink:href="#DejaVuSans-84"/>
      <use x="191.259766" xlink:href="#DejaVuSans-70"/>
      <use x="248.779297" xlink:href="#DejaVuSans-70"/>
      <use x="306.298828" xlink:href="#DejaVuSans-51"/>
      <use x="369.921875" xlink:href="#DejaVuSans-32"/>
      <use x="401.708984" xlink:href="#DejaVuSans-112"/>
      <use x="465.185547" xlink:href="#DejaVuSans-111"/>
      <use x="526.367188" xlink:href="#DejaVuSans-115"/>
      <use x="578.466797" xlink:href="#DejaVuSans-105"/>
      <use x="606.25" xlink:href="#DejaVuSans-116"/>
      <use x="645.458984" xlink:href="#DejaVuSans-105"/>
      <use x="673.242188" xlink:href="#DejaVuSans-118"/>
      <use x="732.421875" xlink:href="#DejaVuSans-101"/>
      <use x="793.945312" xlink:href="#DejaVuSans-32"/>
      <use x="825.732422" xlink:href="#DejaVuSans-116"/>
      <use x="864.941406" xlink:href="#DejaVuSans-105"/>
      <use x="892.724609" xlink:href="#DejaVuSans-108"/>
      <use x="920.507812" xlink:href="#DejaVuSans-101"/>
      <use x="982.03125" xlink:href="#DejaVuSans-32"/>
      <use x="1013.818359" xlink:href="#DejaVuSans-99"/>
      <use x="1068.798828" xlink:href="#DejaVuSans-111"/>
      <use x="1129.980469" xlink:href="#DejaVuSans-117"/>
      <use x="1193.359375" xlink:href="#DejaVuSans-110"/>
      <use x="1256.738281" xlink:href="#DejaVuSans-116"/>
      <use x="1295.947266" xlink:href="#DejaVuSans-32"/>
      <use x="1327.734375" xlink:href="#DejaVuSans-43"/>
      <use x="1411.523438" xlink:href="#DejaVuSans-32"/>
      <use x="1443.310547" xlink:href="#DejaVuSans-49"/>
      <use x="1506.933594" xlink:href="#DejaVuSans-41"/>
     </g>
    </g>
   </g>
   <g id="line2d_32">
    <path clip-path="url(#p3dd6658bf2)" d="M 210.996591 1455.076705 
L 210.996591 1455.076705 
" style="fill:none;stroke:#454545;stroke-linecap:square;stroke-width:1.5;"/>
   </g>
   <g id="line2d_33">
    <path clip-path="url(#p3dd6658bf2)" d="M 210.996591 1118.130716 
L 210.996591 645.948425 
" style="fill:none;stroke:#454545;stroke-linecap:square;stroke-width:1.5;"/>
   </g>
   <g id="line2d_34">
    <path clip-path="url(#p3dd6658bf2)" d="M 189.617955 1455.076705 
L 232.375227 1455.076705 
" style="fill:none;stroke:#454545;stroke-linecap:square;stroke-width:1.5;"/>
   </g>
   <g id="line2d_35">
    <path clip-path="url(#p3dd6658bf2)" d="M 189.617955 645.948425 
L 232.375227 645.948425 
" style="fill:none;stroke:#454545;stroke-linecap:square;stroke-width:1.5;"/>
   </g>
   <g id="line2d_36">
    <defs>
     <path d="M -0 3.535534 
L 2.12132 0 
L -0 -3.535534 
L -2.12132 -0 
z
" id="m4e09916ec5" style="stroke:#454545;stroke-linejoin:miter;"/>
    </defs>
    <g clip-path="url(#p3dd6658bf2)">
     <use style="fill:#454545;stroke:#454545;stroke-linejoin:miter;" x="210.996591" xlink:href="#m4e09916ec5" y="383.186543"/>
    </g>
   </g>
   <g id="line2d_37">
    <path clip-path="url(#p3dd6658bf2)" d="M 317.889773 1455.076705 
L 317.889773 1455.076705 
" style="fill:none;stroke:#454545;stroke-linecap:square;stroke-width:1.5;"/>
   </g>
   <g id="line2d_38">
    <path clip-path="url(#p3dd6658bf2)" d="M 317.889773 1215.031539 
L 317.889773 1215.031539 
" style="fill:none;stroke:#454545;stroke-linecap:square;stroke-width:1.5;"/>
   </g>
   <g id="line2d_39">
    <path clip-path="url(#p3dd6658bf2)" d="M 296.511136 1455.076705 
L 339.268409 1455.076705 
" style="fill:none;stroke:#454545;stroke-linecap:square;stroke-width:1.5;"/>
   </g>
   <g id="line2d_40">
    <path clip-path="url(#p3dd6658bf2)" d="M 296.511136 1215.031539 
L 339.268409 1215.031539 
" style="fill:none;stroke:#454545;stroke-linecap:square;stroke-width:1.5;"/>
   </g>
   <g id="line2d_41"/>
   <g id="line2d_42">
    <path clip-path="url(#p3dd6658bf2)" d="M 424.782955 1335.054122 
L 424.782955 1455.076705 
" style="fill:none;stroke:#454545;stroke-linecap:square;stroke-width:1.5;"/>
   </g>
   <g id="line2d_43">
    <path clip-path="url(#p3dd6658bf2)" d="M 424.782955 950.044319 
L 424.782955 650.872624 
" style="fill:none;stroke:#454545;stroke-linecap:square;stroke-width:1.5;"/>
   </g>
   <g id="line2d_44">
    <path clip-path="url(#p3dd6658bf2)" d="M 403.404318 1455.076705 
L 446.161591 1455.076705 
" style="fill:none;stroke:#454545;stroke-linecap:square;stroke-width:1.5;"/>
   </g>
   <g id="line2d_45">
    <path clip-path="url(#p3dd6658bf2)" d="M 403.404318 650.872624 
L 446.161591 650.872624 
" style="fill:none;stroke:#454545;stroke-linecap:square;stroke-width:1.5;"/>
   </g>
   <g id="line2d_46"/>
   <g id="line2d_47">
    <path clip-path="url(#p3dd6658bf2)" d="M 531.676136 1215.031539 
L 531.676136 1455.076705 
" style="fill:none;stroke:#454545;stroke-linecap:square;stroke-width:1.5;"/>
   </g>
   <g id="line2d_48">
    <path clip-path="url(#p3dd6658bf2)" d="M 531.676136 831.314041 
L 531.676136 376.914615 
" style="fill:none;stroke:#454545;stroke-linecap:square;stroke-width:1.5;"/>
   </g>
   <g id="line2d_49">
    <path clip-path="url(#p3dd6658bf2)" d="M 510.2975 1455.076705 
L 553.054773 1455.076705 
" style="fill:none;stroke:#454545;stroke-linecap:square;stroke-width:1.5;"/>
   </g>
   <g id="line2d_50">
    <path clip-path="url(#p3dd6658bf2)" d="M 510.2975 376.914615 
L 553.054773 376.914615 
" style="fill:none;stroke:#454545;stroke-linecap:square;stroke-width:1.5;"/>
   </g>
   <g id="line2d_51"/>
   <g id="line2d_52">
    <path clip-path="url(#p3dd6658bf2)" d="M 638.569318 1144.822829 
L 638.569318 1455.076705 
" style="fill:none;stroke:#454545;stroke-linecap:square;stroke-width:1.5;"/>
   </g>
   <g id="line2d_53">
    <path clip-path="url(#p3dd6658bf2)" d="M 638.569318 769.261466 
L 638.569318 435.862563 
" style="fill:none;stroke:#454545;stroke-linecap:square;stroke-width:1.5;"/>
   </g>
   <g id="line2d_54">
    <path clip-path="url(#p3dd6658bf2)" d="M 617.190682 1455.076705 
L 659.947955 1455.076705 
" style="fill:none;stroke:#454545;stroke-linecap:square;stroke-width:1.5;"/>
   </g>
   <g id="line2d_55">
    <path clip-path="url(#p3dd6658bf2)" d="M 617.190682 435.862563 
L 659.947955 435.862563 
" style="fill:none;stroke:#454545;stroke-linecap:square;stroke-width:1.5;"/>
   </g>
   <g id="line2d_56"/>
   <g id="line2d_57">
    <path clip-path="url(#p3dd6658bf2)" d="M 745.4625 992.963373 
L 745.4625 1455.076705 
" style="fill:none;stroke:#454545;stroke-linecap:square;stroke-width:1.5;"/>
   </g>
   <g id="line2d_58">
    <path clip-path="url(#p3dd6658bf2)" d="M 745.4625 642.749028 
L 745.4625 361.534669 
" style="fill:none;stroke:#454545;stroke-linecap:square;stroke-width:1.5;"/>
   </g>
   <g id="line2d_59">
    <path clip-path="url(#p3dd6658bf2)" d="M 724.083864 1455.076705 
L 766.841136 1455.076705 
" style="fill:none;stroke:#454545;stroke-linecap:square;stroke-width:1.5;"/>
   </g>
   <g id="line2d_60">
    <path clip-path="url(#p3dd6658bf2)" d="M 724.083864 361.534669 
L 766.841136 361.534669 
" style="fill:none;stroke:#454545;stroke-linecap:square;stroke-width:1.5;"/>
   </g>
   <g id="line2d_61">
    <g clip-path="url(#p3dd6658bf2)">
     <use style="fill:#454545;stroke:#454545;stroke-linejoin:miter;" x="745.4625" xlink:href="#m4e09916ec5" y="97.139198"/>
    </g>
   </g>
   <g id="line2d_62">
    <path clip-path="url(#p3dd6658bf2)" d="M 852.355682 949.910504 
L 852.355682 1455.076705 
" style="fill:none;stroke:#454545;stroke-linecap:square;stroke-width:1.5;"/>
   </g>
   <g id="line2d_63">
    <path clip-path="url(#p3dd6658bf2)" d="M 852.355682 524.3225 
L 852.355682 196.903019 
" style="fill:none;stroke:#454545;stroke-linecap:square;stroke-width:1.5;"/>
   </g>
   <g id="line2d_64">
    <path clip-path="url(#p3dd6658bf2)" d="M 830.977045 1455.076705 
L 873.734318 1455.076705 
" style="fill:none;stroke:#454545;stroke-linecap:square;stroke-width:1.5;"/>
   </g>
   <g id="line2d_65">
    <path clip-path="url(#p3dd6658bf2)" d="M 830.977045 196.903019 
L 873.734318 196.903019 
" style="fill:none;stroke:#454545;stroke-linecap:square;stroke-width:1.5;"/>
   </g>
   <g id="line2d_66"/>
   <g id="line2d_67">
    <path clip-path="url(#p3dd6658bf2)" d="M 959.248864 901.532452 
L 959.248864 1264.845412 
" style="fill:none;stroke:#454545;stroke-linecap:square;stroke-width:1.5;"/>
   </g>
   <g id="line2d_68">
    <path clip-path="url(#p3dd6658bf2)" d="M 959.248864 502.151133 
L 959.248864 279.916046 
" style="fill:none;stroke:#454545;stroke-linecap:square;stroke-width:1.5;"/>
   </g>
   <g id="line2d_69">
    <path clip-path="url(#p3dd6658bf2)" d="M 937.870227 1264.845412 
L 980.6275 1264.845412 
" style="fill:none;stroke:#454545;stroke-linecap:square;stroke-width:1.5;"/>
   </g>
   <g id="line2d_70">
    <path clip-path="url(#p3dd6658bf2)" d="M 937.870227 279.916046 
L 980.6275 279.916046 
" style="fill:none;stroke:#454545;stroke-linecap:square;stroke-width:1.5;"/>
   </g>
   <g id="line2d_71"/>
   <g id="line2d_72">
    <path clip-path="url(#p3dd6658bf2)" d="M 1066.142045 897.709091 
L 1066.142045 1144.822829 
" style="fill:none;stroke:#454545;stroke-linecap:square;stroke-width:1.5;"/>
   </g>
   <g id="line2d_73">
    <path clip-path="url(#p3dd6658bf2)" d="M 1066.142045 477.779256 
L 1066.142045 193.666364 
" style="fill:none;stroke:#454545;stroke-linecap:square;stroke-width:1.5;"/>
   </g>
   <g id="line2d_74">
    <path clip-path="url(#p3dd6658bf2)" d="M 1044.763409 1144.822829 
L 1087.520682 1144.822829 
" style="fill:none;stroke:#454545;stroke-linecap:square;stroke-width:1.5;"/>
   </g>
   <g id="line2d_75">
    <path clip-path="url(#p3dd6658bf2)" d="M 1044.763409 193.666364 
L 1087.520682 193.666364 
" style="fill:none;stroke:#454545;stroke-linecap:square;stroke-width:1.5;"/>
   </g>
   <g id="line2d_76"/>
   <g id="line2d_77">
    <path clip-path="url(#p3dd6658bf2)" d="M 1173.035227 793.164303 
L 1173.035227 1215.031539 
" style="fill:none;stroke:#454545;stroke-linecap:square;stroke-width:1.5;"/>
   </g>
   <g id="line2d_78">
    <path clip-path="url(#p3dd6658bf2)" d="M 1173.035227 475.132845 
L 1173.035227 126.090346 
" style="fill:none;stroke:#454545;stroke-linecap:square;stroke-width:1.5;"/>
   </g>
   <g id="line2d_79">
    <path clip-path="url(#p3dd6658bf2)" d="M 1151.656591 1215.031539 
L 1194.413864 1215.031539 
" style="fill:none;stroke:#454545;stroke-linecap:square;stroke-width:1.5;"/>
   </g>
   <g id="line2d_80">
    <path clip-path="url(#p3dd6658bf2)" d="M 1151.656591 126.090346 
L 1194.413864 126.090346 
" style="fill:none;stroke:#454545;stroke-linecap:square;stroke-width:1.5;"/>
   </g>
   <g id="line2d_81"/>
   <g id="line2d_82">
    <path clip-path="url(#p3dd6658bf2)" d="M 1279.928409 724.443692 
L 1279.928409 1264.845412 
" style="fill:none;stroke:#454545;stroke-linecap:square;stroke-width:1.5;"/>
   </g>
   <g id="line2d_83">
    <path clip-path="url(#p3dd6658bf2)" d="M 1279.928409 358.739265 
L 1279.928409 259.477784 
" style="fill:none;stroke:#454545;stroke-linecap:square;stroke-width:1.5;"/>
   </g>
   <g id="line2d_84">
    <path clip-path="url(#p3dd6658bf2)" d="M 1258.549773 1264.845412 
L 1301.307045 1264.845412 
" style="fill:none;stroke:#454545;stroke-linecap:square;stroke-width:1.5;"/>
   </g>
   <g id="line2d_85">
    <path clip-path="url(#p3dd6658bf2)" d="M 1258.549773 259.477784 
L 1301.307045 259.477784 
" style="fill:none;stroke:#454545;stroke-linecap:square;stroke-width:1.5;"/>
   </g>
   <g id="line2d_86"/>
   <g id="line2d_87">
    <path clip-path="url(#p3dd6658bf2)" d="M 1386.821591 783.296108 
L 1386.821591 974.986373 
" style="fill:none;stroke:#454545;stroke-linecap:square;stroke-width:1.5;"/>
   </g>
   <g id="line2d_88">
    <path clip-path="url(#p3dd6658bf2)" d="M 1386.821591 494.85322 
L 1386.821591 301.536685 
" style="fill:none;stroke:#454545;stroke-linecap:square;stroke-width:1.5;"/>
   </g>
   <g id="line2d_89">
    <path clip-path="url(#p3dd6658bf2)" d="M 1365.442955 974.986373 
L 1408.200227 974.986373 
" style="fill:none;stroke:#454545;stroke-linecap:square;stroke-width:1.5;"/>
   </g>
   <g id="line2d_90">
    <path clip-path="url(#p3dd6658bf2)" d="M 1365.442955 301.536685 
L 1408.200227 301.536685 
" style="fill:none;stroke:#454545;stroke-linecap:square;stroke-width:1.5;"/>
   </g>
   <g id="line2d_91"/>
   <g id="line2d_92">
    <path clip-path="url(#p3dd6658bf2)" d="M 1493.714773 673.408024 
L 1493.714773 829.824657 
" style="fill:none;stroke:#454545;stroke-linecap:square;stroke-width:1.5;"/>
   </g>
   <g id="line2d_93">
    <path clip-path="url(#p3dd6658bf2)" d="M 1493.714773 441.867039 
L 1493.714773 293.74335 
" style="fill:none;stroke:#454545;stroke-linecap:square;stroke-width:1.5;"/>
   </g>
   <g id="line2d_94">
    <path clip-path="url(#p3dd6658bf2)" d="M 1472.336136 829.824657 
L 1515.093409 829.824657 
" style="fill:none;stroke:#454545;stroke-linecap:square;stroke-width:1.5;"/>
   </g>
   <g id="line2d_95">
    <path clip-path="url(#p3dd6658bf2)" d="M 1472.336136 293.74335 
L 1515.093409 293.74335 
" style="fill:none;stroke:#454545;stroke-linecap:square;stroke-width:1.5;"/>
   </g>
   <g id="line2d_96"/>
   <g id="line2d_97">
    <path clip-path="url(#p3dd6658bf2)" d="M 1600.607955 810.219155 
L 1600.607955 1335.054122 
" style="fill:none;stroke:#454545;stroke-linecap:square;stroke-width:1.5;"/>
   </g>
   <g id="line2d_98">
    <path clip-path="url(#p3dd6658bf2)" d="M 1600.607955 339.168371 
L 1600.607955 259.130778 
" style="fill:none;stroke:#454545;stroke-linecap:square;stroke-width:1.5;"/>
   </g>
   <g id="line2d_99">
    <path clip-path="url(#p3dd6658bf2)" d="M 1579.229318 1335.054122 
L 1621.986591 1335.054122 
" style="fill:none;stroke:#454545;stroke-linecap:square;stroke-width:1.5;"/>
   </g>
   <g id="line2d_100">
    <path clip-path="url(#p3dd6658bf2)" d="M 1579.229318 259.130778 
L 1621.986591 259.130778 
" style="fill:none;stroke:#454545;stroke-linecap:square;stroke-width:1.5;"/>
   </g>
   <g id="line2d_101"/>
   <g id="line2d_102">
    <path clip-path="url(#p3dd6658bf2)" d="M 1707.501136 513.534086 
L 1707.501136 702.920798 
" style="fill:none;stroke:#454545;stroke-linecap:square;stroke-width:1.5;"/>
   </g>
   <g id="line2d_103">
    <path clip-path="url(#p3dd6658bf2)" d="M 1707.501136 273.168166 
L 1707.501136 246.43478 
" style="fill:none;stroke:#454545;stroke-linecap:square;stroke-width:1.5;"/>
   </g>
   <g id="line2d_104">
    <path clip-path="url(#p3dd6658bf2)" d="M 1686.1225 702.920798 
L 1728.879773 702.920798 
" style="fill:none;stroke:#454545;stroke-linecap:square;stroke-width:1.5;"/>
   </g>
   <g id="line2d_105">
    <path clip-path="url(#p3dd6658bf2)" d="M 1686.1225 246.43478 
L 1728.879773 246.43478 
" style="fill:none;stroke:#454545;stroke-linecap:square;stroke-width:1.5;"/>
   </g>
   <g id="line2d_106"/>
   <g id="line2d_107">
    <path clip-path="url(#p3dd6658bf2)" d="M 1814.394318 600.64301 
L 1814.394318 702.920798 
" style="fill:none;stroke:#454545;stroke-linecap:square;stroke-width:1.5;"/>
   </g>
   <g id="line2d_108">
    <path clip-path="url(#p3dd6658bf2)" d="M 1814.394318 409.996972 
L 1814.394318 288.736082 
" style="fill:none;stroke:#454545;stroke-linecap:square;stroke-width:1.5;"/>
   </g>
   <g id="line2d_109">
    <path clip-path="url(#p3dd6658bf2)" d="M 1793.015682 702.920798 
L 1835.772955 702.920798 
" style="fill:none;stroke:#454545;stroke-linecap:square;stroke-width:1.5;"/>
   </g>
   <g id="line2d_110">
    <path clip-path="url(#p3dd6658bf2)" d="M 1793.015682 288.736082 
L 1835.772955 288.736082 
" style="fill:none;stroke:#454545;stroke-linecap:square;stroke-width:1.5;"/>
   </g>
   <g id="line2d_111"/>
   <g id="line2d_112">
    <path clip-path="url(#p3dd6658bf2)" d="M 1921.2875 751.986696 
L 1921.2875 751.986696 
" style="fill:none;stroke:#454545;stroke-linecap:square;stroke-width:1.5;"/>
   </g>
   <g id="line2d_113">
    <path clip-path="url(#p3dd6658bf2)" d="M 1921.2875 751.986696 
L 1921.2875 751.986696 
" style="fill:none;stroke:#454545;stroke-linecap:square;stroke-width:1.5;"/>
   </g>
   <g id="line2d_114">
    <path clip-path="url(#p3dd6658bf2)" d="M 1899.908864 751.986696 
L 1942.666136 751.986696 
" style="fill:none;stroke:#454545;stroke-linecap:square;stroke-width:1.5;"/>
   </g>
   <g id="line2d_115">
    <path clip-path="url(#p3dd6658bf2)" d="M 1899.908864 751.986696 
L 1942.666136 751.986696 
" style="fill:none;stroke:#454545;stroke-linecap:square;stroke-width:1.5;"/>
   </g>
   <g id="line2d_116"/>
   <g id="line2d_117">
    <path clip-path="url(#p3dd6658bf2)" d="M 2028.180682 729.612911 
L 2028.180682 729.612911 
" style="fill:none;stroke:#454545;stroke-linecap:square;stroke-width:1.5;"/>
   </g>
   <g id="line2d_118">
    <path clip-path="url(#p3dd6658bf2)" d="M 2028.180682 729.612911 
L 2028.180682 729.612911 
" style="fill:none;stroke:#454545;stroke-linecap:square;stroke-width:1.5;"/>
   </g>
   <g id="line2d_119">
    <path clip-path="url(#p3dd6658bf2)" d="M 2006.802045 729.612911 
L 2049.559318 729.612911 
" style="fill:none;stroke:#454545;stroke-linecap:square;stroke-width:1.5;"/>
   </g>
   <g id="line2d_120">
    <path clip-path="url(#p3dd6658bf2)" d="M 2006.802045 729.612911 
L 2049.559318 729.612911 
" style="fill:none;stroke:#454545;stroke-linecap:square;stroke-width:1.5;"/>
   </g>
   <g id="line2d_121"/>
   <g id="line2d_122">
    <path clip-path="url(#p3dd6658bf2)" d="M 2135.073864 216.865949 
L 2135.073864 222.830467 
" style="fill:none;stroke:#454545;stroke-linecap:square;stroke-width:1.5;"/>
   </g>
   <g id="line2d_123">
    <path clip-path="url(#p3dd6658bf2)" d="M 2135.073864 204.936912 
L 2135.073864 198.972394 
" style="fill:none;stroke:#454545;stroke-linecap:square;stroke-width:1.5;"/>
   </g>
   <g id="line2d_124">
    <path clip-path="url(#p3dd6658bf2)" d="M 2113.695227 222.830467 
L 2156.4525 222.830467 
" style="fill:none;stroke:#454545;stroke-linecap:square;stroke-width:1.5;"/>
   </g>
   <g id="line2d_125">
    <path clip-path="url(#p3dd6658bf2)" d="M 2113.695227 198.972394 
L 2156.4525 198.972394 
" style="fill:none;stroke:#454545;stroke-linecap:square;stroke-width:1.5;"/>
   </g>
   <g id="line2d_126"/>
   <g id="line2d_127">
    <path clip-path="url(#p3dd6658bf2)" d="M 2241.967045 532.523059 
L 2241.967045 532.523059 
" style="fill:none;stroke:#454545;stroke-linecap:square;stroke-width:1.5;"/>
   </g>
   <g id="line2d_128">
    <path clip-path="url(#p3dd6658bf2)" d="M 2241.967045 532.523059 
L 2241.967045 532.523059 
" style="fill:none;stroke:#454545;stroke-linecap:square;stroke-width:1.5;"/>
   </g>
   <g id="line2d_129">
    <path clip-path="url(#p3dd6658bf2)" d="M 2220.588409 532.523059 
L 2263.345682 532.523059 
" style="fill:none;stroke:#454545;stroke-linecap:square;stroke-width:1.5;"/>
   </g>
   <g id="line2d_130">
    <path clip-path="url(#p3dd6658bf2)" d="M 2220.588409 532.523059 
L 2263.345682 532.523059 
" style="fill:none;stroke:#454545;stroke-linecap:square;stroke-width:1.5;"/>
   </g>
   <g id="line2d_131"/>
   <g id="line2d_132">
    <path clip-path="url(#p3dd6658bf2)" d="M 2348.860227 586.304672 
L 2348.860227 586.304672 
" style="fill:none;stroke:#454545;stroke-linecap:square;stroke-width:1.5;"/>
   </g>
   <g id="line2d_133">
    <path clip-path="url(#p3dd6658bf2)" d="M 2348.860227 586.304672 
L 2348.860227 586.304672 
" style="fill:none;stroke:#454545;stroke-linecap:square;stroke-width:1.5;"/>
   </g>
   <g id="line2d_134">
    <path clip-path="url(#p3dd6658bf2)" d="M 2327.481591 586.304672 
L 2370.238864 586.304672 
" style="fill:none;stroke:#454545;stroke-linecap:square;stroke-width:1.5;"/>
   </g>
   <g id="line2d_135">
    <path clip-path="url(#p3dd6658bf2)" d="M 2327.481591 586.304672 
L 2370.238864 586.304672 
" style="fill:none;stroke:#454545;stroke-linecap:square;stroke-width:1.5;"/>
   </g>
   <g id="line2d_136"/>
   <g id="line2d_137">
    <path clip-path="url(#p3dd6658bf2)" d="M 2455.753409 95.110795 
L 2455.753409 95.110795 
" style="fill:none;stroke:#454545;stroke-linecap:square;stroke-width:1.5;"/>
   </g>
   <g id="line2d_138">
    <path clip-path="url(#p3dd6658bf2)" d="M 2455.753409 95.110795 
L 2455.753409 95.110795 
" style="fill:none;stroke:#454545;stroke-linecap:square;stroke-width:1.5;"/>
   </g>
   <g id="line2d_139">
    <path clip-path="url(#p3dd6658bf2)" d="M 2434.374773 95.110795 
L 2477.132045 95.110795 
" style="fill:none;stroke:#454545;stroke-linecap:square;stroke-width:1.5;"/>
   </g>
   <g id="line2d_140">
    <path clip-path="url(#p3dd6658bf2)" d="M 2434.374773 95.110795 
L 2477.132045 95.110795 
" style="fill:none;stroke:#454545;stroke-linecap:square;stroke-width:1.5;"/>
   </g>
   <g id="line2d_141"/>
   <g id="line2d_142">
    <path clip-path="url(#p3dd6658bf2)" d="M 168.239318 1264.845412 
L 253.753864 1264.845412 
" style="fill:none;stroke:#454545;stroke-linecap:square;stroke-width:1.5;"/>
   </g>
   <g id="line2d_143">
    <path clip-path="url(#p3dd6658bf2)" d="M 275.1325 1264.845412 
L 360.647045 1264.845412 
" style="fill:none;stroke:#454545;stroke-linecap:square;stroke-width:1.5;"/>
   </g>
   <g id="line2d_144">
    <path clip-path="url(#p3dd6658bf2)" d="M 382.025682 1118.130716 
L 467.540227 1118.130716 
" style="fill:none;stroke:#454545;stroke-linecap:square;stroke-width:1.5;"/>
   </g>
   <g id="line2d_145">
    <path clip-path="url(#p3dd6658bf2)" d="M 488.918864 992.134869 
L 574.433409 992.134869 
" style="fill:none;stroke:#454545;stroke-linecap:square;stroke-width:1.5;"/>
   </g>
   <g id="line2d_146">
    <path clip-path="url(#p3dd6658bf2)" d="M 595.812045 894.580244 
L 681.326591 894.580244 
" style="fill:none;stroke:#454545;stroke-linecap:square;stroke-width:1.5;"/>
   </g>
   <g id="line2d_147">
    <path clip-path="url(#p3dd6658bf2)" d="M 702.705227 849.635494 
L 788.219773 849.635494 
" style="fill:none;stroke:#454545;stroke-linecap:square;stroke-width:1.5;"/>
   </g>
   <g id="line2d_148">
    <path clip-path="url(#p3dd6658bf2)" d="M 809.598409 652.545641 
L 895.112955 652.545641 
" style="fill:none;stroke:#454545;stroke-linecap:square;stroke-width:1.5;"/>
   </g>
   <g id="line2d_149">
    <path clip-path="url(#p3dd6658bf2)" d="M 916.491591 654.234982 
L 1002.006136 654.234982 
" style="fill:none;stroke:#454545;stroke-linecap:square;stroke-width:1.5;"/>
   </g>
   <g id="line2d_150">
    <path clip-path="url(#p3dd6658bf2)" d="M 1023.384773 710.055411 
L 1108.899318 710.055411 
" style="fill:none;stroke:#454545;stroke-linecap:square;stroke-width:1.5;"/>
   </g>
   <g id="line2d_151">
    <path clip-path="url(#p3dd6658bf2)" d="M 1130.277955 625.375363 
L 1215.7925 625.375363 
" style="fill:none;stroke:#454545;stroke-linecap:square;stroke-width:1.5;"/>
   </g>
   <g id="line2d_152">
    <path clip-path="url(#p3dd6658bf2)" d="M 1237.171136 617.645547 
L 1322.685682 617.645547 
" style="fill:none;stroke:#454545;stroke-linecap:square;stroke-width:1.5;"/>
   </g>
   <g id="line2d_153">
    <path clip-path="url(#p3dd6658bf2)" d="M 1344.064318 591.908237 
L 1429.578864 591.908237 
" style="fill:none;stroke:#454545;stroke-linecap:square;stroke-width:1.5;"/>
   </g>
   <g id="line2d_154">
    <path clip-path="url(#p3dd6658bf2)" d="M 1450.9575 550.042381 
L 1536.472045 550.042381 
" style="fill:none;stroke:#454545;stroke-linecap:square;stroke-width:1.5;"/>
   </g>
   <g id="line2d_155">
    <path clip-path="url(#p3dd6658bf2)" d="M 1557.850682 405.431916 
L 1643.365227 405.431916 
" style="fill:none;stroke:#454545;stroke-linecap:square;stroke-width:1.5;"/>
   </g>
   <g id="line2d_156">
    <path clip-path="url(#p3dd6658bf2)" d="M 1664.743864 366.242239 
L 1750.258409 366.242239 
" style="fill:none;stroke:#454545;stroke-linecap:square;stroke-width:1.5;"/>
   </g>
   <g id="line2d_157">
    <path clip-path="url(#p3dd6658bf2)" d="M 1771.637045 486.963847 
L 1857.151591 486.963847 
" style="fill:none;stroke:#454545;stroke-linecap:square;stroke-width:1.5;"/>
   </g>
   <g id="line2d_158">
    <path clip-path="url(#p3dd6658bf2)" d="M 1878.530227 751.986696 
L 1964.044773 751.986696 
" style="fill:none;stroke:#454545;stroke-linecap:square;stroke-width:1.5;"/>
   </g>
   <g id="line2d_159">
    <path clip-path="url(#p3dd6658bf2)" d="M 1985.423409 729.612911 
L 2070.937955 729.612911 
" style="fill:none;stroke:#454545;stroke-linecap:square;stroke-width:1.5;"/>
   </g>
   <g id="line2d_160">
    <path clip-path="url(#p3dd6658bf2)" d="M 2092.316591 210.901431 
L 2177.831136 210.901431 
" style="fill:none;stroke:#454545;stroke-linecap:square;stroke-width:1.5;"/>
   </g>
   <g id="line2d_161">
    <path clip-path="url(#p3dd6658bf2)" d="M 2199.209773 532.523059 
L 2284.724318 532.523059 
" style="fill:none;stroke:#454545;stroke-linecap:square;stroke-width:1.5;"/>
   </g>
   <g id="line2d_162">
    <path clip-path="url(#p3dd6658bf2)" d="M 2306.102955 586.304672 
L 2391.6175 586.304672 
" style="fill:none;stroke:#454545;stroke-linecap:square;stroke-width:1.5;"/>
   </g>
   <g id="line2d_163">
    <path clip-path="url(#p3dd6658bf2)" d="M 2412.996136 95.110795 
L 2498.510682 95.110795 
" style="fill:none;stroke:#454545;stroke-linecap:square;stroke-width:1.5;"/>
   </g>
   <g id="patch_25">
    <path d="M 157.55 1523.075 
L 157.55 27.1125 
" style="fill:none;stroke:#000000;stroke-linecap:square;stroke-linejoin:miter;stroke-width:0.8;"/>
   </g>
   <g id="patch_26">
    <path d="M 2509.2 1523.075 
L 2509.2 27.1125 
" style="fill:none;stroke:#000000;stroke-linecap:square;stroke-linejoin:miter;stroke-width:0.8;"/>
   </g>
   <g id="patch_27">
    <path d="M 157.55 1523.075 
L 2509.2 1523.075 
" style="fill:none;stroke:#000000;stroke-linecap:square;stroke-linejoin:miter;stroke-width:0.8;"/>
   </g>
   <g id="patch_28">
    <path d="M 157.55 27.1125 
L 2509.2 27.1125 
" style="fill:none;stroke:#000000;stroke-linecap:square;stroke-linejoin:miter;stroke-width:0.8;"/>
   </g>
  </g>
 </g>
 <defs>
  <clipPath id="p3dd6658bf2">
   <rect height="1495.9625" width="2351.65" x="157.55" y="27.1125"/>
  </clipPath>
 </defs>
</svg>
