<?xml version="1.0" encoding="utf-8" standalone="no"?>
<!DOCTYPE svg PUBLIC "-//W3C//DTD SVG 1.1//EN"
  "http://www.w3.org/Graphics/SVG/1.1/DTD/svg11.dtd">
<svg height="1800pt" version="1.1" viewBox="0 0 2520 1800" width="2520pt" xmlns="http://www.w3.org/2000/svg" xmlns:xlink="http://www.w3.org/1999/xlink">
 <metadata>
  <rdf:RDF xmlns:cc="http://creativecommons.org/ns#" xmlns:dc="http://purl.org/dc/elements/1.1/" xmlns:rdf="http://www.w3.org/1999/02/22-rdf-syntax-ns#">
   <cc:Work>
    <dc:type rdf:resource="http://purl.org/dc/dcmitype/StillImage"/>
    <dc:date>2021-08-15T23:24:04.315979</dc:date>
    <dc:format>image/svg+xml</dc:format>
    <dc:creator>
     <cc:Agent>
      <dc:title>Matplotlib v3.4.2, https://matplotlib.org/</dc:title>
     </cc:Agent>
    </dc:creator>
   </cc:Work>
  </rdf:RDF>
 </metadata>
 <defs>
  <style type="text/css">*{stroke-linecap:butt;stroke-linejoin:round;}</style>
 </defs>
 <g id="figure_1">
  <g id="patch_1">
   <path d="M 0 1800 
L 2520 1800 
L 2520 0 
L 0 0 
z
" style="fill:#ffffff;"/>
  </g>
  <g id="axes_1">
   <g id="patch_2">
    <path d="M 153.21 1542.54 
L 2507.04 1542.54 
L 2507.04 12.96 
L 153.21 12.96 
z
" style="fill:#eaeaf2;"/>
   </g>
   <g id="matplotlib.axis_1">
    <g id="xtick_1">
     <g id="text_1">
      <!-- 0.0 -->
      <g style="fill:#262626;" transform="translate(234.541567 1656.29)rotate(-90)scale(0.75 -0.75)">
       <defs>
        <path d="M 266 2259 
Q 266 3072 433 3567 
Q 600 4063 929 4331 
Q 1259 4600 1759 4600 
Q 2128 4600 2406 4451 
Q 2684 4303 2865 4023 
Q 3047 3744 3150 3342 
Q 3253 2941 3253 2259 
Q 3253 1453 3087 958 
Q 2922 463 2592 192 
Q 2263 -78 1759 -78 
Q 1097 -78 719 397 
Q 266 969 266 2259 
z
M 844 2259 
Q 844 1131 1108 757 
Q 1372 384 1759 384 
Q 2147 384 2411 759 
Q 2675 1134 2675 2259 
Q 2675 3391 2411 3762 
Q 2147 4134 1753 4134 
Q 1366 4134 1134 3806 
Q 844 3388 844 2259 
z
" id="ArialMT-30" transform="scale(0.015625)"/>
        <path d="M 581 0 
L 581 641 
L 1222 641 
L 1222 0 
L 581 0 
z
" id="ArialMT-2e" transform="scale(0.015625)"/>
       </defs>
       <use xlink:href="#ArialMT-30"/>
       <use x="55.615234" xlink:href="#ArialMT-2e"/>
       <use x="83.398438" xlink:href="#ArialMT-30"/>
      </g>
     </g>
    </g>
    <g id="xtick_2">
     <g id="text_2">
      <!-- 0.5 -->
      <g style="fill:#262626;" transform="translate(358.427356 1656.29)rotate(-90)scale(0.75 -0.75)">
       <defs>
        <path d="M 266 1200 
L 856 1250 
Q 922 819 1161 601 
Q 1400 384 1738 384 
Q 2144 384 2425 690 
Q 2706 997 2706 1503 
Q 2706 1984 2436 2262 
Q 2166 2541 1728 2541 
Q 1456 2541 1237 2417 
Q 1019 2294 894 2097 
L 366 2166 
L 809 4519 
L 3088 4519 
L 3088 3981 
L 1259 3981 
L 1013 2750 
Q 1425 3038 1878 3038 
Q 2478 3038 2890 2622 
Q 3303 2206 3303 1553 
Q 3303 931 2941 478 
Q 2500 -78 1738 -78 
Q 1113 -78 717 272 
Q 322 622 266 1200 
z
" id="ArialMT-35" transform="scale(0.015625)"/>
       </defs>
       <use xlink:href="#ArialMT-30"/>
       <use x="55.615234" xlink:href="#ArialMT-2e"/>
       <use x="83.398438" xlink:href="#ArialMT-35"/>
      </g>
     </g>
    </g>
    <g id="xtick_3">
     <g id="text_3">
      <!-- 1.0 -->
      <g style="fill:#262626;" transform="translate(482.313146 1656.29)rotate(-90)scale(0.75 -0.75)">
       <defs>
        <path d="M 2384 0 
L 1822 0 
L 1822 3584 
Q 1619 3391 1289 3197 
Q 959 3003 697 2906 
L 697 3450 
Q 1169 3672 1522 3987 
Q 1875 4303 2022 4600 
L 2384 4600 
L 2384 0 
z
" id="ArialMT-31" transform="scale(0.015625)"/>
       </defs>
       <use xlink:href="#ArialMT-31"/>
       <use x="55.615234" xlink:href="#ArialMT-2e"/>
       <use x="83.398438" xlink:href="#ArialMT-30"/>
      </g>
     </g>
    </g>
    <g id="xtick_4">
     <g id="text_4">
      <!-- 2.0 -->
      <g style="fill:#262626;" transform="translate(606.198935 1656.29)rotate(-90)scale(0.75 -0.75)">
       <defs>
        <path d="M 3222 541 
L 3222 0 
L 194 0 
Q 188 203 259 391 
Q 375 700 629 1000 
Q 884 1300 1366 1694 
Q 2113 2306 2375 2664 
Q 2638 3022 2638 3341 
Q 2638 3675 2398 3904 
Q 2159 4134 1775 4134 
Q 1369 4134 1125 3890 
Q 881 3647 878 3216 
L 300 3275 
Q 359 3922 746 4261 
Q 1134 4600 1788 4600 
Q 2447 4600 2831 4234 
Q 3216 3869 3216 3328 
Q 3216 3053 3103 2787 
Q 2991 2522 2730 2228 
Q 2469 1934 1863 1422 
Q 1356 997 1212 845 
Q 1069 694 975 541 
L 3222 541 
z
" id="ArialMT-32" transform="scale(0.015625)"/>
       </defs>
       <use xlink:href="#ArialMT-32"/>
       <use x="55.615234" xlink:href="#ArialMT-2e"/>
       <use x="83.398438" xlink:href="#ArialMT-30"/>
      </g>
     </g>
    </g>
    <g id="xtick_5">
     <g id="text_5">
      <!-- 3.0 -->
      <g style="fill:#262626;" transform="translate(730.084725 1656.29)rotate(-90)scale(0.75 -0.75)">
       <defs>
        <path d="M 269 1209 
L 831 1284 
Q 928 806 1161 595 
Q 1394 384 1728 384 
Q 2125 384 2398 659 
Q 2672 934 2672 1341 
Q 2672 1728 2419 1979 
Q 2166 2231 1775 2231 
Q 1616 2231 1378 2169 
L 1441 2663 
Q 1497 2656 1531 2656 
Q 1891 2656 2178 2843 
Q 2466 3031 2466 3422 
Q 2466 3731 2256 3934 
Q 2047 4138 1716 4138 
Q 1388 4138 1169 3931 
Q 950 3725 888 3313 
L 325 3413 
Q 428 3978 793 4289 
Q 1159 4600 1703 4600 
Q 2078 4600 2393 4439 
Q 2709 4278 2876 4000 
Q 3044 3722 3044 3409 
Q 3044 3113 2884 2869 
Q 2725 2625 2413 2481 
Q 2819 2388 3044 2092 
Q 3269 1797 3269 1353 
Q 3269 753 2831 336 
Q 2394 -81 1725 -81 
Q 1122 -81 723 278 
Q 325 638 269 1209 
z
" id="ArialMT-33" transform="scale(0.015625)"/>
       </defs>
       <use xlink:href="#ArialMT-33"/>
       <use x="55.615234" xlink:href="#ArialMT-2e"/>
       <use x="83.398438" xlink:href="#ArialMT-30"/>
      </g>
     </g>
    </g>
    <g id="xtick_6">
     <g id="text_6">
      <!-- 4.0 -->
      <g style="fill:#262626;" transform="translate(853.970514 1656.29)rotate(-90)scale(0.75 -0.75)">
       <defs>
        <path d="M 2069 0 
L 2069 1097 
L 81 1097 
L 81 1613 
L 2172 4581 
L 2631 4581 
L 2631 1613 
L 3250 1613 
L 3250 1097 
L 2631 1097 
L 2631 0 
L 2069 0 
z
M 2069 1613 
L 2069 3678 
L 634 1613 
L 2069 1613 
z
" id="ArialMT-34" transform="scale(0.015625)"/>
       </defs>
       <use xlink:href="#ArialMT-34"/>
       <use x="55.615234" xlink:href="#ArialMT-2e"/>
       <use x="83.398438" xlink:href="#ArialMT-30"/>
      </g>
     </g>
    </g>
    <g id="xtick_7">
     <g id="text_7">
      <!-- 5.0 -->
      <g style="fill:#262626;" transform="translate(977.856303 1656.29)rotate(-90)scale(0.75 -0.75)">
       <use xlink:href="#ArialMT-35"/>
       <use x="55.615234" xlink:href="#ArialMT-2e"/>
       <use x="83.398438" xlink:href="#ArialMT-30"/>
      </g>
     </g>
    </g>
    <g id="xtick_8">
     <g id="text_8">
      <!-- 6.0 -->
      <g style="fill:#262626;" transform="translate(1101.742093 1656.29)rotate(-90)scale(0.75 -0.75)">
       <defs>
        <path d="M 3184 3459 
L 2625 3416 
Q 2550 3747 2413 3897 
Q 2184 4138 1850 4138 
Q 1581 4138 1378 3988 
Q 1113 3794 959 3422 
Q 806 3050 800 2363 
Q 1003 2672 1297 2822 
Q 1591 2972 1913 2972 
Q 2475 2972 2870 2558 
Q 3266 2144 3266 1488 
Q 3266 1056 3080 686 
Q 2894 316 2569 119 
Q 2244 -78 1831 -78 
Q 1128 -78 684 439 
Q 241 956 241 2144 
Q 241 3472 731 4075 
Q 1159 4600 1884 4600 
Q 2425 4600 2770 4297 
Q 3116 3994 3184 3459 
z
M 888 1484 
Q 888 1194 1011 928 
Q 1134 663 1356 523 
Q 1578 384 1822 384 
Q 2178 384 2434 671 
Q 2691 959 2691 1453 
Q 2691 1928 2437 2201 
Q 2184 2475 1800 2475 
Q 1419 2475 1153 2201 
Q 888 1928 888 1484 
z
" id="ArialMT-36" transform="scale(0.015625)"/>
       </defs>
       <use xlink:href="#ArialMT-36"/>
       <use x="55.615234" xlink:href="#ArialMT-2e"/>
       <use x="83.398438" xlink:href="#ArialMT-30"/>
      </g>
     </g>
    </g>
    <g id="xtick_9">
     <g id="text_9">
      <!-- 7.0 -->
      <g style="fill:#262626;" transform="translate(1225.627882 1656.29)rotate(-90)scale(0.75 -0.75)">
       <defs>
        <path d="M 303 3981 
L 303 4522 
L 3269 4522 
L 3269 4084 
Q 2831 3619 2401 2847 
Q 1972 2075 1738 1259 
Q 1569 684 1522 0 
L 944 0 
Q 953 541 1156 1306 
Q 1359 2072 1739 2783 
Q 2119 3494 2547 3981 
L 303 3981 
z
" id="ArialMT-37" transform="scale(0.015625)"/>
       </defs>
       <use xlink:href="#ArialMT-37"/>
       <use x="55.615234" xlink:href="#ArialMT-2e"/>
       <use x="83.398438" xlink:href="#ArialMT-30"/>
      </g>
     </g>
    </g>
    <g id="xtick_10">
     <g id="text_10">
      <!-- 8.0 -->
      <g style="fill:#262626;" transform="translate(1349.513672 1656.29)rotate(-90)scale(0.75 -0.75)">
       <defs>
        <path d="M 1131 2484 
Q 781 2613 612 2850 
Q 444 3088 444 3419 
Q 444 3919 803 4259 
Q 1163 4600 1759 4600 
Q 2359 4600 2725 4251 
Q 3091 3903 3091 3403 
Q 3091 3084 2923 2848 
Q 2756 2613 2416 2484 
Q 2838 2347 3058 2040 
Q 3278 1734 3278 1309 
Q 3278 722 2862 322 
Q 2447 -78 1769 -78 
Q 1091 -78 675 323 
Q 259 725 259 1325 
Q 259 1772 486 2073 
Q 713 2375 1131 2484 
z
M 1019 3438 
Q 1019 3113 1228 2906 
Q 1438 2700 1772 2700 
Q 2097 2700 2305 2904 
Q 2513 3109 2513 3406 
Q 2513 3716 2298 3927 
Q 2084 4138 1766 4138 
Q 1444 4138 1231 3931 
Q 1019 3725 1019 3438 
z
M 838 1322 
Q 838 1081 952 856 
Q 1066 631 1291 507 
Q 1516 384 1775 384 
Q 2178 384 2440 643 
Q 2703 903 2703 1303 
Q 2703 1709 2433 1975 
Q 2163 2241 1756 2241 
Q 1359 2241 1098 1978 
Q 838 1716 838 1322 
z
" id="ArialMT-38" transform="scale(0.015625)"/>
       </defs>
       <use xlink:href="#ArialMT-38"/>
       <use x="55.615234" xlink:href="#ArialMT-2e"/>
       <use x="83.398438" xlink:href="#ArialMT-30"/>
      </g>
     </g>
    </g>
    <g id="xtick_11">
     <g id="text_11">
      <!-- 9.0 -->
      <g style="fill:#262626;" transform="translate(1473.399461 1656.29)rotate(-90)scale(0.75 -0.75)">
       <defs>
        <path d="M 350 1059 
L 891 1109 
Q 959 728 1153 556 
Q 1347 384 1650 384 
Q 1909 384 2104 503 
Q 2300 622 2425 820 
Q 2550 1019 2634 1356 
Q 2719 1694 2719 2044 
Q 2719 2081 2716 2156 
Q 2547 1888 2255 1720 
Q 1963 1553 1622 1553 
Q 1053 1553 659 1965 
Q 266 2378 266 3053 
Q 266 3750 677 4175 
Q 1088 4600 1706 4600 
Q 2153 4600 2523 4359 
Q 2894 4119 3086 3673 
Q 3278 3228 3278 2384 
Q 3278 1506 3087 986 
Q 2897 466 2520 194 
Q 2144 -78 1638 -78 
Q 1100 -78 759 220 
Q 419 519 350 1059 
z
M 2653 3081 
Q 2653 3566 2395 3850 
Q 2138 4134 1775 4134 
Q 1400 4134 1122 3828 
Q 844 3522 844 3034 
Q 844 2597 1108 2323 
Q 1372 2050 1759 2050 
Q 2150 2050 2401 2323 
Q 2653 2597 2653 3081 
z
" id="ArialMT-39" transform="scale(0.015625)"/>
       </defs>
       <use xlink:href="#ArialMT-39"/>
       <use x="55.615234" xlink:href="#ArialMT-2e"/>
       <use x="83.398438" xlink:href="#ArialMT-30"/>
      </g>
     </g>
    </g>
    <g id="xtick_12">
     <g id="text_12">
      <!-- 10.0 -->
      <g style="fill:#262626;" transform="translate(1597.285251 1697.997031)rotate(-90)scale(0.75 -0.75)">
       <use xlink:href="#ArialMT-31"/>
       <use x="55.615234" xlink:href="#ArialMT-30"/>
       <use x="111.230469" xlink:href="#ArialMT-2e"/>
       <use x="139.013672" xlink:href="#ArialMT-30"/>
      </g>
     </g>
    </g>
    <g id="xtick_13">
     <g id="text_13">
      <!-- 11.0 -->
      <g style="fill:#262626;" transform="translate(1721.17104 1692.465781)rotate(-90)scale(0.75 -0.75)">
       <use xlink:href="#ArialMT-31"/>
       <use x="48.240234" xlink:href="#ArialMT-31"/>
       <use x="103.855469" xlink:href="#ArialMT-2e"/>
       <use x="131.638672" xlink:href="#ArialMT-30"/>
      </g>
     </g>
    </g>
    <g id="xtick_14">
     <g id="text_14">
      <!-- 12.0 -->
      <g style="fill:#262626;" transform="translate(1845.05683 1697.997031)rotate(-90)scale(0.75 -0.75)">
       <use xlink:href="#ArialMT-31"/>
       <use x="55.615234" xlink:href="#ArialMT-32"/>
       <use x="111.230469" xlink:href="#ArialMT-2e"/>
       <use x="139.013672" xlink:href="#ArialMT-30"/>
      </g>
     </g>
    </g>
    <g id="xtick_15">
     <g id="text_15">
      <!-- 13.0 -->
      <g style="fill:#262626;" transform="translate(1968.942619 1697.997031)rotate(-90)scale(0.75 -0.75)">
       <use xlink:href="#ArialMT-31"/>
       <use x="55.615234" xlink:href="#ArialMT-33"/>
       <use x="111.230469" xlink:href="#ArialMT-2e"/>
       <use x="139.013672" xlink:href="#ArialMT-30"/>
      </g>
     </g>
    </g>
    <g id="xtick_16">
     <g id="text_16">
      <!-- 16.0 -->
      <g style="fill:#262626;" transform="translate(2092.828409 1697.997031)rotate(-90)scale(0.75 -0.75)">
       <use xlink:href="#ArialMT-31"/>
       <use x="55.615234" xlink:href="#ArialMT-36"/>
       <use x="111.230469" xlink:href="#ArialMT-2e"/>
       <use x="139.013672" xlink:href="#ArialMT-30"/>
      </g>
     </g>
    </g>
    <g id="xtick_17">
     <g id="text_17">
      <!-- 17.0 -->
      <g style="fill:#262626;" transform="translate(2216.714198 1697.997031)rotate(-90)scale(0.75 -0.75)">
       <use xlink:href="#ArialMT-31"/>
       <use x="55.615234" xlink:href="#ArialMT-37"/>
       <use x="111.230469" xlink:href="#ArialMT-2e"/>
       <use x="139.013672" xlink:href="#ArialMT-30"/>
      </g>
     </g>
    </g>
    <g id="xtick_18">
     <g id="text_18">
      <!-- 18.0 -->
      <g style="fill:#262626;" transform="translate(2340.599988 1697.997031)rotate(-90)scale(0.75 -0.75)">
       <use xlink:href="#ArialMT-31"/>
       <use x="55.615234" xlink:href="#ArialMT-38"/>
       <use x="111.230469" xlink:href="#ArialMT-2e"/>
       <use x="139.013672" xlink:href="#ArialMT-30"/>
      </g>
     </g>
    </g>
    <g id="xtick_19">
     <g id="text_19">
      <!-- 19.0 -->
      <g style="fill:#262626;" transform="translate(2464.485777 1697.997031)rotate(-90)scale(0.75 -0.75)">
       <use xlink:href="#ArialMT-31"/>
       <use x="55.615234" xlink:href="#ArialMT-39"/>
       <use x="111.230469" xlink:href="#ArialMT-2e"/>
       <use x="139.013672" xlink:href="#ArialMT-30"/>
      </g>
     </g>
    </g>
    <g id="text_20">
     <!-- Prague C length (cm) -->
     <g style="fill:#262626;" transform="translate(902.477344 1767.514219)scale(0.9 -0.9)">
      <defs>
       <path d="M 494 0 
L 494 4581 
L 2222 4581 
Q 2678 4581 2919 4538 
Q 3256 4481 3484 4323 
Q 3713 4166 3852 3881 
Q 3991 3597 3991 3256 
Q 3991 2672 3619 2267 
Q 3247 1863 2275 1863 
L 1100 1863 
L 1100 0 
L 494 0 
z
M 1100 2403 
L 2284 2403 
Q 2872 2403 3119 2622 
Q 3366 2841 3366 3238 
Q 3366 3525 3220 3729 
Q 3075 3934 2838 4000 
Q 2684 4041 2272 4041 
L 1100 4041 
L 1100 2403 
z
" id="ArialMT-50" transform="scale(0.015625)"/>
       <path d="M 416 0 
L 416 3319 
L 922 3319 
L 922 2816 
Q 1116 3169 1280 3281 
Q 1444 3394 1641 3394 
Q 1925 3394 2219 3213 
L 2025 2691 
Q 1819 2813 1613 2813 
Q 1428 2813 1281 2702 
Q 1134 2591 1072 2394 
Q 978 2094 978 1738 
L 978 0 
L 416 0 
z
" id="ArialMT-72" transform="scale(0.015625)"/>
       <path d="M 2588 409 
Q 2275 144 1986 34 
Q 1697 -75 1366 -75 
Q 819 -75 525 192 
Q 231 459 231 875 
Q 231 1119 342 1320 
Q 453 1522 633 1644 
Q 813 1766 1038 1828 
Q 1203 1872 1538 1913 
Q 2219 1994 2541 2106 
Q 2544 2222 2544 2253 
Q 2544 2597 2384 2738 
Q 2169 2928 1744 2928 
Q 1347 2928 1158 2789 
Q 969 2650 878 2297 
L 328 2372 
Q 403 2725 575 2942 
Q 747 3159 1072 3276 
Q 1397 3394 1825 3394 
Q 2250 3394 2515 3294 
Q 2781 3194 2906 3042 
Q 3031 2891 3081 2659 
Q 3109 2516 3109 2141 
L 3109 1391 
Q 3109 606 3145 398 
Q 3181 191 3288 0 
L 2700 0 
Q 2613 175 2588 409 
z
M 2541 1666 
Q 2234 1541 1622 1453 
Q 1275 1403 1131 1340 
Q 988 1278 909 1158 
Q 831 1038 831 891 
Q 831 666 1001 516 
Q 1172 366 1500 366 
Q 1825 366 2078 508 
Q 2331 650 2450 897 
Q 2541 1088 2541 1459 
L 2541 1666 
z
" id="ArialMT-61" transform="scale(0.015625)"/>
       <path d="M 319 -275 
L 866 -356 
Q 900 -609 1056 -725 
Q 1266 -881 1628 -881 
Q 2019 -881 2231 -725 
Q 2444 -569 2519 -288 
Q 2563 -116 2559 434 
Q 2191 0 1641 0 
Q 956 0 581 494 
Q 206 988 206 1678 
Q 206 2153 378 2554 
Q 550 2956 876 3175 
Q 1203 3394 1644 3394 
Q 2231 3394 2613 2919 
L 2613 3319 
L 3131 3319 
L 3131 450 
Q 3131 -325 2973 -648 
Q 2816 -972 2473 -1159 
Q 2131 -1347 1631 -1347 
Q 1038 -1347 672 -1080 
Q 306 -813 319 -275 
z
M 784 1719 
Q 784 1066 1043 766 
Q 1303 466 1694 466 
Q 2081 466 2343 764 
Q 2606 1063 2606 1700 
Q 2606 2309 2336 2618 
Q 2066 2928 1684 2928 
Q 1309 2928 1046 2623 
Q 784 2319 784 1719 
z
" id="ArialMT-67" transform="scale(0.015625)"/>
       <path d="M 2597 0 
L 2597 488 
Q 2209 -75 1544 -75 
Q 1250 -75 995 37 
Q 741 150 617 320 
Q 494 491 444 738 
Q 409 903 409 1263 
L 409 3319 
L 972 3319 
L 972 1478 
Q 972 1038 1006 884 
Q 1059 663 1231 536 
Q 1403 409 1656 409 
Q 1909 409 2131 539 
Q 2353 669 2445 892 
Q 2538 1116 2538 1541 
L 2538 3319 
L 3100 3319 
L 3100 0 
L 2597 0 
z
" id="ArialMT-75" transform="scale(0.015625)"/>
       <path d="M 2694 1069 
L 3275 997 
Q 3138 488 2766 206 
Q 2394 -75 1816 -75 
Q 1088 -75 661 373 
Q 234 822 234 1631 
Q 234 2469 665 2931 
Q 1097 3394 1784 3394 
Q 2450 3394 2872 2941 
Q 3294 2488 3294 1666 
Q 3294 1616 3291 1516 
L 816 1516 
Q 847 969 1125 678 
Q 1403 388 1819 388 
Q 2128 388 2347 550 
Q 2566 713 2694 1069 
z
M 847 1978 
L 2700 1978 
Q 2663 2397 2488 2606 
Q 2219 2931 1791 2931 
Q 1403 2931 1139 2672 
Q 875 2413 847 1978 
z
" id="ArialMT-65" transform="scale(0.015625)"/>
       <path id="ArialMT-20" transform="scale(0.015625)"/>
       <path d="M 3763 1606 
L 4369 1453 
Q 4178 706 3683 314 
Q 3188 -78 2472 -78 
Q 1731 -78 1267 223 
Q 803 525 561 1097 
Q 319 1669 319 2325 
Q 319 3041 592 3573 
Q 866 4106 1370 4382 
Q 1875 4659 2481 4659 
Q 3169 4659 3637 4309 
Q 4106 3959 4291 3325 
L 3694 3184 
Q 3534 3684 3231 3912 
Q 2928 4141 2469 4141 
Q 1941 4141 1586 3887 
Q 1231 3634 1087 3207 
Q 944 2781 944 2328 
Q 944 1744 1114 1308 
Q 1284 872 1643 656 
Q 2003 441 2422 441 
Q 2931 441 3284 734 
Q 3638 1028 3763 1606 
z
" id="ArialMT-43" transform="scale(0.015625)"/>
       <path d="M 409 0 
L 409 4581 
L 972 4581 
L 972 0 
L 409 0 
z
" id="ArialMT-6c" transform="scale(0.015625)"/>
       <path d="M 422 0 
L 422 3319 
L 928 3319 
L 928 2847 
Q 1294 3394 1984 3394 
Q 2284 3394 2536 3286 
Q 2788 3178 2913 3003 
Q 3038 2828 3088 2588 
Q 3119 2431 3119 2041 
L 3119 0 
L 2556 0 
L 2556 2019 
Q 2556 2363 2490 2533 
Q 2425 2703 2258 2804 
Q 2091 2906 1866 2906 
Q 1506 2906 1245 2678 
Q 984 2450 984 1813 
L 984 0 
L 422 0 
z
" id="ArialMT-6e" transform="scale(0.015625)"/>
       <path d="M 1650 503 
L 1731 6 
Q 1494 -44 1306 -44 
Q 1000 -44 831 53 
Q 663 150 594 308 
Q 525 466 525 972 
L 525 2881 
L 113 2881 
L 113 3319 
L 525 3319 
L 525 4141 
L 1084 4478 
L 1084 3319 
L 1650 3319 
L 1650 2881 
L 1084 2881 
L 1084 941 
Q 1084 700 1114 631 
Q 1144 563 1211 522 
Q 1278 481 1403 481 
Q 1497 481 1650 503 
z
" id="ArialMT-74" transform="scale(0.015625)"/>
       <path d="M 422 0 
L 422 4581 
L 984 4581 
L 984 2938 
Q 1378 3394 1978 3394 
Q 2347 3394 2619 3248 
Q 2891 3103 3008 2847 
Q 3125 2591 3125 2103 
L 3125 0 
L 2563 0 
L 2563 2103 
Q 2563 2525 2380 2717 
Q 2197 2909 1863 2909 
Q 1613 2909 1392 2779 
Q 1172 2650 1078 2428 
Q 984 2206 984 1816 
L 984 0 
L 422 0 
z
" id="ArialMT-68" transform="scale(0.015625)"/>
       <path d="M 1497 -1347 
Q 1031 -759 709 28 
Q 388 816 388 1659 
Q 388 2403 628 3084 
Q 909 3875 1497 4659 
L 1900 4659 
Q 1522 4009 1400 3731 
Q 1209 3300 1100 2831 
Q 966 2247 966 1656 
Q 966 153 1900 -1347 
L 1497 -1347 
z
" id="ArialMT-28" transform="scale(0.015625)"/>
       <path d="M 2588 1216 
L 3141 1144 
Q 3050 572 2676 248 
Q 2303 -75 1759 -75 
Q 1078 -75 664 370 
Q 250 816 250 1647 
Q 250 2184 428 2587 
Q 606 2991 970 3192 
Q 1334 3394 1763 3394 
Q 2303 3394 2647 3120 
Q 2991 2847 3088 2344 
L 2541 2259 
Q 2463 2594 2264 2762 
Q 2066 2931 1784 2931 
Q 1359 2931 1093 2626 
Q 828 2322 828 1663 
Q 828 994 1084 691 
Q 1341 388 1753 388 
Q 2084 388 2306 591 
Q 2528 794 2588 1216 
z
" id="ArialMT-63" transform="scale(0.015625)"/>
       <path d="M 422 0 
L 422 3319 
L 925 3319 
L 925 2853 
Q 1081 3097 1340 3245 
Q 1600 3394 1931 3394 
Q 2300 3394 2536 3241 
Q 2772 3088 2869 2813 
Q 3263 3394 3894 3394 
Q 4388 3394 4653 3120 
Q 4919 2847 4919 2278 
L 4919 0 
L 4359 0 
L 4359 2091 
Q 4359 2428 4304 2576 
Q 4250 2725 4106 2815 
Q 3963 2906 3769 2906 
Q 3419 2906 3187 2673 
Q 2956 2441 2956 1928 
L 2956 0 
L 2394 0 
L 2394 2156 
Q 2394 2531 2256 2718 
Q 2119 2906 1806 2906 
Q 1569 2906 1367 2781 
Q 1166 2656 1075 2415 
Q 984 2175 984 1722 
L 984 0 
L 422 0 
z
" id="ArialMT-6d" transform="scale(0.015625)"/>
       <path d="M 791 -1347 
L 388 -1347 
Q 1322 153 1322 1656 
Q 1322 2244 1188 2822 
Q 1081 3291 891 3722 
Q 769 4003 388 4659 
L 791 4659 
Q 1378 3875 1659 3084 
Q 1900 2403 1900 1659 
Q 1900 816 1576 28 
Q 1253 -759 791 -1347 
z
" id="ArialMT-29" transform="scale(0.015625)"/>
      </defs>
      <use xlink:href="#ArialMT-50"/>
      <use x="66.699219" xlink:href="#ArialMT-72"/>
      <use x="100" xlink:href="#ArialMT-61"/>
      <use x="155.615234" xlink:href="#ArialMT-67"/>
      <use x="211.230469" xlink:href="#ArialMT-75"/>
      <use x="266.845703" xlink:href="#ArialMT-65"/>
      <use x="322.460938" xlink:href="#ArialMT-20"/>
      <use x="350.244141" xlink:href="#ArialMT-43"/>
      <use x="422.460938" xlink:href="#ArialMT-20"/>
      <use x="450.244141" xlink:href="#ArialMT-6c"/>
      <use x="472.460938" xlink:href="#ArialMT-65"/>
      <use x="528.076172" xlink:href="#ArialMT-6e"/>
      <use x="583.691406" xlink:href="#ArialMT-67"/>
      <use x="639.306641" xlink:href="#ArialMT-74"/>
      <use x="667.089844" xlink:href="#ArialMT-68"/>
      <use x="722.705078" xlink:href="#ArialMT-20"/>
      <use x="750.488281" xlink:href="#ArialMT-28"/>
      <use x="783.789062" xlink:href="#ArialMT-63"/>
      <use x="833.789062" xlink:href="#ArialMT-6d"/>
      <use x="917.089844" xlink:href="#ArialMT-29"/>
     </g>
    </g>
   </g>
   <g id="matplotlib.axis_2">
    <g id="ytick_1">
     <g id="line2d_1">
      <path clip-path="url(#p351b19cd0d)" d="M 153.21 1473.013636 
L 2507.04 1473.013636 
" style="fill:none;stroke:#ffffff;stroke-linecap:round;"/>
     </g>
     <g id="text_21">
      <!-- 0 -->
      <g style="fill:#262626;" transform="translate(102.002969 1499.855433)scale(0.75 -0.75)">
       <use xlink:href="#ArialMT-30"/>
      </g>
     </g>
    </g>
    <g id="ytick_2">
     <g id="line2d_2">
      <path clip-path="url(#p351b19cd0d)" d="M 153.21 1295.966463 
L 2507.04 1295.966463 
" style="fill:none;stroke:#ffffff;stroke-linecap:round;"/>
     </g>
     <g id="text_22">
      <!-- 1 -->
      <g style="fill:#262626;" transform="translate(102.002969 1322.80826)scale(0.75 -0.75)">
       <use xlink:href="#ArialMT-31"/>
      </g>
     </g>
    </g>
    <g id="ytick_3">
     <g id="line2d_3">
      <path clip-path="url(#p351b19cd0d)" d="M 153.21 1118.91929 
L 2507.04 1118.91929 
" style="fill:none;stroke:#ffffff;stroke-linecap:round;"/>
     </g>
     <g id="text_23">
      <!-- 2 -->
      <g style="fill:#262626;" transform="translate(102.002969 1145.761087)scale(0.75 -0.75)">
       <use xlink:href="#ArialMT-32"/>
      </g>
     </g>
    </g>
    <g id="ytick_4">
     <g id="line2d_4">
      <path clip-path="url(#p351b19cd0d)" d="M 153.21 941.872117 
L 2507.04 941.872117 
" style="fill:none;stroke:#ffffff;stroke-linecap:round;"/>
     </g>
     <g id="text_24">
      <!-- 3 -->
      <g style="fill:#262626;" transform="translate(102.002969 968.713914)scale(0.75 -0.75)">
       <use xlink:href="#ArialMT-33"/>
      </g>
     </g>
    </g>
    <g id="ytick_5">
     <g id="line2d_5">
      <path clip-path="url(#p351b19cd0d)" d="M 153.21 764.824944 
L 2507.04 764.824944 
" style="fill:none;stroke:#ffffff;stroke-linecap:round;"/>
     </g>
     <g id="text_25">
      <!-- 4 -->
      <g style="fill:#262626;" transform="translate(102.002969 791.666741)scale(0.75 -0.75)">
       <use xlink:href="#ArialMT-34"/>
      </g>
     </g>
    </g>
    <g id="ytick_6">
     <g id="line2d_6">
      <path clip-path="url(#p351b19cd0d)" d="M 153.21 587.777771 
L 2507.04 587.777771 
" style="fill:none;stroke:#ffffff;stroke-linecap:round;"/>
     </g>
     <g id="text_26">
      <!-- 5 -->
      <g style="fill:#262626;" transform="translate(102.002969 614.619568)scale(0.75 -0.75)">
       <use xlink:href="#ArialMT-35"/>
      </g>
     </g>
    </g>
    <g id="ytick_7">
     <g id="line2d_7">
      <path clip-path="url(#p351b19cd0d)" d="M 153.21 410.730598 
L 2507.04 410.730598 
" style="fill:none;stroke:#ffffff;stroke-linecap:round;"/>
     </g>
     <g id="text_27">
      <!-- 6 -->
      <g style="fill:#262626;" transform="translate(102.002969 437.572395)scale(0.75 -0.75)">
       <use xlink:href="#ArialMT-36"/>
      </g>
     </g>
    </g>
    <g id="ytick_8">
     <g id="line2d_8">
      <path clip-path="url(#p351b19cd0d)" d="M 153.21 233.683425 
L 2507.04 233.683425 
" style="fill:none;stroke:#ffffff;stroke-linecap:round;"/>
     </g>
     <g id="text_28">
      <!-- 7 -->
      <g style="fill:#262626;" transform="translate(102.002969 260.525222)scale(0.75 -0.75)">
       <use xlink:href="#ArialMT-37"/>
      </g>
     </g>
    </g>
    <g id="ytick_9">
     <g id="line2d_9">
      <path clip-path="url(#p351b19cd0d)" d="M 153.21 56.636252 
L 2507.04 56.636252 
" style="fill:none;stroke:#ffffff;stroke-linecap:round;"/>
     </g>
     <g id="text_29">
      <!-- 8 -->
      <g style="fill:#262626;" transform="translate(102.002969 83.478049)scale(0.75 -0.75)">
       <use xlink:href="#ArialMT-38"/>
      </g>
     </g>
    </g>
    <g id="text_30">
     <!-- log(TFF3 positive tile count + 1) -->
     <g style="fill:#262626;" transform="translate(79.060781 1409.226562)rotate(-90)scale(0.9 -0.9)">
      <defs>
       <path d="M 213 1659 
Q 213 2581 725 3025 
Q 1153 3394 1769 3394 
Q 2453 3394 2887 2945 
Q 3322 2497 3322 1706 
Q 3322 1066 3130 698 
Q 2938 331 2570 128 
Q 2203 -75 1769 -75 
Q 1072 -75 642 372 
Q 213 819 213 1659 
z
M 791 1659 
Q 791 1022 1069 705 
Q 1347 388 1769 388 
Q 2188 388 2466 706 
Q 2744 1025 2744 1678 
Q 2744 2294 2464 2611 
Q 2184 2928 1769 2928 
Q 1347 2928 1069 2612 
Q 791 2297 791 1659 
z
" id="ArialMT-6f" transform="scale(0.015625)"/>
       <path d="M 1659 0 
L 1659 4041 
L 150 4041 
L 150 4581 
L 3781 4581 
L 3781 4041 
L 2266 4041 
L 2266 0 
L 1659 0 
z
" id="ArialMT-54" transform="scale(0.015625)"/>
       <path d="M 525 0 
L 525 4581 
L 3616 4581 
L 3616 4041 
L 1131 4041 
L 1131 2622 
L 3281 2622 
L 3281 2081 
L 1131 2081 
L 1131 0 
L 525 0 
z
" id="ArialMT-46" transform="scale(0.015625)"/>
       <path d="M 422 -1272 
L 422 3319 
L 934 3319 
L 934 2888 
Q 1116 3141 1344 3267 
Q 1572 3394 1897 3394 
Q 2322 3394 2647 3175 
Q 2972 2956 3137 2557 
Q 3303 2159 3303 1684 
Q 3303 1175 3120 767 
Q 2938 359 2589 142 
Q 2241 -75 1856 -75 
Q 1575 -75 1351 44 
Q 1128 163 984 344 
L 984 -1272 
L 422 -1272 
z
M 931 1641 
Q 931 1000 1190 694 
Q 1450 388 1819 388 
Q 2194 388 2461 705 
Q 2728 1022 2728 1688 
Q 2728 2322 2467 2637 
Q 2206 2953 1844 2953 
Q 1484 2953 1207 2617 
Q 931 2281 931 1641 
z
" id="ArialMT-70" transform="scale(0.015625)"/>
       <path d="M 197 991 
L 753 1078 
Q 800 744 1014 566 
Q 1228 388 1613 388 
Q 2000 388 2187 545 
Q 2375 703 2375 916 
Q 2375 1106 2209 1216 
Q 2094 1291 1634 1406 
Q 1016 1563 777 1677 
Q 538 1791 414 1992 
Q 291 2194 291 2438 
Q 291 2659 392 2848 
Q 494 3038 669 3163 
Q 800 3259 1026 3326 
Q 1253 3394 1513 3394 
Q 1903 3394 2198 3281 
Q 2494 3169 2634 2976 
Q 2775 2784 2828 2463 
L 2278 2388 
Q 2241 2644 2061 2787 
Q 1881 2931 1553 2931 
Q 1166 2931 1000 2803 
Q 834 2675 834 2503 
Q 834 2394 903 2306 
Q 972 2216 1119 2156 
Q 1203 2125 1616 2013 
Q 2213 1853 2448 1751 
Q 2684 1650 2818 1456 
Q 2953 1263 2953 975 
Q 2953 694 2789 445 
Q 2625 197 2315 61 
Q 2006 -75 1616 -75 
Q 969 -75 630 194 
Q 291 463 197 991 
z
" id="ArialMT-73" transform="scale(0.015625)"/>
       <path d="M 425 3934 
L 425 4581 
L 988 4581 
L 988 3934 
L 425 3934 
z
M 425 0 
L 425 3319 
L 988 3319 
L 988 0 
L 425 0 
z
" id="ArialMT-69" transform="scale(0.015625)"/>
       <path d="M 1344 0 
L 81 3319 
L 675 3319 
L 1388 1331 
Q 1503 1009 1600 663 
Q 1675 925 1809 1294 
L 2547 3319 
L 3125 3319 
L 1869 0 
L 1344 0 
z
" id="ArialMT-76" transform="scale(0.015625)"/>
       <path d="M 1603 741 
L 1603 1997 
L 356 1997 
L 356 2522 
L 1603 2522 
L 1603 3769 
L 2134 3769 
L 2134 2522 
L 3381 2522 
L 3381 1997 
L 2134 1997 
L 2134 741 
L 1603 741 
z
" id="ArialMT-2b" transform="scale(0.015625)"/>
      </defs>
      <use xlink:href="#ArialMT-6c"/>
      <use x="22.216797" xlink:href="#ArialMT-6f"/>
      <use x="77.832031" xlink:href="#ArialMT-67"/>
      <use x="133.447266" xlink:href="#ArialMT-28"/>
      <use x="166.748047" xlink:href="#ArialMT-54"/>
      <use x="227.832031" xlink:href="#ArialMT-46"/>
      <use x="288.916016" xlink:href="#ArialMT-46"/>
      <use x="350" xlink:href="#ArialMT-33"/>
      <use x="405.615234" xlink:href="#ArialMT-20"/>
      <use x="433.398438" xlink:href="#ArialMT-70"/>
      <use x="489.013672" xlink:href="#ArialMT-6f"/>
      <use x="544.628906" xlink:href="#ArialMT-73"/>
      <use x="594.628906" xlink:href="#ArialMT-69"/>
      <use x="616.845703" xlink:href="#ArialMT-74"/>
      <use x="644.628906" xlink:href="#ArialMT-69"/>
      <use x="666.845703" xlink:href="#ArialMT-76"/>
      <use x="716.845703" xlink:href="#ArialMT-65"/>
      <use x="772.460938" xlink:href="#ArialMT-20"/>
      <use x="800.244141" xlink:href="#ArialMT-74"/>
      <use x="828.027344" xlink:href="#ArialMT-69"/>
      <use x="850.244141" xlink:href="#ArialMT-6c"/>
      <use x="872.460938" xlink:href="#ArialMT-65"/>
      <use x="928.076172" xlink:href="#ArialMT-20"/>
      <use x="955.859375" xlink:href="#ArialMT-63"/>
      <use x="1005.859375" xlink:href="#ArialMT-6f"/>
      <use x="1061.474609" xlink:href="#ArialMT-75"/>
      <use x="1117.089844" xlink:href="#ArialMT-6e"/>
      <use x="1172.705078" xlink:href="#ArialMT-74"/>
      <use x="1200.488281" xlink:href="#ArialMT-20"/>
      <use x="1228.271484" xlink:href="#ArialMT-2b"/>
      <use x="1286.669922" xlink:href="#ArialMT-20"/>
      <use x="1314.453125" xlink:href="#ArialMT-31"/>
      <use x="1370.068359" xlink:href="#ArialMT-29"/>
     </g>
    </g>
   </g>
   <g id="patch_3">
    <path clip-path="url(#p351b19cd0d)" d="M 165.598579 1473.013636 
L 264.707211 1473.013636 
L 264.707211 1179.997325 
L 165.598579 1179.997325 
L 165.598579 1473.013636 
z
" style="fill:#ea96a3;stroke:#464646;stroke-linejoin:miter;stroke-width:5;"/>
   </g>
   <g id="patch_4">
    <path clip-path="url(#p351b19cd0d)" d="M 289.484368 1258.254076 
L 388.593 1258.254076 
L 388.593 829.61213 
L 289.484368 829.61213 
L 289.484368 1258.254076 
z
" style="fill:#e79680;stroke:#464646;stroke-linejoin:miter;stroke-width:5;"/>
   </g>
   <g id="patch_5">
    <path clip-path="url(#p351b19cd0d)" d="M 413.370158 1197.943938 
L 512.478789 1197.943938 
L 512.478789 759.553084 
L 413.370158 759.553084 
L 413.370158 1197.943938 
z
" style="fill:#d4954d;stroke:#464646;stroke-linejoin:miter;stroke-width:5;"/>
   </g>
   <g id="patch_6">
    <path clip-path="url(#p351b19cd0d)" d="M 537.255947 1104.85439 
L 636.364579 1104.85439 
L 636.364579 668.636139 
L 537.255947 668.636139 
L 537.255947 1104.85439 
z
" style="fill:#bc9b4a;stroke:#464646;stroke-linejoin:miter;stroke-width:5;"/>
   </g>
   <g id="patch_7">
    <path clip-path="url(#p351b19cd0d)" d="M 661.141737 961.281488 
L 760.250368 961.281488 
L 760.250368 515.68916 
L 661.141737 515.68916 
L 661.141737 961.281488 
z
" style="fill:#a79e46;stroke:#464646;stroke-linejoin:miter;stroke-width:5;"/>
   </g>
   <g id="patch_8">
    <path clip-path="url(#p351b19cd0d)" d="M 785.027526 801.402577 
L 884.136158 801.402577 
L 884.136158 528.716039 
L 785.027526 528.716039 
L 785.027526 801.402577 
z
" style="fill:#92a446;stroke:#464646;stroke-linejoin:miter;stroke-width:5;"/>
   </g>
   <g id="patch_9">
    <path clip-path="url(#p351b19cd0d)" d="M 908.913316 868.129161 
L 1008.021947 868.129161 
L 1008.021947 472.712047 
L 908.913316 472.712047 
L 908.913316 868.129161 
z
" style="fill:#73ab47;stroke:#464646;stroke-linejoin:miter;stroke-width:5;"/>
   </g>
   <g id="patch_10">
    <path clip-path="url(#p351b19cd0d)" d="M 1032.799105 843.549313 
L 1131.907737 843.549313 
L 1131.907737 526.323364 
L 1032.799105 526.323364 
L 1032.799105 843.549313 
z
" style="fill:#48af6c;stroke:#464646;stroke-linejoin:miter;stroke-width:5;"/>
   </g>
   <g id="patch_11">
    <path clip-path="url(#p351b19cd0d)" d="M 1156.684895 837.50366 
L 1255.793526 837.50366 
L 1255.793526 446.658543 
L 1156.684895 446.658543 
L 1156.684895 837.50366 
z
" style="fill:#4aad8c;stroke:#464646;stroke-linejoin:miter;stroke-width:5;"/>
   </g>
   <g id="patch_12">
    <path clip-path="url(#p351b19cd0d)" d="M 1280.570684 641.768607 
L 1379.679316 641.768607 
L 1379.679316 275.140929 
L 1280.570684 275.140929 
L 1280.570684 641.768607 
z
" style="fill:#4bac9d;stroke:#464646;stroke-linejoin:miter;stroke-width:5;"/>
   </g>
   <g id="patch_13">
    <path clip-path="url(#p351b19cd0d)" d="M 1404.456474 749.080303 
L 1503.565105 749.080303 
L 1503.565105 451.288159 
L 1404.456474 451.288159 
L 1404.456474 749.080303 
z
" style="fill:#4baaab;stroke:#464646;stroke-linejoin:miter;stroke-width:5;"/>
   </g>
   <g id="patch_14">
    <path clip-path="url(#p351b19cd0d)" d="M 1528.342263 742.723421 
L 1627.450895 742.723421 
L 1627.450895 405.568148 
L 1528.342263 405.568148 
L 1528.342263 742.723421 
z
" style="fill:#4fabbb;stroke:#464646;stroke-linejoin:miter;stroke-width:5;"/>
   </g>
   <g id="patch_15">
    <path clip-path="url(#p351b19cd0d)" d="M 1652.228053 547.641242 
L 1751.336684 547.641242 
L 1751.336684 310.754648 
L 1652.228053 310.754648 
L 1652.228053 547.641242 
z
" style="fill:#54acd1;stroke:#464646;stroke-linejoin:miter;stroke-width:5;"/>
   </g>
   <g id="patch_16">
    <path clip-path="url(#p351b19cd0d)" d="M 1776.113842 651.667071 
L 1875.222474 651.667071 
L 1875.222474 332.239712 
L 1776.113842 332.239712 
L 1776.113842 651.667071 
z
" style="fill:#84aee6;stroke:#464646;stroke-linejoin:miter;stroke-width:5;"/>
   </g>
   <g id="patch_17">
    <path clip-path="url(#p351b19cd0d)" d="M 1899.999632 443.796954 
L 1999.108263 443.796954 
L 1999.108263 339.05258 
L 1899.999632 339.05258 
L 1899.999632 443.796954 
z
" style="fill:#afaaeb;stroke:#464646;stroke-linejoin:miter;stroke-width:5;"/>
   </g>
   <g id="patch_18">
    <path clip-path="url(#p351b19cd0d)" d="M 2023.885421 731.247109 
L 2122.994053 731.247109 
L 2122.994053 731.247109 
L 2023.885421 731.247109 
L 2023.885421 731.247109 
z
" style="fill:#c99ee9;stroke:#464646;stroke-linejoin:miter;stroke-width:5;"/>
   </g>
   <g id="patch_19">
    <path clip-path="url(#p351b19cd0d)" d="M 2147.771211 206.977618 
L 2246.879842 206.977618 
L 2246.879842 194.78051 
L 2147.771211 194.78051 
L 2147.771211 206.977618 
z
" style="fill:#e38be7;stroke:#464646;stroke-linejoin:miter;stroke-width:5;"/>
   </g>
   <g id="patch_20">
    <path clip-path="url(#p351b19cd0d)" d="M 2271.657 584.718425 
L 2370.765632 584.718425 
L 2370.765632 584.718425 
L 2271.657 584.718425 
L 2271.657 584.718425 
z
" style="fill:#e88ecf;stroke:#464646;stroke-linejoin:miter;stroke-width:5;"/>
   </g>
   <g id="patch_21">
    <path clip-path="url(#p351b19cd0d)" d="M 2395.542789 82.486364 
L 2494.651421 82.486364 
L 2494.651421 82.486364 
L 2395.542789 82.486364 
L 2395.542789 82.486364 
z
" style="fill:#e992ba;stroke:#464646;stroke-linejoin:miter;stroke-width:5;"/>
   </g>
   <g id="line2d_10">
    <path clip-path="url(#p351b19cd0d)" d="M 215.152895 1473.013636 
L 215.152895 1473.013636 
" style="fill:none;stroke:#464646;stroke-linecap:round;stroke-width:5;"/>
   </g>
   <g id="line2d_11">
    <path clip-path="url(#p351b19cd0d)" d="M 215.152895 1179.997325 
L 215.152895 745.19504 
" style="fill:none;stroke:#464646;stroke-linecap:round;stroke-width:5;"/>
   </g>
   <g id="line2d_12">
    <path clip-path="url(#p351b19cd0d)" d="M 190.375737 1473.013636 
L 239.930053 1473.013636 
" style="fill:none;stroke:#464646;stroke-linecap:round;stroke-width:5;"/>
   </g>
   <g id="line2d_13">
    <path clip-path="url(#p351b19cd0d)" d="M 190.375737 745.19504 
L 239.930053 745.19504 
" style="fill:none;stroke:#464646;stroke-linecap:round;stroke-width:5;"/>
   </g>
   <g id="line2d_14">
    <defs>
     <path d="M -0 10.606602 
L 6.363961 0 
L 0 -10.606602 
L -6.363961 -0 
z
" id="m31097cc7f8" style="stroke:#464646;stroke-linejoin:miter;"/>
    </defs>
    <g clip-path="url(#p351b19cd0d)">
     <use style="fill:#464646;stroke:#464646;stroke-linejoin:miter;" x="215.152895" xlink:href="#m31097cc7f8" y="713.399922"/>
     <use style="fill:#464646;stroke:#464646;stroke-linejoin:miter;" x="215.152895" xlink:href="#m31097cc7f8" y="623.932478"/>
     <use style="fill:#464646;stroke:#464646;stroke-linejoin:miter;" x="215.152895" xlink:href="#m31097cc7f8" y="588.27133"/>
     <use style="fill:#464646;stroke:#464646;stroke-linejoin:miter;" x="215.152895" xlink:href="#m31097cc7f8" y="674.378713"/>
     <use style="fill:#464646;stroke:#464646;stroke-linejoin:miter;" x="215.152895" xlink:href="#m31097cc7f8" y="710.991079"/>
     <use style="fill:#464646;stroke:#464646;stroke-linejoin:miter;" x="215.152895" xlink:href="#m31097cc7f8" y="664.908693"/>
     <use style="fill:#464646;stroke:#464646;stroke-linejoin:miter;" x="215.152895" xlink:href="#m31097cc7f8" y="623.932478"/>
     <use style="fill:#464646;stroke:#464646;stroke-linejoin:miter;" x="215.152895" xlink:href="#m31097cc7f8" y="692.816452"/>
     <use style="fill:#464646;stroke:#464646;stroke-linejoin:miter;" x="215.152895" xlink:href="#m31097cc7f8" y="520.518019"/>
     <use style="fill:#464646;stroke:#464646;stroke-linejoin:miter;" x="215.152895" xlink:href="#m31097cc7f8" y="522.982753"/>
     <use style="fill:#464646;stroke:#464646;stroke-linejoin:miter;" x="215.152895" xlink:href="#m31097cc7f8" y="515.68916"/>
     <use style="fill:#464646;stroke:#464646;stroke-linejoin:miter;" x="215.152895" xlink:href="#m31097cc7f8" y="599.378976"/>
     <use style="fill:#464646;stroke:#464646;stroke-linejoin:miter;" x="215.152895" xlink:href="#m31097cc7f8" y="377.035794"/>
    </g>
   </g>
   <g id="line2d_15">
    <path clip-path="url(#p351b19cd0d)" d="M 339.038684 1258.254076 
L 339.038684 1350.293888 
" style="fill:none;stroke:#464646;stroke-linecap:round;stroke-width:5;"/>
   </g>
   <g id="line2d_16">
    <path clip-path="url(#p351b19cd0d)" d="M 339.038684 829.61213 
L 339.038684 490.565403 
" style="fill:none;stroke:#464646;stroke-linecap:round;stroke-width:5;"/>
   </g>
   <g id="line2d_17">
    <path clip-path="url(#p351b19cd0d)" d="M 314.261526 1350.293888 
L 363.815842 1350.293888 
" style="fill:none;stroke:#464646;stroke-linecap:round;stroke-width:5;"/>
   </g>
   <g id="line2d_18">
    <path clip-path="url(#p351b19cd0d)" d="M 314.261526 490.565403 
L 363.815842 490.565403 
" style="fill:none;stroke:#464646;stroke-linecap:round;stroke-width:5;"/>
   </g>
   <g id="line2d_19"/>
   <g id="line2d_20">
    <path clip-path="url(#p351b19cd0d)" d="M 462.924474 1197.943938 
L 462.924474 1473.013636 
" style="fill:none;stroke:#464646;stroke-linecap:round;stroke-width:5;"/>
   </g>
   <g id="line2d_21">
    <path clip-path="url(#p351b19cd0d)" d="M 462.924474 759.553084 
L 462.924474 499.031422 
" style="fill:none;stroke:#464646;stroke-linecap:round;stroke-width:5;"/>
   </g>
   <g id="line2d_22">
    <path clip-path="url(#p351b19cd0d)" d="M 438.147316 1473.013636 
L 487.701632 1473.013636 
" style="fill:none;stroke:#464646;stroke-linecap:round;stroke-width:5;"/>
   </g>
   <g id="line2d_23">
    <path clip-path="url(#p351b19cd0d)" d="M 438.147316 499.031422 
L 487.701632 499.031422 
" style="fill:none;stroke:#464646;stroke-linecap:round;stroke-width:5;"/>
   </g>
   <g id="line2d_24">
    <g clip-path="url(#p351b19cd0d)">
     <use style="fill:#464646;stroke:#464646;stroke-linejoin:miter;" x="462.924474" xlink:href="#m31097cc7f8" y="84.560349"/>
    </g>
   </g>
   <g id="line2d_25">
    <path clip-path="url(#p351b19cd0d)" d="M 586.810263 1104.85439 
L 586.810263 1473.013636 
" style="fill:none;stroke:#464646;stroke-linecap:round;stroke-width:5;"/>
   </g>
   <g id="line2d_26">
    <path clip-path="url(#p351b19cd0d)" d="M 586.810263 668.636139 
L 586.810263 186.566077 
" style="fill:none;stroke:#464646;stroke-linecap:round;stroke-width:5;"/>
   </g>
   <g id="line2d_27">
    <path clip-path="url(#p351b19cd0d)" d="M 562.033105 1473.013636 
L 611.587421 1473.013636 
" style="fill:none;stroke:#464646;stroke-linecap:round;stroke-width:5;"/>
   </g>
   <g id="line2d_28">
    <path clip-path="url(#p351b19cd0d)" d="M 562.033105 186.566077 
L 611.587421 186.566077 
" style="fill:none;stroke:#464646;stroke-linecap:round;stroke-width:5;"/>
   </g>
   <g id="line2d_29"/>
   <g id="line2d_30">
    <path clip-path="url(#p351b19cd0d)" d="M 710.696053 961.281488 
L 710.696053 1473.013636 
" style="fill:none;stroke:#464646;stroke-linecap:round;stroke-width:5;"/>
   </g>
   <g id="line2d_31">
    <path clip-path="url(#p351b19cd0d)" d="M 710.696053 515.68916 
L 710.696053 271.444586 
" style="fill:none;stroke:#464646;stroke-linecap:round;stroke-width:5;"/>
   </g>
   <g id="line2d_32">
    <path clip-path="url(#p351b19cd0d)" d="M 685.918895 1473.013636 
L 735.473211 1473.013636 
" style="fill:none;stroke:#464646;stroke-linecap:round;stroke-width:5;"/>
   </g>
   <g id="line2d_33">
    <path clip-path="url(#p351b19cd0d)" d="M 685.918895 271.444586 
L 735.473211 271.444586 
" style="fill:none;stroke:#464646;stroke-linecap:round;stroke-width:5;"/>
   </g>
   <g id="line2d_34"/>
   <g id="line2d_35">
    <path clip-path="url(#p351b19cd0d)" d="M 834.581842 801.402577 
L 834.581842 1104.85439 
" style="fill:none;stroke:#464646;stroke-linecap:round;stroke-width:5;"/>
   </g>
   <g id="line2d_36">
    <path clip-path="url(#p351b19cd0d)" d="M 834.581842 528.716039 
L 834.581842 321.18296 
" style="fill:none;stroke:#464646;stroke-linecap:round;stroke-width:5;"/>
   </g>
   <g id="line2d_37">
    <path clip-path="url(#p351b19cd0d)" d="M 809.804684 1104.85439 
L 859.359 1104.85439 
" style="fill:none;stroke:#464646;stroke-linecap:round;stroke-width:5;"/>
   </g>
   <g id="line2d_38">
    <path clip-path="url(#p351b19cd0d)" d="M 809.804684 321.18296 
L 859.359 321.18296 
" style="fill:none;stroke:#464646;stroke-linecap:round;stroke-width:5;"/>
   </g>
   <g id="line2d_39"/>
   <g id="line2d_40">
    <path clip-path="url(#p351b19cd0d)" d="M 958.467632 868.129161 
L 958.467632 1278.507436 
" style="fill:none;stroke:#464646;stroke-linecap:round;stroke-width:5;"/>
   </g>
   <g id="line2d_41">
    <path clip-path="url(#p351b19cd0d)" d="M 958.467632 472.712047 
L 958.467632 307.194936 
" style="fill:none;stroke:#464646;stroke-linecap:round;stroke-width:5;"/>
   </g>
   <g id="line2d_42">
    <path clip-path="url(#p351b19cd0d)" d="M 933.690474 1278.507436 
L 983.244789 1278.507436 
" style="fill:none;stroke:#464646;stroke-linecap:round;stroke-width:5;"/>
   </g>
   <g id="line2d_43">
    <path clip-path="url(#p351b19cd0d)" d="M 933.690474 307.194936 
L 983.244789 307.194936 
" style="fill:none;stroke:#464646;stroke-linecap:round;stroke-width:5;"/>
   </g>
   <g id="line2d_44"/>
   <g id="line2d_45">
    <path clip-path="url(#p351b19cd0d)" d="M 1082.353421 843.549313 
L 1082.353421 1227.574139 
" style="fill:none;stroke:#464646;stroke-linecap:round;stroke-width:5;"/>
   </g>
   <g id="line2d_46">
    <path clip-path="url(#p351b19cd0d)" d="M 1082.353421 526.323364 
L 1082.353421 312.154565 
" style="fill:none;stroke:#464646;stroke-linecap:round;stroke-width:5;"/>
   </g>
   <g id="line2d_47">
    <path clip-path="url(#p351b19cd0d)" d="M 1057.576263 1227.574139 
L 1107.130579 1227.574139 
" style="fill:none;stroke:#464646;stroke-linecap:round;stroke-width:5;"/>
   </g>
   <g id="line2d_48">
    <path clip-path="url(#p351b19cd0d)" d="M 1057.576263 312.154565 
L 1107.130579 312.154565 
" style="fill:none;stroke:#464646;stroke-linecap:round;stroke-width:5;"/>
   </g>
   <g id="line2d_49"/>
   <g id="line2d_50">
    <path clip-path="url(#p351b19cd0d)" d="M 1206.239211 837.50366 
L 1206.239211 1227.574139 
" style="fill:none;stroke:#464646;stroke-linecap:round;stroke-width:5;"/>
   </g>
   <g id="line2d_51">
    <path clip-path="url(#p351b19cd0d)" d="M 1206.239211 446.658543 
L 1206.239211 183.256688 
" style="fill:none;stroke:#464646;stroke-linecap:round;stroke-width:5;"/>
   </g>
   <g id="line2d_52">
    <path clip-path="url(#p351b19cd0d)" d="M 1181.462053 1227.574139 
L 1231.016368 1227.574139 
" style="fill:none;stroke:#464646;stroke-linecap:round;stroke-width:5;"/>
   </g>
   <g id="line2d_53">
    <path clip-path="url(#p351b19cd0d)" d="M 1181.462053 183.256688 
L 1231.016368 183.256688 
" style="fill:none;stroke:#464646;stroke-linecap:round;stroke-width:5;"/>
   </g>
   <g id="line2d_54"/>
   <g id="line2d_55">
    <path clip-path="url(#p351b19cd0d)" d="M 1330.125 641.768607 
L 1330.125 1048.473057 
" style="fill:none;stroke:#464646;stroke-linecap:round;stroke-width:5;"/>
   </g>
   <g id="line2d_56">
    <path clip-path="url(#p351b19cd0d)" d="M 1330.125 275.140929 
L 1330.125 114.162091 
" style="fill:none;stroke:#464646;stroke-linecap:round;stroke-width:5;"/>
   </g>
   <g id="line2d_57">
    <path clip-path="url(#p351b19cd0d)" d="M 1305.347842 1048.473057 
L 1354.902158 1048.473057 
" style="fill:none;stroke:#464646;stroke-linecap:round;stroke-width:5;"/>
   </g>
   <g id="line2d_58">
    <path clip-path="url(#p351b19cd0d)" d="M 1305.347842 114.162091 
L 1354.902158 114.162091 
" style="fill:none;stroke:#464646;stroke-linecap:round;stroke-width:5;"/>
   </g>
   <g id="line2d_59"/>
   <g id="line2d_60">
    <path clip-path="url(#p351b19cd0d)" d="M 1454.010789 749.080303 
L 1454.010789 833.710828 
" style="fill:none;stroke:#464646;stroke-linecap:round;stroke-width:5;"/>
   </g>
   <g id="line2d_61">
    <path clip-path="url(#p351b19cd0d)" d="M 1454.010789 451.288159 
L 1454.010789 352.039133 
" style="fill:none;stroke:#464646;stroke-linecap:round;stroke-width:5;"/>
   </g>
   <g id="line2d_62">
    <path clip-path="url(#p351b19cd0d)" d="M 1429.233632 833.710828 
L 1478.787947 833.710828 
" style="fill:none;stroke:#464646;stroke-linecap:round;stroke-width:5;"/>
   </g>
   <g id="line2d_63">
    <path clip-path="url(#p351b19cd0d)" d="M 1429.233632 352.039133 
L 1478.787947 352.039133 
" style="fill:none;stroke:#464646;stroke-linecap:round;stroke-width:5;"/>
   </g>
   <g id="line2d_64"/>
   <g id="line2d_65">
    <path clip-path="url(#p351b19cd0d)" d="M 1577.896579 742.723421 
L 1577.896579 982.134641 
" style="fill:none;stroke:#464646;stroke-linecap:round;stroke-width:5;"/>
   </g>
   <g id="line2d_66">
    <path clip-path="url(#p351b19cd0d)" d="M 1577.896579 405.568148 
L 1577.896579 253.772677 
" style="fill:none;stroke:#464646;stroke-linecap:round;stroke-width:5;"/>
   </g>
   <g id="line2d_67">
    <path clip-path="url(#p351b19cd0d)" d="M 1553.119421 982.134641 
L 1602.673737 982.134641 
" style="fill:none;stroke:#464646;stroke-linecap:round;stroke-width:5;"/>
   </g>
   <g id="line2d_68">
    <path clip-path="url(#p351b19cd0d)" d="M 1553.119421 253.772677 
L 1602.673737 253.772677 
" style="fill:none;stroke:#464646;stroke-linecap:round;stroke-width:5;"/>
   </g>
   <g id="line2d_69">
    <g clip-path="url(#p351b19cd0d)">
     <use style="fill:#464646;stroke:#464646;stroke-linejoin:miter;" x="1577.896579" xlink:href="#m31097cc7f8" y="1350.293888"/>
    </g>
   </g>
   <g id="line2d_70">
    <path clip-path="url(#p351b19cd0d)" d="M 1701.782368 547.641242 
L 1701.782368 757.202839 
" style="fill:none;stroke:#464646;stroke-linecap:round;stroke-width:5;"/>
   </g>
   <g id="line2d_71">
    <path clip-path="url(#p351b19cd0d)" d="M 1701.782368 310.754648 
L 1701.782368 250.192228 
" style="fill:none;stroke:#464646;stroke-linecap:round;stroke-width:5;"/>
   </g>
   <g id="line2d_72">
    <path clip-path="url(#p351b19cd0d)" d="M 1677.005211 757.202839 
L 1726.559526 757.202839 
" style="fill:none;stroke:#464646;stroke-linecap:round;stroke-width:5;"/>
   </g>
   <g id="line2d_73">
    <path clip-path="url(#p351b19cd0d)" d="M 1677.005211 250.192228 
L 1726.559526 250.192228 
" style="fill:none;stroke:#464646;stroke-linecap:round;stroke-width:5;"/>
   </g>
   <g id="line2d_74"/>
   <g id="line2d_75">
    <path clip-path="url(#p351b19cd0d)" d="M 1825.668158 651.667071 
L 1825.668158 848.681475 
" style="fill:none;stroke:#464646;stroke-linecap:round;stroke-width:5;"/>
   </g>
   <g id="line2d_76">
    <path clip-path="url(#p351b19cd0d)" d="M 1825.668158 332.239712 
L 1825.668158 237.210924 
" style="fill:none;stroke:#464646;stroke-linecap:round;stroke-width:5;"/>
   </g>
   <g id="line2d_77">
    <path clip-path="url(#p351b19cd0d)" d="M 1800.891 848.681475 
L 1850.445316 848.681475 
" style="fill:none;stroke:#464646;stroke-linecap:round;stroke-width:5;"/>
   </g>
   <g id="line2d_78">
    <path clip-path="url(#p351b19cd0d)" d="M 1800.891 237.210924 
L 1850.445316 237.210924 
" style="fill:none;stroke:#464646;stroke-linecap:round;stroke-width:5;"/>
   </g>
   <g id="line2d_79"/>
   <g id="line2d_80">
    <path clip-path="url(#p351b19cd0d)" d="M 1949.553947 443.796954 
L 1949.553947 483.145197 
" style="fill:none;stroke:#464646;stroke-linecap:round;stroke-width:5;"/>
   </g>
   <g id="line2d_81">
    <path clip-path="url(#p351b19cd0d)" d="M 1949.553947 339.05258 
L 1949.553947 273.656448 
" style="fill:none;stroke:#464646;stroke-linecap:round;stroke-width:5;"/>
   </g>
   <g id="line2d_82">
    <path clip-path="url(#p351b19cd0d)" d="M 1924.776789 483.145197 
L 1974.331105 483.145197 
" style="fill:none;stroke:#464646;stroke-linecap:round;stroke-width:5;"/>
   </g>
   <g id="line2d_83">
    <path clip-path="url(#p351b19cd0d)" d="M 1924.776789 273.656448 
L 1974.331105 273.656448 
" style="fill:none;stroke:#464646;stroke-linecap:round;stroke-width:5;"/>
   </g>
   <g id="line2d_84"/>
   <g id="line2d_85">
    <path clip-path="url(#p351b19cd0d)" d="M 2073.439737 731.247109 
L 2073.439737 731.247109 
" style="fill:none;stroke:#464646;stroke-linecap:round;stroke-width:5;"/>
   </g>
   <g id="line2d_86">
    <path clip-path="url(#p351b19cd0d)" d="M 2073.439737 731.247109 
L 2073.439737 731.247109 
" style="fill:none;stroke:#464646;stroke-linecap:round;stroke-width:5;"/>
   </g>
   <g id="line2d_87">
    <path clip-path="url(#p351b19cd0d)" d="M 2048.662579 731.247109 
L 2098.216895 731.247109 
" style="fill:none;stroke:#464646;stroke-linecap:round;stroke-width:5;"/>
   </g>
   <g id="line2d_88">
    <path clip-path="url(#p351b19cd0d)" d="M 2048.662579 731.247109 
L 2098.216895 731.247109 
" style="fill:none;stroke:#464646;stroke-linecap:round;stroke-width:5;"/>
   </g>
   <g id="line2d_89"/>
   <g id="line2d_90">
    <path clip-path="url(#p351b19cd0d)" d="M 2197.325526 206.977618 
L 2197.325526 213.076171 
" style="fill:none;stroke:#464646;stroke-linecap:round;stroke-width:5;"/>
   </g>
   <g id="line2d_91">
    <path clip-path="url(#p351b19cd0d)" d="M 2197.325526 194.78051 
L 2197.325526 188.681956 
" style="fill:none;stroke:#464646;stroke-linecap:round;stroke-width:5;"/>
   </g>
   <g id="line2d_92">
    <path clip-path="url(#p351b19cd0d)" d="M 2172.548368 213.076171 
L 2222.102684 213.076171 
" style="fill:none;stroke:#464646;stroke-linecap:round;stroke-width:5;"/>
   </g>
   <g id="line2d_93">
    <path clip-path="url(#p351b19cd0d)" d="M 2172.548368 188.681956 
L 2222.102684 188.681956 
" style="fill:none;stroke:#464646;stroke-linecap:round;stroke-width:5;"/>
   </g>
   <g id="line2d_94"/>
   <g id="line2d_95">
    <path clip-path="url(#p351b19cd0d)" d="M 2321.211316 584.718425 
L 2321.211316 584.718425 
" style="fill:none;stroke:#464646;stroke-linecap:round;stroke-width:5;"/>
   </g>
   <g id="line2d_96">
    <path clip-path="url(#p351b19cd0d)" d="M 2321.211316 584.718425 
L 2321.211316 584.718425 
" style="fill:none;stroke:#464646;stroke-linecap:round;stroke-width:5;"/>
   </g>
   <g id="line2d_97">
    <path clip-path="url(#p351b19cd0d)" d="M 2296.434158 584.718425 
L 2345.988474 584.718425 
" style="fill:none;stroke:#464646;stroke-linecap:round;stroke-width:5;"/>
   </g>
   <g id="line2d_98">
    <path clip-path="url(#p351b19cd0d)" d="M 2296.434158 584.718425 
L 2345.988474 584.718425 
" style="fill:none;stroke:#464646;stroke-linecap:round;stroke-width:5;"/>
   </g>
   <g id="line2d_99"/>
   <g id="line2d_100">
    <path clip-path="url(#p351b19cd0d)" d="M 2445.097105 82.486364 
L 2445.097105 82.486364 
" style="fill:none;stroke:#464646;stroke-linecap:round;stroke-width:5;"/>
   </g>
   <g id="line2d_101">
    <path clip-path="url(#p351b19cd0d)" d="M 2445.097105 82.486364 
L 2445.097105 82.486364 
" style="fill:none;stroke:#464646;stroke-linecap:round;stroke-width:5;"/>
   </g>
   <g id="line2d_102">
    <path clip-path="url(#p351b19cd0d)" d="M 2420.319947 82.486364 
L 2469.874263 82.486364 
" style="fill:none;stroke:#464646;stroke-linecap:round;stroke-width:5;"/>
   </g>
   <g id="line2d_103">
    <path clip-path="url(#p351b19cd0d)" d="M 2420.319947 82.486364 
L 2469.874263 82.486364 
" style="fill:none;stroke:#464646;stroke-linecap:round;stroke-width:5;"/>
   </g>
   <g id="line2d_104"/>
   <g id="line2d_105">
    <path clip-path="url(#p351b19cd0d)" d="M 165.598579 1350.293888 
L 264.707211 1350.293888 
" style="fill:none;stroke:#464646;stroke-linecap:round;stroke-width:5;"/>
   </g>
   <g id="line2d_106">
    <path clip-path="url(#p351b19cd0d)" d="M 289.484368 1085.100923 
L 388.593 1085.100923 
" style="fill:none;stroke:#464646;stroke-linecap:round;stroke-width:5;"/>
   </g>
   <g id="line2d_107">
    <path clip-path="url(#p351b19cd0d)" d="M 413.370158 939.582369 
L 512.478789 939.582369 
" style="fill:none;stroke:#464646;stroke-linecap:round;stroke-width:5;"/>
   </g>
   <g id="line2d_108">
    <path clip-path="url(#p351b19cd0d)" d="M 537.255947 865.03591 
L 636.364579 865.03591 
" style="fill:none;stroke:#464646;stroke-linecap:round;stroke-width:5;"/>
   </g>
   <g id="line2d_109">
    <path clip-path="url(#p351b19cd0d)" d="M 661.141737 780.401023 
L 760.250368 780.401023 
" style="fill:none;stroke:#464646;stroke-linecap:round;stroke-width:5;"/>
   </g>
   <g id="line2d_110">
    <path clip-path="url(#p351b19cd0d)" d="M 785.027526 637.61675 
L 884.136158 637.61675 
" style="fill:none;stroke:#464646;stroke-linecap:round;stroke-width:5;"/>
   </g>
   <g id="line2d_111">
    <path clip-path="url(#p351b19cd0d)" d="M 908.913316 623.932478 
L 1008.021947 623.932478 
" style="fill:none;stroke:#464646;stroke-linecap:round;stroke-width:5;"/>
   </g>
   <g id="line2d_112">
    <path clip-path="url(#p351b19cd0d)" d="M 1032.799105 625.401758 
L 1131.907737 625.401758 
" style="fill:none;stroke:#464646;stroke-linecap:round;stroke-width:5;"/>
   </g>
   <g id="line2d_113">
    <path clip-path="url(#p351b19cd0d)" d="M 1156.684895 678.828842 
L 1255.793526 678.828842 
" style="fill:none;stroke:#464646;stroke-linecap:round;stroke-width:5;"/>
   </g>
   <g id="line2d_114">
    <path clip-path="url(#p351b19cd0d)" d="M 1280.570684 440.354604 
L 1379.679316 440.354604 
" style="fill:none;stroke:#464646;stroke-linecap:round;stroke-width:5;"/>
   </g>
   <g id="line2d_115">
    <path clip-path="url(#p351b19cd0d)" d="M 1404.456474 622.469344 
L 1503.565105 622.469344 
" style="fill:none;stroke:#464646;stroke-linecap:round;stroke-width:5;"/>
   </g>
   <g id="line2d_116">
    <path clip-path="url(#p351b19cd0d)" d="M 1528.342263 590.447914 
L 1627.450895 590.447914 
" style="fill:none;stroke:#464646;stroke-linecap:round;stroke-width:5;"/>
   </g>
   <g id="line2d_117">
    <path clip-path="url(#p351b19cd0d)" d="M 1652.228053 458.515669 
L 1751.336684 458.515669 
" style="fill:none;stroke:#464646;stroke-linecap:round;stroke-width:5;"/>
   </g>
   <g id="line2d_118">
    <path clip-path="url(#p351b19cd0d)" d="M 1776.113842 445.764981 
L 1875.222474 445.764981 
" style="fill:none;stroke:#464646;stroke-linecap:round;stroke-width:5;"/>
   </g>
   <g id="line2d_119">
    <path clip-path="url(#p351b19cd0d)" d="M 1899.999632 404.448711 
L 1999.108263 404.448711 
" style="fill:none;stroke:#464646;stroke-linecap:round;stroke-width:5;"/>
   </g>
   <g id="line2d_120">
    <path clip-path="url(#p351b19cd0d)" d="M 2023.885421 731.247109 
L 2122.994053 731.247109 
" style="fill:none;stroke:#464646;stroke-linecap:round;stroke-width:5;"/>
   </g>
   <g id="line2d_121">
    <path clip-path="url(#p351b19cd0d)" d="M 2147.771211 200.879064 
L 2246.879842 200.879064 
" style="fill:none;stroke:#464646;stroke-linecap:round;stroke-width:5;"/>
   </g>
   <g id="line2d_122">
    <path clip-path="url(#p351b19cd0d)" d="M 2271.657 584.718425 
L 2370.765632 584.718425 
" style="fill:none;stroke:#464646;stroke-linecap:round;stroke-width:5;"/>
   </g>
   <g id="line2d_123">
    <path clip-path="url(#p351b19cd0d)" d="M 2395.542789 82.486364 
L 2494.651421 82.486364 
" style="fill:none;stroke:#464646;stroke-linecap:round;stroke-width:5;"/>
   </g>
   <g id="patch_22">
    <path d="M 153.21 1542.54 
L 153.21 12.96 
" style="fill:none;stroke:#ffffff;stroke-linecap:square;stroke-linejoin:miter;stroke-width:1.25;"/>
   </g>
   <g id="patch_23">
    <path d="M 2507.04 1542.54 
L 2507.04 12.96 
" style="fill:none;stroke:#ffffff;stroke-linecap:square;stroke-linejoin:miter;stroke-width:1.25;"/>
   </g>
   <g id="patch_24">
    <path d="M 153.21 1542.54 
L 2507.04 1542.54 
" style="fill:none;stroke:#ffffff;stroke-linecap:square;stroke-linejoin:miter;stroke-width:1.25;"/>
   </g>
   <g id="patch_25">
    <path d="M 153.21 12.96 
L 2507.04 12.96 
" style="fill:none;stroke:#ffffff;stroke-linecap:square;stroke-linejoin:miter;stroke-width:1.25;"/>
   </g>
  </g>
 </g>
 <defs>
  <clipPath id="p351b19cd0d">
   <rect height="1529.58" width="2353.83" x="153.21" y="12.96"/>
  </clipPath>
 </defs>
</svg>
