<?xml version="1.0" encoding="utf-8" standalone="no"?>
<!DOCTYPE svg PUBLIC "-//W3C//DTD SVG 1.1//EN"
  "http://www.w3.org/Graphics/SVG/1.1/DTD/svg11.dtd">
<svg height="1800pt" version="1.1" viewBox="0 0 2520 1800" width="2520pt" xmlns="http://www.w3.org/2000/svg" xmlns:xlink="http://www.w3.org/1999/xlink">
 <metadata>
  <rdf:RDF xmlns:cc="http://creativecommons.org/ns#" xmlns:dc="http://purl.org/dc/elements/1.1/" xmlns:rdf="http://www.w3.org/1999/02/22-rdf-syntax-ns#">
   <cc:Work>
    <dc:type rdf:resource="http://purl.org/dc/dcmitype/StillImage"/>
    <dc:date>2022-03-09T18:23:51.681575</dc:date>
    <dc:format>image/svg+xml</dc:format>
    <dc:creator>
     <cc:Agent>
      <dc:title>Matplotlib v3.4.2, https://matplotlib.org/</dc:title>
     </cc:Agent>
    </dc:creator>
   </cc:Work>
  </rdf:RDF>
 </metadata>
 <defs>
  <style type="text/css">*{stroke-linecap:butt;stroke-linejoin:round;}</style>
 </defs>
 <g id="figure_1">
  <g id="patch_1">
   <path d="M 0 1800 
L 2520 1800 
L 2520 0 
L 0 0 
z
" style="fill:none;"/>
  </g>
  <g id="axes_1">
   <g id="patch_2">
    <path d="M 276.925 1617.2 
L 2509.2 1617.2 
L 2509.2 10.8 
L 276.925 10.8 
z
" style="fill:#ffffff;"/>
   </g>
   <g id="PolyCollection_1">
    <defs>
     <path d="M 378.392045 -187.532621 
L 378.392045 -182.8 
L 388.589738 -182.8 
L 398.787431 -182.8 
L 408.985124 -182.8 
L 419.182817 -182.8 
L 429.380511 -182.8 
L 439.578204 -182.8 
L 449.775897 -182.8 
L 459.97359 -182.8 
L 470.171283 -182.8 
L 480.368976 -182.8 
L 490.566669 -182.8 
L 500.764362 -182.8 
L 510.962055 -182.8 
L 521.159748 -182.8 
L 531.357441 -182.8 
L 541.555134 -182.8 
L 551.752827 -182.8 
L 561.95052 -182.8 
L 572.148213 -182.8 
L 582.345906 -182.8 
L 592.543599 -182.8 
L 602.741292 -182.8 
L 612.938985 -182.8 
L 623.136678 -182.8 
L 633.334371 -182.8 
L 643.532064 -182.8 
L 653.729757 -182.8 
L 663.92745 -182.8 
L 674.125143 -182.8 
L 684.322836 -182.8 
L 694.520529 -182.8 
L 704.718222 -182.8 
L 714.915915 -182.8 
L 725.113608 -182.8 
L 735.311301 -182.8 
L 745.508994 -182.8 
L 755.706687 -182.8 
L 765.90438 -182.8 
L 776.102073 -182.8 
L 786.299766 -182.8 
L 796.497459 -182.8 
L 806.695152 -182.8 
L 816.892845 -182.8 
L 827.090538 -182.8 
L 837.288231 -182.8 
L 847.485924 -182.8 
L 857.683617 -182.8 
L 867.88131 -182.8 
L 878.079003 -182.8 
L 888.276696 -182.8 
L 898.474389 -182.8 
L 908.672082 -182.8 
L 918.869775 -182.8 
L 929.067468 -182.8 
L 939.265161 -182.8 
L 949.462854 -182.8 
L 959.660547 -182.8 
L 969.85824 -182.8 
L 980.055933 -182.8 
L 990.253626 -182.8 
L 1000.451319 -182.8 
L 1010.649012 -182.8 
L 1020.846705 -182.8 
L 1031.044398 -182.8 
L 1041.242091 -182.8 
L 1051.439784 -182.8 
L 1061.637477 -182.8 
L 1071.83517 -182.8 
L 1082.032863 -182.8 
L 1092.230556 -182.8 
L 1102.428249 -182.8 
L 1112.625942 -182.8 
L 1122.823635 -182.8 
L 1133.021328 -182.8 
L 1143.219021 -182.8 
L 1153.416714 -182.8 
L 1163.614407 -182.8 
L 1173.8121 -182.8 
L 1184.009793 -182.8 
L 1194.207486 -182.8 
L 1204.405179 -182.8 
L 1214.602872 -182.8 
L 1224.800565 -182.8 
L 1234.998258 -182.8 
L 1245.195951 -182.8 
L 1255.393644 -182.8 
L 1265.591337 -182.8 
L 1275.78903 -182.8 
L 1285.986723 -182.8 
L 1296.184416 -182.8 
L 1306.382109 -182.8 
L 1316.579802 -182.8 
L 1326.777495 -182.8 
L 1336.975188 -182.8 
L 1347.172881 -182.8 
L 1357.370574 -182.8 
L 1367.568267 -182.8 
L 1377.76596 -182.8 
L 1387.963653 -182.8 
L 1398.161347 -182.8 
L 1408.35904 -182.8 
L 1418.556733 -182.8 
L 1428.754426 -182.8 
L 1438.952119 -182.8 
L 1449.149812 -182.8 
L 1459.347505 -182.8 
L 1469.545198 -182.8 
L 1479.742891 -182.8 
L 1489.940584 -182.8 
L 1500.138277 -182.8 
L 1510.33597 -182.8 
L 1520.533663 -182.8 
L 1530.731356 -182.8 
L 1540.929049 -182.8 
L 1551.126742 -182.8 
L 1561.324435 -182.8 
L 1571.522128 -182.8 
L 1581.719821 -182.8 
L 1591.917514 -182.8 
L 1602.115207 -182.8 
L 1612.3129 -182.8 
L 1622.510593 -182.8 
L 1632.708286 -182.8 
L 1642.905979 -182.8 
L 1653.103672 -182.8 
L 1663.301365 -182.8 
L 1673.499058 -182.8 
L 1683.696751 -182.8 
L 1693.894444 -182.8 
L 1704.092137 -182.8 
L 1714.28983 -182.8 
L 1724.487523 -182.8 
L 1734.685216 -182.8 
L 1744.882909 -182.8 
L 1755.080602 -182.8 
L 1765.278295 -182.8 
L 1775.475988 -182.8 
L 1785.673681 -182.8 
L 1795.871374 -182.8 
L 1806.069067 -182.8 
L 1816.26676 -182.8 
L 1826.464453 -182.8 
L 1836.662146 -182.8 
L 1846.859839 -182.8 
L 1857.057532 -182.8 
L 1867.255225 -182.8 
L 1877.452918 -182.8 
L 1887.650611 -182.8 
L 1897.848304 -182.8 
L 1908.045997 -182.8 
L 1918.24369 -182.8 
L 1928.441383 -182.8 
L 1938.639076 -182.8 
L 1948.836769 -182.8 
L 1959.034462 -182.8 
L 1969.232155 -182.8 
L 1979.429848 -182.8 
L 1989.627541 -182.8 
L 1999.825234 -182.8 
L 2010.022927 -182.8 
L 2020.22062 -182.8 
L 2030.418313 -182.8 
L 2040.616006 -182.8 
L 2050.813699 -182.8 
L 2061.011392 -182.8 
L 2071.209085 -182.8 
L 2081.406778 -182.8 
L 2091.604471 -182.8 
L 2101.802164 -182.8 
L 2111.999857 -182.8 
L 2122.19755 -182.8 
L 2132.395243 -182.8 
L 2142.592936 -182.8 
L 2152.790629 -182.8 
L 2162.988322 -182.8 
L 2173.186015 -182.8 
L 2183.383708 -182.8 
L 2193.581401 -182.8 
L 2203.779094 -182.8 
L 2213.976787 -182.8 
L 2224.17448 -182.8 
L 2234.372173 -182.8 
L 2244.569866 -182.8 
L 2254.767559 -182.8 
L 2264.965252 -182.8 
L 2275.162945 -182.8 
L 2285.360638 -182.8 
L 2295.558331 -182.8 
L 2305.756024 -182.8 
L 2315.953717 -182.8 
L 2326.15141 -182.8 
L 2336.349103 -182.8 
L 2346.546796 -182.8 
L 2356.744489 -182.8 
L 2366.942183 -182.8 
L 2377.139876 -182.8 
L 2387.337569 -182.8 
L 2397.535262 -182.8 
L 2407.732955 -182.8 
L 2407.732955 -182.851249 
L 2407.732955 -182.851249 
L 2397.535262 -182.872477 
L 2387.337569 -182.90119 
L 2377.139876 -182.939481 
L 2366.942183 -182.989831 
L 2356.744489 -183.055106 
L 2346.546796 -183.138544 
L 2336.349103 -183.243698 
L 2326.15141 -183.374356 
L 2315.953717 -183.53442 
L 2305.756024 -183.727745 
L 2295.558331 -183.957959 
L 2285.360638 -184.228242 
L 2275.162945 -184.541108 
L 2264.965252 -184.898185 
L 2254.767559 -185.300019 
L 2244.569866 -185.745917 
L 2234.372173 -186.233858 
L 2224.17448 -186.760469 
L 2213.976787 -187.321097 
L 2203.779094 -187.909963 
L 2193.581401 -188.520403 
L 2183.383708 -189.145183 
L 2173.186015 -189.776861 
L 2162.988322 -190.408183 
L 2152.790629 -191.032459 
L 2142.592936 -191.64392 
L 2132.395243 -192.237987 
L 2122.19755 -192.811467 
L 2111.999857 -193.362618 
L 2101.802164 -193.891114 
L 2091.604471 -194.397869 
L 2081.406778 -194.884776 
L 2071.209085 -195.354347 
L 2061.011392 -195.809307 
L 2050.813699 -196.252172 
L 2040.616006 -196.684852 
L 2030.418313 -197.108322 
L 2020.22062 -197.522399 
L 2010.022927 -197.925649 
L 1999.825234 -198.315452 
L 1989.627541 -198.688236 
L 1979.429848 -199.039857 
L 1969.232155 -199.366118 
L 1959.034462 -199.66339 
L 1948.836769 -199.929278 
L 1938.639076 -200.163291 
L 1928.441383 -200.367441 
L 1918.24369 -200.546731 
L 1908.045997 -200.709463 
L 1897.848304 -200.867348 
L 1887.650611 -201.035376 
L 1877.452918 -201.23145 
L 1867.255225 -201.475813 
L 1857.057532 -201.790272 
L 1846.859839 -202.197307 
L 1836.662146 -202.719108 
L 1826.464453 -203.376621 
L 1816.26676 -204.188684 
L 1806.069067 -205.171313 
L 1795.871374 -206.337209 
L 1785.673681 -207.695518 
L 1775.475988 -209.251865 
L 1765.278295 -211.008654 
L 1755.080602 -212.965582 
L 1744.882909 -215.120334 
L 1734.685216 -217.469342 
L 1724.487523 -220.008544 
L 1714.28983 -222.734037 
L 1704.092137 -225.642541 
L 1693.894444 -228.731622 
L 1683.696751 -231.999645 
L 1673.499058 -235.44546 
L 1663.301365 -239.067884 
L 1653.103672 -242.865036 
L 1642.905979 -246.833659 
L 1632.708286 -250.968506 
L 1622.510593 -255.261927 
L 1612.3129 -259.70372 
L 1602.115207 -264.281294 
L 1591.917514 -268.980158 
L 1581.719821 -273.784678 
L 1571.522128 -278.679031 
L 1561.324435 -283.648234 
L 1551.126742 -288.679139 
L 1540.929049 -293.761268 
L 1530.731356 -298.887394 
L 1520.533663 -304.053832 
L 1510.33597 -309.260408 
L 1500.138277 -314.510154 
L 1489.940584 -319.8088 
L 1479.742891 -325.164149 
L 1469.545198 -330.585418 
L 1459.347505 -336.082653 
L 1449.149812 -341.666225 
L 1438.952119 -347.346449 
L 1428.754426 -353.13327 
L 1418.556733 -359.035969 
L 1408.35904 -365.062796 
L 1398.161347 -371.220466 
L 1387.963653 -377.51347 
L 1377.76596 -383.943192 
L 1367.568267 -390.506894 
L 1357.370574 -397.196682 
L 1347.172881 -403.99861 
L 1336.975188 -410.892109 
L 1326.777495 -417.849941 
L 1316.579802 -424.838821 
L 1306.382109 -431.820808 
L 1296.184416 -438.755466 
L 1285.986723 -445.602716 
L 1275.78903 -452.326166 
L 1265.591337 -458.896674 
L 1255.393644 -465.295794 
L 1245.195951 -471.518773 
L 1234.998258 -477.576773 
L 1224.800565 -483.498063 
L 1214.602872 -489.328002 
L 1204.405179 -495.127772 
L 1194.207486 -500.971914 
L 1184.009793 -506.944838 
L 1173.8121 -513.136553 
L 1163.614407 -519.637946 
L 1153.416714 -526.535909 
L 1143.219021 -533.908659 
L 1133.021328 -541.821491 
L 1122.823635 -550.323186 
L 1112.625942 -559.4432 
L 1102.428249 -569.189675 
L 1092.230556 -579.548252 
L 1082.032863 -590.481628 
L 1071.83517 -601.929737 
L 1061.637477 -613.810447 
L 1051.439784 -626.020673 
L 1041.242091 -638.437825 
L 1031.044398 -650.921575 
L 1020.846705 -663.315944 
L 1010.649012 -675.451792 
L 1000.451319 -687.149808 
L 990.253626 -698.224141 
L 980.055933 -708.486802 
L 969.85824 -717.752951 
L 959.660547 -725.84714 
L 949.462854 -732.610473 
L 939.265161 -737.908571 
L 929.067468 -741.640086 
L 918.869775 -743.74535 
L 908.672082 -744.214647 
L 898.474389 -743.095442 
L 888.276696 -740.497819 
L 878.079003 -736.597357 
L 867.88131 -731.63467 
L 857.683617 -725.910951 
L 847.485924 -719.779043 
L 837.288231 -713.629796 
L 827.090538 -707.873834 
L 816.892845 -702.91923 
L 806.695152 -699.146024 
L 796.497459 -696.878946 
L 786.299766 -696.360093 
L 776.102073 -697.723603 
L 765.90438 -700.974542 
L 755.706687 -705.974188 
L 745.508994 -712.433671 
L 735.311301 -719.917473 
L 725.113608 -727.857616 
L 714.915915 -735.578528 
L 704.718222 -742.331627 
L 694.520529 -747.337679 
L 684.322836 -749.834166 
L 674.125143 -749.124169 
L 663.92745 -744.622967 
L 653.729757 -735.898514 
L 643.532064 -722.702359 
L 633.334371 -704.98835 
L 623.136678 -682.917489 
L 612.938985 -656.848587 
L 602.741292 -627.315615 
L 592.543599 -594.993857 
L 582.345906 -560.657908 
L 572.148213 -525.135168 
L 561.95052 -489.258691 
L 551.752827 -453.823072 
L 541.555134 -419.54649 
L 531.357441 -387.041225 
L 521.159748 -356.794001 
L 510.962055 -329.15649 
L 500.764362 -304.345417 
L 490.566669 -282.45093 
L 480.368976 -263.451412 
L 470.171283 -247.232632 
L 459.97359 -233.609116 
L 449.775897 -222.345818 
L 439.578204 -213.178494 
L 429.380511 -205.831608 
L 419.182817 -200.03304 
L 408.985124 -195.525296 
L 398.787431 -192.073256 
L 388.589738 -189.468777 
L 378.392045 -187.532621 
z
" id="m514e2f85b8" style="stroke:#ff0000;stroke-width:5;"/>
    </defs>
    <g clip-path="url(#p5a5c681775)">
     <use style="fill:#ff0000;fill-opacity:0.25;stroke:#ff0000;stroke-width:5;" x="0" xlink:href="#m514e2f85b8" y="1800"/>
    </g>
   </g>
   <g id="PolyCollection_2">
    <defs>
     <path d="M 455.060512 -195.647421 
L 455.060512 -182.8 
L 462.224181 -182.8 
L 469.387849 -182.8 
L 476.551518 -182.8 
L 483.715186 -182.8 
L 490.878855 -182.8 
L 498.042523 -182.8 
L 505.206191 -182.8 
L 512.36986 -182.8 
L 519.533528 -182.8 
L 526.697197 -182.8 
L 533.860865 -182.8 
L 541.024534 -182.8 
L 548.188202 -182.8 
L 555.351871 -182.8 
L 562.515539 -182.8 
L 569.679208 -182.8 
L 576.842876 -182.8 
L 584.006545 -182.8 
L 591.170213 -182.8 
L 598.333881 -182.8 
L 605.49755 -182.8 
L 612.661218 -182.8 
L 619.824887 -182.8 
L 626.988555 -182.8 
L 634.152224 -182.8 
L 641.315892 -182.8 
L 648.479561 -182.8 
L 655.643229 -182.8 
L 662.806898 -182.8 
L 669.970566 -182.8 
L 677.134235 -182.8 
L 684.297903 -182.8 
L 691.461571 -182.8 
L 698.62524 -182.8 
L 705.788908 -182.8 
L 712.952577 -182.8 
L 720.116245 -182.8 
L 727.279914 -182.8 
L 734.443582 -182.8 
L 741.607251 -182.8 
L 748.770919 -182.8 
L 755.934588 -182.8 
L 763.098256 -182.8 
L 770.261925 -182.8 
L 777.425593 -182.8 
L 784.589262 -182.8 
L 791.75293 -182.8 
L 798.916598 -182.8 
L 806.080267 -182.8 
L 813.243935 -182.8 
L 820.407604 -182.8 
L 827.571272 -182.8 
L 834.734941 -182.8 
L 841.898609 -182.8 
L 849.062278 -182.8 
L 856.225946 -182.8 
L 863.389615 -182.8 
L 870.553283 -182.8 
L 877.716952 -182.8 
L 884.88062 -182.8 
L 892.044288 -182.8 
L 899.207957 -182.8 
L 906.371625 -182.8 
L 913.535294 -182.8 
L 920.698962 -182.8 
L 927.862631 -182.8 
L 935.026299 -182.8 
L 942.189968 -182.8 
L 949.353636 -182.8 
L 956.517305 -182.8 
L 963.680973 -182.8 
L 970.844642 -182.8 
L 978.00831 -182.8 
L 985.171978 -182.8 
L 992.335647 -182.8 
L 999.499315 -182.8 
L 1006.662984 -182.8 
L 1013.826652 -182.8 
L 1020.990321 -182.8 
L 1028.153989 -182.8 
L 1035.317658 -182.8 
L 1042.481326 -182.8 
L 1049.644995 -182.8 
L 1056.808663 -182.8 
L 1063.972332 -182.8 
L 1071.136 -182.8 
L 1078.299669 -182.8 
L 1085.463337 -182.8 
L 1092.627005 -182.8 
L 1099.790674 -182.8 
L 1106.954342 -182.8 
L 1114.118011 -182.8 
L 1121.281679 -182.8 
L 1128.445348 -182.8 
L 1135.609016 -182.8 
L 1142.772685 -182.8 
L 1149.936353 -182.8 
L 1157.100022 -182.8 
L 1164.26369 -182.8 
L 1171.427359 -182.8 
L 1178.591027 -182.8 
L 1185.754695 -182.8 
L 1192.918364 -182.8 
L 1200.082032 -182.8 
L 1207.245701 -182.8 
L 1214.409369 -182.8 
L 1221.573038 -182.8 
L 1228.736706 -182.8 
L 1235.900375 -182.8 
L 1243.064043 -182.8 
L 1250.227712 -182.8 
L 1257.39138 -182.8 
L 1264.555049 -182.8 
L 1271.718717 -182.8 
L 1278.882385 -182.8 
L 1286.046054 -182.8 
L 1293.209722 -182.8 
L 1300.373391 -182.8 
L 1307.537059 -182.8 
L 1314.700728 -182.8 
L 1321.864396 -182.8 
L 1329.028065 -182.8 
L 1336.191733 -182.8 
L 1343.355402 -182.8 
L 1350.51907 -182.8 
L 1357.682739 -182.8 
L 1364.846407 -182.8 
L 1372.010076 -182.8 
L 1379.173744 -182.8 
L 1386.337412 -182.8 
L 1393.501081 -182.8 
L 1400.664749 -182.8 
L 1407.828418 -182.8 
L 1414.992086 -182.8 
L 1422.155755 -182.8 
L 1429.319423 -182.8 
L 1436.483092 -182.8 
L 1443.64676 -182.8 
L 1450.810429 -182.8 
L 1457.974097 -182.8 
L 1465.137766 -182.8 
L 1472.301434 -182.8 
L 1479.465102 -182.8 
L 1486.628771 -182.8 
L 1493.792439 -182.8 
L 1500.956108 -182.8 
L 1508.119776 -182.8 
L 1515.283445 -182.8 
L 1522.447113 -182.8 
L 1529.610782 -182.8 
L 1536.77445 -182.8 
L 1543.938119 -182.8 
L 1551.101787 -182.8 
L 1558.265456 -182.8 
L 1565.429124 -182.8 
L 1572.592793 -182.8 
L 1579.756461 -182.8 
L 1586.920129 -182.8 
L 1594.083798 -182.8 
L 1601.247466 -182.8 
L 1608.411135 -182.8 
L 1615.574803 -182.8 
L 1622.738472 -182.8 
L 1629.90214 -182.8 
L 1637.065809 -182.8 
L 1644.229477 -182.8 
L 1651.393146 -182.8 
L 1658.556814 -182.8 
L 1665.720483 -182.8 
L 1672.884151 -182.8 
L 1680.047819 -182.8 
L 1687.211488 -182.8 
L 1694.375156 -182.8 
L 1701.538825 -182.8 
L 1708.702493 -182.8 
L 1715.866162 -182.8 
L 1723.02983 -182.8 
L 1730.193499 -182.8 
L 1737.357167 -182.8 
L 1744.520836 -182.8 
L 1751.684504 -182.8 
L 1758.848173 -182.8 
L 1766.011841 -182.8 
L 1773.175509 -182.8 
L 1780.339178 -182.8 
L 1787.502846 -182.8 
L 1794.666515 -182.8 
L 1801.830183 -182.8 
L 1808.993852 -182.8 
L 1816.15752 -182.8 
L 1823.321189 -182.8 
L 1830.484857 -182.8 
L 1837.648526 -182.8 
L 1844.812194 -182.8 
L 1851.975863 -182.8 
L 1859.139531 -182.8 
L 1866.3032 -182.8 
L 1873.466868 -182.8 
L 1880.630536 -182.8 
L 1880.630536 -182.990442 
L 1880.630536 -182.990442 
L 1873.466868 -183.06694 
L 1866.3032 -183.169273 
L 1859.139531 -183.304151 
L 1851.975863 -183.47929 
L 1844.812194 -183.703298 
L 1837.648526 -183.985462 
L 1830.484857 -184.335414 
L 1823.321189 -184.762656 
L 1816.15752 -185.275961 
L 1808.993852 -185.882651 
L 1801.830183 -186.587791 
L 1794.666515 -187.393341 
L 1787.502846 -188.297336 
L 1780.339178 -189.293172 
L 1773.175509 -190.369069 
L 1766.011841 -191.507813 
L 1758.848173 -192.68682 
L 1751.684504 -193.878608 
L 1744.520836 -195.051655 
L 1737.357167 -196.171659 
L 1730.193499 -197.203129 
L 1723.02983 -198.111205 
L 1715.866162 -198.8636 
L 1708.702493 -199.432495 
L 1701.538825 -199.796241 
L 1694.375156 -199.940732 
L 1687.211488 -199.860308 
L 1680.047819 -199.558121 
L 1672.884151 -199.045939 
L 1665.720483 -198.343374 
L 1658.556814 -197.476646 
L 1651.393146 -196.476955 
L 1644.229477 -195.378626 
L 1637.065809 -194.217165 
L 1629.90214 -193.027396 
L 1622.738472 -191.841786 
L 1615.574803 -190.689093 
L 1608.411135 -189.593388 
L 1601.247466 -188.57348 
L 1594.083798 -187.642746 
L 1586.920129 -186.809316 
L 1579.756461 -186.076549 
L 1572.592793 -185.443731 
L 1565.429124 -184.906902 
L 1558.265456 -184.459742 
L 1551.101787 -184.094444 
L 1543.938119 -183.802534 
L 1536.77445 -183.575594 
L 1529.610782 -183.405868 
L 1522.447113 -183.286765 
L 1515.283445 -183.213247 
L 1508.119776 -183.182115 
L 1500.956108 -183.192227 
L 1493.792439 -183.24464 
L 1486.628771 -183.342696 
L 1479.465102 -183.492058 
L 1472.301434 -183.700693 
L 1465.137766 -183.978802 
L 1457.974097 -184.338679 
L 1450.810429 -184.794506 
L 1443.64676 -185.362065 
L 1436.483092 -186.058379 
L 1429.319423 -186.901266 
L 1422.155755 -187.908843 
L 1414.992086 -189.098969 
L 1407.828418 -190.488673 
L 1400.664749 -192.093571 
L 1393.501081 -193.927307 
L 1386.337412 -196.001023 
L 1379.173744 -198.322885 
L 1372.010076 -200.897643 
L 1364.846407 -203.726247 
L 1357.682739 -206.805487 
L 1350.51907 -210.127673 
L 1343.355402 -213.680333 
L 1336.191733 -217.445956 
L 1329.028065 -221.40179 
L 1321.864396 -225.519752 
L 1314.700728 -229.766486 
L 1307.537059 -234.103629 
L 1300.373391 -238.488337 
L 1293.209722 -242.874099 
L 1286.046054 -247.211855 
L 1278.882385 -251.451397 
L 1271.718717 -255.542983 
L 1264.555049 -259.439116 
L 1257.39138 -263.09635 
L 1250.227712 -266.477063 
L 1243.064043 -269.551071 
L 1235.900375 -272.297042 
L 1228.736706 -274.703662 
L 1221.573038 -276.770543 
L 1214.409369 -278.508904 
L 1207.245701 -279.942045 
L 1200.082032 -281.105642 
L 1192.918364 -282.047863 
L 1185.754695 -282.829282 
L 1178.591027 -283.522504 
L 1171.427359 -284.211411 
L 1164.26369 -284.989893 
L 1157.100022 -285.959927 
L 1149.936353 -287.228919 
L 1142.772685 -288.906257 
L 1135.609016 -291.099104 
L 1128.445348 -293.907581 
L 1121.281679 -297.419576 
L 1114.118011 -301.705511 
L 1106.954342 -306.813486 
L 1099.790674 -312.765239 
L 1092.627005 -319.553377 
L 1085.463337 -327.140246 
L 1078.299669 -335.458719 
L 1071.136 -344.415025 
L 1063.972332 -353.893547 
L 1056.808663 -363.763356 
L 1049.644995 -373.886025 
L 1042.481326 -384.12416 
L 1035.317658 -394.349978 
L 1028.153989 -404.453218 
L 1020.990321 -414.34775 
L 1013.826652 -423.976321 
L 1006.662984 -433.313097 
L 999.499315 -442.363807 
L 992.335647 -451.163568 
L 985.171978 -459.772655 
L 978.00831 -468.270655 
L 970.844642 -476.749597 
L 963.680973 -485.306707 
L 956.517305 -494.037471 
L 949.353636 -503.029635 
L 942.189968 -512.358702 
L 935.026299 -522.085335 
L 927.862631 -532.254939 
L 920.698962 -542.899496 
L 913.535294 -554.041553 
L 906.371625 -565.700054 
L 899.207957 -577.897569 
L 892.044288 -590.668284 
L 884.88062 -604.066068 
L 877.716952 -618.17185 
L 870.553283 -633.099559 
L 863.389615 -648.999991 
L 856.225946 -666.062067 
L 849.062278 -684.511153 
L 841.898609 -704.604312 
L 834.734941 -726.622587 
L 827.571272 -750.860595 
L 820.407604 -777.61389 
L 813.243935 -807.164639 
L 806.080267 -839.766233 
L 798.916598 -875.627399 
L 791.75293 -914.896325 
L 784.589262 -957.645207 
L 777.425593 -1003.855467 
L 770.261925 -1053.40384 
L 763.098256 -1106.049423 
L 755.934588 -1161.421875 
L 748.770919 -1219.011071 
L 741.607251 -1278.1588 
L 734.443582 -1338.053447 
L 727.279914 -1397.728987 
L 720.116245 -1456.069953 
L 712.952577 -1511.824248 
L 705.788908 -1563.625601 
L 698.62524 -1610.027085 
L 691.461571 -1649.546348 
L 684.297903 -1680.722097 
L 677.134235 -1702.180009 
L 669.970566 -1712.704762 
L 662.806898 -1711.313523 
L 655.643229 -1697.325184 
L 648.479561 -1670.419158 
L 641.315892 -1630.677753 
L 634.152224 -1578.607055 
L 626.988555 -1515.132904 
L 619.824887 -1441.570708 
L 612.661218 -1359.570255 
L 605.49755 -1271.039109 
L 598.333881 -1178.050237 
L 591.170213 -1082.740988 
L 584.006545 -987.211256 
L 576.842876 -893.428484 
L 569.679208 -803.146239 
L 562.515539 -717.841474 
L 555.351871 -638.673606 
L 548.188202 -566.466337 
L 541.024534 -501.711123 
L 533.860865 -444.589465 
L 526.697197 -395.009959 
L 519.533528 -352.655366 
L 512.36986 -317.034849 
L 505.206191 -287.536901 
L 498.042523 -263.479181 
L 490.878855 -244.152471 
L 483.715186 -228.856958 
L 476.551518 -216.930046 
L 469.387849 -207.765745 
L 462.224181 -200.826333 
L 455.060512 -195.647421 
z
" id="mc03b963f48" style="stroke:#0000ff;stroke-width:5;"/>
    </defs>
    <g clip-path="url(#p5a5c681775)">
     <use style="fill:#0000ff;fill-opacity:0.25;stroke:#0000ff;stroke-width:5;" x="0" xlink:href="#mc03b963f48" y="1800"/>
    </g>
   </g>
   <g id="matplotlib.axis_1">
    <g id="xtick_1">
     <g id="line2d_1">
      <defs>
       <path d="M 0 0 
L 0 3.5 
" id="m515f9871a0" style="stroke:#000000;stroke-width:0.8;"/>
      </defs>
      <g>
       <use style="stroke:#000000;stroke-width:0.8;" x="642.339248" xlink:href="#m515f9871a0" y="1617.2"/>
      </g>
     </g>
     <g id="text_1">
      <!-- 0 -->
      <g transform="translate(618.479873 1681.188281)scale(0.75 -0.75)">
       <defs>
        <path d="M 2034 4250 
Q 1547 4250 1301 3770 
Q 1056 3291 1056 2328 
Q 1056 1369 1301 889 
Q 1547 409 2034 409 
Q 2525 409 2770 889 
Q 3016 1369 3016 2328 
Q 3016 3291 2770 3770 
Q 2525 4250 2034 4250 
z
M 2034 4750 
Q 2819 4750 3233 4129 
Q 3647 3509 3647 2328 
Q 3647 1150 3233 529 
Q 2819 -91 2034 -91 
Q 1250 -91 836 529 
Q 422 1150 422 2328 
Q 422 3509 836 4129 
Q 1250 4750 2034 4750 
z
" id="DejaVuSans-30" transform="scale(0.015625)"/>
       </defs>
       <use xlink:href="#DejaVuSans-30"/>
      </g>
     </g>
    </g>
    <g id="xtick_2">
     <g id="line2d_2">
      <g>
       <use style="stroke:#000000;stroke-width:0.8;" x="1017.700874" xlink:href="#m515f9871a0" y="1617.2"/>
      </g>
     </g>
     <g id="text_2">
      <!-- 5 -->
      <g transform="translate(993.841499 1681.188281)scale(0.75 -0.75)">
       <defs>
        <path d="M 691 4666 
L 3169 4666 
L 3169 4134 
L 1269 4134 
L 1269 2991 
Q 1406 3038 1543 3061 
Q 1681 3084 1819 3084 
Q 2600 3084 3056 2656 
Q 3513 2228 3513 1497 
Q 3513 744 3044 326 
Q 2575 -91 1722 -91 
Q 1428 -91 1123 -41 
Q 819 9 494 109 
L 494 744 
Q 775 591 1075 516 
Q 1375 441 1709 441 
Q 2250 441 2565 725 
Q 2881 1009 2881 1497 
Q 2881 1984 2565 2268 
Q 2250 2553 1709 2553 
Q 1456 2553 1204 2497 
Q 953 2441 691 2322 
L 691 4666 
z
" id="DejaVuSans-35" transform="scale(0.015625)"/>
       </defs>
       <use xlink:href="#DejaVuSans-35"/>
      </g>
     </g>
    </g>
    <g id="xtick_3">
     <g id="line2d_3">
      <g>
       <use style="stroke:#000000;stroke-width:0.8;" x="1393.0625" xlink:href="#m515f9871a0" y="1617.2"/>
      </g>
     </g>
     <g id="text_3">
      <!-- 10 -->
      <g transform="translate(1345.34375 1681.188281)scale(0.75 -0.75)">
       <defs>
        <path d="M 794 531 
L 1825 531 
L 1825 4091 
L 703 3866 
L 703 4441 
L 1819 4666 
L 2450 4666 
L 2450 531 
L 3481 531 
L 3481 0 
L 794 0 
L 794 531 
z
" id="DejaVuSans-31" transform="scale(0.015625)"/>
       </defs>
       <use xlink:href="#DejaVuSans-31"/>
       <use x="63.623047" xlink:href="#DejaVuSans-30"/>
      </g>
     </g>
    </g>
    <g id="xtick_4">
     <g id="line2d_4">
      <g>
       <use style="stroke:#000000;stroke-width:0.8;" x="1768.424126" xlink:href="#m515f9871a0" y="1617.2"/>
      </g>
     </g>
     <g id="text_4">
      <!-- 15 -->
      <g transform="translate(1720.705376 1681.188281)scale(0.75 -0.75)">
       <use xlink:href="#DejaVuSans-31"/>
       <use x="63.623047" xlink:href="#DejaVuSans-35"/>
      </g>
     </g>
    </g>
    <g id="xtick_5">
     <g id="line2d_5">
      <g>
       <use style="stroke:#000000;stroke-width:0.8;" x="2143.785752" xlink:href="#m515f9871a0" y="1617.2"/>
      </g>
     </g>
     <g id="text_5">
      <!-- 20 -->
      <g transform="translate(2096.067002 1681.188281)scale(0.75 -0.75)">
       <defs>
        <path d="M 1228 531 
L 3431 531 
L 3431 0 
L 469 0 
L 469 531 
Q 828 903 1448 1529 
Q 2069 2156 2228 2338 
Q 2531 2678 2651 2914 
Q 2772 3150 2772 3378 
Q 2772 3750 2511 3984 
Q 2250 4219 1831 4219 
Q 1534 4219 1204 4116 
Q 875 4013 500 3803 
L 500 4441 
Q 881 4594 1212 4672 
Q 1544 4750 1819 4750 
Q 2544 4750 2975 4387 
Q 3406 4025 3406 3419 
Q 3406 3131 3298 2873 
Q 3191 2616 2906 2266 
Q 2828 2175 2409 1742 
Q 1991 1309 1228 531 
z
" id="DejaVuSans-32" transform="scale(0.015625)"/>
       </defs>
       <use xlink:href="#DejaVuSans-32"/>
       <use x="63.623047" xlink:href="#DejaVuSans-30"/>
      </g>
     </g>
    </g>
    <g id="text_6">
     <!-- Prague M length (cm) -->
     <g transform="translate(907.00625 1769.171875)scale(0.9 -0.9)">
      <defs>
       <path d="M 1259 4147 
L 1259 2394 
L 2053 2394 
Q 2494 2394 2734 2622 
Q 2975 2850 2975 3272 
Q 2975 3691 2734 3919 
Q 2494 4147 2053 4147 
L 1259 4147 
z
M 628 4666 
L 2053 4666 
Q 2838 4666 3239 4311 
Q 3641 3956 3641 3272 
Q 3641 2581 3239 2228 
Q 2838 1875 2053 1875 
L 1259 1875 
L 1259 0 
L 628 0 
L 628 4666 
z
" id="DejaVuSans-50" transform="scale(0.015625)"/>
       <path d="M 2631 2963 
Q 2534 3019 2420 3045 
Q 2306 3072 2169 3072 
Q 1681 3072 1420 2755 
Q 1159 2438 1159 1844 
L 1159 0 
L 581 0 
L 581 3500 
L 1159 3500 
L 1159 2956 
Q 1341 3275 1631 3429 
Q 1922 3584 2338 3584 
Q 2397 3584 2469 3576 
Q 2541 3569 2628 3553 
L 2631 2963 
z
" id="DejaVuSans-72" transform="scale(0.015625)"/>
       <path d="M 2194 1759 
Q 1497 1759 1228 1600 
Q 959 1441 959 1056 
Q 959 750 1161 570 
Q 1363 391 1709 391 
Q 2188 391 2477 730 
Q 2766 1069 2766 1631 
L 2766 1759 
L 2194 1759 
z
M 3341 1997 
L 3341 0 
L 2766 0 
L 2766 531 
Q 2569 213 2275 61 
Q 1981 -91 1556 -91 
Q 1019 -91 701 211 
Q 384 513 384 1019 
Q 384 1609 779 1909 
Q 1175 2209 1959 2209 
L 2766 2209 
L 2766 2266 
Q 2766 2663 2505 2880 
Q 2244 3097 1772 3097 
Q 1472 3097 1187 3025 
Q 903 2953 641 2809 
L 641 3341 
Q 956 3463 1253 3523 
Q 1550 3584 1831 3584 
Q 2591 3584 2966 3190 
Q 3341 2797 3341 1997 
z
" id="DejaVuSans-61" transform="scale(0.015625)"/>
       <path d="M 2906 1791 
Q 2906 2416 2648 2759 
Q 2391 3103 1925 3103 
Q 1463 3103 1205 2759 
Q 947 2416 947 1791 
Q 947 1169 1205 825 
Q 1463 481 1925 481 
Q 2391 481 2648 825 
Q 2906 1169 2906 1791 
z
M 3481 434 
Q 3481 -459 3084 -895 
Q 2688 -1331 1869 -1331 
Q 1566 -1331 1297 -1286 
Q 1028 -1241 775 -1147 
L 775 -588 
Q 1028 -725 1275 -790 
Q 1522 -856 1778 -856 
Q 2344 -856 2625 -561 
Q 2906 -266 2906 331 
L 2906 616 
Q 2728 306 2450 153 
Q 2172 0 1784 0 
Q 1141 0 747 490 
Q 353 981 353 1791 
Q 353 2603 747 3093 
Q 1141 3584 1784 3584 
Q 2172 3584 2450 3431 
Q 2728 3278 2906 2969 
L 2906 3500 
L 3481 3500 
L 3481 434 
z
" id="DejaVuSans-67" transform="scale(0.015625)"/>
       <path d="M 544 1381 
L 544 3500 
L 1119 3500 
L 1119 1403 
Q 1119 906 1312 657 
Q 1506 409 1894 409 
Q 2359 409 2629 706 
Q 2900 1003 2900 1516 
L 2900 3500 
L 3475 3500 
L 3475 0 
L 2900 0 
L 2900 538 
Q 2691 219 2414 64 
Q 2138 -91 1772 -91 
Q 1169 -91 856 284 
Q 544 659 544 1381 
z
M 1991 3584 
L 1991 3584 
z
" id="DejaVuSans-75" transform="scale(0.015625)"/>
       <path d="M 3597 1894 
L 3597 1613 
L 953 1613 
Q 991 1019 1311 708 
Q 1631 397 2203 397 
Q 2534 397 2845 478 
Q 3156 559 3463 722 
L 3463 178 
Q 3153 47 2828 -22 
Q 2503 -91 2169 -91 
Q 1331 -91 842 396 
Q 353 884 353 1716 
Q 353 2575 817 3079 
Q 1281 3584 2069 3584 
Q 2775 3584 3186 3129 
Q 3597 2675 3597 1894 
z
M 3022 2063 
Q 3016 2534 2758 2815 
Q 2500 3097 2075 3097 
Q 1594 3097 1305 2825 
Q 1016 2553 972 2059 
L 3022 2063 
z
" id="DejaVuSans-65" transform="scale(0.015625)"/>
       <path id="DejaVuSans-20" transform="scale(0.015625)"/>
       <path d="M 628 4666 
L 1569 4666 
L 2759 1491 
L 3956 4666 
L 4897 4666 
L 4897 0 
L 4281 0 
L 4281 4097 
L 3078 897 
L 2444 897 
L 1241 4097 
L 1241 0 
L 628 0 
L 628 4666 
z
" id="DejaVuSans-4d" transform="scale(0.015625)"/>
       <path d="M 603 4863 
L 1178 4863 
L 1178 0 
L 603 0 
L 603 4863 
z
" id="DejaVuSans-6c" transform="scale(0.015625)"/>
       <path d="M 3513 2113 
L 3513 0 
L 2938 0 
L 2938 2094 
Q 2938 2591 2744 2837 
Q 2550 3084 2163 3084 
Q 1697 3084 1428 2787 
Q 1159 2491 1159 1978 
L 1159 0 
L 581 0 
L 581 3500 
L 1159 3500 
L 1159 2956 
Q 1366 3272 1645 3428 
Q 1925 3584 2291 3584 
Q 2894 3584 3203 3211 
Q 3513 2838 3513 2113 
z
" id="DejaVuSans-6e" transform="scale(0.015625)"/>
       <path d="M 1172 4494 
L 1172 3500 
L 2356 3500 
L 2356 3053 
L 1172 3053 
L 1172 1153 
Q 1172 725 1289 603 
Q 1406 481 1766 481 
L 2356 481 
L 2356 0 
L 1766 0 
Q 1100 0 847 248 
Q 594 497 594 1153 
L 594 3053 
L 172 3053 
L 172 3500 
L 594 3500 
L 594 4494 
L 1172 4494 
z
" id="DejaVuSans-74" transform="scale(0.015625)"/>
       <path d="M 3513 2113 
L 3513 0 
L 2938 0 
L 2938 2094 
Q 2938 2591 2744 2837 
Q 2550 3084 2163 3084 
Q 1697 3084 1428 2787 
Q 1159 2491 1159 1978 
L 1159 0 
L 581 0 
L 581 4863 
L 1159 4863 
L 1159 2956 
Q 1366 3272 1645 3428 
Q 1925 3584 2291 3584 
Q 2894 3584 3203 3211 
Q 3513 2838 3513 2113 
z
" id="DejaVuSans-68" transform="scale(0.015625)"/>
       <path d="M 1984 4856 
Q 1566 4138 1362 3434 
Q 1159 2731 1159 2009 
Q 1159 1288 1364 580 
Q 1569 -128 1984 -844 
L 1484 -844 
Q 1016 -109 783 600 
Q 550 1309 550 2009 
Q 550 2706 781 3412 
Q 1013 4119 1484 4856 
L 1984 4856 
z
" id="DejaVuSans-28" transform="scale(0.015625)"/>
       <path d="M 3122 3366 
L 3122 2828 
Q 2878 2963 2633 3030 
Q 2388 3097 2138 3097 
Q 1578 3097 1268 2742 
Q 959 2388 959 1747 
Q 959 1106 1268 751 
Q 1578 397 2138 397 
Q 2388 397 2633 464 
Q 2878 531 3122 666 
L 3122 134 
Q 2881 22 2623 -34 
Q 2366 -91 2075 -91 
Q 1284 -91 818 406 
Q 353 903 353 1747 
Q 353 2603 823 3093 
Q 1294 3584 2113 3584 
Q 2378 3584 2631 3529 
Q 2884 3475 3122 3366 
z
" id="DejaVuSans-63" transform="scale(0.015625)"/>
       <path d="M 3328 2828 
Q 3544 3216 3844 3400 
Q 4144 3584 4550 3584 
Q 5097 3584 5394 3201 
Q 5691 2819 5691 2113 
L 5691 0 
L 5113 0 
L 5113 2094 
Q 5113 2597 4934 2840 
Q 4756 3084 4391 3084 
Q 3944 3084 3684 2787 
Q 3425 2491 3425 1978 
L 3425 0 
L 2847 0 
L 2847 2094 
Q 2847 2600 2669 2842 
Q 2491 3084 2119 3084 
Q 1678 3084 1418 2786 
Q 1159 2488 1159 1978 
L 1159 0 
L 581 0 
L 581 3500 
L 1159 3500 
L 1159 2956 
Q 1356 3278 1631 3431 
Q 1906 3584 2284 3584 
Q 2666 3584 2933 3390 
Q 3200 3197 3328 2828 
z
" id="DejaVuSans-6d" transform="scale(0.015625)"/>
       <path d="M 513 4856 
L 1013 4856 
Q 1481 4119 1714 3412 
Q 1947 2706 1947 2009 
Q 1947 1309 1714 600 
Q 1481 -109 1013 -844 
L 513 -844 
Q 928 -128 1133 580 
Q 1338 1288 1338 2009 
Q 1338 2731 1133 3434 
Q 928 4138 513 4856 
z
" id="DejaVuSans-29" transform="scale(0.015625)"/>
      </defs>
      <use xlink:href="#DejaVuSans-50"/>
      <use x="58.552734" xlink:href="#DejaVuSans-72"/>
      <use x="99.666016" xlink:href="#DejaVuSans-61"/>
      <use x="160.945312" xlink:href="#DejaVuSans-67"/>
      <use x="224.421875" xlink:href="#DejaVuSans-75"/>
      <use x="287.800781" xlink:href="#DejaVuSans-65"/>
      <use x="349.324219" xlink:href="#DejaVuSans-20"/>
      <use x="381.111328" xlink:href="#DejaVuSans-4d"/>
      <use x="467.390625" xlink:href="#DejaVuSans-20"/>
      <use x="499.177734" xlink:href="#DejaVuSans-6c"/>
      <use x="526.960938" xlink:href="#DejaVuSans-65"/>
      <use x="588.484375" xlink:href="#DejaVuSans-6e"/>
      <use x="651.863281" xlink:href="#DejaVuSans-67"/>
      <use x="715.339844" xlink:href="#DejaVuSans-74"/>
      <use x="754.548828" xlink:href="#DejaVuSans-68"/>
      <use x="817.927734" xlink:href="#DejaVuSans-20"/>
      <use x="849.714844" xlink:href="#DejaVuSans-28"/>
      <use x="888.728516" xlink:href="#DejaVuSans-63"/>
      <use x="943.708984" xlink:href="#DejaVuSans-6d"/>
      <use x="1041.121094" xlink:href="#DejaVuSans-29"/>
     </g>
    </g>
   </g>
   <g id="matplotlib.axis_2">
    <g id="ytick_1">
     <g id="line2d_6">
      <defs>
       <path d="M 0 0 
L -3.5 0 
" id="m648410e85d" style="stroke:#000000;stroke-width:0.8;"/>
      </defs>
      <g>
       <use style="stroke:#000000;stroke-width:0.8;" x="276.925" xlink:href="#m648410e85d" y="1617.2"/>
      </g>
     </g>
     <g id="text_7">
      <!-- 0.00 -->
      <g transform="translate(102.932813 1645.694141)scale(0.75 -0.75)">
       <defs>
        <path d="M 684 794 
L 1344 794 
L 1344 0 
L 684 0 
L 684 794 
z
" id="DejaVuSans-2e" transform="scale(0.015625)"/>
       </defs>
       <use xlink:href="#DejaVuSans-30"/>
       <use x="63.623047" xlink:href="#DejaVuSans-2e"/>
       <use x="95.410156" xlink:href="#DejaVuSans-30"/>
       <use x="159.033203" xlink:href="#DejaVuSans-30"/>
      </g>
     </g>
    </g>
    <g id="ytick_2">
     <g id="line2d_7">
      <g>
       <use style="stroke:#000000;stroke-width:0.8;" x="276.925" xlink:href="#m648410e85d" y="1338.485472"/>
      </g>
     </g>
     <g id="text_8">
      <!-- 0.05 -->
      <g transform="translate(102.932813 1366.979613)scale(0.75 -0.75)">
       <use xlink:href="#DejaVuSans-30"/>
       <use x="63.623047" xlink:href="#DejaVuSans-2e"/>
       <use x="95.410156" xlink:href="#DejaVuSans-30"/>
       <use x="159.033203" xlink:href="#DejaVuSans-35"/>
      </g>
     </g>
    </g>
    <g id="ytick_3">
     <g id="line2d_8">
      <g>
       <use style="stroke:#000000;stroke-width:0.8;" x="276.925" xlink:href="#m648410e85d" y="1059.770944"/>
      </g>
     </g>
     <g id="text_9">
      <!-- 0.10 -->
      <g transform="translate(102.932813 1088.265085)scale(0.75 -0.75)">
       <use xlink:href="#DejaVuSans-30"/>
       <use x="63.623047" xlink:href="#DejaVuSans-2e"/>
       <use x="95.410156" xlink:href="#DejaVuSans-31"/>
       <use x="159.033203" xlink:href="#DejaVuSans-30"/>
      </g>
     </g>
    </g>
    <g id="ytick_4">
     <g id="line2d_9">
      <g>
       <use style="stroke:#000000;stroke-width:0.8;" x="276.925" xlink:href="#m648410e85d" y="781.056417"/>
      </g>
     </g>
     <g id="text_10">
      <!-- 0.15 -->
      <g transform="translate(102.932813 809.550557)scale(0.75 -0.75)">
       <use xlink:href="#DejaVuSans-30"/>
       <use x="63.623047" xlink:href="#DejaVuSans-2e"/>
       <use x="95.410156" xlink:href="#DejaVuSans-31"/>
       <use x="159.033203" xlink:href="#DejaVuSans-35"/>
      </g>
     </g>
    </g>
    <g id="ytick_5">
     <g id="line2d_10">
      <g>
       <use style="stroke:#000000;stroke-width:0.8;" x="276.925" xlink:href="#m648410e85d" y="502.341889"/>
      </g>
     </g>
     <g id="text_11">
      <!-- 0.20 -->
      <g transform="translate(102.932813 530.836029)scale(0.75 -0.75)">
       <use xlink:href="#DejaVuSans-30"/>
       <use x="63.623047" xlink:href="#DejaVuSans-2e"/>
       <use x="95.410156" xlink:href="#DejaVuSans-32"/>
       <use x="159.033203" xlink:href="#DejaVuSans-30"/>
      </g>
     </g>
    </g>
    <g id="ytick_6">
     <g id="line2d_11">
      <g>
       <use style="stroke:#000000;stroke-width:0.8;" x="276.925" xlink:href="#m648410e85d" y="223.627361"/>
      </g>
     </g>
     <g id="text_12">
      <!-- 0.25 -->
      <g transform="translate(102.932813 252.121502)scale(0.75 -0.75)">
       <use xlink:href="#DejaVuSans-30"/>
       <use x="63.623047" xlink:href="#DejaVuSans-2e"/>
       <use x="95.410156" xlink:href="#DejaVuSans-32"/>
       <use x="159.033203" xlink:href="#DejaVuSans-35"/>
      </g>
     </g>
    </g>
    <g id="text_13">
     <!-- Density -->
     <g transform="translate(80.215625 985.077344)rotate(-90)scale(0.9 -0.9)">
      <defs>
       <path d="M 1259 4147 
L 1259 519 
L 2022 519 
Q 2988 519 3436 956 
Q 3884 1394 3884 2338 
Q 3884 3275 3436 3711 
Q 2988 4147 2022 4147 
L 1259 4147 
z
M 628 4666 
L 1925 4666 
Q 3281 4666 3915 4102 
Q 4550 3538 4550 2338 
Q 4550 1131 3912 565 
Q 3275 0 1925 0 
L 628 0 
L 628 4666 
z
" id="DejaVuSans-44" transform="scale(0.015625)"/>
       <path d="M 2834 3397 
L 2834 2853 
Q 2591 2978 2328 3040 
Q 2066 3103 1784 3103 
Q 1356 3103 1142 2972 
Q 928 2841 928 2578 
Q 928 2378 1081 2264 
Q 1234 2150 1697 2047 
L 1894 2003 
Q 2506 1872 2764 1633 
Q 3022 1394 3022 966 
Q 3022 478 2636 193 
Q 2250 -91 1575 -91 
Q 1294 -91 989 -36 
Q 684 19 347 128 
L 347 722 
Q 666 556 975 473 
Q 1284 391 1588 391 
Q 1994 391 2212 530 
Q 2431 669 2431 922 
Q 2431 1156 2273 1281 
Q 2116 1406 1581 1522 
L 1381 1569 
Q 847 1681 609 1914 
Q 372 2147 372 2553 
Q 372 3047 722 3315 
Q 1072 3584 1716 3584 
Q 2034 3584 2315 3537 
Q 2597 3491 2834 3397 
z
" id="DejaVuSans-73" transform="scale(0.015625)"/>
       <path d="M 603 3500 
L 1178 3500 
L 1178 0 
L 603 0 
L 603 3500 
z
M 603 4863 
L 1178 4863 
L 1178 4134 
L 603 4134 
L 603 4863 
z
" id="DejaVuSans-69" transform="scale(0.015625)"/>
       <path d="M 2059 -325 
Q 1816 -950 1584 -1140 
Q 1353 -1331 966 -1331 
L 506 -1331 
L 506 -850 
L 844 -850 
Q 1081 -850 1212 -737 
Q 1344 -625 1503 -206 
L 1606 56 
L 191 3500 
L 800 3500 
L 1894 763 
L 2988 3500 
L 3597 3500 
L 2059 -325 
z
" id="DejaVuSans-79" transform="scale(0.015625)"/>
      </defs>
      <use xlink:href="#DejaVuSans-44"/>
      <use x="77.001953" xlink:href="#DejaVuSans-65"/>
      <use x="138.525391" xlink:href="#DejaVuSans-6e"/>
      <use x="201.904297" xlink:href="#DejaVuSans-73"/>
      <use x="254.003906" xlink:href="#DejaVuSans-69"/>
      <use x="281.787109" xlink:href="#DejaVuSans-74"/>
      <use x="320.996094" xlink:href="#DejaVuSans-79"/>
     </g>
    </g>
   </g>
   <g id="patch_3">
    <path d="M 276.925 1617.2 
L 276.925 10.8 
" style="fill:none;stroke:#000000;stroke-linecap:square;stroke-linejoin:miter;stroke-width:0.8;"/>
   </g>
   <g id="patch_4">
    <path d="M 2509.2 1617.2 
L 2509.2 10.8 
" style="fill:none;stroke:#000000;stroke-linecap:square;stroke-linejoin:miter;stroke-width:0.8;"/>
   </g>
   <g id="patch_5">
    <path d="M 276.925 1617.2 
L 2509.2 1617.2 
" style="fill:none;stroke:#000000;stroke-linecap:square;stroke-linejoin:miter;stroke-width:0.8;"/>
   </g>
   <g id="patch_6">
    <path d="M 276.925 10.8 
L 2509.2 10.8 
" style="fill:none;stroke:#000000;stroke-linecap:square;stroke-linejoin:miter;stroke-width:0.8;"/>
   </g>
   <g id="legend_1">
    <g id="patch_7">
     <path d="M 1976.711719 290.971875 
L 2456.7 290.971875 
Q 2471.7 290.971875 2471.7 275.971875 
L 2471.7 63.3 
Q 2471.7 48.3 2456.7 48.3 
L 1976.711719 48.3 
Q 1961.711719 48.3 1961.711719 63.3 
L 1961.711719 275.971875 
Q 1961.711719 290.971875 1976.711719 290.971875 
z
" style="fill:#ffffff;opacity:0.8;stroke:#cccccc;stroke-linejoin:miter;"/>
    </g>
    <g id="patch_8">
     <path d="M 1991.711719 135.288281 
L 2141.711719 135.288281 
L 2141.711719 82.788281 
L 1991.711719 82.788281 
z
" style="fill:#ff0000;fill-opacity:0.25;stroke:#ff0000;stroke-linejoin:miter;stroke-width:5;"/>
    </g>
    <g id="text_14">
     <!-- BEST2 -->
     <g transform="translate(2201.711719 135.288281)scale(0.75 -0.75)">
      <defs>
       <path d="M 1259 2228 
L 1259 519 
L 2272 519 
Q 2781 519 3026 730 
Q 3272 941 3272 1375 
Q 3272 1813 3026 2020 
Q 2781 2228 2272 2228 
L 1259 2228 
z
M 1259 4147 
L 1259 2741 
L 2194 2741 
Q 2656 2741 2882 2914 
Q 3109 3088 3109 3444 
Q 3109 3797 2882 3972 
Q 2656 4147 2194 4147 
L 1259 4147 
z
M 628 4666 
L 2241 4666 
Q 2963 4666 3353 4366 
Q 3744 4066 3744 3513 
Q 3744 3084 3544 2831 
Q 3344 2578 2956 2516 
Q 3422 2416 3680 2098 
Q 3938 1781 3938 1306 
Q 3938 681 3513 340 
Q 3088 0 2303 0 
L 628 0 
L 628 4666 
z
" id="DejaVuSans-42" transform="scale(0.015625)"/>
       <path d="M 628 4666 
L 3578 4666 
L 3578 4134 
L 1259 4134 
L 1259 2753 
L 3481 2753 
L 3481 2222 
L 1259 2222 
L 1259 531 
L 3634 531 
L 3634 0 
L 628 0 
L 628 4666 
z
" id="DejaVuSans-45" transform="scale(0.015625)"/>
       <path d="M 3425 4513 
L 3425 3897 
Q 3066 4069 2747 4153 
Q 2428 4238 2131 4238 
Q 1616 4238 1336 4038 
Q 1056 3838 1056 3469 
Q 1056 3159 1242 3001 
Q 1428 2844 1947 2747 
L 2328 2669 
Q 3034 2534 3370 2195 
Q 3706 1856 3706 1288 
Q 3706 609 3251 259 
Q 2797 -91 1919 -91 
Q 1588 -91 1214 -16 
Q 841 59 441 206 
L 441 856 
Q 825 641 1194 531 
Q 1563 422 1919 422 
Q 2459 422 2753 634 
Q 3047 847 3047 1241 
Q 3047 1584 2836 1778 
Q 2625 1972 2144 2069 
L 1759 2144 
Q 1053 2284 737 2584 
Q 422 2884 422 3419 
Q 422 4038 858 4394 
Q 1294 4750 2059 4750 
Q 2388 4750 2728 4690 
Q 3069 4631 3425 4513 
z
" id="DejaVuSans-53" transform="scale(0.015625)"/>
       <path d="M -19 4666 
L 3928 4666 
L 3928 4134 
L 2272 4134 
L 2272 0 
L 1638 0 
L 1638 4134 
L -19 4134 
L -19 4666 
z
" id="DejaVuSans-54" transform="scale(0.015625)"/>
      </defs>
      <use xlink:href="#DejaVuSans-42"/>
      <use x="68.603516" xlink:href="#DejaVuSans-45"/>
      <use x="131.787109" xlink:href="#DejaVuSans-53"/>
      <use x="195.263672" xlink:href="#DejaVuSans-54"/>
      <use x="256.347656" xlink:href="#DejaVuSans-32"/>
     </g>
    </g>
    <g id="patch_9">
     <path d="M 1991.711719 245.374219 
L 2141.711719 245.374219 
L 2141.711719 192.874219 
L 1991.711719 192.874219 
z
" style="fill:#0000ff;fill-opacity:0.25;stroke:#0000ff;stroke-linejoin:miter;stroke-width:5;"/>
    </g>
    <g id="text_15">
     <!-- BEST3 -->
     <g transform="translate(2201.711719 245.374219)scale(0.75 -0.75)">
      <defs>
       <path d="M 2597 2516 
Q 3050 2419 3304 2112 
Q 3559 1806 3559 1356 
Q 3559 666 3084 287 
Q 2609 -91 1734 -91 
Q 1441 -91 1130 -33 
Q 819 25 488 141 
L 488 750 
Q 750 597 1062 519 
Q 1375 441 1716 441 
Q 2309 441 2620 675 
Q 2931 909 2931 1356 
Q 2931 1769 2642 2001 
Q 2353 2234 1838 2234 
L 1294 2234 
L 1294 2753 
L 1863 2753 
Q 2328 2753 2575 2939 
Q 2822 3125 2822 3475 
Q 2822 3834 2567 4026 
Q 2313 4219 1838 4219 
Q 1578 4219 1281 4162 
Q 984 4106 628 3988 
L 628 4550 
Q 988 4650 1302 4700 
Q 1616 4750 1894 4750 
Q 2613 4750 3031 4423 
Q 3450 4097 3450 3541 
Q 3450 3153 3228 2886 
Q 3006 2619 2597 2516 
z
" id="DejaVuSans-33" transform="scale(0.015625)"/>
      </defs>
      <use xlink:href="#DejaVuSans-42"/>
      <use x="68.603516" xlink:href="#DejaVuSans-45"/>
      <use x="131.787109" xlink:href="#DejaVuSans-53"/>
      <use x="195.263672" xlink:href="#DejaVuSans-54"/>
      <use x="256.347656" xlink:href="#DejaVuSans-33"/>
     </g>
    </g>
   </g>
  </g>
 </g>
 <defs>
  <clipPath id="p5a5c681775">
   <rect height="1606.4" width="2232.275" x="276.925" y="10.8"/>
  </clipPath>
 </defs>
</svg>
