<?xml version="1.0" encoding="utf-8" standalone="no"?>
<!DOCTYPE svg PUBLIC "-//W3C//DTD SVG 1.1//EN"
  "http://www.w3.org/Graphics/SVG/1.1/DTD/svg11.dtd">
<svg height="1800pt" version="1.1" viewBox="0 0 2520 1800" width="2520pt" xmlns="http://www.w3.org/2000/svg" xmlns:xlink="http://www.w3.org/1999/xlink">
 <metadata>
  <rdf:RDF xmlns:cc="http://creativecommons.org/ns#" xmlns:dc="http://purl.org/dc/elements/1.1/" xmlns:rdf="http://www.w3.org/1999/02/22-rdf-syntax-ns#">
   <cc:Work>
    <dc:type rdf:resource="http://purl.org/dc/dcmitype/StillImage"/>
    <dc:date>2022-03-09T18:23:51.173551</dc:date>
    <dc:format>image/svg+xml</dc:format>
    <dc:creator>
     <cc:Agent>
      <dc:title>Matplotlib v3.4.2, https://matplotlib.org/</dc:title>
     </cc:Agent>
    </dc:creator>
   </cc:Work>
  </rdf:RDF>
 </metadata>
 <defs>
  <style type="text/css">*{stroke-linecap:butt;stroke-linejoin:round;}</style>
 </defs>
 <g id="figure_1">
  <g id="patch_1">
   <path d="M 0 1800 
L 2520 1800 
L 2520 0 
L 0 0 
z
" style="fill:none;"/>
  </g>
  <g id="axes_1">
   <g id="patch_2">
    <path d="M 229.175 1617.2 
L 2509.2 1617.2 
L 2509.2 10.8 
L 229.175 10.8 
z
" style="fill:#ffffff;"/>
   </g>
   <g id="PolyCollection_1">
    <defs>
     <path d="M 332.8125 -188.00917 
L 332.8125 -182.8 
L 343.228329 -182.8 
L 353.644158 -182.8 
L 364.059987 -182.8 
L 374.475817 -182.8 
L 384.891646 -182.8 
L 395.307475 -182.8 
L 405.723304 -182.8 
L 416.139133 -182.8 
L 426.554962 -182.8 
L 436.970791 -182.8 
L 447.386621 -182.8 
L 457.80245 -182.8 
L 468.218279 -182.8 
L 478.634108 -182.8 
L 489.049937 -182.8 
L 499.465766 -182.8 
L 509.881595 -182.8 
L 520.297425 -182.8 
L 530.713254 -182.8 
L 541.129083 -182.8 
L 551.544912 -182.8 
L 561.960741 -182.8 
L 572.37657 -182.8 
L 582.792399 -182.8 
L 593.208229 -182.8 
L 603.624058 -182.8 
L 614.039887 -182.8 
L 624.455716 -182.8 
L 634.871545 -182.8 
L 645.287374 -182.8 
L 655.703204 -182.8 
L 666.119033 -182.8 
L 676.534862 -182.8 
L 686.950691 -182.8 
L 697.36652 -182.8 
L 707.782349 -182.8 
L 718.198178 -182.8 
L 728.614008 -182.8 
L 739.029837 -182.8 
L 749.445666 -182.8 
L 759.861495 -182.8 
L 770.277324 -182.8 
L 780.693153 -182.8 
L 791.108982 -182.8 
L 801.524812 -182.8 
L 811.940641 -182.8 
L 822.35647 -182.8 
L 832.772299 -182.8 
L 843.188128 -182.8 
L 853.603957 -182.8 
L 864.019786 -182.8 
L 874.435616 -182.8 
L 884.851445 -182.8 
L 895.267274 -182.8 
L 905.683103 -182.8 
L 916.098932 -182.8 
L 926.514761 -182.8 
L 936.93059 -182.8 
L 947.34642 -182.8 
L 957.762249 -182.8 
L 968.178078 -182.8 
L 978.593907 -182.8 
L 989.009736 -182.8 
L 999.425565 -182.8 
L 1009.841394 -182.8 
L 1020.257224 -182.8 
L 1030.673053 -182.8 
L 1041.088882 -182.8 
L 1051.504711 -182.8 
L 1061.92054 -182.8 
L 1072.336369 -182.8 
L 1082.752198 -182.8 
L 1093.168028 -182.8 
L 1103.583857 -182.8 
L 1113.999686 -182.8 
L 1124.415515 -182.8 
L 1134.831344 -182.8 
L 1145.247173 -182.8 
L 1155.663003 -182.8 
L 1166.078832 -182.8 
L 1176.494661 -182.8 
L 1186.91049 -182.8 
L 1197.326319 -182.8 
L 1207.742148 -182.8 
L 1218.157977 -182.8 
L 1228.573807 -182.8 
L 1238.989636 -182.8 
L 1249.405465 -182.8 
L 1259.821294 -182.8 
L 1270.237123 -182.8 
L 1280.652952 -182.8 
L 1291.068781 -182.8 
L 1301.484611 -182.8 
L 1311.90044 -182.8 
L 1322.316269 -182.8 
L 1332.732098 -182.8 
L 1343.147927 -182.8 
L 1353.563756 -182.8 
L 1363.979585 -182.8 
L 1374.395415 -182.8 
L 1384.811244 -182.8 
L 1395.227073 -182.8 
L 1405.642902 -182.8 
L 1416.058731 -182.8 
L 1426.47456 -182.8 
L 1436.890389 -182.8 
L 1447.306219 -182.8 
L 1457.722048 -182.8 
L 1468.137877 -182.8 
L 1478.553706 -182.8 
L 1488.969535 -182.8 
L 1499.385364 -182.8 
L 1509.801193 -182.8 
L 1520.217023 -182.8 
L 1530.632852 -182.8 
L 1541.048681 -182.8 
L 1551.46451 -182.8 
L 1561.880339 -182.8 
L 1572.296168 -182.8 
L 1582.711997 -182.8 
L 1593.127827 -182.8 
L 1603.543656 -182.8 
L 1613.959485 -182.8 
L 1624.375314 -182.8 
L 1634.791143 -182.8 
L 1645.206972 -182.8 
L 1655.622802 -182.8 
L 1666.038631 -182.8 
L 1676.45446 -182.8 
L 1686.870289 -182.8 
L 1697.286118 -182.8 
L 1707.701947 -182.8 
L 1718.117776 -182.8 
L 1728.533606 -182.8 
L 1738.949435 -182.8 
L 1749.365264 -182.8 
L 1759.781093 -182.8 
L 1770.196922 -182.8 
L 1780.612751 -182.8 
L 1791.02858 -182.8 
L 1801.44441 -182.8 
L 1811.860239 -182.8 
L 1822.276068 -182.8 
L 1832.691897 -182.8 
L 1843.107726 -182.8 
L 1853.523555 -182.8 
L 1863.939384 -182.8 
L 1874.355214 -182.8 
L 1884.771043 -182.8 
L 1895.186872 -182.8 
L 1905.602701 -182.8 
L 1916.01853 -182.8 
L 1926.434359 -182.8 
L 1936.850188 -182.8 
L 1947.266018 -182.8 
L 1957.681847 -182.8 
L 1968.097676 -182.8 
L 1978.513505 -182.8 
L 1988.929334 -182.8 
L 1999.345163 -182.8 
L 2009.760992 -182.8 
L 2020.176822 -182.8 
L 2030.592651 -182.8 
L 2041.00848 -182.8 
L 2051.424309 -182.8 
L 2061.840138 -182.8 
L 2072.255967 -182.8 
L 2082.671796 -182.8 
L 2093.087626 -182.8 
L 2103.503455 -182.8 
L 2113.919284 -182.8 
L 2124.335113 -182.8 
L 2134.750942 -182.8 
L 2145.166771 -182.8 
L 2155.582601 -182.8 
L 2165.99843 -182.8 
L 2176.414259 -182.8 
L 2186.830088 -182.8 
L 2197.245917 -182.8 
L 2207.661746 -182.8 
L 2218.077575 -182.8 
L 2228.493405 -182.8 
L 2238.909234 -182.8 
L 2249.325063 -182.8 
L 2259.740892 -182.8 
L 2270.156721 -182.8 
L 2280.57255 -182.8 
L 2290.988379 -182.8 
L 2301.404209 -182.8 
L 2311.820038 -182.8 
L 2322.235867 -182.8 
L 2332.651696 -182.8 
L 2343.067525 -182.8 
L 2353.483354 -182.8 
L 2363.899183 -182.8 
L 2374.315013 -182.8 
L 2384.730842 -182.8 
L 2395.146671 -182.8 
L 2405.5625 -182.8 
L 2405.5625 -182.833974 
L 2405.5625 -182.833974 
L 2395.146671 -182.848166 
L 2384.730842 -182.867396 
L 2374.315013 -182.893084 
L 2363.899183 -182.926908 
L 2353.483354 -182.970809 
L 2343.067525 -183.02698 
L 2332.651696 -183.097827 
L 2322.235867 -183.185916 
L 2311.820038 -183.293896 
L 2301.404209 -183.424392 
L 2290.988379 -183.57989 
L 2280.57255 -183.7626 
L 2270.156721 -183.974327 
L 2259.740892 -184.216334 
L 2249.325063 -184.489236 
L 2238.909234 -184.792917 
L 2228.493405 -185.12649 
L 2218.077575 -185.488296 
L 2207.661746 -185.87596 
L 2197.245917 -186.286481 
L 2186.830088 -186.716359 
L 2176.414259 -187.161751 
L 2165.99843 -187.61862 
L 2155.582601 -188.082876 
L 2145.166771 -188.55049 
L 2134.750942 -189.017554 
L 2124.335113 -189.480299 
L 2113.919284 -189.93505 
L 2103.503455 -190.378146 
L 2093.087626 -190.805818 
L 2082.671796 -191.214064 
L 2072.255967 -191.598536 
L 2061.840138 -191.954465 
L 2051.424309 -192.276639 
L 2041.00848 -192.559469 
L 2030.592651 -192.797122 
L 2020.176822 -192.983744 
L 2009.760992 -193.11375 
L 1999.345163 -193.182163 
L 1988.929334 -193.184975 
L 1978.513505 -193.119514 
L 1968.097676 -192.984769 
L 1957.681847 -192.781672 
L 1947.266018 -192.513293 
L 1936.850188 -192.184964 
L 1926.434359 -191.804307 
L 1916.01853 -191.381173 
L 1905.602701 -190.927515 
L 1895.186872 -190.457181 
L 1884.771043 -189.985671 
L 1874.355214 -189.529846 
L 1863.939384 -189.107614 
L 1853.523555 -188.737593 
L 1843.107726 -188.43877 
L 1832.691897 -188.230139 
L 1822.276068 -188.130326 
L 1811.860239 -188.157209 
L 1801.44441 -188.327521 
L 1791.02858 -188.656446 
L 1780.612751 -189.157211 
L 1770.196922 -189.840685 
L 1759.781093 -190.715012 
L 1749.365264 -191.785273 
L 1738.949435 -193.053226 
L 1728.533606 -194.517125 
L 1718.117776 -196.171658 
L 1707.701947 -198.008009 
L 1697.286118 -200.014067 
L 1686.870289 -202.174787 
L 1676.45446 -204.472694 
L 1666.038631 -206.888516 
L 1655.622802 -209.401924 
L 1645.206972 -211.992322 
L 1634.791143 -214.63965 
L 1624.375314 -217.325126 
L 1613.959485 -220.031876 
L 1603.543656 -222.745366 
L 1593.127827 -225.453613 
L 1582.711997 -228.147124 
L 1572.296168 -230.81856 
L 1561.880339 -233.462166 
L 1551.46451 -236.073001 
L 1541.048681 -238.646098 
L 1530.632852 -241.175642 
L 1520.217023 -243.65432 
L 1509.801193 -246.072959 
L 1499.385364 -248.420573 
L 1488.969535 -250.684869 
L 1478.553706 -252.85323 
L 1468.137877 -254.914121 
L 1457.722048 -256.858778 
L 1447.306219 -258.683007 
L 1436.890389 -260.388872 
L 1426.47456 -261.986005 
L 1416.058731 -263.49235 
L 1405.642902 -264.934146 
L 1395.227073 -266.345049 
L 1384.811244 -267.764424 
L 1374.395415 -269.234877 
L 1363.979585 -270.799267 
L 1353.563756 -272.497468 
L 1343.147927 -274.363206 
L 1332.732098 -276.421316 
L 1322.316269 -278.685712 
L 1311.90044 -281.158273 
L 1301.484611 -283.828784 
L 1291.068781 -286.675909 
L 1280.652952 -289.669064 
L 1270.237123 -292.770993 
L 1259.821294 -295.940724 
L 1249.405465 -299.13661 
L 1238.989636 -302.319123 
L 1228.573807 -305.453163 
L 1218.157977 -308.509698 
L 1207.742148 -311.466666 
L 1197.326319 -314.309156 
L 1186.91049 -317.028983 
L 1176.494661 -319.623851 
L 1166.078832 -322.096296 
L 1155.663003 -324.452639 
L 1145.247173 -326.70213 
L 1134.831344 -328.856414 
L 1124.415515 -330.929379 
L 1113.999686 -332.93738 
L 1103.583857 -334.899758 
L 1093.168028 -336.839539 
L 1082.752198 -338.784144 
L 1072.336369 -340.765965 
L 1061.92054 -342.822653 
L 1051.504711 -344.997024 
L 1041.088882 -347.336505 
L 1030.673053 -349.892127 
L 1020.257224 -352.717106 
L 1009.841394 -355.8651 
L 999.425565 -359.388263 
L 989.009736 -363.335261 
L 978.593907 -367.749402 
L 968.178078 -372.667037 
L 957.762249 -378.116395 
L 947.34642 -384.11698 
L 936.93059 -390.679629 
L 926.514761 -397.807309 
L 916.098932 -405.496682 
L 905.683103 -413.740403 
L 895.267274 -422.530089 
L 884.851445 -431.859799 
L 874.435616 -441.729803 
L 864.019786 -452.15035 
L 853.603957 -463.145031 
L 843.188128 -474.753313 
L 832.772299 -487.031725 
L 822.35647 -500.05317 
L 811.940641 -513.903894 
L 801.524812 -528.677679 
L 791.108982 -544.467042 
L 780.693153 -561.351432 
L 770.277324 -579.382734 
L 759.861495 -598.568758 
L 749.445666 -618.855792 
L 739.029837 -640.111647 
L 728.614008 -662.110951 
L 718.198178 -684.524588 
L 707.782349 -706.915181 
L 697.36652 -728.740267 
L 686.950691 -749.364329 
L 676.534862 -768.080155 
L 666.119033 -784.13911 
L 655.703204 -796.788952 
L 645.287374 -805.316866 
L 634.871545 -809.094622 
L 624.455716 -807.622206 
L 614.039887 -800.566099 
L 603.624058 -787.788642 
L 593.208229 -769.365522 
L 582.792399 -745.589457 
L 572.37657 -716.959388 
L 561.960741 -684.155829 
L 551.544912 -648.004364 
L 541.129083 -609.43031 
L 530.713254 -569.408368 
L 520.297425 -528.911361 
L 509.881595 -488.862089 
L 499.465766 -450.091748 
L 489.049937 -413.307587 
L 478.634108 -379.07136 
L 468.218279 -347.789082 
L 457.80245 -319.711505 
L 447.386621 -294.94392 
L 436.970791 -273.463246 
L 426.554962 -255.140053 
L 416.139133 -239.763128 
L 405.723304 -227.064389 
L 395.307475 -216.742309 
L 384.891646 -208.482499 
L 374.475817 -201.974623 
L 364.059987 -196.925256 
L 353.644158 -193.066763 
L 343.228329 -190.162538 
L 332.8125 -188.00917 
z
" id="m782809f796" style="stroke:#ff0000;stroke-width:5;"/>
    </defs>
    <g clip-path="url(#p2884ac84e7)">
     <use style="fill:#ff0000;fill-opacity:0.25;stroke:#ff0000;stroke-width:5;" x="0" xlink:href="#m782809f796" y="1800"/>
    </g>
   </g>
   <g id="PolyCollection_2">
    <defs>
     <path d="M 429.76702 -199.136778 
L 429.76702 -182.8 
L 436.767137 -182.8 
L 443.767253 -182.8 
L 450.76737 -182.8 
L 457.767486 -182.8 
L 464.767603 -182.8 
L 471.767719 -182.8 
L 478.767835 -182.8 
L 485.767952 -182.8 
L 492.768068 -182.8 
L 499.768185 -182.8 
L 506.768301 -182.8 
L 513.768418 -182.8 
L 520.768534 -182.8 
L 527.76865 -182.8 
L 534.768767 -182.8 
L 541.768883 -182.8 
L 548.769 -182.8 
L 555.769116 -182.8 
L 562.769232 -182.8 
L 569.769349 -182.8 
L 576.769465 -182.8 
L 583.769582 -182.8 
L 590.769698 -182.8 
L 597.769815 -182.8 
L 604.769931 -182.8 
L 611.770047 -182.8 
L 618.770164 -182.8 
L 625.77028 -182.8 
L 632.770397 -182.8 
L 639.770513 -182.8 
L 646.770629 -182.8 
L 653.770746 -182.8 
L 660.770862 -182.8 
L 667.770979 -182.8 
L 674.771095 -182.8 
L 681.771212 -182.8 
L 688.771328 -182.8 
L 695.771444 -182.8 
L 702.771561 -182.8 
L 709.771677 -182.8 
L 716.771794 -182.8 
L 723.77191 -182.8 
L 730.772026 -182.8 
L 737.772143 -182.8 
L 744.772259 -182.8 
L 751.772376 -182.8 
L 758.772492 -182.8 
L 765.772609 -182.8 
L 772.772725 -182.8 
L 779.772841 -182.8 
L 786.772958 -182.8 
L 793.773074 -182.8 
L 800.773191 -182.8 
L 807.773307 -182.8 
L 814.773424 -182.8 
L 821.77354 -182.8 
L 828.773656 -182.8 
L 835.773773 -182.8 
L 842.773889 -182.8 
L 849.774006 -182.8 
L 856.774122 -182.8 
L 863.774238 -182.8 
L 870.774355 -182.8 
L 877.774471 -182.8 
L 884.774588 -182.8 
L 891.774704 -182.8 
L 898.774821 -182.8 
L 905.774937 -182.8 
L 912.775053 -182.8 
L 919.77517 -182.8 
L 926.775286 -182.8 
L 933.775403 -182.8 
L 940.775519 -182.8 
L 947.775635 -182.8 
L 954.775752 -182.8 
L 961.775868 -182.8 
L 968.775985 -182.8 
L 975.776101 -182.8 
L 982.776218 -182.8 
L 989.776334 -182.8 
L 996.77645 -182.8 
L 1003.776567 -182.8 
L 1010.776683 -182.8 
L 1017.7768 -182.8 
L 1024.776916 -182.8 
L 1031.777033 -182.8 
L 1038.777149 -182.8 
L 1045.777265 -182.8 
L 1052.777382 -182.8 
L 1059.777498 -182.8 
L 1066.777615 -182.8 
L 1073.777731 -182.8 
L 1080.777847 -182.8 
L 1087.777964 -182.8 
L 1094.77808 -182.8 
L 1101.778197 -182.8 
L 1108.778313 -182.8 
L 1115.77843 -182.8 
L 1122.778546 -182.8 
L 1129.778662 -182.8 
L 1136.778779 -182.8 
L 1143.778895 -182.8 
L 1150.779012 -182.8 
L 1157.779128 -182.8 
L 1164.779244 -182.8 
L 1171.779361 -182.8 
L 1178.779477 -182.8 
L 1185.779594 -182.8 
L 1192.77971 -182.8 
L 1199.779827 -182.8 
L 1206.779943 -182.8 
L 1213.780059 -182.8 
L 1220.780176 -182.8 
L 1227.780292 -182.8 
L 1234.780409 -182.8 
L 1241.780525 -182.8 
L 1248.780641 -182.8 
L 1255.780758 -182.8 
L 1262.780874 -182.8 
L 1269.780991 -182.8 
L 1276.781107 -182.8 
L 1283.781224 -182.8 
L 1290.78134 -182.8 
L 1297.781456 -182.8 
L 1304.781573 -182.8 
L 1311.781689 -182.8 
L 1318.781806 -182.8 
L 1325.781922 -182.8 
L 1332.782039 -182.8 
L 1339.782155 -182.8 
L 1346.782271 -182.8 
L 1353.782388 -182.8 
L 1360.782504 -182.8 
L 1367.782621 -182.8 
L 1374.782737 -182.8 
L 1381.782853 -182.8 
L 1388.78297 -182.8 
L 1395.783086 -182.8 
L 1402.783203 -182.8 
L 1409.783319 -182.8 
L 1416.783436 -182.8 
L 1423.783552 -182.8 
L 1430.783668 -182.8 
L 1437.783785 -182.8 
L 1444.783901 -182.8 
L 1451.784018 -182.8 
L 1458.784134 -182.8 
L 1465.78425 -182.8 
L 1472.784367 -182.8 
L 1479.784483 -182.8 
L 1486.7846 -182.8 
L 1493.784716 -182.8 
L 1500.784833 -182.8 
L 1507.784949 -182.8 
L 1514.785065 -182.8 
L 1521.785182 -182.8 
L 1528.785298 -182.8 
L 1535.785415 -182.8 
L 1542.785531 -182.8 
L 1549.785647 -182.8 
L 1556.785764 -182.8 
L 1563.78588 -182.8 
L 1570.785997 -182.8 
L 1577.786113 -182.8 
L 1584.78623 -182.8 
L 1591.786346 -182.8 
L 1598.786462 -182.8 
L 1605.786579 -182.8 
L 1612.786695 -182.8 
L 1619.786812 -182.8 
L 1626.786928 -182.8 
L 1633.787045 -182.8 
L 1640.787161 -182.8 
L 1647.787277 -182.8 
L 1654.787394 -182.8 
L 1661.78751 -182.8 
L 1668.787627 -182.8 
L 1675.787743 -182.8 
L 1682.787859 -182.8 
L 1689.787976 -182.8 
L 1696.788092 -182.8 
L 1703.788209 -182.8 
L 1710.788325 -182.8 
L 1717.788442 -182.8 
L 1724.788558 -182.8 
L 1731.788674 -182.8 
L 1738.788791 -182.8 
L 1745.788907 -182.8 
L 1752.789024 -182.8 
L 1759.78914 -182.8 
L 1766.789256 -182.8 
L 1773.789373 -182.8 
L 1780.789489 -182.8 
L 1787.789606 -182.8 
L 1794.789722 -182.8 
L 1801.789839 -182.8 
L 1808.789955 -182.8 
L 1815.790071 -182.8 
L 1822.790188 -182.8 
L 1822.790188 -182.941985 
L 1822.790188 -182.941985 
L 1815.790071 -183.004026 
L 1808.789955 -183.088748 
L 1801.789839 -183.202477 
L 1794.789722 -183.352525 
L 1787.789606 -183.547053 
L 1780.789489 -183.794809 
L 1773.789373 -184.10472 
L 1766.789256 -184.485325 
L 1759.78914 -184.94407 
L 1752.789024 -185.486477 
L 1745.788907 -186.11525 
L 1738.788791 -186.829382 
L 1731.788674 -187.623357 
L 1724.788558 -188.486556 
L 1717.788442 -189.402952 
L 1710.788325 -190.351199 
L 1703.788209 -191.305162 
L 1696.788092 -192.234919 
L 1689.787976 -193.108197 
L 1682.787859 -193.89216 
L 1675.787743 -194.555429 
L 1668.787627 -195.070147 
L 1661.78751 -195.413916 
L 1654.787394 -195.571416 
L 1647.787277 -195.535532 
L 1640.787161 -195.30789 
L 1633.787045 -194.898734 
L 1626.786928 -194.326162 
L 1619.786812 -193.614798 
L 1612.786695 -192.794039 
L 1605.786579 -191.896045 
L 1598.786462 -190.953669 
L 1591.786346 -189.998508 
L 1584.78623 -189.059228 
L 1577.786113 -188.160288 
L 1570.785997 -187.321103 
L 1563.78588 -186.55569 
L 1556.785764 -185.872731 
L 1549.785647 -185.275992 
L 1542.785531 -184.765013 
L 1535.785415 -184.33595 
L 1528.785298 -183.982476 
L 1521.785182 -183.696671 
L 1514.785065 -183.469809 
L 1507.784949 -183.293025 
L 1500.784833 -183.157837 
L 1493.784716 -183.056516 
L 1486.7846 -182.982326 
L 1479.784483 -182.929664 
L 1472.784367 -182.894115 
L 1465.78425 -182.872473 
L 1458.784134 -182.862744 
L 1451.784018 -182.864154 
L 1444.783901 -182.877194 
L 1437.783785 -182.903707 
L 1430.783668 -182.947009 
L 1423.783552 -183.012064 
L 1416.783436 -183.105669 
L 1409.783319 -183.236653 
L 1402.783203 -183.416026 
L 1395.783086 -183.657054 
L 1388.78297 -183.975205 
L 1381.782853 -184.387907 
L 1374.782737 -184.914086 
L 1367.782621 -185.573435 
L 1360.782504 -186.385418 
L 1353.782388 -187.368021 
L 1346.782271 -188.536309 
L 1339.782155 -189.900888 
L 1332.782039 -191.4664 
L 1325.781922 -193.230219 
L 1318.781806 -195.181495 
L 1311.781689 -197.300728 
L 1304.781573 -199.559972 
L 1297.781456 -201.923734 
L 1290.78134 -204.350563 
L 1283.781224 -206.795211 
L 1276.781107 -209.211204 
L 1269.780991 -211.553577 
L 1262.780874 -213.781495 
L 1255.780758 -215.860508 
L 1248.780641 -217.764203 
L 1241.780525 -219.475107 
L 1234.780409 -220.9848 
L 1227.780292 -222.293288 
L 1220.780176 -223.407772 
L 1213.780059 -224.341042 
L 1206.779943 -225.109711 
L 1199.779827 -225.732517 
L 1192.77971 -226.228883 
L 1185.779594 -226.617807 
L 1178.779477 -226.917148 
L 1171.779361 -227.143231 
L 1164.779244 -227.31072 
L 1157.779128 -227.432638 
L 1150.779012 -227.520457 
L 1143.778895 -227.584205 
L 1136.778779 -227.632578 
L 1129.778662 -227.673075 
L 1122.778546 -227.712207 
L 1115.77843 -227.755819 
L 1108.778313 -227.809548 
L 1101.778197 -227.879403 
L 1094.77808 -227.972413 
L 1087.777964 -228.097271 
L 1080.777847 -228.264862 
L 1073.777731 -228.488596 
L 1066.777615 -228.784474 
L 1059.777498 -229.170846 
L 1052.777382 -229.66788 
L 1045.777265 -230.29676 
L 1038.777149 -231.078687 
L 1031.777033 -232.033751 
L 1024.776916 -233.17973 
L 1017.7768 -234.530915 
L 1010.776683 -236.096999 
L 1003.776567 -237.882134 
L 996.77645 -239.884234 
L 989.776334 -242.094636 
L 982.776218 -244.498213 
L 975.776101 -247.074048 
L 968.775985 -249.796718 
L 961.775868 -252.63817 
L 954.775752 -255.570116 
L 947.775635 -258.566762 
L 940.775519 -261.607624 
L 933.775403 -264.680146 
L 926.775286 -267.781832 
L 919.77517 -270.921627 
L 912.775053 -274.120407 
L 905.774937 -277.410484 
L 898.774821 -280.834195 
L 891.774704 -284.441682 
L 884.774588 -288.288053 
L 877.774471 -292.430142 
L 870.774355 -296.923055 
L 863.774238 -301.816705 
L 856.774122 -307.152545 
L 849.774006 -312.960717 
L 842.773889 -319.257931 
L 835.773773 -326.046469 
L 828.773656 -333.314798 
L 821.77354 -341.040363 
L 814.773424 -349.195091 
L 807.773307 -357.754054 
L 800.773191 -366.707487 
L 793.773074 -376.076043 
L 786.772958 -385.928708 
L 779.772841 -396.40236 
L 772.772725 -407.721449 
L 765.772609 -420.215883 
L 758.772492 -434.334828 
L 751.772376 -450.653977 
L 744.772259 -469.873704 
L 737.772143 -492.805716 
L 730.772026 -520.346086 
L 723.77191 -553.433226 
L 716.771794 -592.990236 
L 709.771677 -639.852439 
L 702.771561 -694.682499 
L 695.771444 -757.877545 
L 688.771328 -829.47474 
L 681.771212 -909.063697 
L 674.771095 -995.715569 
L 667.770979 -1087.939226 
L 660.770862 -1183.674284 
L 653.770746 -1280.328745 
L 646.770629 -1374.86544 
L 639.770513 -1463.936792 
L 632.770397 -1544.061913 
L 625.77028 -1611.834484 
L 618.770164 -1664.145099 
L 611.770047 -1698.398465 
L 604.769931 -1712.704762 
L 597.769815 -1706.025875 
L 590.769698 -1678.261151 
L 583.769582 -1630.263254 
L 576.769465 -1563.782027 
L 569.769349 -1481.341836 
L 562.769232 -1386.064804 
L 555.769116 -1281.457597 
L 548.769 -1171.182422 
L 541.768883 -1058.833292 
L 534.768767 -947.736556 
L 527.76865 -840.790556 
L 520.768534 -740.353915 
L 513.768418 -648.185987 
L 506.768301 -565.437459 
L 499.768185 -492.684484 
L 492.768068 -429.996508 
L 485.767952 -377.026411 
L 478.767835 -333.111458 
L 471.767719 -297.374783 
L 464.767603 -268.819167 
L 457.767486 -246.407358 
L 450.76737 -229.125772 
L 443.767253 -216.030651 
L 436.767137 -206.277615 
L 429.76702 -199.136778 
z
" id="m994b721c1d" style="stroke:#0000ff;stroke-width:5;"/>
    </defs>
    <g clip-path="url(#p2884ac84e7)">
     <use style="fill:#0000ff;fill-opacity:0.25;stroke:#0000ff;stroke-width:5;" x="0" xlink:href="#m994b721c1d" y="1800"/>
    </g>
   </g>
   <g id="matplotlib.axis_1">
    <g id="xtick_1">
     <g id="line2d_1">
      <defs>
       <path d="M 0 0 
L 0 3.5 
" id="me46c51f0da" style="stroke:#000000;stroke-width:0.8;"/>
      </defs>
      <g>
       <use style="stroke:#000000;stroke-width:0.8;" x="599.975996" xlink:href="#me46c51f0da" y="1617.2"/>
      </g>
     </g>
     <g id="text_1">
      <!-- 0 -->
      <g transform="translate(576.116621 1681.188281)scale(0.75 -0.75)">
       <defs>
        <path d="M 2034 4250 
Q 1547 4250 1301 3770 
Q 1056 3291 1056 2328 
Q 1056 1369 1301 889 
Q 1547 409 2034 409 
Q 2525 409 2770 889 
Q 3016 1369 3016 2328 
Q 3016 3291 2770 3770 
Q 2525 4250 2034 4250 
z
M 2034 4750 
Q 2819 4750 3233 4129 
Q 3647 3509 3647 2328 
Q 3647 1150 3233 529 
Q 2819 -91 2034 -91 
Q 1250 -91 836 529 
Q 422 1150 422 2328 
Q 422 3509 836 4129 
Q 1250 4750 2034 4750 
z
" id="DejaVuSans-30" transform="scale(0.015625)"/>
       </defs>
       <use xlink:href="#DejaVuSans-30"/>
      </g>
     </g>
    </g>
    <g id="xtick_2">
     <g id="line2d_2">
      <g>
       <use style="stroke:#000000;stroke-width:0.8;" x="1004.824156" xlink:href="#me46c51f0da" y="1617.2"/>
      </g>
     </g>
     <g id="text_2">
      <!-- 5 -->
      <g transform="translate(980.964781 1681.188281)scale(0.75 -0.75)">
       <defs>
        <path d="M 691 4666 
L 3169 4666 
L 3169 4134 
L 1269 4134 
L 1269 2991 
Q 1406 3038 1543 3061 
Q 1681 3084 1819 3084 
Q 2600 3084 3056 2656 
Q 3513 2228 3513 1497 
Q 3513 744 3044 326 
Q 2575 -91 1722 -91 
Q 1428 -91 1123 -41 
Q 819 9 494 109 
L 494 744 
Q 775 591 1075 516 
Q 1375 441 1709 441 
Q 2250 441 2565 725 
Q 2881 1009 2881 1497 
Q 2881 1984 2565 2268 
Q 2250 2553 1709 2553 
Q 1456 2553 1204 2497 
Q 953 2441 691 2322 
L 691 4666 
z
" id="DejaVuSans-35" transform="scale(0.015625)"/>
       </defs>
       <use xlink:href="#DejaVuSans-35"/>
      </g>
     </g>
    </g>
    <g id="xtick_3">
     <g id="line2d_3">
      <g>
       <use style="stroke:#000000;stroke-width:0.8;" x="1409.672316" xlink:href="#me46c51f0da" y="1617.2"/>
      </g>
     </g>
     <g id="text_3">
      <!-- 10 -->
      <g transform="translate(1361.953566 1681.188281)scale(0.75 -0.75)">
       <defs>
        <path d="M 794 531 
L 1825 531 
L 1825 4091 
L 703 3866 
L 703 4441 
L 1819 4666 
L 2450 4666 
L 2450 531 
L 3481 531 
L 3481 0 
L 794 0 
L 794 531 
z
" id="DejaVuSans-31" transform="scale(0.015625)"/>
       </defs>
       <use xlink:href="#DejaVuSans-31"/>
       <use x="63.623047" xlink:href="#DejaVuSans-30"/>
      </g>
     </g>
    </g>
    <g id="xtick_4">
     <g id="line2d_4">
      <g>
       <use style="stroke:#000000;stroke-width:0.8;" x="1814.520476" xlink:href="#me46c51f0da" y="1617.2"/>
      </g>
     </g>
     <g id="text_4">
      <!-- 15 -->
      <g transform="translate(1766.801726 1681.188281)scale(0.75 -0.75)">
       <use xlink:href="#DejaVuSans-31"/>
       <use x="63.623047" xlink:href="#DejaVuSans-35"/>
      </g>
     </g>
    </g>
    <g id="xtick_5">
     <g id="line2d_5">
      <g>
       <use style="stroke:#000000;stroke-width:0.8;" x="2219.368635" xlink:href="#me46c51f0da" y="1617.2"/>
      </g>
     </g>
     <g id="text_5">
      <!-- 20 -->
      <g transform="translate(2171.649885 1681.188281)scale(0.75 -0.75)">
       <defs>
        <path d="M 1228 531 
L 3431 531 
L 3431 0 
L 469 0 
L 469 531 
Q 828 903 1448 1529 
Q 2069 2156 2228 2338 
Q 2531 2678 2651 2914 
Q 2772 3150 2772 3378 
Q 2772 3750 2511 3984 
Q 2250 4219 1831 4219 
Q 1534 4219 1204 4116 
Q 875 4013 500 3803 
L 500 4441 
Q 881 4594 1212 4672 
Q 1544 4750 1819 4750 
Q 2544 4750 2975 4387 
Q 3406 4025 3406 3419 
Q 3406 3131 3298 2873 
Q 3191 2616 2906 2266 
Q 2828 2175 2409 1742 
Q 1991 1309 1228 531 
z
" id="DejaVuSans-32" transform="scale(0.015625)"/>
       </defs>
       <use xlink:href="#DejaVuSans-32"/>
       <use x="63.623047" xlink:href="#DejaVuSans-30"/>
      </g>
     </g>
    </g>
    <g id="text_6">
     <!-- Prague C length (cm) -->
     <g transform="translate(890.535156 1769.171875)scale(0.9 -0.9)">
      <defs>
       <path d="M 1259 4147 
L 1259 2394 
L 2053 2394 
Q 2494 2394 2734 2622 
Q 2975 2850 2975 3272 
Q 2975 3691 2734 3919 
Q 2494 4147 2053 4147 
L 1259 4147 
z
M 628 4666 
L 2053 4666 
Q 2838 4666 3239 4311 
Q 3641 3956 3641 3272 
Q 3641 2581 3239 2228 
Q 2838 1875 2053 1875 
L 1259 1875 
L 1259 0 
L 628 0 
L 628 4666 
z
" id="DejaVuSans-50" transform="scale(0.015625)"/>
       <path d="M 2631 2963 
Q 2534 3019 2420 3045 
Q 2306 3072 2169 3072 
Q 1681 3072 1420 2755 
Q 1159 2438 1159 1844 
L 1159 0 
L 581 0 
L 581 3500 
L 1159 3500 
L 1159 2956 
Q 1341 3275 1631 3429 
Q 1922 3584 2338 3584 
Q 2397 3584 2469 3576 
Q 2541 3569 2628 3553 
L 2631 2963 
z
" id="DejaVuSans-72" transform="scale(0.015625)"/>
       <path d="M 2194 1759 
Q 1497 1759 1228 1600 
Q 959 1441 959 1056 
Q 959 750 1161 570 
Q 1363 391 1709 391 
Q 2188 391 2477 730 
Q 2766 1069 2766 1631 
L 2766 1759 
L 2194 1759 
z
M 3341 1997 
L 3341 0 
L 2766 0 
L 2766 531 
Q 2569 213 2275 61 
Q 1981 -91 1556 -91 
Q 1019 -91 701 211 
Q 384 513 384 1019 
Q 384 1609 779 1909 
Q 1175 2209 1959 2209 
L 2766 2209 
L 2766 2266 
Q 2766 2663 2505 2880 
Q 2244 3097 1772 3097 
Q 1472 3097 1187 3025 
Q 903 2953 641 2809 
L 641 3341 
Q 956 3463 1253 3523 
Q 1550 3584 1831 3584 
Q 2591 3584 2966 3190 
Q 3341 2797 3341 1997 
z
" id="DejaVuSans-61" transform="scale(0.015625)"/>
       <path d="M 2906 1791 
Q 2906 2416 2648 2759 
Q 2391 3103 1925 3103 
Q 1463 3103 1205 2759 
Q 947 2416 947 1791 
Q 947 1169 1205 825 
Q 1463 481 1925 481 
Q 2391 481 2648 825 
Q 2906 1169 2906 1791 
z
M 3481 434 
Q 3481 -459 3084 -895 
Q 2688 -1331 1869 -1331 
Q 1566 -1331 1297 -1286 
Q 1028 -1241 775 -1147 
L 775 -588 
Q 1028 -725 1275 -790 
Q 1522 -856 1778 -856 
Q 2344 -856 2625 -561 
Q 2906 -266 2906 331 
L 2906 616 
Q 2728 306 2450 153 
Q 2172 0 1784 0 
Q 1141 0 747 490 
Q 353 981 353 1791 
Q 353 2603 747 3093 
Q 1141 3584 1784 3584 
Q 2172 3584 2450 3431 
Q 2728 3278 2906 2969 
L 2906 3500 
L 3481 3500 
L 3481 434 
z
" id="DejaVuSans-67" transform="scale(0.015625)"/>
       <path d="M 544 1381 
L 544 3500 
L 1119 3500 
L 1119 1403 
Q 1119 906 1312 657 
Q 1506 409 1894 409 
Q 2359 409 2629 706 
Q 2900 1003 2900 1516 
L 2900 3500 
L 3475 3500 
L 3475 0 
L 2900 0 
L 2900 538 
Q 2691 219 2414 64 
Q 2138 -91 1772 -91 
Q 1169 -91 856 284 
Q 544 659 544 1381 
z
M 1991 3584 
L 1991 3584 
z
" id="DejaVuSans-75" transform="scale(0.015625)"/>
       <path d="M 3597 1894 
L 3597 1613 
L 953 1613 
Q 991 1019 1311 708 
Q 1631 397 2203 397 
Q 2534 397 2845 478 
Q 3156 559 3463 722 
L 3463 178 
Q 3153 47 2828 -22 
Q 2503 -91 2169 -91 
Q 1331 -91 842 396 
Q 353 884 353 1716 
Q 353 2575 817 3079 
Q 1281 3584 2069 3584 
Q 2775 3584 3186 3129 
Q 3597 2675 3597 1894 
z
M 3022 2063 
Q 3016 2534 2758 2815 
Q 2500 3097 2075 3097 
Q 1594 3097 1305 2825 
Q 1016 2553 972 2059 
L 3022 2063 
z
" id="DejaVuSans-65" transform="scale(0.015625)"/>
       <path id="DejaVuSans-20" transform="scale(0.015625)"/>
       <path d="M 4122 4306 
L 4122 3641 
Q 3803 3938 3442 4084 
Q 3081 4231 2675 4231 
Q 1875 4231 1450 3742 
Q 1025 3253 1025 2328 
Q 1025 1406 1450 917 
Q 1875 428 2675 428 
Q 3081 428 3442 575 
Q 3803 722 4122 1019 
L 4122 359 
Q 3791 134 3420 21 
Q 3050 -91 2638 -91 
Q 1578 -91 968 557 
Q 359 1206 359 2328 
Q 359 3453 968 4101 
Q 1578 4750 2638 4750 
Q 3056 4750 3426 4639 
Q 3797 4528 4122 4306 
z
" id="DejaVuSans-43" transform="scale(0.015625)"/>
       <path d="M 603 4863 
L 1178 4863 
L 1178 0 
L 603 0 
L 603 4863 
z
" id="DejaVuSans-6c" transform="scale(0.015625)"/>
       <path d="M 3513 2113 
L 3513 0 
L 2938 0 
L 2938 2094 
Q 2938 2591 2744 2837 
Q 2550 3084 2163 3084 
Q 1697 3084 1428 2787 
Q 1159 2491 1159 1978 
L 1159 0 
L 581 0 
L 581 3500 
L 1159 3500 
L 1159 2956 
Q 1366 3272 1645 3428 
Q 1925 3584 2291 3584 
Q 2894 3584 3203 3211 
Q 3513 2838 3513 2113 
z
" id="DejaVuSans-6e" transform="scale(0.015625)"/>
       <path d="M 1172 4494 
L 1172 3500 
L 2356 3500 
L 2356 3053 
L 1172 3053 
L 1172 1153 
Q 1172 725 1289 603 
Q 1406 481 1766 481 
L 2356 481 
L 2356 0 
L 1766 0 
Q 1100 0 847 248 
Q 594 497 594 1153 
L 594 3053 
L 172 3053 
L 172 3500 
L 594 3500 
L 594 4494 
L 1172 4494 
z
" id="DejaVuSans-74" transform="scale(0.015625)"/>
       <path d="M 3513 2113 
L 3513 0 
L 2938 0 
L 2938 2094 
Q 2938 2591 2744 2837 
Q 2550 3084 2163 3084 
Q 1697 3084 1428 2787 
Q 1159 2491 1159 1978 
L 1159 0 
L 581 0 
L 581 4863 
L 1159 4863 
L 1159 2956 
Q 1366 3272 1645 3428 
Q 1925 3584 2291 3584 
Q 2894 3584 3203 3211 
Q 3513 2838 3513 2113 
z
" id="DejaVuSans-68" transform="scale(0.015625)"/>
       <path d="M 1984 4856 
Q 1566 4138 1362 3434 
Q 1159 2731 1159 2009 
Q 1159 1288 1364 580 
Q 1569 -128 1984 -844 
L 1484 -844 
Q 1016 -109 783 600 
Q 550 1309 550 2009 
Q 550 2706 781 3412 
Q 1013 4119 1484 4856 
L 1984 4856 
z
" id="DejaVuSans-28" transform="scale(0.015625)"/>
       <path d="M 3122 3366 
L 3122 2828 
Q 2878 2963 2633 3030 
Q 2388 3097 2138 3097 
Q 1578 3097 1268 2742 
Q 959 2388 959 1747 
Q 959 1106 1268 751 
Q 1578 397 2138 397 
Q 2388 397 2633 464 
Q 2878 531 3122 666 
L 3122 134 
Q 2881 22 2623 -34 
Q 2366 -91 2075 -91 
Q 1284 -91 818 406 
Q 353 903 353 1747 
Q 353 2603 823 3093 
Q 1294 3584 2113 3584 
Q 2378 3584 2631 3529 
Q 2884 3475 3122 3366 
z
" id="DejaVuSans-63" transform="scale(0.015625)"/>
       <path d="M 3328 2828 
Q 3544 3216 3844 3400 
Q 4144 3584 4550 3584 
Q 5097 3584 5394 3201 
Q 5691 2819 5691 2113 
L 5691 0 
L 5113 0 
L 5113 2094 
Q 5113 2597 4934 2840 
Q 4756 3084 4391 3084 
Q 3944 3084 3684 2787 
Q 3425 2491 3425 1978 
L 3425 0 
L 2847 0 
L 2847 2094 
Q 2847 2600 2669 2842 
Q 2491 3084 2119 3084 
Q 1678 3084 1418 2786 
Q 1159 2488 1159 1978 
L 1159 0 
L 581 0 
L 581 3500 
L 1159 3500 
L 1159 2956 
Q 1356 3278 1631 3431 
Q 1906 3584 2284 3584 
Q 2666 3584 2933 3390 
Q 3200 3197 3328 2828 
z
" id="DejaVuSans-6d" transform="scale(0.015625)"/>
       <path d="M 513 4856 
L 1013 4856 
Q 1481 4119 1714 3412 
Q 1947 2706 1947 2009 
Q 1947 1309 1714 600 
Q 1481 -109 1013 -844 
L 513 -844 
Q 928 -128 1133 580 
Q 1338 1288 1338 2009 
Q 1338 2731 1133 3434 
Q 928 4138 513 4856 
z
" id="DejaVuSans-29" transform="scale(0.015625)"/>
      </defs>
      <use xlink:href="#DejaVuSans-50"/>
      <use x="58.552734" xlink:href="#DejaVuSans-72"/>
      <use x="99.666016" xlink:href="#DejaVuSans-61"/>
      <use x="160.945312" xlink:href="#DejaVuSans-67"/>
      <use x="224.421875" xlink:href="#DejaVuSans-75"/>
      <use x="287.800781" xlink:href="#DejaVuSans-65"/>
      <use x="349.324219" xlink:href="#DejaVuSans-20"/>
      <use x="381.111328" xlink:href="#DejaVuSans-43"/>
      <use x="450.935547" xlink:href="#DejaVuSans-20"/>
      <use x="482.722656" xlink:href="#DejaVuSans-6c"/>
      <use x="510.505859" xlink:href="#DejaVuSans-65"/>
      <use x="572.029297" xlink:href="#DejaVuSans-6e"/>
      <use x="635.408203" xlink:href="#DejaVuSans-67"/>
      <use x="698.884766" xlink:href="#DejaVuSans-74"/>
      <use x="738.09375" xlink:href="#DejaVuSans-68"/>
      <use x="801.472656" xlink:href="#DejaVuSans-20"/>
      <use x="833.259766" xlink:href="#DejaVuSans-28"/>
      <use x="872.273438" xlink:href="#DejaVuSans-63"/>
      <use x="927.253906" xlink:href="#DejaVuSans-6d"/>
      <use x="1024.666016" xlink:href="#DejaVuSans-29"/>
     </g>
    </g>
   </g>
   <g id="matplotlib.axis_2">
    <g id="ytick_1">
     <g id="line2d_6">
      <defs>
       <path d="M 0 0 
L -3.5 0 
" id="mb34f48f0bd" style="stroke:#000000;stroke-width:0.8;"/>
      </defs>
      <g>
       <use style="stroke:#000000;stroke-width:0.8;" x="229.175" xlink:href="#mb34f48f0bd" y="1617.2"/>
      </g>
     </g>
     <g id="text_7">
      <!-- 0.0 -->
      <g transform="translate(102.901562 1645.694141)scale(0.75 -0.75)">
       <defs>
        <path d="M 684 794 
L 1344 794 
L 1344 0 
L 684 0 
L 684 794 
z
" id="DejaVuSans-2e" transform="scale(0.015625)"/>
       </defs>
       <use xlink:href="#DejaVuSans-30"/>
       <use x="63.623047" xlink:href="#DejaVuSans-2e"/>
       <use x="95.410156" xlink:href="#DejaVuSans-30"/>
      </g>
     </g>
    </g>
    <g id="ytick_2">
     <g id="line2d_7">
      <g>
       <use style="stroke:#000000;stroke-width:0.8;" x="229.175" xlink:href="#mb34f48f0bd" y="1266.996112"/>
      </g>
     </g>
     <g id="text_8">
      <!-- 0.1 -->
      <g transform="translate(102.901562 1295.490253)scale(0.75 -0.75)">
       <use xlink:href="#DejaVuSans-30"/>
       <use x="63.623047" xlink:href="#DejaVuSans-2e"/>
       <use x="95.410156" xlink:href="#DejaVuSans-31"/>
      </g>
     </g>
    </g>
    <g id="ytick_3">
     <g id="line2d_8">
      <g>
       <use style="stroke:#000000;stroke-width:0.8;" x="229.175" xlink:href="#mb34f48f0bd" y="916.792224"/>
      </g>
     </g>
     <g id="text_9">
      <!-- 0.2 -->
      <g transform="translate(102.901562 945.286364)scale(0.75 -0.75)">
       <use xlink:href="#DejaVuSans-30"/>
       <use x="63.623047" xlink:href="#DejaVuSans-2e"/>
       <use x="95.410156" xlink:href="#DejaVuSans-32"/>
      </g>
     </g>
    </g>
    <g id="ytick_4">
     <g id="line2d_9">
      <g>
       <use style="stroke:#000000;stroke-width:0.8;" x="229.175" xlink:href="#mb34f48f0bd" y="566.588336"/>
      </g>
     </g>
     <g id="text_10">
      <!-- 0.3 -->
      <g transform="translate(102.901562 595.082476)scale(0.75 -0.75)">
       <defs>
        <path d="M 2597 2516 
Q 3050 2419 3304 2112 
Q 3559 1806 3559 1356 
Q 3559 666 3084 287 
Q 2609 -91 1734 -91 
Q 1441 -91 1130 -33 
Q 819 25 488 141 
L 488 750 
Q 750 597 1062 519 
Q 1375 441 1716 441 
Q 2309 441 2620 675 
Q 2931 909 2931 1356 
Q 2931 1769 2642 2001 
Q 2353 2234 1838 2234 
L 1294 2234 
L 1294 2753 
L 1863 2753 
Q 2328 2753 2575 2939 
Q 2822 3125 2822 3475 
Q 2822 3834 2567 4026 
Q 2313 4219 1838 4219 
Q 1578 4219 1281 4162 
Q 984 4106 628 3988 
L 628 4550 
Q 988 4650 1302 4700 
Q 1616 4750 1894 4750 
Q 2613 4750 3031 4423 
Q 3450 4097 3450 3541 
Q 3450 3153 3228 2886 
Q 3006 2619 2597 2516 
z
" id="DejaVuSans-33" transform="scale(0.015625)"/>
       </defs>
       <use xlink:href="#DejaVuSans-30"/>
       <use x="63.623047" xlink:href="#DejaVuSans-2e"/>
       <use x="95.410156" xlink:href="#DejaVuSans-33"/>
      </g>
     </g>
    </g>
    <g id="ytick_5">
     <g id="line2d_10">
      <g>
       <use style="stroke:#000000;stroke-width:0.8;" x="229.175" xlink:href="#mb34f48f0bd" y="216.384448"/>
      </g>
     </g>
     <g id="text_11">
      <!-- 0.4 -->
      <g transform="translate(102.901562 244.878588)scale(0.75 -0.75)">
       <defs>
        <path d="M 2419 4116 
L 825 1625 
L 2419 1625 
L 2419 4116 
z
M 2253 4666 
L 3047 4666 
L 3047 1625 
L 3713 1625 
L 3713 1100 
L 3047 1100 
L 3047 0 
L 2419 0 
L 2419 1100 
L 313 1100 
L 313 1709 
L 2253 4666 
z
" id="DejaVuSans-34" transform="scale(0.015625)"/>
       </defs>
       <use xlink:href="#DejaVuSans-30"/>
       <use x="63.623047" xlink:href="#DejaVuSans-2e"/>
       <use x="95.410156" xlink:href="#DejaVuSans-34"/>
      </g>
     </g>
    </g>
    <g id="text_12">
     <!-- Density -->
     <g transform="translate(80.184375 985.077344)rotate(-90)scale(0.9 -0.9)">
      <defs>
       <path d="M 1259 4147 
L 1259 519 
L 2022 519 
Q 2988 519 3436 956 
Q 3884 1394 3884 2338 
Q 3884 3275 3436 3711 
Q 2988 4147 2022 4147 
L 1259 4147 
z
M 628 4666 
L 1925 4666 
Q 3281 4666 3915 4102 
Q 4550 3538 4550 2338 
Q 4550 1131 3912 565 
Q 3275 0 1925 0 
L 628 0 
L 628 4666 
z
" id="DejaVuSans-44" transform="scale(0.015625)"/>
       <path d="M 2834 3397 
L 2834 2853 
Q 2591 2978 2328 3040 
Q 2066 3103 1784 3103 
Q 1356 3103 1142 2972 
Q 928 2841 928 2578 
Q 928 2378 1081 2264 
Q 1234 2150 1697 2047 
L 1894 2003 
Q 2506 1872 2764 1633 
Q 3022 1394 3022 966 
Q 3022 478 2636 193 
Q 2250 -91 1575 -91 
Q 1294 -91 989 -36 
Q 684 19 347 128 
L 347 722 
Q 666 556 975 473 
Q 1284 391 1588 391 
Q 1994 391 2212 530 
Q 2431 669 2431 922 
Q 2431 1156 2273 1281 
Q 2116 1406 1581 1522 
L 1381 1569 
Q 847 1681 609 1914 
Q 372 2147 372 2553 
Q 372 3047 722 3315 
Q 1072 3584 1716 3584 
Q 2034 3584 2315 3537 
Q 2597 3491 2834 3397 
z
" id="DejaVuSans-73" transform="scale(0.015625)"/>
       <path d="M 603 3500 
L 1178 3500 
L 1178 0 
L 603 0 
L 603 3500 
z
M 603 4863 
L 1178 4863 
L 1178 4134 
L 603 4134 
L 603 4863 
z
" id="DejaVuSans-69" transform="scale(0.015625)"/>
       <path d="M 2059 -325 
Q 1816 -950 1584 -1140 
Q 1353 -1331 966 -1331 
L 506 -1331 
L 506 -850 
L 844 -850 
Q 1081 -850 1212 -737 
Q 1344 -625 1503 -206 
L 1606 56 
L 191 3500 
L 800 3500 
L 1894 763 
L 2988 3500 
L 3597 3500 
L 2059 -325 
z
" id="DejaVuSans-79" transform="scale(0.015625)"/>
      </defs>
      <use xlink:href="#DejaVuSans-44"/>
      <use x="77.001953" xlink:href="#DejaVuSans-65"/>
      <use x="138.525391" xlink:href="#DejaVuSans-6e"/>
      <use x="201.904297" xlink:href="#DejaVuSans-73"/>
      <use x="254.003906" xlink:href="#DejaVuSans-69"/>
      <use x="281.787109" xlink:href="#DejaVuSans-74"/>
      <use x="320.996094" xlink:href="#DejaVuSans-79"/>
     </g>
    </g>
   </g>
   <g id="patch_3">
    <path d="M 229.175 1617.2 
L 229.175 10.8 
" style="fill:none;stroke:#000000;stroke-linecap:square;stroke-linejoin:miter;stroke-width:0.8;"/>
   </g>
   <g id="patch_4">
    <path d="M 2509.2 1617.2 
L 2509.2 10.8 
" style="fill:none;stroke:#000000;stroke-linecap:square;stroke-linejoin:miter;stroke-width:0.8;"/>
   </g>
   <g id="patch_5">
    <path d="M 229.175 1617.2 
L 2509.2 1617.2 
" style="fill:none;stroke:#000000;stroke-linecap:square;stroke-linejoin:miter;stroke-width:0.8;"/>
   </g>
   <g id="patch_6">
    <path d="M 229.175 10.8 
L 2509.2 10.8 
" style="fill:none;stroke:#000000;stroke-linecap:square;stroke-linejoin:miter;stroke-width:0.8;"/>
   </g>
   <g id="legend_1">
    <g id="patch_7">
     <path d="M 1976.711719 290.971875 
L 2456.7 290.971875 
Q 2471.7 290.971875 2471.7 275.971875 
L 2471.7 63.3 
Q 2471.7 48.3 2456.7 48.3 
L 1976.711719 48.3 
Q 1961.711719 48.3 1961.711719 63.3 
L 1961.711719 275.971875 
Q 1961.711719 290.971875 1976.711719 290.971875 
z
" style="fill:#ffffff;opacity:0.8;stroke:#cccccc;stroke-linejoin:miter;"/>
    </g>
    <g id="patch_8">
     <path d="M 1991.711719 135.288281 
L 2141.711719 135.288281 
L 2141.711719 82.788281 
L 1991.711719 82.788281 
z
" style="fill:#ff0000;fill-opacity:0.25;stroke:#ff0000;stroke-linejoin:miter;stroke-width:5;"/>
    </g>
    <g id="text_13">
     <!-- BEST2 -->
     <g transform="translate(2201.711719 135.288281)scale(0.75 -0.75)">
      <defs>
       <path d="M 1259 2228 
L 1259 519 
L 2272 519 
Q 2781 519 3026 730 
Q 3272 941 3272 1375 
Q 3272 1813 3026 2020 
Q 2781 2228 2272 2228 
L 1259 2228 
z
M 1259 4147 
L 1259 2741 
L 2194 2741 
Q 2656 2741 2882 2914 
Q 3109 3088 3109 3444 
Q 3109 3797 2882 3972 
Q 2656 4147 2194 4147 
L 1259 4147 
z
M 628 4666 
L 2241 4666 
Q 2963 4666 3353 4366 
Q 3744 4066 3744 3513 
Q 3744 3084 3544 2831 
Q 3344 2578 2956 2516 
Q 3422 2416 3680 2098 
Q 3938 1781 3938 1306 
Q 3938 681 3513 340 
Q 3088 0 2303 0 
L 628 0 
L 628 4666 
z
" id="DejaVuSans-42" transform="scale(0.015625)"/>
       <path d="M 628 4666 
L 3578 4666 
L 3578 4134 
L 1259 4134 
L 1259 2753 
L 3481 2753 
L 3481 2222 
L 1259 2222 
L 1259 531 
L 3634 531 
L 3634 0 
L 628 0 
L 628 4666 
z
" id="DejaVuSans-45" transform="scale(0.015625)"/>
       <path d="M 3425 4513 
L 3425 3897 
Q 3066 4069 2747 4153 
Q 2428 4238 2131 4238 
Q 1616 4238 1336 4038 
Q 1056 3838 1056 3469 
Q 1056 3159 1242 3001 
Q 1428 2844 1947 2747 
L 2328 2669 
Q 3034 2534 3370 2195 
Q 3706 1856 3706 1288 
Q 3706 609 3251 259 
Q 2797 -91 1919 -91 
Q 1588 -91 1214 -16 
Q 841 59 441 206 
L 441 856 
Q 825 641 1194 531 
Q 1563 422 1919 422 
Q 2459 422 2753 634 
Q 3047 847 3047 1241 
Q 3047 1584 2836 1778 
Q 2625 1972 2144 2069 
L 1759 2144 
Q 1053 2284 737 2584 
Q 422 2884 422 3419 
Q 422 4038 858 4394 
Q 1294 4750 2059 4750 
Q 2388 4750 2728 4690 
Q 3069 4631 3425 4513 
z
" id="DejaVuSans-53" transform="scale(0.015625)"/>
       <path d="M -19 4666 
L 3928 4666 
L 3928 4134 
L 2272 4134 
L 2272 0 
L 1638 0 
L 1638 4134 
L -19 4134 
L -19 4666 
z
" id="DejaVuSans-54" transform="scale(0.015625)"/>
      </defs>
      <use xlink:href="#DejaVuSans-42"/>
      <use x="68.603516" xlink:href="#DejaVuSans-45"/>
      <use x="131.787109" xlink:href="#DejaVuSans-53"/>
      <use x="195.263672" xlink:href="#DejaVuSans-54"/>
      <use x="256.347656" xlink:href="#DejaVuSans-32"/>
     </g>
    </g>
    <g id="patch_9">
     <path d="M 1991.711719 245.374219 
L 2141.711719 245.374219 
L 2141.711719 192.874219 
L 1991.711719 192.874219 
z
" style="fill:#0000ff;fill-opacity:0.25;stroke:#0000ff;stroke-linejoin:miter;stroke-width:5;"/>
    </g>
    <g id="text_14">
     <!-- BEST3 -->
     <g transform="translate(2201.711719 245.374219)scale(0.75 -0.75)">
      <use xlink:href="#DejaVuSans-42"/>
      <use x="68.603516" xlink:href="#DejaVuSans-45"/>
      <use x="131.787109" xlink:href="#DejaVuSans-53"/>
      <use x="195.263672" xlink:href="#DejaVuSans-54"/>
      <use x="256.347656" xlink:href="#DejaVuSans-33"/>
     </g>
    </g>
   </g>
  </g>
 </g>
 <defs>
  <clipPath id="p2884ac84e7">
   <rect height="1606.4" width="2280.025" x="229.175" y="10.8"/>
  </clipPath>
 </defs>
</svg>
