<?xml version="1.0" encoding="utf-8" standalone="no"?>
<!DOCTYPE svg PUBLIC "-//W3C//DTD SVG 1.1//EN"
  "http://www.w3.org/Graphics/SVG/1.1/DTD/svg11.dtd">
<svg height="1800pt" version="1.1" viewBox="0 0 2520 1800" width="2520pt" xmlns="http://www.w3.org/2000/svg" xmlns:xlink="http://www.w3.org/1999/xlink">
 <metadata>
  <rdf:RDF xmlns:cc="http://creativecommons.org/ns#" xmlns:dc="http://purl.org/dc/elements/1.1/" xmlns:rdf="http://www.w3.org/1999/02/22-rdf-syntax-ns#">
   <cc:Work>
    <dc:type rdf:resource="http://purl.org/dc/dcmitype/StillImage"/>
    <dc:date>2022-01-20T05:57:52.548497</dc:date>
    <dc:format>image/svg+xml</dc:format>
    <dc:creator>
     <cc:Agent>
      <dc:title>Matplotlib v3.4.2, https://matplotlib.org/</dc:title>
     </cc:Agent>
    </dc:creator>
   </cc:Work>
  </rdf:RDF>
 </metadata>
 <defs>
  <style type="text/css">*{stroke-linecap:butt;stroke-linejoin:round;}</style>
 </defs>
 <g id="figure_1">
  <g id="patch_1">
   <path d="M 0 1800 
L 2520 1800 
L 2520 0 
L 0 0 
z
" style="fill:none;"/>
  </g>
  <g id="axes_1">
   <g id="patch_2">
    <path d="M 276.925 1617.2 
L 2509.2 1617.2 
L 2509.2 10.8 
L 276.925 10.8 
z
" style="fill:#ffffff;"/>
   </g>
   <g id="PolyCollection_1">
    <defs>
     <path d="M 378.392045 -187.476132 
L 378.392045 -182.8 
L 388.589738 -182.8 
L 398.787431 -182.8 
L 408.985124 -182.8 
L 419.182817 -182.8 
L 429.380511 -182.8 
L 439.578204 -182.8 
L 449.775897 -182.8 
L 459.97359 -182.8 
L 470.171283 -182.8 
L 480.368976 -182.8 
L 490.566669 -182.8 
L 500.764362 -182.8 
L 510.962055 -182.8 
L 521.159748 -182.8 
L 531.357441 -182.8 
L 541.555134 -182.8 
L 551.752827 -182.8 
L 561.95052 -182.8 
L 572.148213 -182.8 
L 582.345906 -182.8 
L 592.543599 -182.8 
L 602.741292 -182.8 
L 612.938985 -182.8 
L 623.136678 -182.8 
L 633.334371 -182.8 
L 643.532064 -182.8 
L 653.729757 -182.8 
L 663.92745 -182.8 
L 674.125143 -182.8 
L 684.322836 -182.8 
L 694.520529 -182.8 
L 704.718222 -182.8 
L 714.915915 -182.8 
L 725.113608 -182.8 
L 735.311301 -182.8 
L 745.508994 -182.8 
L 755.706687 -182.8 
L 765.90438 -182.8 
L 776.102073 -182.8 
L 786.299766 -182.8 
L 796.497459 -182.8 
L 806.695152 -182.8 
L 816.892845 -182.8 
L 827.090538 -182.8 
L 837.288231 -182.8 
L 847.485924 -182.8 
L 857.683617 -182.8 
L 867.88131 -182.8 
L 878.079003 -182.8 
L 888.276696 -182.8 
L 898.474389 -182.8 
L 908.672082 -182.8 
L 918.869775 -182.8 
L 929.067468 -182.8 
L 939.265161 -182.8 
L 949.462854 -182.8 
L 959.660547 -182.8 
L 969.85824 -182.8 
L 980.055933 -182.8 
L 990.253626 -182.8 
L 1000.451319 -182.8 
L 1010.649012 -182.8 
L 1020.846705 -182.8 
L 1031.044398 -182.8 
L 1041.242091 -182.8 
L 1051.439784 -182.8 
L 1061.637477 -182.8 
L 1071.83517 -182.8 
L 1082.032863 -182.8 
L 1092.230556 -182.8 
L 1102.428249 -182.8 
L 1112.625942 -182.8 
L 1122.823635 -182.8 
L 1133.021328 -182.8 
L 1143.219021 -182.8 
L 1153.416714 -182.8 
L 1163.614407 -182.8 
L 1173.8121 -182.8 
L 1184.009793 -182.8 
L 1194.207486 -182.8 
L 1204.405179 -182.8 
L 1214.602872 -182.8 
L 1224.800565 -182.8 
L 1234.998258 -182.8 
L 1245.195951 -182.8 
L 1255.393644 -182.8 
L 1265.591337 -182.8 
L 1275.78903 -182.8 
L 1285.986723 -182.8 
L 1296.184416 -182.8 
L 1306.382109 -182.8 
L 1316.579802 -182.8 
L 1326.777495 -182.8 
L 1336.975188 -182.8 
L 1347.172881 -182.8 
L 1357.370574 -182.8 
L 1367.568267 -182.8 
L 1377.76596 -182.8 
L 1387.963653 -182.8 
L 1398.161347 -182.8 
L 1408.35904 -182.8 
L 1418.556733 -182.8 
L 1428.754426 -182.8 
L 1438.952119 -182.8 
L 1449.149812 -182.8 
L 1459.347505 -182.8 
L 1469.545198 -182.8 
L 1479.742891 -182.8 
L 1489.940584 -182.8 
L 1500.138277 -182.8 
L 1510.33597 -182.8 
L 1520.533663 -182.8 
L 1530.731356 -182.8 
L 1540.929049 -182.8 
L 1551.126742 -182.8 
L 1561.324435 -182.8 
L 1571.522128 -182.8 
L 1581.719821 -182.8 
L 1591.917514 -182.8 
L 1602.115207 -182.8 
L 1612.3129 -182.8 
L 1622.510593 -182.8 
L 1632.708286 -182.8 
L 1642.905979 -182.8 
L 1653.103672 -182.8 
L 1663.301365 -182.8 
L 1673.499058 -182.8 
L 1683.696751 -182.8 
L 1693.894444 -182.8 
L 1704.092137 -182.8 
L 1714.28983 -182.8 
L 1724.487523 -182.8 
L 1734.685216 -182.8 
L 1744.882909 -182.8 
L 1755.080602 -182.8 
L 1765.278295 -182.8 
L 1775.475988 -182.8 
L 1785.673681 -182.8 
L 1795.871374 -182.8 
L 1806.069067 -182.8 
L 1816.26676 -182.8 
L 1826.464453 -182.8 
L 1836.662146 -182.8 
L 1846.859839 -182.8 
L 1857.057532 -182.8 
L 1867.255225 -182.8 
L 1877.452918 -182.8 
L 1887.650611 -182.8 
L 1897.848304 -182.8 
L 1908.045997 -182.8 
L 1918.24369 -182.8 
L 1928.441383 -182.8 
L 1938.639076 -182.8 
L 1948.836769 -182.8 
L 1959.034462 -182.8 
L 1969.232155 -182.8 
L 1979.429848 -182.8 
L 1989.627541 -182.8 
L 1999.825234 -182.8 
L 2010.022927 -182.8 
L 2020.22062 -182.8 
L 2030.418313 -182.8 
L 2040.616006 -182.8 
L 2050.813699 -182.8 
L 2061.011392 -182.8 
L 2071.209085 -182.8 
L 2081.406778 -182.8 
L 2091.604471 -182.8 
L 2101.802164 -182.8 
L 2111.999857 -182.8 
L 2122.19755 -182.8 
L 2132.395243 -182.8 
L 2142.592936 -182.8 
L 2152.790629 -182.8 
L 2162.988322 -182.8 
L 2173.186015 -182.8 
L 2183.383708 -182.8 
L 2193.581401 -182.8 
L 2203.779094 -182.8 
L 2213.976787 -182.8 
L 2224.17448 -182.8 
L 2234.372173 -182.8 
L 2244.569866 -182.8 
L 2254.767559 -182.8 
L 2264.965252 -182.8 
L 2275.162945 -182.8 
L 2285.360638 -182.8 
L 2295.558331 -182.8 
L 2305.756024 -182.8 
L 2315.953717 -182.8 
L 2326.15141 -182.8 
L 2336.349103 -182.8 
L 2346.546796 -182.8 
L 2356.744489 -182.8 
L 2366.942183 -182.8 
L 2377.139876 -182.8 
L 2387.337569 -182.8 
L 2397.535262 -182.8 
L 2407.732955 -182.8 
L 2407.732955 -182.850637 
L 2407.732955 -182.850637 
L 2397.535262 -182.871612 
L 2387.337569 -182.899982 
L 2377.139876 -182.937816 
L 2366.942183 -182.987565 
L 2356.744489 -183.052061 
L 2346.546796 -183.134503 
L 2336.349103 -183.238402 
L 2326.15141 -183.367501 
L 2315.953717 -183.525653 
L 2305.756024 -183.716672 
L 2295.558331 -183.944138 
L 2285.360638 -184.211194 
L 2275.162945 -184.520326 
L 2264.965252 -184.873141 
L 2254.767559 -185.270178 
L 2244.569866 -185.710754 
L 2234.372173 -186.192871 
L 2224.17448 -186.713196 
L 2213.976787 -187.267133 
L 2203.779094 -187.84897 
L 2193.581401 -188.452123 
L 2183.383708 -189.069446 
L 2173.186015 -189.693584 
L 2162.988322 -190.31737 
L 2152.790629 -190.934195 
L 2142.592936 -191.538357 
L 2132.395243 -192.125334 
L 2122.19755 -192.691968 
L 2111.999857 -193.236541 
L 2101.802164 -193.758728 
L 2091.604471 -194.259435 
L 2081.406778 -194.74053 
L 2071.209085 -195.204496 
L 2061.011392 -195.654025 
L 2050.813699 -196.091604 
L 2040.616006 -196.51912 
L 2030.418313 -196.937536 
L 2020.22062 -197.34667 
L 2010.022927 -197.745106 
L 1999.825234 -198.130257 
L 1989.627541 -198.498592 
L 1979.429848 -198.846015 
L 1969.232155 -199.168382 
L 1959.034462 -199.462106 
L 1948.836769 -199.72482 
L 1938.639076 -199.95604 
L 1928.441383 -200.157754 
L 1918.24369 -200.334903 
L 1908.045997 -200.495693 
L 1897.848304 -200.651693 
L 1887.650611 -200.817715 
L 1877.452918 -201.01145 
L 1867.255225 -201.252895 
L 1857.057532 -201.563601 
L 1846.859839 -201.965777 
L 1836.662146 -202.48135 
L 1826.464453 -203.131015 
L 1816.26676 -203.933385 
L 1806.069067 -204.904285 
L 1795.871374 -206.056265 
L 1785.673681 -207.39836 
L 1775.475988 -208.936131 
L 1765.278295 -210.67195 
L 1755.080602 -212.605521 
L 1744.882909 -214.734553 
L 1734.685216 -217.055523 
L 1724.487523 -219.564416 
L 1714.28983 -222.257377 
L 1704.092137 -225.131165 
L 1693.894444 -228.183374 
L 1683.696751 -231.41239 
L 1673.499058 -234.817075 
L 1663.301365 -238.396261 
L 1653.103672 -242.14809 
L 1642.905979 -246.069343 
L 1632.708286 -250.154835 
L 1622.510593 -254.397009 
L 1612.3129 -258.785784 
L 1602.115207 -263.308719 
L 1591.917514 -267.951497 
L 1581.719821 -272.69867 
L 1571.522128 -277.534603 
L 1561.324435 -282.444493 
L 1551.126742 -287.415348 
L 1540.929049 -292.436815 
L 1530.731356 -297.501755 
L 1520.533663 -302.606526 
L 1510.33597 -307.750955 
L 1500.138277 -312.938039 
L 1489.940584 -318.17344 
L 1479.742891 -323.464866 
L 1469.545198 -328.821427 
L 1459.347505 -334.253045 
L 1449.149812 -339.769971 
L 1438.952119 -345.382395 
L 1428.754426 -351.100144 
L 1418.556733 -356.932387 
L 1408.35904 -362.887277 
L 1398.161347 -368.971448 
L 1387.963653 -375.189338 
L 1377.76596 -381.542313 
L 1367.568267 -388.02767 
L 1357.370574 -394.637608 
L 1347.172881 -401.358346 
L 1336.975188 -408.169563 
L 1326.777495 -415.044345 
L 1316.579802 -421.949805 
L 1306.382109 -428.848454 
L 1296.184416 -435.700339 
L 1285.986723 -442.465859 
L 1275.78903 -449.109057 
L 1265.591337 -455.601138 
L 1255.393644 -461.923877 
L 1245.195951 -468.072577 
L 1234.998258 -474.058269 
L 1224.800565 -479.908881 
L 1214.602872 -485.669233 
L 1204.405179 -491.399776 
L 1194.207486 -497.174161 
L 1184.009793 -503.075791 
L 1173.8121 -509.193601 
L 1163.614407 -515.617392 
L 1153.416714 -522.43302 
L 1143.219021 -529.717768 
L 1133.021328 -537.53615 
L 1122.823635 -545.936367 
L 1112.625942 -554.947524 
L 1102.428249 -564.577663 
L 1092.230556 -574.812599 
L 1082.032863 -585.615472 
L 1071.83517 -596.926935 
L 1061.637477 -608.665835 
L 1051.439784 -620.730317 
L 1041.242091 -632.999256 
L 1031.044398 -645.333998 
L 1020.846705 -657.580426 
L 1010.649012 -669.571418 
L 1000.451319 -681.129805 
L 990.253626 -692.071953 
L 980.055933 -702.212116 
L 969.85824 -711.367663 
L 959.660547 -719.365239 
L 949.462854 -726.047843 
L 939.265161 -731.282702 
L 929.067468 -734.969677 
L 918.869775 -737.049812 
L 908.672082 -737.513508 
L 898.474389 -736.407662 
L 888.276696 -733.841045 
L 878.079003 -729.98714 
L 867.88131 -725.083688 
L 857.683617 -719.428288 
L 847.485924 -713.369572 
L 837.288231 -707.293723 
L 827.090538 -701.606465 
L 816.892845 -696.711 
L 806.695152 -692.982831 
L 796.497459 -690.742814 
L 786.299766 -690.230154 
L 776.102073 -691.577389 
L 765.90438 -694.789524 
L 755.706687 -699.729493 
L 745.508994 -706.111875 
L 735.311301 -713.506349 
L 725.113608 -721.351717 
L 714.915915 -728.980472 
L 704.718222 -735.652964 
L 694.520529 -740.599263 
L 684.322836 -743.065951 
L 674.125143 -742.364429 
L 663.92745 -737.916954 
L 653.729757 -729.296638 
L 643.532064 -716.257995 
L 633.334371 -698.755422 
L 623.136678 -676.948003 
L 612.938985 -651.190264 
L 602.741292 -622.009802 
L 592.543599 -590.073842 
L 582.345906 -556.147733 
L 572.148213 -521.048998 
L 561.95052 -485.600749 
L 551.752827 -450.588096 
L 541.555134 -416.720644 
L 531.357441 -384.603368 
L 521.159748 -354.717179 
L 510.962055 -327.409554 
L 500.764362 -302.89463 
L 490.566669 -281.261479 
L 480.368976 -262.488743 
L 470.171283 -246.463554 
L 459.97359 -233.00265 
L 449.775897 -221.873792 
L 439.578204 -212.815891 
L 429.380511 -205.556699 
L 419.182817 -199.827343 
L 408.985124 -195.373404 
L 398.787431 -191.962569 
L 388.589738 -189.389177 
L 378.392045 -187.476132 
z
" id="mfa9a445c03" style="stroke:#ff0000;stroke-width:5;"/>
    </defs>
    <g clip-path="url(#p22038ba2a4)">
     <use style="fill:#ff0000;fill-opacity:0.25;stroke:#ff0000;stroke-width:5;" x="0" xlink:href="#mfa9a445c03" y="1800"/>
    </g>
   </g>
   <g id="PolyCollection_2">
    <defs>
     <path d="M 455.828186 -195.881031 
L 455.828186 -182.8 
L 462.984139 -182.8 
L 470.140092 -182.8 
L 477.296045 -182.8 
L 484.451998 -182.8 
L 491.607951 -182.8 
L 498.763904 -182.8 
L 505.919858 -182.8 
L 513.075811 -182.8 
L 520.231764 -182.8 
L 527.387717 -182.8 
L 534.54367 -182.8 
L 541.699623 -182.8 
L 548.855577 -182.8 
L 556.01153 -182.8 
L 563.167483 -182.8 
L 570.323436 -182.8 
L 577.479389 -182.8 
L 584.635342 -182.8 
L 591.791295 -182.8 
L 598.947249 -182.8 
L 606.103202 -182.8 
L 613.259155 -182.8 
L 620.415108 -182.8 
L 627.571061 -182.8 
L 634.727014 -182.8 
L 641.882968 -182.8 
L 649.038921 -182.8 
L 656.194874 -182.8 
L 663.350827 -182.8 
L 670.50678 -182.8 
L 677.662733 -182.8 
L 684.818686 -182.8 
L 691.97464 -182.8 
L 699.130593 -182.8 
L 706.286546 -182.8 
L 713.442499 -182.8 
L 720.598452 -182.8 
L 727.754405 -182.8 
L 734.910359 -182.8 
L 742.066312 -182.8 
L 749.222265 -182.8 
L 756.378218 -182.8 
L 763.534171 -182.8 
L 770.690124 -182.8 
L 777.846077 -182.8 
L 785.002031 -182.8 
L 792.157984 -182.8 
L 799.313937 -182.8 
L 806.46989 -182.8 
L 813.625843 -182.8 
L 820.781796 -182.8 
L 827.93775 -182.8 
L 835.093703 -182.8 
L 842.249656 -182.8 
L 849.405609 -182.8 
L 856.561562 -182.8 
L 863.717515 -182.8 
L 870.873468 -182.8 
L 878.029422 -182.8 
L 885.185375 -182.8 
L 892.341328 -182.8 
L 899.497281 -182.8 
L 906.653234 -182.8 
L 913.809187 -182.8 
L 920.965141 -182.8 
L 928.121094 -182.8 
L 935.277047 -182.8 
L 942.433 -182.8 
L 949.588953 -182.8 
L 956.744906 -182.8 
L 963.900859 -182.8 
L 971.056813 -182.8 
L 978.212766 -182.8 
L 985.368719 -182.8 
L 992.524672 -182.8 
L 999.680625 -182.8 
L 1006.836578 -182.8 
L 1013.992532 -182.8 
L 1021.148485 -182.8 
L 1028.304438 -182.8 
L 1035.460391 -182.8 
L 1042.616344 -182.8 
L 1049.772297 -182.8 
L 1056.92825 -182.8 
L 1064.084204 -182.8 
L 1071.240157 -182.8 
L 1078.39611 -182.8 
L 1085.552063 -182.8 
L 1092.708016 -182.8 
L 1099.863969 -182.8 
L 1107.019923 -182.8 
L 1114.175876 -182.8 
L 1121.331829 -182.8 
L 1128.487782 -182.8 
L 1135.643735 -182.8 
L 1142.799688 -182.8 
L 1149.955641 -182.8 
L 1157.111595 -182.8 
L 1164.267548 -182.8 
L 1171.423501 -182.8 
L 1178.579454 -182.8 
L 1185.735407 -182.8 
L 1192.89136 -182.8 
L 1200.047314 -182.8 
L 1207.203267 -182.8 
L 1214.35922 -182.8 
L 1221.515173 -182.8 
L 1228.671126 -182.8 
L 1235.827079 -182.8 
L 1242.983032 -182.8 
L 1250.138986 -182.8 
L 1257.294939 -182.8 
L 1264.450892 -182.8 
L 1271.606845 -182.8 
L 1278.762798 -182.8 
L 1285.918751 -182.8 
L 1293.074705 -182.8 
L 1300.230658 -182.8 
L 1307.386611 -182.8 
L 1314.542564 -182.8 
L 1321.698517 -182.8 
L 1328.85447 -182.8 
L 1336.010423 -182.8 
L 1343.166377 -182.8 
L 1350.32233 -182.8 
L 1357.478283 -182.8 
L 1364.634236 -182.8 
L 1371.790189 -182.8 
L 1378.946142 -182.8 
L 1386.102095 -182.8 
L 1393.258049 -182.8 
L 1400.414002 -182.8 
L 1407.569955 -182.8 
L 1414.725908 -182.8 
L 1421.881861 -182.8 
L 1429.037814 -182.8 
L 1436.193768 -182.8 
L 1443.349721 -182.8 
L 1450.505674 -182.8 
L 1457.661627 -182.8 
L 1464.81758 -182.8 
L 1471.973533 -182.8 
L 1479.129486 -182.8 
L 1486.28544 -182.8 
L 1493.441393 -182.8 
L 1500.597346 -182.8 
L 1507.753299 -182.8 
L 1514.909252 -182.8 
L 1522.065205 -182.8 
L 1529.221159 -182.8 
L 1536.377112 -182.8 
L 1543.533065 -182.8 
L 1550.689018 -182.8 
L 1557.844971 -182.8 
L 1565.000924 -182.8 
L 1572.156877 -182.8 
L 1579.312831 -182.8 
L 1586.468784 -182.8 
L 1593.624737 -182.8 
L 1600.78069 -182.8 
L 1607.936643 -182.8 
L 1615.092596 -182.8 
L 1622.24855 -182.8 
L 1629.404503 -182.8 
L 1636.560456 -182.8 
L 1643.716409 -182.8 
L 1650.872362 -182.8 
L 1658.028315 -182.8 
L 1665.184268 -182.8 
L 1672.340222 -182.8 
L 1679.496175 -182.8 
L 1686.652128 -182.8 
L 1693.808081 -182.8 
L 1700.964034 -182.8 
L 1708.119987 -182.8 
L 1715.275941 -182.8 
L 1722.431894 -182.8 
L 1729.587847 -182.8 
L 1736.7438 -182.8 
L 1743.899753 -182.8 
L 1751.055706 -182.8 
L 1758.211659 -182.8 
L 1765.367613 -182.8 
L 1772.523566 -182.8 
L 1779.679519 -182.8 
L 1786.835472 -182.8 
L 1793.991425 -182.8 
L 1801.147378 -182.8 
L 1808.303332 -182.8 
L 1815.459285 -182.8 
L 1822.615238 -182.8 
L 1829.771191 -182.8 
L 1836.927144 -182.8 
L 1844.083097 -182.8 
L 1851.23905 -182.8 
L 1858.395004 -182.8 
L 1865.550957 -182.8 
L 1872.70691 -182.8 
L 1879.862863 -182.8 
L 1879.862863 -182.983075 
L 1879.862863 -182.983075 
L 1872.70691 -183.056873 
L 1865.550957 -183.155674 
L 1858.395004 -183.285996 
L 1851.23905 -183.455329 
L 1844.083097 -183.672032 
L 1836.927144 -183.945122 
L 1829.771191 -184.283943 
L 1822.615238 -184.697706 
L 1815.459285 -185.194897 
L 1808.303332 -185.782572 
L 1801.147378 -186.465568 
L 1793.991425 -187.245676 
L 1786.835472 -188.120845 
L 1779.679519 -189.084484 
L 1772.523566 -190.124953 
L 1765.367613 -191.225318 
L 1758.211659 -192.363437 
L 1751.055706 -193.512429 
L 1743.899753 -194.641538 
L 1736.7438 -195.717382 
L 1729.587847 -196.705516 
L 1722.431894 -197.572227 
L 1715.275941 -198.28642 
L 1708.119987 -198.821469 
L 1700.964034 -199.156857 
L 1693.808081 -199.279485 
L 1686.652128 -199.184516 
L 1679.496175 -198.875698 
L 1672.340222 -198.365114 
L 1665.184268 -197.672399 
L 1658.028315 -196.823487 
L 1650.872362 -195.849002 
L 1643.716409 -194.782433 
L 1636.560456 -193.658235 
L 1629.404503 -192.510026 
L 1622.24855 -191.368979 
L 1615.092596 -190.26254 
L 1607.936643 -189.21351 
L 1600.78069 -188.239536 
L 1593.624737 -187.352978 
L 1586.468784 -186.561132 
L 1579.312831 -185.86672 
L 1572.156877 -185.268589 
L 1565.000924 -184.762531 
L 1557.844971 -184.342142 
L 1550.689018 -183.99967 
L 1543.533065 -183.726801 
L 1536.377112 -183.515342 
L 1529.221159 -183.357799 
L 1522.065205 -183.247842 
L 1514.909252 -183.180665 
L 1507.753299 -183.153257 
L 1500.597346 -183.164591 
L 1493.441393 -183.21576 
L 1486.28544 -183.310053 
L 1479.129486 -183.452987 
L 1471.973533 -183.652291 
L 1464.81758 -183.917833 
L 1457.661627 -184.261497 
L 1450.505674 -184.696973 
L 1443.349721 -185.239493 
L 1436.193768 -185.905473 
L 1429.037814 -186.712092 
L 1421.881861 -187.676804 
L 1414.725908 -188.816806 
L 1407.569955 -190.148486 
L 1400.414002 -191.686861 
L 1393.258049 -193.445039 
L 1386.102095 -195.433724 
L 1378.946142 -197.66076 
L 1371.790189 -200.130726 
L 1364.634236 -202.844581 
L 1357.478283 -205.799337 
L 1350.32233 -208.987772 
L 1343.166377 -212.398163 
L 1336.010423 -216.014066 
L 1328.85447 -219.814158 
L 1321.698517 -223.772189 
L 1314.542564 -227.857091 
L 1307.386611 -232.033304 
L 1300.230658 -236.261367 
L 1293.074705 -240.498799 
L 1285.918751 -244.701299 
L 1278.762798 -248.824204 
L 1271.606845 -252.824167 
L 1264.450892 -256.660956 
L 1257.294939 -260.299243 
L 1250.138986 -263.710288 
L 1242.983032 -266.873381 
L 1235.827079 -269.776984 
L 1228.671126 -272.41949 
L 1221.515173 -274.809615 
L 1214.35922 -276.966431 
L 1207.203267 -278.919096 
L 1200.047314 -280.706339 
L 1192.89136 -282.375751 
L 1185.735407 -283.982926 
L 1178.579454 -285.59046 
L 1171.423501 -287.26677 
L 1164.267548 -289.084702 
L 1157.111595 -291.11985 
L 1149.955641 -293.448535 
L 1142.799688 -296.145406 
L 1135.643735 -299.280673 
L 1128.487782 -302.91703 
L 1121.331829 -307.106418 
L 1114.175876 -311.886812 
L 1107.019923 -317.279284 
L 1099.863969 -323.285649 
L 1092.708016 -329.886969 
L 1085.552063 -337.04319 
L 1078.39611 -344.694109 
L 1071.240157 -352.761772 
L 1064.084204 -361.154283 
L 1056.92825 -369.770838 
L 1049.772297 -378.507709 
L 1042.616344 -387.26472 
L 1035.460391 -395.95174 
L 1028.304438 -404.494637 
L 1021.148485 -412.840176 
L 1013.992532 -420.959437 
L 1006.836578 -428.849438 
L 999.680625 -436.532821 
L 992.524672 -444.055647 
L 985.368719 -451.483502 
L 978.212766 -458.896287 
L 971.056813 -466.382188 
L 963.900859 -474.031365 
L 956.744906 -481.92997 
L 949.588953 -490.155025 
L 942.433 -498.77067 
L 935.277047 -507.82616 
L 928.121094 -517.355846 
L 920.965141 -527.381246 
L 913.809187 -537.915103 
L 906.653234 -548.967184 
L 899.497281 -560.551399 
L 892.341328 -572.693666 
L 885.185375 -585.439877 
L 878.029422 -598.863251 
L 870.873468 -613.070366 
L 863.717515 -628.20525 
L 856.561562 -644.45102 
L 849.405609 -662.028741 
L 842.249656 -681.193366 
L 835.093703 -702.226819 
L 827.93775 -725.428474 
L 820.781796 -751.103408 
L 813.625843 -779.548933 
L 806.46989 -811.039902 
L 799.313937 -845.813293 
L 792.157984 -884.052483 
L 785.002031 -925.871507 
L 777.846077 -971.299507 
L 770.690124 -1020.265483 
L 763.534171 -1072.583439 
L 756.378218 -1127.938115 
L 749.222265 -1185.871692 
L 742.066312 -1245.772172 
L 734.910359 -1306.864554 
L 727.754405 -1368.206368 
L 720.598452 -1428.689494 
L 713.442499 -1487.050426 
L 706.286546 -1541.891076 
L 699.130593 -1591.711774 
L 691.97464 -1634.957335 
L 684.818686 -1670.075792 
L 677.662733 -1695.587973 
L 670.50678 -1710.164427 
L 663.350827 -1712.704762 
L 656.194874 -1702.413261 
L 649.038921 -1678.864111 
L 641.882968 -1642.049714 
L 634.727014 -1592.406539 
L 627.571061 -1530.814656 
L 620.415108 -1458.569421 
L 613.259155 -1377.326317 
L 606.103202 -1289.022614 
L 598.947249 -1195.781685 
L 591.791295 -1099.807479 
L 584.635342 -1003.277405 
L 577.479389 -908.241808 
L 570.323436 -816.537224 
L 563.167483 -729.718947 
L 556.01153 -649.016342 
L 548.855577 -575.312015 
L 541.699623 -509.143806 
L 534.54367 -450.7267 
L 527.387717 -399.990449 
L 520.231764 -356.62795 
L 513.075811 -320.149275 
L 505.919858 -289.936627 
L 498.763904 -265.296255 
L 491.607951 -245.504326 
L 484.451998 -229.844878 
L 477.296045 -217.638967 
L 470.140092 -208.265047 
L 462.984139 -201.171293 
L 455.828186 -195.881031 
z
" id="m36b748ca1a" style="stroke:#0000ff;stroke-width:5;"/>
    </defs>
    <g clip-path="url(#p22038ba2a4)">
     <use style="fill:#0000ff;fill-opacity:0.25;stroke:#0000ff;stroke-width:5;" x="0" xlink:href="#m36b748ca1a" y="1800"/>
    </g>
   </g>
   <g id="matplotlib.axis_1">
    <g id="xtick_1">
     <g id="line2d_1">
      <defs>
       <path d="M 0 0 
L 0 3.5 
" id="m00b40ba78f" style="stroke:#000000;stroke-width:0.8;"/>
      </defs>
      <g>
       <use style="stroke:#000000;stroke-width:0.8;" x="642.339248" xlink:href="#m00b40ba78f" y="1617.2"/>
      </g>
     </g>
     <g id="text_1">
      <!-- 0 -->
      <g transform="translate(618.479873 1681.188281)scale(0.75 -0.75)">
       <defs>
        <path d="M 2034 4250 
Q 1547 4250 1301 3770 
Q 1056 3291 1056 2328 
Q 1056 1369 1301 889 
Q 1547 409 2034 409 
Q 2525 409 2770 889 
Q 3016 1369 3016 2328 
Q 3016 3291 2770 3770 
Q 2525 4250 2034 4250 
z
M 2034 4750 
Q 2819 4750 3233 4129 
Q 3647 3509 3647 2328 
Q 3647 1150 3233 529 
Q 2819 -91 2034 -91 
Q 1250 -91 836 529 
Q 422 1150 422 2328 
Q 422 3509 836 4129 
Q 1250 4750 2034 4750 
z
" id="DejaVuSans-30" transform="scale(0.015625)"/>
       </defs>
       <use xlink:href="#DejaVuSans-30"/>
      </g>
     </g>
    </g>
    <g id="xtick_2">
     <g id="line2d_2">
      <g>
       <use style="stroke:#000000;stroke-width:0.8;" x="1017.700874" xlink:href="#m00b40ba78f" y="1617.2"/>
      </g>
     </g>
     <g id="text_2">
      <!-- 5 -->
      <g transform="translate(993.841499 1681.188281)scale(0.75 -0.75)">
       <defs>
        <path d="M 691 4666 
L 3169 4666 
L 3169 4134 
L 1269 4134 
L 1269 2991 
Q 1406 3038 1543 3061 
Q 1681 3084 1819 3084 
Q 2600 3084 3056 2656 
Q 3513 2228 3513 1497 
Q 3513 744 3044 326 
Q 2575 -91 1722 -91 
Q 1428 -91 1123 -41 
Q 819 9 494 109 
L 494 744 
Q 775 591 1075 516 
Q 1375 441 1709 441 
Q 2250 441 2565 725 
Q 2881 1009 2881 1497 
Q 2881 1984 2565 2268 
Q 2250 2553 1709 2553 
Q 1456 2553 1204 2497 
Q 953 2441 691 2322 
L 691 4666 
z
" id="DejaVuSans-35" transform="scale(0.015625)"/>
       </defs>
       <use xlink:href="#DejaVuSans-35"/>
      </g>
     </g>
    </g>
    <g id="xtick_3">
     <g id="line2d_3">
      <g>
       <use style="stroke:#000000;stroke-width:0.8;" x="1393.0625" xlink:href="#m00b40ba78f" y="1617.2"/>
      </g>
     </g>
     <g id="text_3">
      <!-- 10 -->
      <g transform="translate(1345.34375 1681.188281)scale(0.75 -0.75)">
       <defs>
        <path d="M 794 531 
L 1825 531 
L 1825 4091 
L 703 3866 
L 703 4441 
L 1819 4666 
L 2450 4666 
L 2450 531 
L 3481 531 
L 3481 0 
L 794 0 
L 794 531 
z
" id="DejaVuSans-31" transform="scale(0.015625)"/>
       </defs>
       <use xlink:href="#DejaVuSans-31"/>
       <use x="63.623047" xlink:href="#DejaVuSans-30"/>
      </g>
     </g>
    </g>
    <g id="xtick_4">
     <g id="line2d_4">
      <g>
       <use style="stroke:#000000;stroke-width:0.8;" x="1768.424126" xlink:href="#m00b40ba78f" y="1617.2"/>
      </g>
     </g>
     <g id="text_4">
      <!-- 15 -->
      <g transform="translate(1720.705376 1681.188281)scale(0.75 -0.75)">
       <use xlink:href="#DejaVuSans-31"/>
       <use x="63.623047" xlink:href="#DejaVuSans-35"/>
      </g>
     </g>
    </g>
    <g id="xtick_5">
     <g id="line2d_5">
      <g>
       <use style="stroke:#000000;stroke-width:0.8;" x="2143.785752" xlink:href="#m00b40ba78f" y="1617.2"/>
      </g>
     </g>
     <g id="text_5">
      <!-- 20 -->
      <g transform="translate(2096.067002 1681.188281)scale(0.75 -0.75)">
       <defs>
        <path d="M 1228 531 
L 3431 531 
L 3431 0 
L 469 0 
L 469 531 
Q 828 903 1448 1529 
Q 2069 2156 2228 2338 
Q 2531 2678 2651 2914 
Q 2772 3150 2772 3378 
Q 2772 3750 2511 3984 
Q 2250 4219 1831 4219 
Q 1534 4219 1204 4116 
Q 875 4013 500 3803 
L 500 4441 
Q 881 4594 1212 4672 
Q 1544 4750 1819 4750 
Q 2544 4750 2975 4387 
Q 3406 4025 3406 3419 
Q 3406 3131 3298 2873 
Q 3191 2616 2906 2266 
Q 2828 2175 2409 1742 
Q 1991 1309 1228 531 
z
" id="DejaVuSans-32" transform="scale(0.015625)"/>
       </defs>
       <use xlink:href="#DejaVuSans-32"/>
       <use x="63.623047" xlink:href="#DejaVuSans-30"/>
      </g>
     </g>
    </g>
    <g id="text_6">
     <!-- Prague M length (cm) -->
     <g transform="translate(907.00625 1769.171875)scale(0.9 -0.9)">
      <defs>
       <path d="M 1259 4147 
L 1259 2394 
L 2053 2394 
Q 2494 2394 2734 2622 
Q 2975 2850 2975 3272 
Q 2975 3691 2734 3919 
Q 2494 4147 2053 4147 
L 1259 4147 
z
M 628 4666 
L 2053 4666 
Q 2838 4666 3239 4311 
Q 3641 3956 3641 3272 
Q 3641 2581 3239 2228 
Q 2838 1875 2053 1875 
L 1259 1875 
L 1259 0 
L 628 0 
L 628 4666 
z
" id="DejaVuSans-50" transform="scale(0.015625)"/>
       <path d="M 2631 2963 
Q 2534 3019 2420 3045 
Q 2306 3072 2169 3072 
Q 1681 3072 1420 2755 
Q 1159 2438 1159 1844 
L 1159 0 
L 581 0 
L 581 3500 
L 1159 3500 
L 1159 2956 
Q 1341 3275 1631 3429 
Q 1922 3584 2338 3584 
Q 2397 3584 2469 3576 
Q 2541 3569 2628 3553 
L 2631 2963 
z
" id="DejaVuSans-72" transform="scale(0.015625)"/>
       <path d="M 2194 1759 
Q 1497 1759 1228 1600 
Q 959 1441 959 1056 
Q 959 750 1161 570 
Q 1363 391 1709 391 
Q 2188 391 2477 730 
Q 2766 1069 2766 1631 
L 2766 1759 
L 2194 1759 
z
M 3341 1997 
L 3341 0 
L 2766 0 
L 2766 531 
Q 2569 213 2275 61 
Q 1981 -91 1556 -91 
Q 1019 -91 701 211 
Q 384 513 384 1019 
Q 384 1609 779 1909 
Q 1175 2209 1959 2209 
L 2766 2209 
L 2766 2266 
Q 2766 2663 2505 2880 
Q 2244 3097 1772 3097 
Q 1472 3097 1187 3025 
Q 903 2953 641 2809 
L 641 3341 
Q 956 3463 1253 3523 
Q 1550 3584 1831 3584 
Q 2591 3584 2966 3190 
Q 3341 2797 3341 1997 
z
" id="DejaVuSans-61" transform="scale(0.015625)"/>
       <path d="M 2906 1791 
Q 2906 2416 2648 2759 
Q 2391 3103 1925 3103 
Q 1463 3103 1205 2759 
Q 947 2416 947 1791 
Q 947 1169 1205 825 
Q 1463 481 1925 481 
Q 2391 481 2648 825 
Q 2906 1169 2906 1791 
z
M 3481 434 
Q 3481 -459 3084 -895 
Q 2688 -1331 1869 -1331 
Q 1566 -1331 1297 -1286 
Q 1028 -1241 775 -1147 
L 775 -588 
Q 1028 -725 1275 -790 
Q 1522 -856 1778 -856 
Q 2344 -856 2625 -561 
Q 2906 -266 2906 331 
L 2906 616 
Q 2728 306 2450 153 
Q 2172 0 1784 0 
Q 1141 0 747 490 
Q 353 981 353 1791 
Q 353 2603 747 3093 
Q 1141 3584 1784 3584 
Q 2172 3584 2450 3431 
Q 2728 3278 2906 2969 
L 2906 3500 
L 3481 3500 
L 3481 434 
z
" id="DejaVuSans-67" transform="scale(0.015625)"/>
       <path d="M 544 1381 
L 544 3500 
L 1119 3500 
L 1119 1403 
Q 1119 906 1312 657 
Q 1506 409 1894 409 
Q 2359 409 2629 706 
Q 2900 1003 2900 1516 
L 2900 3500 
L 3475 3500 
L 3475 0 
L 2900 0 
L 2900 538 
Q 2691 219 2414 64 
Q 2138 -91 1772 -91 
Q 1169 -91 856 284 
Q 544 659 544 1381 
z
M 1991 3584 
L 1991 3584 
z
" id="DejaVuSans-75" transform="scale(0.015625)"/>
       <path d="M 3597 1894 
L 3597 1613 
L 953 1613 
Q 991 1019 1311 708 
Q 1631 397 2203 397 
Q 2534 397 2845 478 
Q 3156 559 3463 722 
L 3463 178 
Q 3153 47 2828 -22 
Q 2503 -91 2169 -91 
Q 1331 -91 842 396 
Q 353 884 353 1716 
Q 353 2575 817 3079 
Q 1281 3584 2069 3584 
Q 2775 3584 3186 3129 
Q 3597 2675 3597 1894 
z
M 3022 2063 
Q 3016 2534 2758 2815 
Q 2500 3097 2075 3097 
Q 1594 3097 1305 2825 
Q 1016 2553 972 2059 
L 3022 2063 
z
" id="DejaVuSans-65" transform="scale(0.015625)"/>
       <path id="DejaVuSans-20" transform="scale(0.015625)"/>
       <path d="M 628 4666 
L 1569 4666 
L 2759 1491 
L 3956 4666 
L 4897 4666 
L 4897 0 
L 4281 0 
L 4281 4097 
L 3078 897 
L 2444 897 
L 1241 4097 
L 1241 0 
L 628 0 
L 628 4666 
z
" id="DejaVuSans-4d" transform="scale(0.015625)"/>
       <path d="M 603 4863 
L 1178 4863 
L 1178 0 
L 603 0 
L 603 4863 
z
" id="DejaVuSans-6c" transform="scale(0.015625)"/>
       <path d="M 3513 2113 
L 3513 0 
L 2938 0 
L 2938 2094 
Q 2938 2591 2744 2837 
Q 2550 3084 2163 3084 
Q 1697 3084 1428 2787 
Q 1159 2491 1159 1978 
L 1159 0 
L 581 0 
L 581 3500 
L 1159 3500 
L 1159 2956 
Q 1366 3272 1645 3428 
Q 1925 3584 2291 3584 
Q 2894 3584 3203 3211 
Q 3513 2838 3513 2113 
z
" id="DejaVuSans-6e" transform="scale(0.015625)"/>
       <path d="M 1172 4494 
L 1172 3500 
L 2356 3500 
L 2356 3053 
L 1172 3053 
L 1172 1153 
Q 1172 725 1289 603 
Q 1406 481 1766 481 
L 2356 481 
L 2356 0 
L 1766 0 
Q 1100 0 847 248 
Q 594 497 594 1153 
L 594 3053 
L 172 3053 
L 172 3500 
L 594 3500 
L 594 4494 
L 1172 4494 
z
" id="DejaVuSans-74" transform="scale(0.015625)"/>
       <path d="M 3513 2113 
L 3513 0 
L 2938 0 
L 2938 2094 
Q 2938 2591 2744 2837 
Q 2550 3084 2163 3084 
Q 1697 3084 1428 2787 
Q 1159 2491 1159 1978 
L 1159 0 
L 581 0 
L 581 4863 
L 1159 4863 
L 1159 2956 
Q 1366 3272 1645 3428 
Q 1925 3584 2291 3584 
Q 2894 3584 3203 3211 
Q 3513 2838 3513 2113 
z
" id="DejaVuSans-68" transform="scale(0.015625)"/>
       <path d="M 1984 4856 
Q 1566 4138 1362 3434 
Q 1159 2731 1159 2009 
Q 1159 1288 1364 580 
Q 1569 -128 1984 -844 
L 1484 -844 
Q 1016 -109 783 600 
Q 550 1309 550 2009 
Q 550 2706 781 3412 
Q 1013 4119 1484 4856 
L 1984 4856 
z
" id="DejaVuSans-28" transform="scale(0.015625)"/>
       <path d="M 3122 3366 
L 3122 2828 
Q 2878 2963 2633 3030 
Q 2388 3097 2138 3097 
Q 1578 3097 1268 2742 
Q 959 2388 959 1747 
Q 959 1106 1268 751 
Q 1578 397 2138 397 
Q 2388 397 2633 464 
Q 2878 531 3122 666 
L 3122 134 
Q 2881 22 2623 -34 
Q 2366 -91 2075 -91 
Q 1284 -91 818 406 
Q 353 903 353 1747 
Q 353 2603 823 3093 
Q 1294 3584 2113 3584 
Q 2378 3584 2631 3529 
Q 2884 3475 3122 3366 
z
" id="DejaVuSans-63" transform="scale(0.015625)"/>
       <path d="M 3328 2828 
Q 3544 3216 3844 3400 
Q 4144 3584 4550 3584 
Q 5097 3584 5394 3201 
Q 5691 2819 5691 2113 
L 5691 0 
L 5113 0 
L 5113 2094 
Q 5113 2597 4934 2840 
Q 4756 3084 4391 3084 
Q 3944 3084 3684 2787 
Q 3425 2491 3425 1978 
L 3425 0 
L 2847 0 
L 2847 2094 
Q 2847 2600 2669 2842 
Q 2491 3084 2119 3084 
Q 1678 3084 1418 2786 
Q 1159 2488 1159 1978 
L 1159 0 
L 581 0 
L 581 3500 
L 1159 3500 
L 1159 2956 
Q 1356 3278 1631 3431 
Q 1906 3584 2284 3584 
Q 2666 3584 2933 3390 
Q 3200 3197 3328 2828 
z
" id="DejaVuSans-6d" transform="scale(0.015625)"/>
       <path d="M 513 4856 
L 1013 4856 
Q 1481 4119 1714 3412 
Q 1947 2706 1947 2009 
Q 1947 1309 1714 600 
Q 1481 -109 1013 -844 
L 513 -844 
Q 928 -128 1133 580 
Q 1338 1288 1338 2009 
Q 1338 2731 1133 3434 
Q 928 4138 513 4856 
z
" id="DejaVuSans-29" transform="scale(0.015625)"/>
      </defs>
      <use xlink:href="#DejaVuSans-50"/>
      <use x="58.552734" xlink:href="#DejaVuSans-72"/>
      <use x="99.666016" xlink:href="#DejaVuSans-61"/>
      <use x="160.945312" xlink:href="#DejaVuSans-67"/>
      <use x="224.421875" xlink:href="#DejaVuSans-75"/>
      <use x="287.800781" xlink:href="#DejaVuSans-65"/>
      <use x="349.324219" xlink:href="#DejaVuSans-20"/>
      <use x="381.111328" xlink:href="#DejaVuSans-4d"/>
      <use x="467.390625" xlink:href="#DejaVuSans-20"/>
      <use x="499.177734" xlink:href="#DejaVuSans-6c"/>
      <use x="526.960938" xlink:href="#DejaVuSans-65"/>
      <use x="588.484375" xlink:href="#DejaVuSans-6e"/>
      <use x="651.863281" xlink:href="#DejaVuSans-67"/>
      <use x="715.339844" xlink:href="#DejaVuSans-74"/>
      <use x="754.548828" xlink:href="#DejaVuSans-68"/>
      <use x="817.927734" xlink:href="#DejaVuSans-20"/>
      <use x="849.714844" xlink:href="#DejaVuSans-28"/>
      <use x="888.728516" xlink:href="#DejaVuSans-63"/>
      <use x="943.708984" xlink:href="#DejaVuSans-6d"/>
      <use x="1041.121094" xlink:href="#DejaVuSans-29"/>
     </g>
    </g>
   </g>
   <g id="matplotlib.axis_2">
    <g id="ytick_1">
     <g id="line2d_6">
      <defs>
       <path d="M 0 0 
L -3.5 0 
" id="m406d6fa006" style="stroke:#000000;stroke-width:0.8;"/>
      </defs>
      <g>
       <use style="stroke:#000000;stroke-width:0.8;" x="276.925" xlink:href="#m406d6fa006" y="1617.2"/>
      </g>
     </g>
     <g id="text_7">
      <!-- 0.00 -->
      <g transform="translate(102.932813 1645.694141)scale(0.75 -0.75)">
       <defs>
        <path d="M 684 794 
L 1344 794 
L 1344 0 
L 684 0 
L 684 794 
z
" id="DejaVuSans-2e" transform="scale(0.015625)"/>
       </defs>
       <use xlink:href="#DejaVuSans-30"/>
       <use x="63.623047" xlink:href="#DejaVuSans-2e"/>
       <use x="95.410156" xlink:href="#DejaVuSans-30"/>
       <use x="159.033203" xlink:href="#DejaVuSans-30"/>
      </g>
     </g>
    </g>
    <g id="ytick_2">
     <g id="line2d_7">
      <g>
       <use style="stroke:#000000;stroke-width:0.8;" x="276.925" xlink:href="#m406d6fa006" y="1341.812255"/>
      </g>
     </g>
     <g id="text_8">
      <!-- 0.05 -->
      <g transform="translate(102.932813 1370.306396)scale(0.75 -0.75)">
       <use xlink:href="#DejaVuSans-30"/>
       <use x="63.623047" xlink:href="#DejaVuSans-2e"/>
       <use x="95.410156" xlink:href="#DejaVuSans-30"/>
       <use x="159.033203" xlink:href="#DejaVuSans-35"/>
      </g>
     </g>
    </g>
    <g id="ytick_3">
     <g id="line2d_8">
      <g>
       <use style="stroke:#000000;stroke-width:0.8;" x="276.925" xlink:href="#m406d6fa006" y="1066.424511"/>
      </g>
     </g>
     <g id="text_9">
      <!-- 0.10 -->
      <g transform="translate(102.932813 1094.918651)scale(0.75 -0.75)">
       <use xlink:href="#DejaVuSans-30"/>
       <use x="63.623047" xlink:href="#DejaVuSans-2e"/>
       <use x="95.410156" xlink:href="#DejaVuSans-31"/>
       <use x="159.033203" xlink:href="#DejaVuSans-30"/>
      </g>
     </g>
    </g>
    <g id="ytick_4">
     <g id="line2d_9">
      <g>
       <use style="stroke:#000000;stroke-width:0.8;" x="276.925" xlink:href="#m406d6fa006" y="791.036766"/>
      </g>
     </g>
     <g id="text_10">
      <!-- 0.15 -->
      <g transform="translate(102.932813 819.530907)scale(0.75 -0.75)">
       <use xlink:href="#DejaVuSans-30"/>
       <use x="63.623047" xlink:href="#DejaVuSans-2e"/>
       <use x="95.410156" xlink:href="#DejaVuSans-31"/>
       <use x="159.033203" xlink:href="#DejaVuSans-35"/>
      </g>
     </g>
    </g>
    <g id="ytick_5">
     <g id="line2d_10">
      <g>
       <use style="stroke:#000000;stroke-width:0.8;" x="276.925" xlink:href="#m406d6fa006" y="515.649021"/>
      </g>
     </g>
     <g id="text_11">
      <!-- 0.20 -->
      <g transform="translate(102.932813 544.143162)scale(0.75 -0.75)">
       <use xlink:href="#DejaVuSans-30"/>
       <use x="63.623047" xlink:href="#DejaVuSans-2e"/>
       <use x="95.410156" xlink:href="#DejaVuSans-32"/>
       <use x="159.033203" xlink:href="#DejaVuSans-30"/>
      </g>
     </g>
    </g>
    <g id="ytick_6">
     <g id="line2d_11">
      <g>
       <use style="stroke:#000000;stroke-width:0.8;" x="276.925" xlink:href="#m406d6fa006" y="240.261277"/>
      </g>
     </g>
     <g id="text_12">
      <!-- 0.25 -->
      <g transform="translate(102.932813 268.755417)scale(0.75 -0.75)">
       <use xlink:href="#DejaVuSans-30"/>
       <use x="63.623047" xlink:href="#DejaVuSans-2e"/>
       <use x="95.410156" xlink:href="#DejaVuSans-32"/>
       <use x="159.033203" xlink:href="#DejaVuSans-35"/>
      </g>
     </g>
    </g>
    <g id="text_13">
     <!-- Density -->
     <g transform="translate(80.215625 985.077344)rotate(-90)scale(0.9 -0.9)">
      <defs>
       <path d="M 1259 4147 
L 1259 519 
L 2022 519 
Q 2988 519 3436 956 
Q 3884 1394 3884 2338 
Q 3884 3275 3436 3711 
Q 2988 4147 2022 4147 
L 1259 4147 
z
M 628 4666 
L 1925 4666 
Q 3281 4666 3915 4102 
Q 4550 3538 4550 2338 
Q 4550 1131 3912 565 
Q 3275 0 1925 0 
L 628 0 
L 628 4666 
z
" id="DejaVuSans-44" transform="scale(0.015625)"/>
       <path d="M 2834 3397 
L 2834 2853 
Q 2591 2978 2328 3040 
Q 2066 3103 1784 3103 
Q 1356 3103 1142 2972 
Q 928 2841 928 2578 
Q 928 2378 1081 2264 
Q 1234 2150 1697 2047 
L 1894 2003 
Q 2506 1872 2764 1633 
Q 3022 1394 3022 966 
Q 3022 478 2636 193 
Q 2250 -91 1575 -91 
Q 1294 -91 989 -36 
Q 684 19 347 128 
L 347 722 
Q 666 556 975 473 
Q 1284 391 1588 391 
Q 1994 391 2212 530 
Q 2431 669 2431 922 
Q 2431 1156 2273 1281 
Q 2116 1406 1581 1522 
L 1381 1569 
Q 847 1681 609 1914 
Q 372 2147 372 2553 
Q 372 3047 722 3315 
Q 1072 3584 1716 3584 
Q 2034 3584 2315 3537 
Q 2597 3491 2834 3397 
z
" id="DejaVuSans-73" transform="scale(0.015625)"/>
       <path d="M 603 3500 
L 1178 3500 
L 1178 0 
L 603 0 
L 603 3500 
z
M 603 4863 
L 1178 4863 
L 1178 4134 
L 603 4134 
L 603 4863 
z
" id="DejaVuSans-69" transform="scale(0.015625)"/>
       <path d="M 2059 -325 
Q 1816 -950 1584 -1140 
Q 1353 -1331 966 -1331 
L 506 -1331 
L 506 -850 
L 844 -850 
Q 1081 -850 1212 -737 
Q 1344 -625 1503 -206 
L 1606 56 
L 191 3500 
L 800 3500 
L 1894 763 
L 2988 3500 
L 3597 3500 
L 2059 -325 
z
" id="DejaVuSans-79" transform="scale(0.015625)"/>
      </defs>
      <use xlink:href="#DejaVuSans-44"/>
      <use x="77.001953" xlink:href="#DejaVuSans-65"/>
      <use x="138.525391" xlink:href="#DejaVuSans-6e"/>
      <use x="201.904297" xlink:href="#DejaVuSans-73"/>
      <use x="254.003906" xlink:href="#DejaVuSans-69"/>
      <use x="281.787109" xlink:href="#DejaVuSans-74"/>
      <use x="320.996094" xlink:href="#DejaVuSans-79"/>
     </g>
    </g>
   </g>
   <g id="patch_3">
    <path d="M 276.925 1617.2 
L 276.925 10.8 
" style="fill:none;stroke:#000000;stroke-linecap:square;stroke-linejoin:miter;stroke-width:0.8;"/>
   </g>
   <g id="patch_4">
    <path d="M 2509.2 1617.2 
L 2509.2 10.8 
" style="fill:none;stroke:#000000;stroke-linecap:square;stroke-linejoin:miter;stroke-width:0.8;"/>
   </g>
   <g id="patch_5">
    <path d="M 276.925 1617.2 
L 2509.2 1617.2 
" style="fill:none;stroke:#000000;stroke-linecap:square;stroke-linejoin:miter;stroke-width:0.8;"/>
   </g>
   <g id="patch_6">
    <path d="M 276.925 10.8 
L 2509.2 10.8 
" style="fill:none;stroke:#000000;stroke-linecap:square;stroke-linejoin:miter;stroke-width:0.8;"/>
   </g>
   <g id="legend_1">
    <g id="patch_7">
     <path d="M 1976.711719 290.971875 
L 2456.7 290.971875 
Q 2471.7 290.971875 2471.7 275.971875 
L 2471.7 63.3 
Q 2471.7 48.3 2456.7 48.3 
L 1976.711719 48.3 
Q 1961.711719 48.3 1961.711719 63.3 
L 1961.711719 275.971875 
Q 1961.711719 290.971875 1976.711719 290.971875 
z
" style="fill:#ffffff;opacity:0.8;stroke:#cccccc;stroke-linejoin:miter;"/>
    </g>
    <g id="patch_8">
     <path d="M 1991.711719 135.288281 
L 2141.711719 135.288281 
L 2141.711719 82.788281 
L 1991.711719 82.788281 
z
" style="fill:#ff0000;fill-opacity:0.25;stroke:#ff0000;stroke-linejoin:miter;stroke-width:5;"/>
    </g>
    <g id="text_14">
     <!-- BEST2 -->
     <g transform="translate(2201.711719 135.288281)scale(0.75 -0.75)">
      <defs>
       <path d="M 1259 2228 
L 1259 519 
L 2272 519 
Q 2781 519 3026 730 
Q 3272 941 3272 1375 
Q 3272 1813 3026 2020 
Q 2781 2228 2272 2228 
L 1259 2228 
z
M 1259 4147 
L 1259 2741 
L 2194 2741 
Q 2656 2741 2882 2914 
Q 3109 3088 3109 3444 
Q 3109 3797 2882 3972 
Q 2656 4147 2194 4147 
L 1259 4147 
z
M 628 4666 
L 2241 4666 
Q 2963 4666 3353 4366 
Q 3744 4066 3744 3513 
Q 3744 3084 3544 2831 
Q 3344 2578 2956 2516 
Q 3422 2416 3680 2098 
Q 3938 1781 3938 1306 
Q 3938 681 3513 340 
Q 3088 0 2303 0 
L 628 0 
L 628 4666 
z
" id="DejaVuSans-42" transform="scale(0.015625)"/>
       <path d="M 628 4666 
L 3578 4666 
L 3578 4134 
L 1259 4134 
L 1259 2753 
L 3481 2753 
L 3481 2222 
L 1259 2222 
L 1259 531 
L 3634 531 
L 3634 0 
L 628 0 
L 628 4666 
z
" id="DejaVuSans-45" transform="scale(0.015625)"/>
       <path d="M 3425 4513 
L 3425 3897 
Q 3066 4069 2747 4153 
Q 2428 4238 2131 4238 
Q 1616 4238 1336 4038 
Q 1056 3838 1056 3469 
Q 1056 3159 1242 3001 
Q 1428 2844 1947 2747 
L 2328 2669 
Q 3034 2534 3370 2195 
Q 3706 1856 3706 1288 
Q 3706 609 3251 259 
Q 2797 -91 1919 -91 
Q 1588 -91 1214 -16 
Q 841 59 441 206 
L 441 856 
Q 825 641 1194 531 
Q 1563 422 1919 422 
Q 2459 422 2753 634 
Q 3047 847 3047 1241 
Q 3047 1584 2836 1778 
Q 2625 1972 2144 2069 
L 1759 2144 
Q 1053 2284 737 2584 
Q 422 2884 422 3419 
Q 422 4038 858 4394 
Q 1294 4750 2059 4750 
Q 2388 4750 2728 4690 
Q 3069 4631 3425 4513 
z
" id="DejaVuSans-53" transform="scale(0.015625)"/>
       <path d="M -19 4666 
L 3928 4666 
L 3928 4134 
L 2272 4134 
L 2272 0 
L 1638 0 
L 1638 4134 
L -19 4134 
L -19 4666 
z
" id="DejaVuSans-54" transform="scale(0.015625)"/>
      </defs>
      <use xlink:href="#DejaVuSans-42"/>
      <use x="68.603516" xlink:href="#DejaVuSans-45"/>
      <use x="131.787109" xlink:href="#DejaVuSans-53"/>
      <use x="195.263672" xlink:href="#DejaVuSans-54"/>
      <use x="256.347656" xlink:href="#DejaVuSans-32"/>
     </g>
    </g>
    <g id="patch_9">
     <path d="M 1991.711719 245.374219 
L 2141.711719 245.374219 
L 2141.711719 192.874219 
L 1991.711719 192.874219 
z
" style="fill:#0000ff;fill-opacity:0.25;stroke:#0000ff;stroke-linejoin:miter;stroke-width:5;"/>
    </g>
    <g id="text_15">
     <!-- BEST3 -->
     <g transform="translate(2201.711719 245.374219)scale(0.75 -0.75)">
      <defs>
       <path d="M 2597 2516 
Q 3050 2419 3304 2112 
Q 3559 1806 3559 1356 
Q 3559 666 3084 287 
Q 2609 -91 1734 -91 
Q 1441 -91 1130 -33 
Q 819 25 488 141 
L 488 750 
Q 750 597 1062 519 
Q 1375 441 1716 441 
Q 2309 441 2620 675 
Q 2931 909 2931 1356 
Q 2931 1769 2642 2001 
Q 2353 2234 1838 2234 
L 1294 2234 
L 1294 2753 
L 1863 2753 
Q 2328 2753 2575 2939 
Q 2822 3125 2822 3475 
Q 2822 3834 2567 4026 
Q 2313 4219 1838 4219 
Q 1578 4219 1281 4162 
Q 984 4106 628 3988 
L 628 4550 
Q 988 4650 1302 4700 
Q 1616 4750 1894 4750 
Q 2613 4750 3031 4423 
Q 3450 4097 3450 3541 
Q 3450 3153 3228 2886 
Q 3006 2619 2597 2516 
z
" id="DejaVuSans-33" transform="scale(0.015625)"/>
      </defs>
      <use xlink:href="#DejaVuSans-42"/>
      <use x="68.603516" xlink:href="#DejaVuSans-45"/>
      <use x="131.787109" xlink:href="#DejaVuSans-53"/>
      <use x="195.263672" xlink:href="#DejaVuSans-54"/>
      <use x="256.347656" xlink:href="#DejaVuSans-33"/>
     </g>
    </g>
   </g>
  </g>
 </g>
 <defs>
  <clipPath id="p22038ba2a4">
   <rect height="1606.4" width="2232.275" x="276.925" y="10.8"/>
  </clipPath>
 </defs>
</svg>
