<?xml version="1.0" encoding="utf-8" standalone="no"?>
<!DOCTYPE svg PUBLIC "-//W3C//DTD SVG 1.1//EN"
  "http://www.w3.org/Graphics/SVG/1.1/DTD/svg11.dtd">
<svg height="1800pt" version="1.1" viewBox="0 0 2520 1800" width="2520pt" xmlns="http://www.w3.org/2000/svg" xmlns:xlink="http://www.w3.org/1999/xlink">
 <metadata>
  <rdf:RDF xmlns:cc="http://creativecommons.org/ns#" xmlns:dc="http://purl.org/dc/elements/1.1/" xmlns:rdf="http://www.w3.org/1999/02/22-rdf-syntax-ns#">
   <cc:Work>
    <dc:type rdf:resource="http://purl.org/dc/dcmitype/StillImage"/>
    <dc:date>2022-01-20T05:57:52.079577</dc:date>
    <dc:format>image/svg+xml</dc:format>
    <dc:creator>
     <cc:Agent>
      <dc:title>Matplotlib v3.4.2, https://matplotlib.org/</dc:title>
     </cc:Agent>
    </dc:creator>
   </cc:Work>
  </rdf:RDF>
 </metadata>
 <defs>
  <style type="text/css">*{stroke-linecap:butt;stroke-linejoin:round;}</style>
 </defs>
 <g id="figure_1">
  <g id="patch_1">
   <path d="M 0 1800 
L 2520 1800 
L 2520 0 
L 0 0 
z
" style="fill:none;"/>
  </g>
  <g id="axes_1">
   <g id="patch_2">
    <path d="M 229.175 1617.2 
L 2509.2 1617.2 
L 2509.2 10.8 
L 229.175 10.8 
z
" style="fill:#ffffff;"/>
   </g>
   <g id="PolyCollection_1">
    <defs>
     <path d="M 332.8125 -187.95519 
L 332.8125 -182.8 
L 343.228329 -182.8 
L 353.644158 -182.8 
L 364.059987 -182.8 
L 374.475817 -182.8 
L 384.891646 -182.8 
L 395.307475 -182.8 
L 405.723304 -182.8 
L 416.139133 -182.8 
L 426.554962 -182.8 
L 436.970791 -182.8 
L 447.386621 -182.8 
L 457.80245 -182.8 
L 468.218279 -182.8 
L 478.634108 -182.8 
L 489.049937 -182.8 
L 499.465766 -182.8 
L 509.881595 -182.8 
L 520.297425 -182.8 
L 530.713254 -182.8 
L 541.129083 -182.8 
L 551.544912 -182.8 
L 561.960741 -182.8 
L 572.37657 -182.8 
L 582.792399 -182.8 
L 593.208229 -182.8 
L 603.624058 -182.8 
L 614.039887 -182.8 
L 624.455716 -182.8 
L 634.871545 -182.8 
L 645.287374 -182.8 
L 655.703204 -182.8 
L 666.119033 -182.8 
L 676.534862 -182.8 
L 686.950691 -182.8 
L 697.36652 -182.8 
L 707.782349 -182.8 
L 718.198178 -182.8 
L 728.614008 -182.8 
L 739.029837 -182.8 
L 749.445666 -182.8 
L 759.861495 -182.8 
L 770.277324 -182.8 
L 780.693153 -182.8 
L 791.108982 -182.8 
L 801.524812 -182.8 
L 811.940641 -182.8 
L 822.35647 -182.8 
L 832.772299 -182.8 
L 843.188128 -182.8 
L 853.603957 -182.8 
L 864.019786 -182.8 
L 874.435616 -182.8 
L 884.851445 -182.8 
L 895.267274 -182.8 
L 905.683103 -182.8 
L 916.098932 -182.8 
L 926.514761 -182.8 
L 936.93059 -182.8 
L 947.34642 -182.8 
L 957.762249 -182.8 
L 968.178078 -182.8 
L 978.593907 -182.8 
L 989.009736 -182.8 
L 999.425565 -182.8 
L 1009.841394 -182.8 
L 1020.257224 -182.8 
L 1030.673053 -182.8 
L 1041.088882 -182.8 
L 1051.504711 -182.8 
L 1061.92054 -182.8 
L 1072.336369 -182.8 
L 1082.752198 -182.8 
L 1093.168028 -182.8 
L 1103.583857 -182.8 
L 1113.999686 -182.8 
L 1124.415515 -182.8 
L 1134.831344 -182.8 
L 1145.247173 -182.8 
L 1155.663003 -182.8 
L 1166.078832 -182.8 
L 1176.494661 -182.8 
L 1186.91049 -182.8 
L 1197.326319 -182.8 
L 1207.742148 -182.8 
L 1218.157977 -182.8 
L 1228.573807 -182.8 
L 1238.989636 -182.8 
L 1249.405465 -182.8 
L 1259.821294 -182.8 
L 1270.237123 -182.8 
L 1280.652952 -182.8 
L 1291.068781 -182.8 
L 1301.484611 -182.8 
L 1311.90044 -182.8 
L 1322.316269 -182.8 
L 1332.732098 -182.8 
L 1343.147927 -182.8 
L 1353.563756 -182.8 
L 1363.979585 -182.8 
L 1374.395415 -182.8 
L 1384.811244 -182.8 
L 1395.227073 -182.8 
L 1405.642902 -182.8 
L 1416.058731 -182.8 
L 1426.47456 -182.8 
L 1436.890389 -182.8 
L 1447.306219 -182.8 
L 1457.722048 -182.8 
L 1468.137877 -182.8 
L 1478.553706 -182.8 
L 1488.969535 -182.8 
L 1499.385364 -182.8 
L 1509.801193 -182.8 
L 1520.217023 -182.8 
L 1530.632852 -182.8 
L 1541.048681 -182.8 
L 1551.46451 -182.8 
L 1561.880339 -182.8 
L 1572.296168 -182.8 
L 1582.711997 -182.8 
L 1593.127827 -182.8 
L 1603.543656 -182.8 
L 1613.959485 -182.8 
L 1624.375314 -182.8 
L 1634.791143 -182.8 
L 1645.206972 -182.8 
L 1655.622802 -182.8 
L 1666.038631 -182.8 
L 1676.45446 -182.8 
L 1686.870289 -182.8 
L 1697.286118 -182.8 
L 1707.701947 -182.8 
L 1718.117776 -182.8 
L 1728.533606 -182.8 
L 1738.949435 -182.8 
L 1749.365264 -182.8 
L 1759.781093 -182.8 
L 1770.196922 -182.8 
L 1780.612751 -182.8 
L 1791.02858 -182.8 
L 1801.44441 -182.8 
L 1811.860239 -182.8 
L 1822.276068 -182.8 
L 1832.691897 -182.8 
L 1843.107726 -182.8 
L 1853.523555 -182.8 
L 1863.939384 -182.8 
L 1874.355214 -182.8 
L 1884.771043 -182.8 
L 1895.186872 -182.8 
L 1905.602701 -182.8 
L 1916.01853 -182.8 
L 1926.434359 -182.8 
L 1936.850188 -182.8 
L 1947.266018 -182.8 
L 1957.681847 -182.8 
L 1968.097676 -182.8 
L 1978.513505 -182.8 
L 1988.929334 -182.8 
L 1999.345163 -182.8 
L 2009.760992 -182.8 
L 2020.176822 -182.8 
L 2030.592651 -182.8 
L 2041.00848 -182.8 
L 2051.424309 -182.8 
L 2061.840138 -182.8 
L 2072.255967 -182.8 
L 2082.671796 -182.8 
L 2093.087626 -182.8 
L 2103.503455 -182.8 
L 2113.919284 -182.8 
L 2124.335113 -182.8 
L 2134.750942 -182.8 
L 2145.166771 -182.8 
L 2155.582601 -182.8 
L 2165.99843 -182.8 
L 2176.414259 -182.8 
L 2186.830088 -182.8 
L 2197.245917 -182.8 
L 2207.661746 -182.8 
L 2218.077575 -182.8 
L 2228.493405 -182.8 
L 2238.909234 -182.8 
L 2249.325063 -182.8 
L 2259.740892 -182.8 
L 2270.156721 -182.8 
L 2280.57255 -182.8 
L 2290.988379 -182.8 
L 2301.404209 -182.8 
L 2311.820038 -182.8 
L 2322.235867 -182.8 
L 2332.651696 -182.8 
L 2343.067525 -182.8 
L 2353.483354 -182.8 
L 2363.899183 -182.8 
L 2374.315013 -182.8 
L 2384.730842 -182.8 
L 2395.146671 -182.8 
L 2405.5625 -182.8 
L 2405.5625 -182.833622 
L 2405.5625 -182.833622 
L 2395.146671 -182.847667 
L 2384.730842 -182.866698 
L 2374.315013 -182.89212 
L 2363.899183 -182.925593 
L 2353.483354 -182.969039 
L 2343.067525 -183.024628 
L 2332.651696 -183.09474 
L 2322.235867 -183.181917 
L 2311.820038 -183.288778 
L 2301.404209 -183.417922 
L 2290.988379 -183.571808 
L 2280.57255 -183.752626 
L 2270.156721 -183.962158 
L 2259.740892 -184.201658 
L 2249.325063 -184.471731 
L 2238.909234 -184.772266 
L 2228.493405 -185.102382 
L 2218.077575 -185.460439 
L 2207.661746 -185.844086 
L 2197.245917 -186.250352 
L 2186.830088 -186.675776 
L 2176.414259 -187.116553 
L 2165.99843 -187.568687 
L 2155.582601 -188.028133 
L 2145.166771 -188.490901 
L 2134.750942 -188.953125 
L 2124.335113 -189.411075 
L 2113.919284 -189.861114 
L 2103.503455 -190.299619 
L 2093.087626 -190.722858 
L 2082.671796 -191.126874 
L 2072.255967 -191.507362 
L 2061.840138 -191.859603 
L 2051.424309 -192.178439 
L 2041.00848 -192.458338 
L 2030.592651 -192.693528 
L 2020.176822 -192.878216 
L 2009.760992 -193.006875 
L 1999.345163 -193.074579 
L 1988.929334 -193.077362 
L 1978.513505 -193.012579 
L 1968.097676 -192.879231 
L 1957.681847 -192.678238 
L 1947.266018 -192.41264 
L 1936.850188 -192.087713 
L 1926.434359 -191.711 
L 1916.01853 -191.292252 
L 1905.602701 -190.843294 
L 1895.186872 -190.377834 
L 1884.771043 -189.911211 
L 1874.355214 -189.460109 
L 1863.939384 -189.042252 
L 1853.523555 -188.676065 
L 1843.107726 -188.380339 
L 1832.691897 -188.17387 
L 1822.276068 -188.075091 
L 1811.860239 -188.101695 
L 1801.44441 -188.270243 
L 1791.02858 -188.59576 
L 1780.612751 -189.091335 
L 1770.196922 -189.767727 
L 1759.781093 -190.632993 
L 1749.365264 -191.692164 
L 1738.949435 -192.946978 
L 1728.533606 -194.395708 
L 1718.117776 -196.033096 
L 1707.701947 -197.850417 
L 1697.286118 -199.835688 
L 1686.870289 -201.974018 
L 1676.45446 -204.248113 
L 1666.038631 -206.638902 
L 1655.622802 -209.126265 
L 1645.206972 -211.68982 
L 1634.791143 -214.309715 
L 1624.375314 -216.967364 
L 1613.959485 -219.646065 
L 1603.543656 -222.331437 
L 1593.127827 -225.01162 
L 1582.711997 -227.677219 
L 1572.296168 -230.320973 
L 1561.880339 -232.937184 
L 1551.46451 -235.520965 
L 1541.048681 -238.067399 
L 1530.632852 -240.570731 
L 1520.217023 -243.023724 
L 1509.801193 -245.4173 
L 1499.385364 -247.740587 
L 1488.969535 -249.98142 
L 1478.553706 -252.127312 
L 1468.137877 -254.166847 
L 1457.722048 -256.091352 
L 1447.306219 -257.896678 
L 1436.890389 -259.584866 
L 1426.47456 -261.165448 
L 1416.058731 -262.656185 
L 1405.642902 -264.083039 
L 1395.227073 -265.479323 
L 1384.811244 -266.883989 
L 1374.395415 -268.339205 
L 1363.979585 -269.887384 
L 1353.563756 -271.567988 
L 1343.147927 -273.414392 
L 1332.732098 -275.451176 
L 1322.316269 -277.692107 
L 1311.90044 -280.139046 
L 1301.484611 -282.781885 
L 1291.068781 -285.599506 
L 1280.652952 -288.561645 
L 1270.237123 -291.63143 
L 1259.821294 -294.768316 
L 1249.405465 -297.931085 
L 1238.989636 -301.080619 
L 1228.573807 -304.182183 
L 1218.157977 -307.207045 
L 1207.742148 -310.133372 
L 1197.326319 -312.946406 
L 1186.91049 -315.63805 
L 1176.494661 -318.206029 
L 1166.078832 -320.652853 
L 1155.663003 -322.984779 
L 1145.247173 -325.21096 
L 1134.831344 -327.34292 
L 1124.415515 -329.394405 
L 1113.999686 -331.381597 
L 1103.583857 -333.323641 
L 1093.168028 -335.243321 
L 1082.752198 -337.167775 
L 1072.336369 -339.129059 
L 1061.92054 -341.164436 
L 1051.504711 -343.316275 
L 1041.088882 -345.631513 
L 1030.673053 -348.160653 
L 1020.257224 -350.956359 
L 1009.841394 -354.071732 
L 999.425565 -357.558386 
L 989.009736 -361.464484 
L 978.593907 -365.832884 
L 968.178078 -370.699561 
L 957.762249 -376.09245 
L 947.34642 -382.030855 
L 936.93059 -388.525499 
L 926.514761 -395.57932 
L 916.098932 -403.189012 
L 905.683103 -411.347308 
L 895.267274 -420.045912 
L 884.851445 -429.278944 
L 874.435616 -439.046672 
L 864.019786 -449.359236 
L 853.603957 -460.239986 
L 843.188128 -471.727979 
L 832.772299 -483.879157 
L 822.35647 -496.765669 
L 811.940641 -510.472866 
L 801.524812 -525.093559 
L 791.108982 -540.719306 
L 780.693153 -557.428734 
L 770.277324 -575.273188 
L 759.861495 -594.2604 
L 749.445666 -614.337212 
L 739.029837 -635.372805 
L 728.614008 -657.144144 
L 718.198178 -679.325521 
L 707.782349 -701.484095 
L 697.36652 -723.083021 
L 686.950691 -743.493368 
L 676.534862 -762.015253 
L 666.119033 -777.907799 
L 655.703204 -790.426558 
L 645.287374 -798.866102 
L 634.871545 -802.604712 
L 624.455716 -801.147554 
L 614.039887 -794.164565 
L 603.624058 -781.519513 
L 593.208229 -763.2873 
L 582.792399 -739.757613 
L 572.37657 -711.424219 
L 561.960741 -678.960584 
L 551.544912 -643.183735 
L 541.129083 -605.0094 
L 530.713254 -565.402181 
L 520.297425 -525.32482 
L 509.881595 -485.690554 
L 499.465766 -447.321966 
L 489.049937 -410.918977 
L 478.634108 -377.03752 
L 468.218279 -346.079401 
L 457.80245 -318.292774 
L 447.386621 -293.781841 
L 436.970791 -272.523758 
L 426.554962 -254.390437 
L 416.139133 -239.172854 
L 405.723304 -226.605704 
L 395.307475 -216.390585 
L 384.891646 -208.216367 
L 374.475817 -201.775928 
L 364.059987 -196.778885 
L 353.644158 -192.960375 
L 343.228329 -190.086244 
L 332.8125 -187.95519 
z
" id="mc6997dd9e7" style="stroke:#ff0000;stroke-width:5;"/>
    </defs>
    <g clip-path="url(#pcf08cbc43c)">
     <use style="fill:#ff0000;fill-opacity:0.25;stroke:#ff0000;stroke-width:5;" x="0" xlink:href="#mc6997dd9e7" y="1800"/>
    </g>
   </g>
   <g id="PolyCollection_2">
    <defs>
     <path d="M 431.653597 -199.191111 
L 431.653597 -182.8 
L 438.634753 -182.8 
L 445.615909 -182.8 
L 452.597065 -182.8 
L 459.578221 -182.8 
L 466.559376 -182.8 
L 473.540532 -182.8 
L 480.521688 -182.8 
L 487.502844 -182.8 
L 494.484 -182.8 
L 501.465156 -182.8 
L 508.446312 -182.8 
L 515.427467 -182.8 
L 522.408623 -182.8 
L 529.389779 -182.8 
L 536.370935 -182.8 
L 543.352091 -182.8 
L 550.333247 -182.8 
L 557.314403 -182.8 
L 564.295558 -182.8 
L 571.276714 -182.8 
L 578.25787 -182.8 
L 585.239026 -182.8 
L 592.220182 -182.8 
L 599.201338 -182.8 
L 606.182493 -182.8 
L 613.163649 -182.8 
L 620.144805 -182.8 
L 627.125961 -182.8 
L 634.107117 -182.8 
L 641.088273 -182.8 
L 648.069429 -182.8 
L 655.050584 -182.8 
L 662.03174 -182.8 
L 669.012896 -182.8 
L 675.994052 -182.8 
L 682.975208 -182.8 
L 689.956364 -182.8 
L 696.937519 -182.8 
L 703.918675 -182.8 
L 710.899831 -182.8 
L 717.880987 -182.8 
L 724.862143 -182.8 
L 731.843299 -182.8 
L 738.824455 -182.8 
L 745.80561 -182.8 
L 752.786766 -182.8 
L 759.767922 -182.8 
L 766.749078 -182.8 
L 773.730234 -182.8 
L 780.71139 -182.8 
L 787.692546 -182.8 
L 794.673701 -182.8 
L 801.654857 -182.8 
L 808.636013 -182.8 
L 815.617169 -182.8 
L 822.598325 -182.8 
L 829.579481 -182.8 
L 836.560636 -182.8 
L 843.541792 -182.8 
L 850.522948 -182.8 
L 857.504104 -182.8 
L 864.48526 -182.8 
L 871.466416 -182.8 
L 878.447572 -182.8 
L 885.428727 -182.8 
L 892.409883 -182.8 
L 899.391039 -182.8 
L 906.372195 -182.8 
L 913.353351 -182.8 
L 920.334507 -182.8 
L 927.315662 -182.8 
L 934.296818 -182.8 
L 941.277974 -182.8 
L 948.25913 -182.8 
L 955.240286 -182.8 
L 962.221442 -182.8 
L 969.202598 -182.8 
L 976.183753 -182.8 
L 983.164909 -182.8 
L 990.146065 -182.8 
L 997.127221 -182.8 
L 1004.108377 -182.8 
L 1011.089533 -182.8 
L 1018.070689 -182.8 
L 1025.051844 -182.8 
L 1032.033 -182.8 
L 1039.014156 -182.8 
L 1045.995312 -182.8 
L 1052.976468 -182.8 
L 1059.957624 -182.8 
L 1066.938779 -182.8 
L 1073.919935 -182.8 
L 1080.901091 -182.8 
L 1087.882247 -182.8 
L 1094.863403 -182.8 
L 1101.844559 -182.8 
L 1108.825715 -182.8 
L 1115.80687 -182.8 
L 1122.788026 -182.8 
L 1129.769182 -182.8 
L 1136.750338 -182.8 
L 1143.731494 -182.8 
L 1150.71265 -182.8 
L 1157.693805 -182.8 
L 1164.674961 -182.8 
L 1171.656117 -182.8 
L 1178.637273 -182.8 
L 1185.618429 -182.8 
L 1192.599585 -182.8 
L 1199.580741 -182.8 
L 1206.561896 -182.8 
L 1213.543052 -182.8 
L 1220.524208 -182.8 
L 1227.505364 -182.8 
L 1234.48652 -182.8 
L 1241.467676 -182.8 
L 1248.448832 -182.8 
L 1255.429987 -182.8 
L 1262.411143 -182.8 
L 1269.392299 -182.8 
L 1276.373455 -182.8 
L 1283.354611 -182.8 
L 1290.335767 -182.8 
L 1297.316922 -182.8 
L 1304.298078 -182.8 
L 1311.279234 -182.8 
L 1318.26039 -182.8 
L 1325.241546 -182.8 
L 1332.222702 -182.8 
L 1339.203858 -182.8 
L 1346.185013 -182.8 
L 1353.166169 -182.8 
L 1360.147325 -182.8 
L 1367.128481 -182.8 
L 1374.109637 -182.8 
L 1381.090793 -182.8 
L 1388.071948 -182.8 
L 1395.053104 -182.8 
L 1402.03426 -182.8 
L 1409.015416 -182.8 
L 1415.996572 -182.8 
L 1422.977728 -182.8 
L 1429.958884 -182.8 
L 1436.940039 -182.8 
L 1443.921195 -182.8 
L 1450.902351 -182.8 
L 1457.883507 -182.8 
L 1464.864663 -182.8 
L 1471.845819 -182.8 
L 1478.826975 -182.8 
L 1485.80813 -182.8 
L 1492.789286 -182.8 
L 1499.770442 -182.8 
L 1506.751598 -182.8 
L 1513.732754 -182.8 
L 1520.71391 -182.8 
L 1527.695065 -182.8 
L 1534.676221 -182.8 
L 1541.657377 -182.8 
L 1548.638533 -182.8 
L 1555.619689 -182.8 
L 1562.600845 -182.8 
L 1569.582001 -182.8 
L 1576.563156 -182.8 
L 1583.544312 -182.8 
L 1590.525468 -182.8 
L 1597.506624 -182.8 
L 1604.48778 -182.8 
L 1611.468936 -182.8 
L 1618.450091 -182.8 
L 1625.431247 -182.8 
L 1632.412403 -182.8 
L 1639.393559 -182.8 
L 1646.374715 -182.8 
L 1653.355871 -182.8 
L 1660.337027 -182.8 
L 1667.318182 -182.8 
L 1674.299338 -182.8 
L 1681.280494 -182.8 
L 1688.26165 -182.8 
L 1695.242806 -182.8 
L 1702.223962 -182.8 
L 1709.205118 -182.8 
L 1716.186273 -182.8 
L 1723.167429 -182.8 
L 1730.148585 -182.8 
L 1737.129741 -182.8 
L 1744.110897 -182.8 
L 1751.092053 -182.8 
L 1758.073208 -182.8 
L 1765.054364 -182.8 
L 1772.03552 -182.8 
L 1779.016676 -182.8 
L 1785.997832 -182.8 
L 1792.978988 -182.8 
L 1799.960144 -182.8 
L 1806.941299 -182.8 
L 1813.922455 -182.8 
L 1820.903611 -182.8 
L 1820.903611 -182.937676 
L 1820.903611 -182.937676 
L 1813.922455 -182.99843 
L 1806.941299 -183.0816 
L 1799.960144 -183.193491 
L 1792.978988 -183.341394 
L 1785.997832 -183.533446 
L 1779.016676 -183.778362 
L 1772.03552 -184.085013 
L 1765.054364 -184.46185 
L 1758.073208 -184.91618 
L 1751.092053 -185.453322 
L 1744.110897 -186.075698 
L 1737.129741 -186.781934 
L 1730.148585 -187.566074 
L 1723.167429 -188.416994 
L 1716.186273 -189.318139 
L 1709.205118 -190.247659 
L 1702.223962 -191.179003 
L 1695.242806 -192.081996 
L 1688.26165 -192.924344 
L 1681.280494 -193.673488 
L 1674.299338 -194.298663 
L 1667.318182 -194.77298 
L 1660.337027 -195.075342 
L 1653.355871 -195.192002 
L 1646.374715 -195.117591 
L 1639.393559 -194.855536 
L 1632.412403 -194.417797 
L 1625.431247 -193.823956 
L 1618.450091 -193.099773 
L 1611.468936 -192.275328 
L 1604.48778 -191.382965 
L 1597.506624 -190.455207 
L 1590.525468 -189.522843 
L 1583.544312 -188.613337 
L 1576.563156 -187.74965 
L 1569.582001 -186.94954 
L 1562.600845 -186.225328 
L 1555.619689 -185.584077 
L 1548.638533 -185.028115 
L 1541.657377 -184.555791 
L 1534.676221 -184.162355 
L 1527.695065 -183.840875 
L 1520.71391 -183.583102 
L 1513.732754 -183.38023 
L 1506.751598 -183.223515 
L 1499.770442 -183.10474 
L 1492.789286 -183.016534 
L 1485.80813 -182.952564 
L 1478.826975 -182.907631 
L 1471.845819 -182.877695 
L 1464.864663 -182.859869 
L 1457.883507 -182.852404 
L 1450.902351 -182.854687 
L 1443.921195 -182.867285 
L 1436.940039 -182.892021 
L 1429.958884 -182.932109 
L 1422.977728 -182.992327 
L 1415.996572 -183.079214 
L 1409.015416 -183.201282 
L 1402.03426 -183.369178 
L 1395.053104 -183.595789 
L 1388.071948 -183.896202 
L 1381.090793 -184.287493 
L 1374.109637 -184.788289 
L 1367.128481 -185.418058 
L 1360.147325 -186.196126 
L 1353.166169 -187.14044 
L 1346.185013 -188.266115 
L 1339.203858 -189.583881 
L 1332.222702 -191.098559 
L 1325.241546 -192.80772 
L 1318.26039 -194.700711 
L 1311.279234 -196.758202 
L 1304.298078 -198.952387 
L 1297.316922 -201.247898 
L 1290.335767 -203.603418 
L 1283.354611 -205.973895 
L 1276.373455 -208.313168 
L 1269.392299 -210.576748 
L 1262.411143 -212.724486 
L 1255.429987 -214.722838 
L 1248.448832 -216.546492 
L 1241.467676 -218.179221 
L 1234.48652 -219.613909 
L 1227.505364 -220.851815 
L 1220.524208 -221.901233 
L 1213.543052 -222.775789 
L 1206.561896 -223.492601 
L 1199.580741 -224.070565 
L 1192.599585 -224.528922 
L 1185.618429 -224.886218 
L 1178.637273 -225.159669 
L 1171.656117 -225.364876 
L 1164.674961 -225.515794 
L 1157.693805 -225.624833 
L 1150.71265 -225.703008 
L 1143.731494 -225.76008 
L 1136.750338 -225.80468 
L 1129.769182 -225.844458 
L 1122.788026 -225.886324 
L 1115.80687 -225.936818 
L 1108.825715 -226.002661 
L 1101.844559 -226.091462 
L 1094.863403 -226.212521 
L 1087.882247 -226.377631 
L 1080.901091 -226.601758 
L 1073.919935 -226.90347 
L 1066.938779 -227.305021 
L 1059.957624 -227.832039 
L 1052.976468 -228.512767 
L 1045.995312 -229.37692 
L 1039.014156 -230.45417 
L 1032.033 -231.772359 
L 1025.051844 -233.355524 
L 1018.070689 -235.221835 
L 1011.089533 -237.381581 
L 1004.108377 -239.835367 
L 997.127221 -242.572693 
L 990.146065 -245.571133 
L 983.164909 -248.796326 
L 976.183753 -252.20295 
L 969.202598 -255.736789 
L 962.221442 -259.337882 
L 955.240286 -262.944625 
L 948.25913 -266.498502 
L 941.277974 -269.949071 
L 934.296818 -273.258675 
L 927.315662 -276.406399 
L 920.334507 -279.390818 
L 913.353351 -282.231234 
L 906.372195 -284.967254 
L 899.391039 -287.656763 
L 892.409883 -290.372487 
L 885.428727 -293.197491 
L 878.447572 -296.219991 
L 871.466416 -299.527873 
L 864.48526 -303.203305 
L 857.504104 -307.317748 
L 850.522948 -311.927704 
L 843.541792 -317.071507 
L 836.560636 -322.767553 
L 829.579481 -329.014405 
L 822.598325 -335.793278 
L 815.617169 -343.07342 
L 808.636013 -350.820792 
L 801.654857 -359.010266 
L 794.673701 -367.641261 
L 787.692546 -376.756294 
L 780.71139 -386.461494 
L 773.730234 -396.947639 
L 766.749078 -408.509842 
L 759.767922 -421.563678 
L 752.786766 -436.655266 
L 745.80561 -454.462748 
L 738.824455 -475.786609 
L 731.843299 -501.526573 
L 724.862143 -532.64328 
L 717.880987 -570.103786 
L 710.899831 -614.81111 
L 703.918675 -667.519711 
L 696.937519 -728.740703 
L 689.956364 -798.642856 
L 682.975208 -876.957613 
L 675.994052 -962.898125 
L 669.012896 -1055.103322 
L 662.03174 -1151.617837 
L 655.050584 -1249.916883 
L 648.069429 -1346.981901 
L 641.088273 -1439.428028 
L 634.107117 -1523.678704 
L 627.125961 -1596.176689 
L 620.144805 -1653.615263 
L 613.163649 -1693.169384 
L 606.182493 -1712.704762 
L 599.201338 -1710.943655 
L 592.220182 -1687.569836 
L 585.239026 -1643.261152 
L 578.25787 -1579.645739 
L 571.276714 -1499.18613 
L 564.295558 -1405.0032 
L 557.314403 -1300.657899 
L 550.333247 -1189.912447 
L 543.352091 -1076.493559 
L 536.370935 -963.878448 
L 529.389779 -855.120224 
L 522.408623 -752.723659 
L 515.427467 -658.575924 
L 508.446312 -573.930859 
L 501.465156 -499.440188 
L 494.484 -435.221533 
L 487.502844 -380.951139 
L 480.521688 -335.969059 
L 473.540532 -299.385683 
L 466.559376 -270.18065 
L 459.578221 -247.287864 
L 452.597065 -229.663068 
L 445.615909 -216.332908 
L 438.634753 -206.426404 
L 431.653597 -199.191111 
z
" id="mb5e470e5a6" style="stroke:#0000ff;stroke-width:5;"/>
    </defs>
    <g clip-path="url(#pcf08cbc43c)">
     <use style="fill:#0000ff;fill-opacity:0.25;stroke:#0000ff;stroke-width:5;" x="0" xlink:href="#mb5e470e5a6" y="1800"/>
    </g>
   </g>
   <g id="matplotlib.axis_1">
    <g id="xtick_1">
     <g id="line2d_1">
      <defs>
       <path d="M 0 0 
L 0 3.5 
" id="m847c155770" style="stroke:#000000;stroke-width:0.8;"/>
      </defs>
      <g>
       <use style="stroke:#000000;stroke-width:0.8;" x="599.975996" xlink:href="#m847c155770" y="1617.2"/>
      </g>
     </g>
     <g id="text_1">
      <!-- 0 -->
      <g transform="translate(576.116621 1681.188281)scale(0.75 -0.75)">
       <defs>
        <path d="M 2034 4250 
Q 1547 4250 1301 3770 
Q 1056 3291 1056 2328 
Q 1056 1369 1301 889 
Q 1547 409 2034 409 
Q 2525 409 2770 889 
Q 3016 1369 3016 2328 
Q 3016 3291 2770 3770 
Q 2525 4250 2034 4250 
z
M 2034 4750 
Q 2819 4750 3233 4129 
Q 3647 3509 3647 2328 
Q 3647 1150 3233 529 
Q 2819 -91 2034 -91 
Q 1250 -91 836 529 
Q 422 1150 422 2328 
Q 422 3509 836 4129 
Q 1250 4750 2034 4750 
z
" id="DejaVuSans-30" transform="scale(0.015625)"/>
       </defs>
       <use xlink:href="#DejaVuSans-30"/>
      </g>
     </g>
    </g>
    <g id="xtick_2">
     <g id="line2d_2">
      <g>
       <use style="stroke:#000000;stroke-width:0.8;" x="1004.824156" xlink:href="#m847c155770" y="1617.2"/>
      </g>
     </g>
     <g id="text_2">
      <!-- 5 -->
      <g transform="translate(980.964781 1681.188281)scale(0.75 -0.75)">
       <defs>
        <path d="M 691 4666 
L 3169 4666 
L 3169 4134 
L 1269 4134 
L 1269 2991 
Q 1406 3038 1543 3061 
Q 1681 3084 1819 3084 
Q 2600 3084 3056 2656 
Q 3513 2228 3513 1497 
Q 3513 744 3044 326 
Q 2575 -91 1722 -91 
Q 1428 -91 1123 -41 
Q 819 9 494 109 
L 494 744 
Q 775 591 1075 516 
Q 1375 441 1709 441 
Q 2250 441 2565 725 
Q 2881 1009 2881 1497 
Q 2881 1984 2565 2268 
Q 2250 2553 1709 2553 
Q 1456 2553 1204 2497 
Q 953 2441 691 2322 
L 691 4666 
z
" id="DejaVuSans-35" transform="scale(0.015625)"/>
       </defs>
       <use xlink:href="#DejaVuSans-35"/>
      </g>
     </g>
    </g>
    <g id="xtick_3">
     <g id="line2d_3">
      <g>
       <use style="stroke:#000000;stroke-width:0.8;" x="1409.672316" xlink:href="#m847c155770" y="1617.2"/>
      </g>
     </g>
     <g id="text_3">
      <!-- 10 -->
      <g transform="translate(1361.953566 1681.188281)scale(0.75 -0.75)">
       <defs>
        <path d="M 794 531 
L 1825 531 
L 1825 4091 
L 703 3866 
L 703 4441 
L 1819 4666 
L 2450 4666 
L 2450 531 
L 3481 531 
L 3481 0 
L 794 0 
L 794 531 
z
" id="DejaVuSans-31" transform="scale(0.015625)"/>
       </defs>
       <use xlink:href="#DejaVuSans-31"/>
       <use x="63.623047" xlink:href="#DejaVuSans-30"/>
      </g>
     </g>
    </g>
    <g id="xtick_4">
     <g id="line2d_4">
      <g>
       <use style="stroke:#000000;stroke-width:0.8;" x="1814.520476" xlink:href="#m847c155770" y="1617.2"/>
      </g>
     </g>
     <g id="text_4">
      <!-- 15 -->
      <g transform="translate(1766.801726 1681.188281)scale(0.75 -0.75)">
       <use xlink:href="#DejaVuSans-31"/>
       <use x="63.623047" xlink:href="#DejaVuSans-35"/>
      </g>
     </g>
    </g>
    <g id="xtick_5">
     <g id="line2d_5">
      <g>
       <use style="stroke:#000000;stroke-width:0.8;" x="2219.368635" xlink:href="#m847c155770" y="1617.2"/>
      </g>
     </g>
     <g id="text_5">
      <!-- 20 -->
      <g transform="translate(2171.649885 1681.188281)scale(0.75 -0.75)">
       <defs>
        <path d="M 1228 531 
L 3431 531 
L 3431 0 
L 469 0 
L 469 531 
Q 828 903 1448 1529 
Q 2069 2156 2228 2338 
Q 2531 2678 2651 2914 
Q 2772 3150 2772 3378 
Q 2772 3750 2511 3984 
Q 2250 4219 1831 4219 
Q 1534 4219 1204 4116 
Q 875 4013 500 3803 
L 500 4441 
Q 881 4594 1212 4672 
Q 1544 4750 1819 4750 
Q 2544 4750 2975 4387 
Q 3406 4025 3406 3419 
Q 3406 3131 3298 2873 
Q 3191 2616 2906 2266 
Q 2828 2175 2409 1742 
Q 1991 1309 1228 531 
z
" id="DejaVuSans-32" transform="scale(0.015625)"/>
       </defs>
       <use xlink:href="#DejaVuSans-32"/>
       <use x="63.623047" xlink:href="#DejaVuSans-30"/>
      </g>
     </g>
    </g>
    <g id="text_6">
     <!-- Prague C length (cm) -->
     <g transform="translate(890.535156 1769.171875)scale(0.9 -0.9)">
      <defs>
       <path d="M 1259 4147 
L 1259 2394 
L 2053 2394 
Q 2494 2394 2734 2622 
Q 2975 2850 2975 3272 
Q 2975 3691 2734 3919 
Q 2494 4147 2053 4147 
L 1259 4147 
z
M 628 4666 
L 2053 4666 
Q 2838 4666 3239 4311 
Q 3641 3956 3641 3272 
Q 3641 2581 3239 2228 
Q 2838 1875 2053 1875 
L 1259 1875 
L 1259 0 
L 628 0 
L 628 4666 
z
" id="DejaVuSans-50" transform="scale(0.015625)"/>
       <path d="M 2631 2963 
Q 2534 3019 2420 3045 
Q 2306 3072 2169 3072 
Q 1681 3072 1420 2755 
Q 1159 2438 1159 1844 
L 1159 0 
L 581 0 
L 581 3500 
L 1159 3500 
L 1159 2956 
Q 1341 3275 1631 3429 
Q 1922 3584 2338 3584 
Q 2397 3584 2469 3576 
Q 2541 3569 2628 3553 
L 2631 2963 
z
" id="DejaVuSans-72" transform="scale(0.015625)"/>
       <path d="M 2194 1759 
Q 1497 1759 1228 1600 
Q 959 1441 959 1056 
Q 959 750 1161 570 
Q 1363 391 1709 391 
Q 2188 391 2477 730 
Q 2766 1069 2766 1631 
L 2766 1759 
L 2194 1759 
z
M 3341 1997 
L 3341 0 
L 2766 0 
L 2766 531 
Q 2569 213 2275 61 
Q 1981 -91 1556 -91 
Q 1019 -91 701 211 
Q 384 513 384 1019 
Q 384 1609 779 1909 
Q 1175 2209 1959 2209 
L 2766 2209 
L 2766 2266 
Q 2766 2663 2505 2880 
Q 2244 3097 1772 3097 
Q 1472 3097 1187 3025 
Q 903 2953 641 2809 
L 641 3341 
Q 956 3463 1253 3523 
Q 1550 3584 1831 3584 
Q 2591 3584 2966 3190 
Q 3341 2797 3341 1997 
z
" id="DejaVuSans-61" transform="scale(0.015625)"/>
       <path d="M 2906 1791 
Q 2906 2416 2648 2759 
Q 2391 3103 1925 3103 
Q 1463 3103 1205 2759 
Q 947 2416 947 1791 
Q 947 1169 1205 825 
Q 1463 481 1925 481 
Q 2391 481 2648 825 
Q 2906 1169 2906 1791 
z
M 3481 434 
Q 3481 -459 3084 -895 
Q 2688 -1331 1869 -1331 
Q 1566 -1331 1297 -1286 
Q 1028 -1241 775 -1147 
L 775 -588 
Q 1028 -725 1275 -790 
Q 1522 -856 1778 -856 
Q 2344 -856 2625 -561 
Q 2906 -266 2906 331 
L 2906 616 
Q 2728 306 2450 153 
Q 2172 0 1784 0 
Q 1141 0 747 490 
Q 353 981 353 1791 
Q 353 2603 747 3093 
Q 1141 3584 1784 3584 
Q 2172 3584 2450 3431 
Q 2728 3278 2906 2969 
L 2906 3500 
L 3481 3500 
L 3481 434 
z
" id="DejaVuSans-67" transform="scale(0.015625)"/>
       <path d="M 544 1381 
L 544 3500 
L 1119 3500 
L 1119 1403 
Q 1119 906 1312 657 
Q 1506 409 1894 409 
Q 2359 409 2629 706 
Q 2900 1003 2900 1516 
L 2900 3500 
L 3475 3500 
L 3475 0 
L 2900 0 
L 2900 538 
Q 2691 219 2414 64 
Q 2138 -91 1772 -91 
Q 1169 -91 856 284 
Q 544 659 544 1381 
z
M 1991 3584 
L 1991 3584 
z
" id="DejaVuSans-75" transform="scale(0.015625)"/>
       <path d="M 3597 1894 
L 3597 1613 
L 953 1613 
Q 991 1019 1311 708 
Q 1631 397 2203 397 
Q 2534 397 2845 478 
Q 3156 559 3463 722 
L 3463 178 
Q 3153 47 2828 -22 
Q 2503 -91 2169 -91 
Q 1331 -91 842 396 
Q 353 884 353 1716 
Q 353 2575 817 3079 
Q 1281 3584 2069 3584 
Q 2775 3584 3186 3129 
Q 3597 2675 3597 1894 
z
M 3022 2063 
Q 3016 2534 2758 2815 
Q 2500 3097 2075 3097 
Q 1594 3097 1305 2825 
Q 1016 2553 972 2059 
L 3022 2063 
z
" id="DejaVuSans-65" transform="scale(0.015625)"/>
       <path id="DejaVuSans-20" transform="scale(0.015625)"/>
       <path d="M 4122 4306 
L 4122 3641 
Q 3803 3938 3442 4084 
Q 3081 4231 2675 4231 
Q 1875 4231 1450 3742 
Q 1025 3253 1025 2328 
Q 1025 1406 1450 917 
Q 1875 428 2675 428 
Q 3081 428 3442 575 
Q 3803 722 4122 1019 
L 4122 359 
Q 3791 134 3420 21 
Q 3050 -91 2638 -91 
Q 1578 -91 968 557 
Q 359 1206 359 2328 
Q 359 3453 968 4101 
Q 1578 4750 2638 4750 
Q 3056 4750 3426 4639 
Q 3797 4528 4122 4306 
z
" id="DejaVuSans-43" transform="scale(0.015625)"/>
       <path d="M 603 4863 
L 1178 4863 
L 1178 0 
L 603 0 
L 603 4863 
z
" id="DejaVuSans-6c" transform="scale(0.015625)"/>
       <path d="M 3513 2113 
L 3513 0 
L 2938 0 
L 2938 2094 
Q 2938 2591 2744 2837 
Q 2550 3084 2163 3084 
Q 1697 3084 1428 2787 
Q 1159 2491 1159 1978 
L 1159 0 
L 581 0 
L 581 3500 
L 1159 3500 
L 1159 2956 
Q 1366 3272 1645 3428 
Q 1925 3584 2291 3584 
Q 2894 3584 3203 3211 
Q 3513 2838 3513 2113 
z
" id="DejaVuSans-6e" transform="scale(0.015625)"/>
       <path d="M 1172 4494 
L 1172 3500 
L 2356 3500 
L 2356 3053 
L 1172 3053 
L 1172 1153 
Q 1172 725 1289 603 
Q 1406 481 1766 481 
L 2356 481 
L 2356 0 
L 1766 0 
Q 1100 0 847 248 
Q 594 497 594 1153 
L 594 3053 
L 172 3053 
L 172 3500 
L 594 3500 
L 594 4494 
L 1172 4494 
z
" id="DejaVuSans-74" transform="scale(0.015625)"/>
       <path d="M 3513 2113 
L 3513 0 
L 2938 0 
L 2938 2094 
Q 2938 2591 2744 2837 
Q 2550 3084 2163 3084 
Q 1697 3084 1428 2787 
Q 1159 2491 1159 1978 
L 1159 0 
L 581 0 
L 581 4863 
L 1159 4863 
L 1159 2956 
Q 1366 3272 1645 3428 
Q 1925 3584 2291 3584 
Q 2894 3584 3203 3211 
Q 3513 2838 3513 2113 
z
" id="DejaVuSans-68" transform="scale(0.015625)"/>
       <path d="M 1984 4856 
Q 1566 4138 1362 3434 
Q 1159 2731 1159 2009 
Q 1159 1288 1364 580 
Q 1569 -128 1984 -844 
L 1484 -844 
Q 1016 -109 783 600 
Q 550 1309 550 2009 
Q 550 2706 781 3412 
Q 1013 4119 1484 4856 
L 1984 4856 
z
" id="DejaVuSans-28" transform="scale(0.015625)"/>
       <path d="M 3122 3366 
L 3122 2828 
Q 2878 2963 2633 3030 
Q 2388 3097 2138 3097 
Q 1578 3097 1268 2742 
Q 959 2388 959 1747 
Q 959 1106 1268 751 
Q 1578 397 2138 397 
Q 2388 397 2633 464 
Q 2878 531 3122 666 
L 3122 134 
Q 2881 22 2623 -34 
Q 2366 -91 2075 -91 
Q 1284 -91 818 406 
Q 353 903 353 1747 
Q 353 2603 823 3093 
Q 1294 3584 2113 3584 
Q 2378 3584 2631 3529 
Q 2884 3475 3122 3366 
z
" id="DejaVuSans-63" transform="scale(0.015625)"/>
       <path d="M 3328 2828 
Q 3544 3216 3844 3400 
Q 4144 3584 4550 3584 
Q 5097 3584 5394 3201 
Q 5691 2819 5691 2113 
L 5691 0 
L 5113 0 
L 5113 2094 
Q 5113 2597 4934 2840 
Q 4756 3084 4391 3084 
Q 3944 3084 3684 2787 
Q 3425 2491 3425 1978 
L 3425 0 
L 2847 0 
L 2847 2094 
Q 2847 2600 2669 2842 
Q 2491 3084 2119 3084 
Q 1678 3084 1418 2786 
Q 1159 2488 1159 1978 
L 1159 0 
L 581 0 
L 581 3500 
L 1159 3500 
L 1159 2956 
Q 1356 3278 1631 3431 
Q 1906 3584 2284 3584 
Q 2666 3584 2933 3390 
Q 3200 3197 3328 2828 
z
" id="DejaVuSans-6d" transform="scale(0.015625)"/>
       <path d="M 513 4856 
L 1013 4856 
Q 1481 4119 1714 3412 
Q 1947 2706 1947 2009 
Q 1947 1309 1714 600 
Q 1481 -109 1013 -844 
L 513 -844 
Q 928 -128 1133 580 
Q 1338 1288 1338 2009 
Q 1338 2731 1133 3434 
Q 928 4138 513 4856 
z
" id="DejaVuSans-29" transform="scale(0.015625)"/>
      </defs>
      <use xlink:href="#DejaVuSans-50"/>
      <use x="58.552734" xlink:href="#DejaVuSans-72"/>
      <use x="99.666016" xlink:href="#DejaVuSans-61"/>
      <use x="160.945312" xlink:href="#DejaVuSans-67"/>
      <use x="224.421875" xlink:href="#DejaVuSans-75"/>
      <use x="287.800781" xlink:href="#DejaVuSans-65"/>
      <use x="349.324219" xlink:href="#DejaVuSans-20"/>
      <use x="381.111328" xlink:href="#DejaVuSans-43"/>
      <use x="450.935547" xlink:href="#DejaVuSans-20"/>
      <use x="482.722656" xlink:href="#DejaVuSans-6c"/>
      <use x="510.505859" xlink:href="#DejaVuSans-65"/>
      <use x="572.029297" xlink:href="#DejaVuSans-6e"/>
      <use x="635.408203" xlink:href="#DejaVuSans-67"/>
      <use x="698.884766" xlink:href="#DejaVuSans-74"/>
      <use x="738.09375" xlink:href="#DejaVuSans-68"/>
      <use x="801.472656" xlink:href="#DejaVuSans-20"/>
      <use x="833.259766" xlink:href="#DejaVuSans-28"/>
      <use x="872.273438" xlink:href="#DejaVuSans-63"/>
      <use x="927.253906" xlink:href="#DejaVuSans-6d"/>
      <use x="1024.666016" xlink:href="#DejaVuSans-29"/>
     </g>
    </g>
   </g>
   <g id="matplotlib.axis_2">
    <g id="ytick_1">
     <g id="line2d_6">
      <defs>
       <path d="M 0 0 
L -3.5 0 
" id="mea015130eb" style="stroke:#000000;stroke-width:0.8;"/>
      </defs>
      <g>
       <use style="stroke:#000000;stroke-width:0.8;" x="229.175" xlink:href="#mea015130eb" y="1617.2"/>
      </g>
     </g>
     <g id="text_7">
      <!-- 0.0 -->
      <g transform="translate(102.901562 1645.694141)scale(0.75 -0.75)">
       <defs>
        <path d="M 684 794 
L 1344 794 
L 1344 0 
L 684 0 
L 684 794 
z
" id="DejaVuSans-2e" transform="scale(0.015625)"/>
       </defs>
       <use xlink:href="#DejaVuSans-30"/>
       <use x="63.623047" xlink:href="#DejaVuSans-2e"/>
       <use x="95.410156" xlink:href="#DejaVuSans-30"/>
      </g>
     </g>
    </g>
    <g id="ytick_2">
     <g id="line2d_7">
      <g>
       <use style="stroke:#000000;stroke-width:0.8;" x="229.175" xlink:href="#mea015130eb" y="1270.625062"/>
      </g>
     </g>
     <g id="text_8">
      <!-- 0.1 -->
      <g transform="translate(102.901562 1299.119202)scale(0.75 -0.75)">
       <use xlink:href="#DejaVuSans-30"/>
       <use x="63.623047" xlink:href="#DejaVuSans-2e"/>
       <use x="95.410156" xlink:href="#DejaVuSans-31"/>
      </g>
     </g>
    </g>
    <g id="ytick_3">
     <g id="line2d_8">
      <g>
       <use style="stroke:#000000;stroke-width:0.8;" x="229.175" xlink:href="#mea015130eb" y="924.050123"/>
      </g>
     </g>
     <g id="text_9">
      <!-- 0.2 -->
      <g transform="translate(102.901562 952.544264)scale(0.75 -0.75)">
       <use xlink:href="#DejaVuSans-30"/>
       <use x="63.623047" xlink:href="#DejaVuSans-2e"/>
       <use x="95.410156" xlink:href="#DejaVuSans-32"/>
      </g>
     </g>
    </g>
    <g id="ytick_4">
     <g id="line2d_9">
      <g>
       <use style="stroke:#000000;stroke-width:0.8;" x="229.175" xlink:href="#mea015130eb" y="577.475185"/>
      </g>
     </g>
     <g id="text_10">
      <!-- 0.3 -->
      <g transform="translate(102.901562 605.969325)scale(0.75 -0.75)">
       <defs>
        <path d="M 2597 2516 
Q 3050 2419 3304 2112 
Q 3559 1806 3559 1356 
Q 3559 666 3084 287 
Q 2609 -91 1734 -91 
Q 1441 -91 1130 -33 
Q 819 25 488 141 
L 488 750 
Q 750 597 1062 519 
Q 1375 441 1716 441 
Q 2309 441 2620 675 
Q 2931 909 2931 1356 
Q 2931 1769 2642 2001 
Q 2353 2234 1838 2234 
L 1294 2234 
L 1294 2753 
L 1863 2753 
Q 2328 2753 2575 2939 
Q 2822 3125 2822 3475 
Q 2822 3834 2567 4026 
Q 2313 4219 1838 4219 
Q 1578 4219 1281 4162 
Q 984 4106 628 3988 
L 628 4550 
Q 988 4650 1302 4700 
Q 1616 4750 1894 4750 
Q 2613 4750 3031 4423 
Q 3450 4097 3450 3541 
Q 3450 3153 3228 2886 
Q 3006 2619 2597 2516 
z
" id="DejaVuSans-33" transform="scale(0.015625)"/>
       </defs>
       <use xlink:href="#DejaVuSans-30"/>
       <use x="63.623047" xlink:href="#DejaVuSans-2e"/>
       <use x="95.410156" xlink:href="#DejaVuSans-33"/>
      </g>
     </g>
    </g>
    <g id="ytick_5">
     <g id="line2d_10">
      <g>
       <use style="stroke:#000000;stroke-width:0.8;" x="229.175" xlink:href="#mea015130eb" y="230.900246"/>
      </g>
     </g>
     <g id="text_11">
      <!-- 0.4 -->
      <g transform="translate(102.901562 259.394387)scale(0.75 -0.75)">
       <defs>
        <path d="M 2419 4116 
L 825 1625 
L 2419 1625 
L 2419 4116 
z
M 2253 4666 
L 3047 4666 
L 3047 1625 
L 3713 1625 
L 3713 1100 
L 3047 1100 
L 3047 0 
L 2419 0 
L 2419 1100 
L 313 1100 
L 313 1709 
L 2253 4666 
z
" id="DejaVuSans-34" transform="scale(0.015625)"/>
       </defs>
       <use xlink:href="#DejaVuSans-30"/>
       <use x="63.623047" xlink:href="#DejaVuSans-2e"/>
       <use x="95.410156" xlink:href="#DejaVuSans-34"/>
      </g>
     </g>
    </g>
    <g id="text_12">
     <!-- Density -->
     <g transform="translate(80.184375 985.077344)rotate(-90)scale(0.9 -0.9)">
      <defs>
       <path d="M 1259 4147 
L 1259 519 
L 2022 519 
Q 2988 519 3436 956 
Q 3884 1394 3884 2338 
Q 3884 3275 3436 3711 
Q 2988 4147 2022 4147 
L 1259 4147 
z
M 628 4666 
L 1925 4666 
Q 3281 4666 3915 4102 
Q 4550 3538 4550 2338 
Q 4550 1131 3912 565 
Q 3275 0 1925 0 
L 628 0 
L 628 4666 
z
" id="DejaVuSans-44" transform="scale(0.015625)"/>
       <path d="M 2834 3397 
L 2834 2853 
Q 2591 2978 2328 3040 
Q 2066 3103 1784 3103 
Q 1356 3103 1142 2972 
Q 928 2841 928 2578 
Q 928 2378 1081 2264 
Q 1234 2150 1697 2047 
L 1894 2003 
Q 2506 1872 2764 1633 
Q 3022 1394 3022 966 
Q 3022 478 2636 193 
Q 2250 -91 1575 -91 
Q 1294 -91 989 -36 
Q 684 19 347 128 
L 347 722 
Q 666 556 975 473 
Q 1284 391 1588 391 
Q 1994 391 2212 530 
Q 2431 669 2431 922 
Q 2431 1156 2273 1281 
Q 2116 1406 1581 1522 
L 1381 1569 
Q 847 1681 609 1914 
Q 372 2147 372 2553 
Q 372 3047 722 3315 
Q 1072 3584 1716 3584 
Q 2034 3584 2315 3537 
Q 2597 3491 2834 3397 
z
" id="DejaVuSans-73" transform="scale(0.015625)"/>
       <path d="M 603 3500 
L 1178 3500 
L 1178 0 
L 603 0 
L 603 3500 
z
M 603 4863 
L 1178 4863 
L 1178 4134 
L 603 4134 
L 603 4863 
z
" id="DejaVuSans-69" transform="scale(0.015625)"/>
       <path d="M 2059 -325 
Q 1816 -950 1584 -1140 
Q 1353 -1331 966 -1331 
L 506 -1331 
L 506 -850 
L 844 -850 
Q 1081 -850 1212 -737 
Q 1344 -625 1503 -206 
L 1606 56 
L 191 3500 
L 800 3500 
L 1894 763 
L 2988 3500 
L 3597 3500 
L 2059 -325 
z
" id="DejaVuSans-79" transform="scale(0.015625)"/>
      </defs>
      <use xlink:href="#DejaVuSans-44"/>
      <use x="77.001953" xlink:href="#DejaVuSans-65"/>
      <use x="138.525391" xlink:href="#DejaVuSans-6e"/>
      <use x="201.904297" xlink:href="#DejaVuSans-73"/>
      <use x="254.003906" xlink:href="#DejaVuSans-69"/>
      <use x="281.787109" xlink:href="#DejaVuSans-74"/>
      <use x="320.996094" xlink:href="#DejaVuSans-79"/>
     </g>
    </g>
   </g>
   <g id="patch_3">
    <path d="M 229.175 1617.2 
L 229.175 10.8 
" style="fill:none;stroke:#000000;stroke-linecap:square;stroke-linejoin:miter;stroke-width:0.8;"/>
   </g>
   <g id="patch_4">
    <path d="M 2509.2 1617.2 
L 2509.2 10.8 
" style="fill:none;stroke:#000000;stroke-linecap:square;stroke-linejoin:miter;stroke-width:0.8;"/>
   </g>
   <g id="patch_5">
    <path d="M 229.175 1617.2 
L 2509.2 1617.2 
" style="fill:none;stroke:#000000;stroke-linecap:square;stroke-linejoin:miter;stroke-width:0.8;"/>
   </g>
   <g id="patch_6">
    <path d="M 229.175 10.8 
L 2509.2 10.8 
" style="fill:none;stroke:#000000;stroke-linecap:square;stroke-linejoin:miter;stroke-width:0.8;"/>
   </g>
   <g id="legend_1">
    <g id="patch_7">
     <path d="M 1976.711719 290.971875 
L 2456.7 290.971875 
Q 2471.7 290.971875 2471.7 275.971875 
L 2471.7 63.3 
Q 2471.7 48.3 2456.7 48.3 
L 1976.711719 48.3 
Q 1961.711719 48.3 1961.711719 63.3 
L 1961.711719 275.971875 
Q 1961.711719 290.971875 1976.711719 290.971875 
z
" style="fill:#ffffff;opacity:0.8;stroke:#cccccc;stroke-linejoin:miter;"/>
    </g>
    <g id="patch_8">
     <path d="M 1991.711719 135.288281 
L 2141.711719 135.288281 
L 2141.711719 82.788281 
L 1991.711719 82.788281 
z
" style="fill:#ff0000;fill-opacity:0.25;stroke:#ff0000;stroke-linejoin:miter;stroke-width:5;"/>
    </g>
    <g id="text_13">
     <!-- BEST2 -->
     <g transform="translate(2201.711719 135.288281)scale(0.75 -0.75)">
      <defs>
       <path d="M 1259 2228 
L 1259 519 
L 2272 519 
Q 2781 519 3026 730 
Q 3272 941 3272 1375 
Q 3272 1813 3026 2020 
Q 2781 2228 2272 2228 
L 1259 2228 
z
M 1259 4147 
L 1259 2741 
L 2194 2741 
Q 2656 2741 2882 2914 
Q 3109 3088 3109 3444 
Q 3109 3797 2882 3972 
Q 2656 4147 2194 4147 
L 1259 4147 
z
M 628 4666 
L 2241 4666 
Q 2963 4666 3353 4366 
Q 3744 4066 3744 3513 
Q 3744 3084 3544 2831 
Q 3344 2578 2956 2516 
Q 3422 2416 3680 2098 
Q 3938 1781 3938 1306 
Q 3938 681 3513 340 
Q 3088 0 2303 0 
L 628 0 
L 628 4666 
z
" id="DejaVuSans-42" transform="scale(0.015625)"/>
       <path d="M 628 4666 
L 3578 4666 
L 3578 4134 
L 1259 4134 
L 1259 2753 
L 3481 2753 
L 3481 2222 
L 1259 2222 
L 1259 531 
L 3634 531 
L 3634 0 
L 628 0 
L 628 4666 
z
" id="DejaVuSans-45" transform="scale(0.015625)"/>
       <path d="M 3425 4513 
L 3425 3897 
Q 3066 4069 2747 4153 
Q 2428 4238 2131 4238 
Q 1616 4238 1336 4038 
Q 1056 3838 1056 3469 
Q 1056 3159 1242 3001 
Q 1428 2844 1947 2747 
L 2328 2669 
Q 3034 2534 3370 2195 
Q 3706 1856 3706 1288 
Q 3706 609 3251 259 
Q 2797 -91 1919 -91 
Q 1588 -91 1214 -16 
Q 841 59 441 206 
L 441 856 
Q 825 641 1194 531 
Q 1563 422 1919 422 
Q 2459 422 2753 634 
Q 3047 847 3047 1241 
Q 3047 1584 2836 1778 
Q 2625 1972 2144 2069 
L 1759 2144 
Q 1053 2284 737 2584 
Q 422 2884 422 3419 
Q 422 4038 858 4394 
Q 1294 4750 2059 4750 
Q 2388 4750 2728 4690 
Q 3069 4631 3425 4513 
z
" id="DejaVuSans-53" transform="scale(0.015625)"/>
       <path d="M -19 4666 
L 3928 4666 
L 3928 4134 
L 2272 4134 
L 2272 0 
L 1638 0 
L 1638 4134 
L -19 4134 
L -19 4666 
z
" id="DejaVuSans-54" transform="scale(0.015625)"/>
      </defs>
      <use xlink:href="#DejaVuSans-42"/>
      <use x="68.603516" xlink:href="#DejaVuSans-45"/>
      <use x="131.787109" xlink:href="#DejaVuSans-53"/>
      <use x="195.263672" xlink:href="#DejaVuSans-54"/>
      <use x="256.347656" xlink:href="#DejaVuSans-32"/>
     </g>
    </g>
    <g id="patch_9">
     <path d="M 1991.711719 245.374219 
L 2141.711719 245.374219 
L 2141.711719 192.874219 
L 1991.711719 192.874219 
z
" style="fill:#0000ff;fill-opacity:0.25;stroke:#0000ff;stroke-linejoin:miter;stroke-width:5;"/>
    </g>
    <g id="text_14">
     <!-- BEST3 -->
     <g transform="translate(2201.711719 245.374219)scale(0.75 -0.75)">
      <use xlink:href="#DejaVuSans-42"/>
      <use x="68.603516" xlink:href="#DejaVuSans-45"/>
      <use x="131.787109" xlink:href="#DejaVuSans-53"/>
      <use x="195.263672" xlink:href="#DejaVuSans-54"/>
      <use x="256.347656" xlink:href="#DejaVuSans-33"/>
     </g>
    </g>
   </g>
  </g>
 </g>
 <defs>
  <clipPath id="pcf08cbc43c">
   <rect height="1606.4" width="2280.025" x="229.175" y="10.8"/>
  </clipPath>
 </defs>
</svg>
